<svg width="118" height="98" viewBox="0 0 118 98" fill="none" xmlns="http://www.w3.org/2000/svg">
<path d="M35.1313 2.03856C35.1313 2.03856 49.1764 -2.88686 59.9914 7.22633C58.9154 19.0688 55.2934 19.3311 55.2934 19.3311L35.1313 2.03856Z" fill="url(#paint0_linear_12_4324)" stroke="white" stroke-width="0.4532" stroke-miterlimit="10"/>
<path d="M66.1474 3.19614C57.2094 7.66543 51.8894 16.5997 51.0284 27.1209C50.4934 33.6696 51.1634 41.531 50.8674 48.0968C50.7724 50.1944 50.5204 52.308 49.8224 54.2696C48.3254 58.4798 44.6854 61.7327 40.5504 62.5583C36.9394 63.2789 30.2853 64.098 28.0693 69.8137C26.6053 73.587 27.0394 77.659 29.5774 80.7096C32.1154 83.7612 35.7954 85.5568 39.5644 86.1961C41.2704 86.4852 43.0724 86.5216 44.7704 86.1789C43.4954 84.0278 42.4964 81.7482 42.0634 79.2416C37.6084 77.3967 36.3864 72.5762 40.1704 69.9015C42.2964 68.3992 44.9243 68.0448 47.4443 67.6443C54.2723 66.5597 61.5784 64.2415 65.5104 58.1661C68.4074 53.6893 68.9354 47.9394 68.7994 42.4947C68.6634 37.0499 67.9624 31.5634 68.7674 26.1851C69.5724 20.8067 72.2484 15.3491 76.9174 13.1862C79.6894 11.9024 82.8064 11.9163 85.8174 11.6636C88.8284 11.4109 90.8574 11.3863 93.0344 9.14413C86.8504 0.916523 75.0844 -1.27315 66.1474 3.19614Z" fill="url(#paint1_linear_12_4324)" stroke="white" stroke-width="0.4532" stroke-miterlimit="10"/>
<path d="M42.8254 41.7493C41.7864 39.5789 38.9314 39.3968 36.7254 40.0072C32.2054 41.2567 28.2414 44.6456 26.1024 49.0882C25.1964 50.9705 24.6074 53.0189 23.6384 54.8648C21.2984 59.3245 16.4204 62.3451 11.7044 61.5302C8.83241 61.0334 6.31043 59.9262 4.91843 57.2173C3.98743 55.4056 3.47543 48.8858 6.72843 49.6685C7.28242 49.8013 7.66242 50.4791 7.63342 51.0862C7.94842 50.3356 7.69342 49.3912 7.11542 48.8483C6.53742 48.3054 5.69842 48.1448 4.94742 48.3215C3.52142 48.6577 2.42743 50.1097 1.80643 51.4481C0.814428 53.5853 0.846398 56.1133 1.3194 58.4433C3.3644 68.5104 14.0084 69.8071 17.4654 69.6197C20.1844 69.473 22.9544 69.0501 25.2864 67.5457C28.1444 65.7008 30.1794 62.6845 31.7584 59.5354C33.3364 56.3864 34.5394 53.0285 36.2034 49.9308C37.8694 46.831 39.8254 43.3168 42.8254 41.7493Z" fill="url(#paint2_linear_12_4324)" stroke="white" stroke-width="0.4532" stroke-miterlimit="10"/>
<path d="M43.0914 41.9676C40.2384 40.5884 36.1574 41.8862 33.9994 44.3157C31.8424 46.7463 30.4384 49.874 29.4874 53.0691C26.3054 63.7658 20.3134 65.8345 17.2724 66.039C14.4324 66.2285 11.5544 65.721 8.9224 64.5657C5.9874 63.2776 3.6124 61.0665 2.8144 57.7793C1.8164 53.6697 3.8804 47.8995 6.4134 49.5559" stroke="white" stroke-width="0.2936" stroke-miterlimit="10"/>
<g opacity="0.3">
<path d="M1.80748 51.4464C2.42848 50.108 3.5225 48.6571 4.9485 48.3198C5.6995 48.1432 6.5385 48.3038 7.1165 48.8467C7.6945 49.3895 7.94947 50.3339 7.63447 51.0845C7.66247 50.4774 7.28247 49.7996 6.72947 49.6668C6.65747 49.6486 6.58748 49.6401 6.51948 49.6294C3.93948 47.7406 1.80347 53.6125 2.81547 57.7788C3.61447 61.066 5.98947 63.2771 8.92347 64.5652C11.5555 65.7205 14.4335 66.2291 17.2735 66.0385C20.3145 65.8351 26.3065 63.7654 29.4885 53.0686C30.4395 49.8735 31.8425 46.7448 34.0005 44.3153C36.0655 41.9885 39.8905 40.7068 42.7175 41.8108C39.7795 43.4062 37.8505 46.869 36.2065 49.9281C34.5425 53.0268 33.3395 56.3836 31.7615 59.5327C30.1835 62.6818 28.1485 65.6991 25.2895 67.5429C22.9575 69.0473 20.1865 69.4692 17.4685 69.617C14.0115 69.8044 3.36649 68.5066 1.32249 58.4405C0.84749 56.1117 0.815475 53.5836 1.80748 51.4464Z" fill="url(#paint3_linear_12_4324)"/>
</g>
<path d="M12.7225 38.4494C12.3635 37.4578 11.4825 36.9803 11.5875 35.6954C11.6845 34.5229 12.3255 34.0282 12.3255 34.0282C12.3255 34.0282 11.8115 33.0507 11.8115 32.0506C11.8115 31.3717 12.8165 30.9102 13.5125 30.5044C13.8405 30.3128 13.7685 29.0675 13.7685 29.0675C13.7685 29.0675 11.9165 26.8253 12.3255 25.4826C12.5935 24.6068 17.9515 23.4182 20.0685 18.435C21.1375 15.9069 21.3855 11.7749 23.6035 9.22656C26.4625 5.94151 34.5835 1.95513 45.0145 5.64171C59.0585 10.6035 61.8925 31.6234 50.4875 43.9155C44.8525 54.8307 55.1215 65.8262 55.1215 65.8262C55.1215 65.8262 55.3765 66.0318 55.8125 66.4151C51.9255 66.1934 48.0365 66.3134 44.1715 66.9355C39.9045 67.6218 35.7585 68.8874 31.6905 70.3951C31.8795 69.4035 31.9925 68.4035 31.9925 67.3905C31.9925 57.726 29.6115 51.5424 24.3145 48.5722C18.3285 45.2111 13.3935 47.7552 11.9085 44.8278C11.1555 43.3437 13.0745 39.4419 12.7225 38.4494Z" fill="url(#paint4_linear_12_4324)" stroke="white" stroke-width="0.4532" stroke-miterlimit="10"/>
<path d="M43.3695 8.99121C45.0845 9.1272 46.7995 9.26318 48.5155 9.39917C49.1885 9.4527 49.8735 9.50946 50.4985 9.78035C51.5815 10.2493 52.3425 11.2976 52.9725 12.3501C57.5815 20.0574 57.7285 29.9982 55.7395 38.9004C53.7525 47.8015 49.8515 56.0548 46.7555 64.5854C45.6535 67.621 44.6375 70.8193 44.9185 74.0615C45.2005 77.3037 47.1255 80.5995 50.0875 81.3372C52.3345 81.8972 54.8595 80.7719 56.0715 78.67C57.2845 76.5692 57.0935 73.6471 55.6215 71.7466C58.7885 72.9693 60.2095 76.627 60.5705 80.2119C60.9015 83.5023 60.7285 86.9779 59.2495 89.885C57.6685 92.9923 54.7085 95.1327 51.5235 96.0803C48.3385 97.0279 44.9435 96.878 41.6975 96.212C36.0155 95.046 30.2525 91.9194 27.7495 86.3344C25.5555 81.4368 26.3015 75.4802 28.5815 70.6276C30.8615 65.775 34.5075 61.8325 38.2215 58.1331C40.3785 55.9841 42.5905 53.8747 44.4405 51.4184C48.8555 45.5561 50.9835 37.7686 50.1725 30.2883C49.3755 22.943 45.9305 16.2434 42.1205 10.0759C42.4275 9.71825 43.0615 9.34563 43.3695 8.99121Z" fill="url(#paint5_linear_12_4324)" stroke="white" stroke-width="0.4532" stroke-miterlimit="10"/>
<path d="M42.5995 9.59277C45.0705 9.43002 47.4685 10.8498 49.0825 12.8607C50.6955 14.8705 51.6215 17.4114 52.2675 19.9704C54.1545 27.4432 53.8545 35.5294 51.4215 42.818C47.5965 54.2771 38.7355 63.6504 36.9385 75.6663C36.4675 78.8101 36.5205 82.0962 37.5125 85.0975C38.5045 88.0977 40.4745 90.8731 43.2165 92.1023C50.3825 95.3135 63.5965 86.9295 56.5485 72.362" stroke="white" stroke-width="0.4404" stroke-miterlimit="10"/>
<path d="M32.8383 23.6278C32.1703 21.1416 27.1553 16.7729 22.4883 18.3619" stroke="white" stroke-width="0.5597" stroke-miterlimit="10"/>
<path d="M28.8895 24.3386C28.5375 25.2016 29.4115 25.6364 30.1015 25.2862C29.6115 25.7467 29.1955 25.9319 28.7215 25.903C28.2475 25.873 28.1505 25.7306 27.7165 25.5721C27.6675 25.8751 28.0485 26.3056 28.5765 26.3816C27.8205 26.6161 25.9715 27.1675 23.5275 25.8794C22.2525 25.2081 21.7695 24.2091 21.5405 23.4745C21.3235 22.7796 21.3425 20.5857 20.8955 20.4839C21.9165 20.2794 21.3055 22.4081 22.1185 23.6469C23.1545 25.2273 24.9455 25.6299 25.8855 25.6524C27.0975 25.6803 28.0575 24.9725 28.8895 24.3386Z" fill="white"/>
<path d="M75.6733 42.5872C76.7123 40.4168 79.5673 40.2347 81.7733 40.8451C86.2933 42.0946 90.2574 45.4835 92.3964 49.926C93.3024 51.8084 93.8914 53.8568 94.8604 55.7027C97.2004 60.1624 102.078 63.1829 106.794 62.3681C109.666 61.8713 112.188 60.7641 113.58 58.0541C114.511 56.2424 115.023 49.7226 111.77 50.5053C111.216 50.6381 110.836 51.3169 110.865 51.9241C110.55 51.1735 110.805 50.228 111.383 49.6862C111.961 49.1433 112.8 48.9827 113.551 49.1594C114.977 49.4956 116.071 50.9465 116.692 52.286C117.684 54.4232 117.652 56.9512 117.178 59.2811C115.134 69.3483 104.489 70.645 101.032 70.4576C98.3133 70.3098 95.5434 69.888 93.2114 68.3836C90.3534 66.5387 88.3183 63.5213 86.7393 60.3722C85.1613 57.2232 83.9583 53.8653 82.2943 50.7677C80.6303 47.6689 78.6733 44.1537 75.6733 42.5872Z" fill="url(#paint6_linear_12_4324)" stroke="white" stroke-width="0.4532" stroke-miterlimit="10"/>
<path d="M75.4084 42.8056C78.2624 41.4254 82.3424 42.7232 84.5004 45.1538C86.6574 47.5843 88.0615 50.712 89.0125 53.9071C92.1945 64.6039 98.1864 66.6736 101.227 66.877C104.067 67.0666 106.945 66.559 109.577 65.4037C112.512 64.1145 114.887 61.9045 115.685 58.6173C116.683 54.5078 114.619 48.7365 112.086 50.3929" stroke="white" stroke-width="0.2936" stroke-miterlimit="10"/>
<g opacity="0.3">
<path d="M116.691 52.2853C116.07 50.9458 114.977 49.496 113.551 49.1587C112.8 48.982 111.961 49.1426 111.383 49.6855C110.805 50.2284 110.55 51.1728 110.865 51.9234C110.837 51.3163 111.216 50.6385 111.77 50.5046C111.841 50.4875 111.911 50.4779 111.979 50.4671C114.559 48.5784 116.696 54.4503 115.684 58.6166C114.885 61.9038 112.509 64.1138 109.576 65.403C106.944 66.5583 104.065 67.0658 101.225 66.8763C98.1845 66.6729 92.1925 64.6031 89.0105 53.9064C88.0595 50.7113 86.6555 47.5836 84.4985 45.153C82.4335 42.8274 78.6085 41.5446 75.7815 42.6496C78.7175 44.245 80.6485 47.7068 82.2925 50.767C83.9565 53.8646 85.1595 57.2225 86.7375 60.3715C88.3155 63.5206 90.3505 66.538 93.2095 68.3829C95.5415 69.8862 98.3125 70.3091 101.031 70.4569C104.488 70.6443 115.133 69.3465 117.177 59.2805C117.652 56.9505 117.683 54.4214 116.691 52.2853Z" fill="url(#paint7_linear_12_4324)"/>
</g>
<path d="M105.777 39.2876C106.136 38.2951 107.017 37.8186 106.912 36.5337C106.816 35.3623 106.174 34.8676 106.174 34.8676C106.174 34.8676 106.688 33.8889 106.688 32.8899C106.688 32.21 105.683 31.7496 104.987 31.3438C104.659 31.1521 104.731 29.9068 104.731 29.9068C104.731 29.9068 106.582 27.6636 106.174 26.322C105.907 25.4461 100.548 24.2576 98.4306 19.2743C97.3616 16.7463 97.1136 12.6132 94.8956 10.0659C92.0356 6.78087 83.9156 2.79448 73.4846 6.48106C59.4406 11.4429 56.6066 32.4627 68.0116 44.7549C73.6466 55.6701 63.3776 66.6655 63.3776 66.6655C63.3776 66.6655 63.1226 66.8711 62.6866 67.2545C66.5736 67.0328 70.4626 67.1527 74.3276 67.7748C78.5946 68.4612 82.7406 69.7268 86.8086 71.2344C86.6186 70.244 86.5056 69.2428 86.5056 68.2299C86.5056 58.5664 88.8876 52.3818 94.1846 49.4115C100.171 46.0505 105.106 48.5946 106.591 45.6661C107.344 44.182 105.425 40.2802 105.777 39.2876Z" fill="url(#paint8_linear_12_4324)" stroke="white" stroke-width="0.4532" stroke-miterlimit="10"/>
<path d="M75.1305 9.82861C73.4155 9.9646 71.7005 10.1006 69.9845 10.2366C69.3115 10.2901 68.6265 10.3469 68.0015 10.6178C66.9185 11.0878 66.1575 12.135 65.5275 13.1875C60.9185 20.8948 60.7725 30.8356 62.7595 39.7378C64.7465 48.6389 68.6475 56.8922 71.7435 65.4228C72.8455 68.4573 73.8615 71.6556 73.5805 74.8989C73.2985 78.1411 71.3735 81.438 68.4115 82.1746C66.1645 82.7346 63.6395 81.6093 62.4265 79.5074C61.2145 77.4055 61.4055 74.4845 62.8775 72.5829C59.7105 73.8057 58.2895 77.4633 57.9285 81.0482C57.5975 84.3386 57.7705 87.8142 59.2495 90.7202C60.8305 93.8275 63.7905 95.968 66.9755 96.9166C70.1595 97.8643 73.5555 97.7133 76.8015 97.0473C82.4835 95.8823 88.2465 92.7547 90.7495 87.1696C92.9435 82.2721 92.1975 76.3155 89.9175 71.4629C87.6375 66.6113 83.9915 62.6688 80.2775 58.9683C78.1205 56.8194 75.9085 54.7089 74.0585 52.2537C69.6435 46.3914 67.5155 38.6038 68.3265 31.1236C69.1235 23.7783 72.5685 17.0786 76.3785 10.9111C76.0715 10.5567 75.4375 10.1841 75.1305 9.82861Z" fill="url(#paint9_linear_12_4324)" stroke="white" stroke-width="0.4532" stroke-miterlimit="10"/>
<path d="M75.8995 10.4307C73.4285 10.2679 71.0305 11.6877 69.4165 13.6975C67.8025 15.7073 66.8775 18.2482 66.2315 20.8073C64.3445 28.28 64.6445 36.3663 67.0775 43.6548C70.9025 55.114 79.7635 64.4873 81.5605 76.5032C82.0315 79.6469 81.9785 82.933 80.9865 85.9332C79.9945 88.9345 78.0245 91.7099 75.2825 92.938C68.1165 96.1492 54.9025 87.7642 61.9505 73.1978" stroke="white" stroke-width="0.4404" stroke-miterlimit="10"/>
<path d="M93.9906 8.20941C91.1266 4.28834 78.2706 -1.95089 67.6316 6.76284C60.6116 12.5127 58.6506 21.9674 58.8556 31.4296C59.0616 40.8907 63.7876 49.431 69.1926 56.9198C72.0456 60.8719 74.2516 65.0425 76.8686 69.1777C80.3096 74.6171 83.8226 85.059 77.2136 89.5358C74.4076 91.4353 69.1556 91.5862 68.2166 87.3236C67.8346 85.5933 68.7466 83.5621 70.3356 83.046C68.1506 83.2933 66.2206 85.4005 66.0796 87.7476C65.6556 94.8274 72.4346 95.9774 74.6176 96.2418C79.9316 96.8875 85.9746 95.7182 89.6676 91.174C94.0646 85.7625 94.2416 78.2447 91.6586 72.0269C88.1926 63.6826 80.7906 56.9615 79.1346 53.7461C75.3696 46.4383 74.3466 36.7202 74.4486 28.5075C74.4776 26.1037 74.6396 23.6806 75.2596 21.37C76.2386 17.7283 77.5246 13.0331 80.2546 10.7364C83.9146 7.65798 89.5996 6.5519 93.9906 8.20941Z" fill="url(#paint10_linear_12_4324)" stroke="white" stroke-width="0.4532" stroke-miterlimit="10"/>
<path d="M92.9276 7.05617C71.4436 -2.6769 64.0877 16.1168 63.4177 23.3133C61.6557 42.2291 73.7687 53.8628 79.1067 61.7274C82.1787 66.2524 84.0927 71.3502 85.1807 76.9213C86.6337 84.3587 84.7697 94.2556 76.9827 96.5898" stroke="white" stroke-width="0.4404" stroke-miterlimit="10"/>
<g opacity="0.3">
<path d="M79.1327 53.7461C75.3677 46.4383 74.3447 36.7202 74.4467 28.5076C74.4757 26.1038 74.6377 23.6807 75.2577 21.37C76.2367 17.7284 77.5227 13.0332 80.2527 10.7364C83.9137 7.65802 89.5997 6.55087 93.9897 8.20838C93.7197 7.84005 93.3627 7.4503 92.9267 7.05519C71.4427 -2.67789 64.0867 16.1158 63.4167 23.3134C61.6547 42.2292 73.7677 53.8628 79.1057 61.7275C82.1777 66.2524 84.0917 71.3503 85.1797 76.9214C86.5977 84.1778 84.8537 93.7738 77.5337 96.4025C82.0257 96.3554 86.6367 94.9013 89.6647 91.174C94.0617 85.7625 94.2387 78.2448 91.6557 72.027C88.1917 63.6826 80.7897 56.9616 79.1327 53.7461Z" fill="url(#paint11_linear_12_4324)" stroke="white" stroke-width="0.4532" stroke-miterlimit="10"/>
</g>
<path d="M93.2825 7.91879C91.8825 6.27198 89.5675 6.0482 87.4875 6.04177C84.3865 6.03214 81.2175 6.27734 78.3595 7.56544C73.8735 9.58915 70.6245 14.0274 68.8465 18.8811C67.0705 23.7348 66.5995 29.0135 66.3565 34.2195C66.1535 38.5721 66.0965 42.9322 66.1865 47.2901C66.2555 50.6887 66.3845 54.251 64.9835 57.3016C63.2645 61.0438 59.4755 63.3106 55.6335 63.9959C52.9655 64.4713 49.9105 64.1511 48.0725 62.0268C46.8505 60.6145 46.3755 58.6379 46.1825 56.7244C46.0155 55.0637 46.1065 53.1749 47.2425 52.0303C48.3795 50.8857 50.7835 51.4253 50.8125 53.0957C51.7505 51.3268 50.3815 49.3224 48.5145 48.9508C46.6465 48.5793 44.5025 49.2924 43.2525 50.8236C39.8365 55.0113 40.0085 61.7869 42.9095 66.3986C47.4855 73.6711 56.7925 74.0641 59.6205 73.8103C64.5735 73.3671 69.3495 70.9407 72.8025 67.1128C76.2545 63.2849 78.3535 58.0886 78.5945 52.7734C78.7795 48.6981 77.9145 44.6646 77.1405 40.6708C75.7405 33.4518 74.6245 25.8816 76.4905 18.7858C77.4995 14.9504 79.4735 11.2638 82.5825 9.07412C85.6935 6.88124 90.2395 5.62525 93.2825 7.91879Z" fill="url(#paint12_linear_12_4324)" stroke="white" stroke-width="0.4532" stroke-miterlimit="10"/>
<path d="M77.0124 11.6315C74.1594 15.0536 72.6803 19.5775 72.0353 24.1132C71.3893 28.6489 71.5134 33.2627 71.4774 37.8508C71.4364 43.2196 72.0594 49.4877 70.9044 54.7269C68.4084 66.0457 61.5774 68.3842 58.5154 68.9592C55.0893 69.6038 51.0214 69.2847 48.0174 67.3124C45.3864 65.5853 43.5163 62.7339 42.7563 59.5452C42.1063 56.8138 42.2414 53.9227 42.9724 51.2063C39.8614 55.4143 40.0953 61.9223 42.9113 66.398C47.4873 73.6705 56.7943 74.0635 59.6223 73.8097C64.5753 73.3664 69.3514 70.9401 72.8044 67.1122C76.2564 63.2843 78.3553 58.0879 78.5963 52.7728C78.7813 48.6975 77.9164 44.664 77.1424 40.6701C75.7424 33.4512 74.6263 25.881 76.4923 18.7852C77.5013 14.9497 79.4753 11.2632 82.5844 9.07349C84.1934 7.93957 86.1893 7.06156 88.1613 6.79066C84.0383 6.17177 79.7964 8.29506 77.0124 11.6315Z" fill="url(#paint13_linear_12_4324)" stroke="white" stroke-width="0.4532" stroke-miterlimit="10"/>
<path opacity="0.3" d="M77.0124 11.6315C74.1594 15.0536 72.6803 19.5775 72.0353 24.1132C71.3893 28.6489 71.5134 33.2627 71.4774 37.8508C71.4364 43.2196 72.0594 49.4877 70.9044 54.7269C68.4084 66.0457 61.5774 68.3842 58.5154 68.9592C55.0893 69.6038 51.0214 69.2847 48.0174 67.3124C45.3864 65.5853 43.5163 62.7339 42.7563 59.5452C42.1063 56.8138 42.2414 53.9227 42.9724 51.2063C39.8614 55.4143 40.0953 61.9223 42.9113 66.398C47.4873 73.6705 56.7943 74.0635 59.6223 73.8097C64.5753 73.3664 69.3514 70.9401 72.8044 67.1122C76.2564 63.2843 78.3553 58.0879 78.5963 52.7728C78.7813 48.6975 77.9164 44.664 77.1424 40.6701C75.7424 33.4512 74.6263 25.881 76.4923 18.7852C77.5013 14.9497 79.4753 11.2632 82.5844 9.07349C84.1934 7.93957 86.1893 7.06156 88.1613 6.79066C84.0383 6.17177 79.7964 8.29506 77.0124 11.6315Z" fill="url(#paint14_linear_12_4324)" stroke="white" stroke-width="0.4532" stroke-miterlimit="10"/>
<path d="M96.0106 11.6268C93.3936 8.6673 88.0376 8.14156 84.6326 9.9629C81.2276 11.7853 79.3156 14.1024 79.2256 18.1766C79.1176 23.041 81.1586 27.552 83.6496 31.623C86.1406 35.694 88.3326 40.0498 88.9236 44.8746C89.8816 52.6824 84.3386 55.8529 78.8106 54.7575C77.0766 54.4138 72.9856 52.9962 73.3766 48.0183C73.5246 46.1359 75.1346 44.3199 76.8786 44.6058C73.4006 50.4553 80.4186 51.7712 82.8706 49.7208C84.2806 48.5419 84.9626 45.1754 83.6226 42.8155C81.1526 38.4651 76.1986 35.8385 73.1066 31.971C64.9956 21.8225 71.8836 6.54829 85.1946 5.70562C90.1045 5.3951 95.1966 7.95953 96.0106 11.6268Z" fill="url(#paint15_linear_12_4324)" stroke="white" stroke-width="0.4532" stroke-miterlimit="10"/>
<path d="M95.6085 10.6805C91.9675 7.76701 87.1195 6.65664 82.6845 7.71989C81.3255 8.0454 79.9965 8.56899 78.8275 9.37955C76.4945 10.9974 74.9095 13.7289 74.3925 16.6531C73.8745 19.5773 74.3865 22.6632 75.6325 25.324C76.3265 26.8081 77.2375 28.1615 78.1445 29.5074C79.2455 31.1425 80.3455 32.7775 81.4465 34.4125C83.1645 36.9641 84.9075 39.5682 85.8185 42.5577C86.7285 45.5472 86.6885 49.04 84.9995 51.6119C83.6825 53.6174 81.4155 54.8659 79.1265 54.8488" stroke="white" stroke-width="0.2936" stroke-miterlimit="10"/>
<path d="M85.6604 24.4663C86.3284 21.9789 91.3434 17.6114 96.0114 19.2003" stroke="white" stroke-width="0.5597" stroke-miterlimit="10"/>
<path d="M89.6095 25.1751C89.9595 26.0381 89.0875 26.4728 88.3975 26.1227C88.8875 26.5831 89.3025 26.7694 89.7775 26.7394C90.2515 26.7094 90.3485 26.567 90.7825 26.4086C90.8315 26.7116 90.4505 27.1431 89.9235 27.218C90.6785 27.4525 92.5265 28.004 94.9715 26.7159C96.2465 26.0445 96.7295 25.0455 96.9585 24.311C97.1755 23.616 97.1555 21.4221 97.6035 21.3204C96.5825 21.1159 97.1935 23.2445 96.3805 24.4834C95.3445 26.0638 93.5535 26.4664 92.6135 26.4889C91.4015 26.5178 90.4415 25.81 89.6095 25.1751Z" fill="white"/>
<path d="M24.5083 7.37006C27.3723 3.44899 40.2283 -2.79024 50.8673 5.92348C57.8893 11.6734 59.8493 21.1291 59.6433 30.5903C59.4373 40.0524 54.7113 48.5916 49.3063 56.0804C46.4543 60.0325 44.2473 64.2031 41.6303 68.3383C38.1893 73.7777 34.6763 84.2196 41.2853 88.6964C44.0913 90.5959 49.3433 90.7469 50.2823 86.4853C50.6643 84.755 49.7523 82.7238 48.1633 82.2077C50.3483 82.4561 52.2783 84.5623 52.4193 86.9093C52.8423 93.9891 46.0643 95.1391 43.8813 95.4036C38.5673 96.0503 32.5243 94.88 28.8313 90.3357C24.4343 84.9242 24.2573 77.4065 26.8403 71.1886C30.3063 62.8454 37.7083 56.1233 39.3643 52.9089C43.1293 45.601 44.1523 35.8819 44.0503 27.6693C44.0213 25.2654 43.8593 22.8423 43.2393 20.5317C42.2603 16.8901 40.9743 12.1948 38.2443 9.89916C34.5853 6.8197 28.8993 5.71362 24.5083 7.37006Z" fill="url(#paint16_linear_12_4324)" stroke="white" stroke-width="0.4532" stroke-miterlimit="10"/>
<path d="M25.5713 6.21828C47.0543 -3.51479 54.4113 15.2789 55.0813 22.4754C56.8433 41.3923 44.7303 53.0249 39.3933 60.8895C36.3213 65.4145 34.4073 70.5123 33.3193 76.0844C31.8663 83.5208 33.7303 93.4187 41.5173 95.753" stroke="white" stroke-width="0.4404" stroke-miterlimit="10"/>
<g opacity="0.3">
<path d="M39.3663 52.9092C43.1313 45.6014 44.1543 35.8822 44.0523 27.6696C44.0233 25.2658 43.8613 22.8427 43.2413 20.532C42.2623 16.8904 40.9763 12.1952 38.2463 9.89951C34.5853 6.82111 28.8993 5.71396 24.5093 7.37148C24.7793 7.00314 25.1363 6.61339 25.5723 6.21828C47.0563 -3.51479 54.4123 15.2789 55.0823 22.4754C56.8443 41.3923 44.7313 53.0249 39.3943 60.8895C36.3223 65.4145 34.4083 70.5123 33.3203 76.0844C31.9023 83.3409 33.6463 92.9369 40.9653 95.5656C36.4733 95.5185 31.8633 94.0644 28.8343 90.3371C24.4373 84.9256 24.2603 77.4079 26.8433 71.1901C30.3073 62.8457 37.7103 56.1236 39.3663 52.9092Z" fill="url(#paint17_linear_12_4324)" stroke="white" stroke-width="0.4532" stroke-miterlimit="10"/>
</g>
<path d="M25.2163 7.07992C26.6163 5.43311 28.9313 5.20933 31.0113 5.2029C34.1123 5.19327 37.2813 5.43847 40.1393 6.72658C44.6253 8.75029 47.8743 13.1885 49.6523 18.0422C51.4283 22.8959 51.8993 28.1736 52.1423 33.3806C52.3453 37.7332 52.4023 42.0933 52.3123 46.4502C52.2433 49.8487 52.1143 53.4111 53.5153 56.4627C55.2343 60.205 59.0233 62.4717 62.8653 63.157C65.5333 63.6324 68.5883 63.3134 70.4263 61.1879C71.6483 59.7756 72.1233 57.8001 72.3163 55.8856C72.4833 54.2238 72.3923 52.3361 71.2563 51.1914C70.1193 50.0468 67.7153 50.5865 67.6863 52.2568C66.7483 50.4869 68.1173 48.4824 69.9843 48.112C71.8523 47.7404 73.9963 48.4525 75.2463 49.9847C78.6613 54.1724 78.4903 60.9481 75.5893 65.5587C71.0133 72.8312 61.7063 73.2242 58.8783 72.9715C53.9253 72.5282 49.1493 70.1008 45.6963 66.2729C42.2443 62.445 40.1453 57.2486 39.9043 51.9335C39.7193 47.8593 40.5843 43.8247 41.3583 39.8308C42.7583 32.6129 43.8743 25.0417 42.0073 17.9459C40.9983 14.1104 39.0253 10.4228 35.9153 8.23312C32.8053 6.04451 28.2593 4.78745 25.2163 7.07992Z" fill="url(#paint18_linear_12_4324)" stroke="white" stroke-width="0.4532" stroke-miterlimit="10"/>
<path d="M41.4864 10.7929C44.3394 14.215 45.8184 18.7389 46.4634 23.2746C47.1084 27.8102 46.9854 32.4241 47.0214 37.0122C47.0624 42.382 46.4394 48.6502 47.5944 53.8883C50.0894 65.2071 56.9214 67.5456 59.9824 68.1217C63.4094 68.7663 67.4774 68.4472 70.4814 66.4749C73.1124 64.7478 74.9824 61.8964 75.7424 58.7066C76.3924 55.9762 76.2574 53.0841 75.5264 50.3676C78.6374 54.5757 78.4034 61.0837 75.5874 65.5583C71.0114 72.8308 61.7044 73.2238 58.8764 72.9711C53.9234 72.5278 49.1474 70.1004 45.6944 66.2725C42.2424 62.4446 40.1434 57.2482 39.9024 51.9331C39.7174 47.8589 40.5824 43.8243 41.3564 39.8304C42.7564 32.6125 43.8724 25.0413 42.0054 17.9455C40.9964 14.1101 39.0234 10.4224 35.9134 8.23273C34.3044 7.09881 32.3094 6.2208 30.3364 5.95097C34.4614 5.33315 38.7034 7.45644 41.4864 10.7929Z" fill="url(#paint19_linear_12_4324)" stroke="white" stroke-width="0.4532" stroke-miterlimit="10"/>
<path opacity="0.3" d="M41.4864 10.7929C44.3394 14.215 45.8184 18.7389 46.4634 23.2746C47.1084 27.8102 46.9854 32.4241 47.0214 37.0122C47.0624 42.382 46.4394 48.6502 47.5944 53.8883C50.0894 65.2071 56.9214 67.5456 59.9824 68.1217C63.4094 68.7663 67.4774 68.4472 70.4814 66.4749C73.1124 64.7478 74.9824 61.8964 75.7424 58.7066C76.3924 55.9762 76.2574 53.0841 75.5264 50.3676C78.6374 54.5757 78.4034 61.0837 75.5874 65.5583C71.0114 72.8308 61.7044 73.2238 58.8764 72.9711C53.9234 72.5278 49.1474 70.1004 45.6944 66.2725C42.2424 62.4446 40.1434 57.2482 39.9024 51.9331C39.7174 47.8589 40.5824 43.8243 41.3564 39.8304C42.7564 32.6125 43.8724 25.0413 42.0054 17.9455C40.9964 14.1101 39.0234 10.4224 35.9134 8.23273C34.3044 7.09881 32.3094 6.2208 30.3364 5.95097C34.4614 5.33315 38.7034 7.45644 41.4864 10.7929Z" fill="url(#paint20_linear_12_4324)" stroke="white" stroke-width="0.4532" stroke-miterlimit="10"/>
<path d="M22.4883 10.79C25.1063 7.83048 30.4613 7.30474 33.8663 9.12608C37.2713 10.9474 39.1833 13.2645 39.2743 17.3398C39.3813 22.2042 37.3403 26.7152 34.8493 30.7862C32.3583 34.8572 30.1663 39.213 29.5753 44.0377C28.6173 51.8456 34.1603 55.0161 39.6883 53.9207C41.4223 53.577 45.5133 52.1594 45.1223 47.1815C44.9743 45.2991 43.3643 43.482 41.6203 43.7679C45.0973 49.6174 38.0803 50.9333 35.6283 48.8839C34.2183 47.705 33.5363 44.3376 34.8763 41.9776C37.3463 37.6272 42.3003 35.0006 45.3923 31.1331C53.5033 20.9846 46.6153 5.7104 33.3043 4.86772C28.3943 4.55721 23.3023 7.12164 22.4883 10.79Z" fill="url(#paint21_linear_12_4324)" stroke="white" stroke-width="0.4532" stroke-miterlimit="10"/>
<path d="M22.8904 9.84209C26.5314 6.92859 31.3794 5.81823 35.8144 6.88041C37.1734 7.20591 38.5024 7.73058 39.6704 8.54113C42.0034 10.159 43.5884 12.8905 44.1064 15.8147C44.6244 18.7389 44.1124 21.8237 42.8664 24.4845C42.1724 25.9686 41.2624 27.322 40.3544 28.669C39.2534 30.304 38.1534 31.9391 37.0524 33.5741C35.3344 36.1257 33.5914 38.7297 32.6804 41.7193C31.7704 44.7098 31.8104 48.2016 33.4994 50.7735C34.8164 52.779 37.0834 54.0275 39.3724 54.0114" stroke="white" stroke-width="0.2936" stroke-miterlimit="10"/>
<path d="M55.9553 50.0796C58.2313 50.6064 60.4913 50.615 62.7323 50.0796" stroke="white" stroke-width="0.5873" stroke-miterlimit="10"/>
<path d="M62.7323 56.9379C60.4563 56.4111 58.1963 56.4025 55.9553 56.9379" stroke="white" stroke-width="0.5873" stroke-miterlimit="10"/>
<path d="M57.7092 56.5961L57.7352 50.3354" stroke="white" stroke-width="0.5873" stroke-miterlimit="10"/>
<path d="M60.7654 56.5961L60.7924 50.3354" stroke="white" stroke-width="0.5873" stroke-miterlimit="10"/>
<defs>
<linearGradient id="paint0_linear_12_4324" x1="48.2226" y1="-21.9876" x2="45.3653" y2="78.4469" gradientUnits="userSpaceOnUse">
<stop stop-color="#21D1FF"/>
<stop offset="1" stop-color="#993CFE"/>
</linearGradient>
<linearGradient id="paint1_linear_12_4324" x1="61.7015" y1="-21.6044" x2="58.844" y2="78.8317" gradientUnits="userSpaceOnUse">
<stop stop-color="#21D1FF"/>
<stop offset="1" stop-color="#993CFE"/>
</linearGradient>
<linearGradient id="paint2_linear_12_4324" x1="23.6802" y1="-22.6862" x2="20.8229" y2="77.7499" gradientUnits="userSpaceOnUse">
<stop stop-color="#21D1FF"/>
<stop offset="1" stop-color="#993CFE"/>
</linearGradient>
<linearGradient id="paint3_linear_12_4324" x1="23.6264" y1="-22.6874" x2="20.769" y2="77.7488" gradientUnits="userSpaceOnUse">
<stop stop-color="#21D1FF"/>
<stop offset="1" stop-color="#993CFE"/>
</linearGradient>
<linearGradient id="paint4_linear_12_4324" x1="35.886" y1="-22.339" x2="33.0287" y2="78.0973" gradientUnits="userSpaceOnUse">
<stop stop-color="#21D1FF"/>
<stop offset="1" stop-color="#993CFE"/>
</linearGradient>
<linearGradient id="paint5_linear_12_4324" x1="46.1414" y1="-22.0467" x2="43.2841" y2="78.389" gradientUnits="userSpaceOnUse">
<stop stop-color="#21D1FF"/>
<stop offset="1" stop-color="#993CFE"/>
</linearGradient>
<linearGradient id="paint6_linear_12_4324" x1="98.3247" y1="-20.5635" x2="95.4673" y2="79.8732" gradientUnits="userSpaceOnUse">
<stop stop-color="#21D1FF"/>
<stop offset="1" stop-color="#993CFE"/>
</linearGradient>
<linearGradient id="paint7_linear_12_4324" x1="98.3803" y1="-20.5611" x2="95.523" y2="79.8752" gradientUnits="userSpaceOnUse">
<stop stop-color="#21D1FF"/>
<stop offset="1" stop-color="#993CFE"/>
</linearGradient>
<linearGradient id="paint8_linear_12_4324" x1="85.2594" y1="-20.9342" x2="82.4021" y2="79.5014" gradientUnits="userSpaceOnUse">
<stop stop-color="#21D1FF"/>
<stop offset="1" stop-color="#993CFE"/>
</linearGradient>
<linearGradient id="paint9_linear_12_4324" x1="77.4894" y1="-21.1552" x2="74.632" y2="79.2811" gradientUnits="userSpaceOnUse">
<stop stop-color="#21D1FF"/>
<stop offset="1" stop-color="#993CFE"/>
</linearGradient>
<linearGradient id="paint10_linear_12_4324" x1="77.9812" y1="-21.1412" x2="75.1238" y2="79.2947" gradientUnits="userSpaceOnUse">
<stop stop-color="#21D1FF"/>
<stop offset="1" stop-color="#993CFE"/>
</linearGradient>
<linearGradient id="paint11_linear_12_4324" x1="80.1459" y1="-21.0795" x2="77.2885" y2="79.3567" gradientUnits="userSpaceOnUse">
<stop stop-color="#21D1FF"/>
<stop offset="1" stop-color="#993CFE"/>
</linearGradient>
<linearGradient id="paint12_linear_12_4324" x1="68.3523" y1="-21.4157" x2="65.4949" y2="79.0207" gradientUnits="userSpaceOnUse">
<stop stop-color="#21D1FF"/>
<stop offset="1" stop-color="#993CFE"/>
</linearGradient>
<linearGradient id="paint13_linear_12_4324" x1="65.783" y1="-21.4883" x2="62.9257" y2="78.9479" gradientUnits="userSpaceOnUse">
<stop stop-color="#21D1FF"/>
<stop offset="1" stop-color="#993CFE"/>
</linearGradient>
<linearGradient id="paint14_linear_12_4324" x1="65.783" y1="-21.4883" x2="62.9257" y2="78.9479" gradientUnits="userSpaceOnUse">
<stop stop-color="#21D1FF"/>
<stop offset="1" stop-color="#993CFE"/>
</linearGradient>
<linearGradient id="paint15_linear_12_4324" x1="83.7551" y1="-20.977" x2="80.8977" y2="79.4585" gradientUnits="userSpaceOnUse">
<stop stop-color="#21D1FF"/>
<stop offset="1" stop-color="#993CFE"/>
</linearGradient>
<linearGradient id="paint16_linear_12_4324" x1="43.0969" y1="-22.1336" x2="40.2395" y2="78.3029" gradientUnits="userSpaceOnUse">
<stop stop-color="#21D1FF"/>
<stop offset="1" stop-color="#993CFE"/>
</linearGradient>
<linearGradient id="paint17_linear_12_4324" x1="40.8545" y1="-22.197" x2="37.9971" y2="78.2395" gradientUnits="userSpaceOnUse">
<stop stop-color="#21D1FF"/>
<stop offset="1" stop-color="#993CFE"/>
</linearGradient>
<linearGradient id="paint18_linear_12_4324" x1="52.8494" y1="-21.8559" x2="49.9921" y2="78.5805" gradientUnits="userSpaceOnUse">
<stop stop-color="#21D1FF"/>
<stop offset="1" stop-color="#993CFE"/>
</linearGradient>
<linearGradient id="paint19_linear_12_4324" x1="55.3913" y1="-21.784" x2="52.5338" y2="78.6523" gradientUnits="userSpaceOnUse">
<stop stop-color="#21D1FF"/>
<stop offset="1" stop-color="#993CFE"/>
</linearGradient>
<linearGradient id="paint20_linear_12_4324" x1="55.3913" y1="-21.784" x2="52.5338" y2="78.6523" gradientUnits="userSpaceOnUse">
<stop stop-color="#21D1FF"/>
<stop offset="1" stop-color="#993CFE"/>
</linearGradient>
<linearGradient id="paint21_linear_12_4324" x1="36.6357" y1="-22.3174" x2="33.7782" y2="78.1188" gradientUnits="userSpaceOnUse">
<stop stop-color="#21D1FF"/>
<stop offset="1" stop-color="#993CFE"/>
</linearGradient>
</defs>
</svg>
