<!-- icon666.com - MILLIONS vector ICONS FREE --><svg id="Layer_1" enable-background="new 0 0 68 68" viewBox="0 0 68 68" xmlns="http://www.w3.org/2000/svg"><g><path d="m61.69 17.885c-2.38 0-4.32 1.94-4.32 4.31 0 .44.08.84.2 1.24l-6.18 3.55-.08-4.73c2.05-.34 3.61-2.1 3.61-4.23 0-2.38-1.93-4.32-4.31-4.32s-4.32 1.94-4.32 4.32c0 .82.25 1.58.65 2.23l-4.69 4.59-4.81-8.26c.83-.78 1.35-1.88 1.35-3.11 0-2.3799-1.94-4.31-4.32-4.31s-4.31 1.9301-4.31 4.31c0 1.23.52 2.33 1.34 3.11l-4.81 8.26-3.95-3.8701c.35-.62.57-1.33.57-2.09 0-2.38-1.94-4.31-4.32-4.31s-4.32 1.93-4.32 4.31c0 1.9 1.24 3.49 2.95 4.07l-.07 4.03-7.11-4.08c.11-.39.19-.78.19-1.2 0-2.38-1.9301-4.31-4.3101-4.31-2.3799.0001-4.3199 1.9301-4.3199 4.3101s1.94 4.31 4.3199 4.31c.02 0 .03-.01.05-.01l5.6 22.27v6.78c0 2.08 1.7 3.78 3.79 3.78h3.8701c.55 0 1-.45 1-1s-.45-1-1-1h-3.8701c-.99 0-1.79-.8-1.79-1.78v-5.92h41v5.92c0 .98-.8 1.78-1.79 1.78h-29.2c-.55 0-1 .45-1 1s.45 1 1 1h29.2c2.09 0 3.79-1.7 3.79-3.78v-6.81l5.49-21.82c2.01-.36 3.54-2.11 3.54-4.23.0001-2.37-1.93-4.31-4.3099-4.31zm-11.08-2.18c1.27 0 2.31 1.04 2.31 2.32 0 1.27-1.04 2.3-2.31 2.3-1.28 0-2.32-1.03-2.32-2.3 0-1.28 1.04-2.32 2.32-2.32zm-2.26 5.97c.3.18.62.32.96.43l.1 6.02-3.94 2.26-2.18-3.76zm-13.88-10.51c1.28 0 2.32 1.04 2.32 2.31 0 1.28-1.04 2.3101-2.32 2.3101-1.27 0-2.31-1.03-2.31-2.3101 0-1.27 1.04-2.31 2.31-2.31zm-8.81 15.46-2.19 3.76-3.93-2.26.08-4.99c.65-.1 1.26-.32 1.78-.67zm-8.99-7.74c0-1.27 1.04-2.31 2.32-2.31s2.32 1.04 2.32 2.31c0 1.28-1.04 2.31-2.32 2.31s-2.32-1.03-2.32-2.31zm-10.3501 5.13c-1.2799 0-2.3199-1.04-2.3199-2.31 0-1.28 1.04-2.31 2.3199-2.31 1.27 0 2.3101 1.03 2.3101 2.31 0 1.27-1.04 2.31-2.3101 2.31zm48.8601 23.12h-41.43l-5.44-21.63c.43-.23.82-.51 1.15-.86l13.87 7.97c.48.28 1.09.12 1.36-.36l8.55-14.67c.39.12.8.2 1.23.2.44 0 .85-.08 1.24-.2l8.54 14.67c.27.48.88.64 1.36.36l12.96-7.45c.51.53 1.14.91 1.86 1.13zm6.51-22.63c-1.28 0-2.32-1.03-2.32-2.31 0-1.27 1.04-2.31 2.32-2.31 1.27 0 2.31 1.04 2.31 2.31 0 1.28-1.04 2.31-2.31 2.31z" fill="#000000" style="fill: rgb(255, 255, 255);"></path><path d="m34.4673 27.631c-2.7607 0-5.0063 2.9272-5.0063 6.5254s2.2456 6.5254 5.0063 6.5254c2.7642 0 5.0127-2.9272 5.0127-6.5254s-2.2486-6.5254-5.0127-6.5254zm0 11.0508c-1.6294 0-3.0063-2.0723-3.0063-4.5254s1.377-4.5254 3.0063-4.5254c1.6328 0 3.0127 2.0723 3.0127 4.5254s-1.3799 4.5254-3.0127 4.5254z" fill="#000000" style="fill: rgb(255, 255, 255);"></path></g></svg>