<svg width="95" height="128" viewBox="0 0 95 128" fill="none" xmlns="http://www.w3.org/2000/svg">
<path d="M46.0341 96.8088C47.642 96.6924 49.1587 96.0518 50.64 95.4181C54.4409 93.7946 58.2704 92.1535 61.6806 89.822C65.0918 87.4904 68.0976 84.395 69.6437 80.573C70.8845 77.505 71.1309 74.1358 72.039 70.9544C72.947 67.7729 74.7895 64.5446 77.9004 63.3905C79.2815 62.8771 80.9405 62.8604 82.1313 63.725C83.322 64.5905 83.7618 66.4849 82.7841 67.5842C84.3449 67.5451 85.6142 65.9597 85.8753 64.4262C86.1354 62.8927 85.4532 61.2996 84.3459 60.2032C83.2386 59.1069 81.7543 58.4575 80.2406 58.0761C77.0827 57.28 73.4309 57.6888 71.0573 59.9118C68.5728 62.2394 68.027 65.8864 66.9226 69.103C65.5218 73.1832 63.0107 76.8801 59.7291 79.6918C56.8214 82.1828 53.3523 83.9716 50.5212 86.5486C47.6911 89.1256 45.2723 93.065 46.0341 96.8088Z" fill="url(#paint0_linear_12_4275)" stroke="white" stroke-width="0.5713" stroke-miterlimit="10"/>
<path d="M20.2443 96.6675C15.2075 97.6866 9.45599 97.1692 4.96396 87.3658C2.10638 81.13 1.17086 73.1515 3.20484 66.6038C4.51534 62.3847 6.2244 58.8776 8.11211 54.8815C9.99982 50.8854 11.5047 46.5225 11.0463 42.1293C10.9942 41.6296 10.6114 38.6907 7.09905 38.7161C6.18415 38.7229 5.14949 39.0027 4.82554 39.8555C5.85824 37.9024 8.2623 37.0799 10.4327 37.521C12.6031 37.9621 14.4113 39.5738 15.4715 41.5112C16.5317 43.4486 16.9214 45.6853 17.0225 47.8897C17.1158 49.9191 16.9783 51.9582 16.6132 53.9563C16.2784 55.7871 15.7552 57.5778 15.3253 59.3891C12.9614 69.3568 13.5004 79.9897 16.8615 89.6699C17.7362 92.1844 18.1072 95.0734 20.2443 96.6675Z" fill="url(#paint1_linear_12_4275)" stroke="white" stroke-width="0.5713" stroke-miterlimit="10"/>
<path d="M44.2536 85.979C46.0834 87.2739 46.9521 89.5908 47.063 91.8245C47.173 94.0583 46.6331 96.2666 46.1678 98.4544C45.5798 101.22 45.1037 104.057 45.4296 106.866C45.7545 109.675 46.9757 112.487 49.2364 114.195C50.3584 115.043 51.6886 115.589 53.054 115.932C55.3619 116.512 64.5511 115.698 60.2338 109.287C61.8202 109.386 63.2004 110.56 63.8728 111.994C64.5462 113.43 64.5344 115.119 64.0789 116.636C63.1611 119.693 60.543 122.039 57.5834 123.257C46.0225 128.013 31.5432 117.806 35.9095 103.273C36.795 100.325 40.1031 98.7292 41.7641 96.1346C43.8786 92.8328 45.3834 89.7316 44.2536 85.979Z" fill="url(#paint2_linear_12_4275)" stroke="white" stroke-width="0.5713" stroke-miterlimit="10"/>
<path d="M44.7335 86.7944C46.0391 89.4957 46.1137 92.5314 45.2989 95.393C44.1405 99.4605 41.8769 103.068 41.4557 107.356C41.2643 109.306 41.2408 111.562 42.0722 113.376C44.8051 119.34 52.6848 120.901 58.4893 119.133C60.1179 118.637 61.4519 117.755 62.2294 116.177C63.2385 114.131 62.517 111.812 61.182 110.098C61.0318 109.906 60.8747 109.718 60.7137 109.535" stroke="white" stroke-width="0.5713" stroke-miterlimit="10"/>
<path d="M21.1485 85.979C19.3187 87.2739 18.4489 89.5908 18.339 91.8245C18.2281 94.0583 18.7689 96.2666 19.2333 98.4544C19.8213 101.22 20.2974 104.057 19.9725 106.866C19.6465 109.675 18.4254 112.487 16.1656 114.195C15.0436 115.043 13.7135 115.589 12.349 115.932C10.0411 116.512 0.851898 115.698 5.16919 109.287C3.58284 109.386 2.20264 110.56 1.52923 111.994C0.856798 113.43 0.867605 115.119 1.32309 116.636C2.24093 119.693 4.85898 122.039 7.81865 123.257C19.3795 128.013 33.8588 117.806 29.4935 103.273C28.608 100.325 25.2989 98.7292 23.6389 96.1346C21.5225 92.8328 20.0176 89.7316 21.1485 85.979Z" fill="url(#paint3_linear_12_4275)" stroke="white" stroke-width="0.5713" stroke-miterlimit="10"/>
<path d="M20.6683 86.7944C19.3627 89.4957 19.2881 92.5314 20.1029 95.393C21.2612 99.4605 23.5249 103.068 23.946 107.356C24.1374 109.306 24.16 111.562 23.3296 113.376C20.5966 119.34 12.717 120.901 6.91247 119.133C5.28391 118.637 3.94985 117.755 3.1714 116.177C2.16227 114.131 2.88476 111.812 4.21882 110.098C4.36901 109.906 4.52607 109.718 4.68805 109.535" stroke="white" stroke-width="0.5713" stroke-miterlimit="10"/>
<path d="M44.8848 123.176C44.2055 122.916 43.6155 122.59 43.1384 122.166C37.8679 117.48 41.3096 103.616 41.3096 103.616H23.8873C23.8873 103.616 28.1339 116.894 22.0575 122.166C21.6776 122.496 21.2211 122.76 20.7126 122.986C24.9023 129.363 41.2831 128.694 44.8848 123.176Z" fill="url(#paint4_linear_12_4275)" stroke="white" stroke-width="0.5713" stroke-miterlimit="10"/>
<path d="M49.584 89.3077C52.4052 88.9018 55.1656 88.0812 57.7483 86.8802C59.0471 86.2778 62.3719 84.7013 64.4677 80.6651C66.5537 76.6474 67.2762 71.7633 65.5681 67.5716C64.3215 64.5144 61.9606 62.0733 59.8559 59.5246C57.7513 56.9769 55.789 54.0566 55.6191 50.7607C55.2589 54.3197 55.9686 57.8493 55.3011 61.3632C54.6188 64.9525 52.4602 68.0576 50.4831 71.1354C48.5061 74.2122 46.6066 77.5628 46.5556 81.2157C46.5173 83.9443 47.7159 87.3135 49.584 89.3077Z" fill="url(#paint5_linear_12_4275)" stroke="white" stroke-width="0.5713" stroke-miterlimit="10"/>
<path d="M50.8365 89.4701C51.1565 88.3787 52.2 87.5356 53.3387 87.4515C54.4774 87.3664 55.6348 88.0442 56.1139 89.078C56.3868 89.6657 56.4476 90.3308 56.4143 90.9772C56.321 92.7611 55.5474 94.4345 54.7287 96.0247C53.6823 98.0589 52.4592 100.131 50.5008 101.323C50.2416 101.48 49.9619 101.624 49.6595 101.648C48.9792 101.704 48.4128 101.168 47.9446 100.672L50.8365 89.4701Z" fill="url(#paint6_linear_12_4275)" stroke="white" stroke-width="0.5713" stroke-miterlimit="10"/>
<path d="M15.3753 89.4701C15.0553 88.3787 14.0118 87.5356 12.873 87.4515C11.7343 87.3664 10.577 88.0442 10.0979 89.078C9.82601 89.6657 9.76417 90.3308 9.79754 90.9772C9.8908 92.7611 10.6643 94.4345 11.483 96.0247C12.5295 98.0589 13.7526 100.131 15.711 101.323C15.9711 101.48 16.2499 101.624 16.5523 101.648C17.2325 101.704 17.799 101.168 18.2672 100.672L15.3753 89.4701Z" fill="url(#paint7_linear_12_4275)" stroke="white" stroke-width="0.5713" stroke-miterlimit="10"/>
<path d="M13.1019 86.9096C13.1019 86.9096 8.87787 49.9304 32.0065 40.9622C55.1361 31.9929 51.6729 36.8223 51.6729 36.8223L57.0739 70.49L29.6515 88.2896L13.1019 86.9096Z" fill="url(#paint8_linear_12_4275)" stroke="white" stroke-width="0.5713" stroke-miterlimit="10"/>
<path d="M17.0795 82.6292C12.8211 68.1411 20.8206 53.7615 29.4777 44.7033C33.9825 39.9903 40.0835 36.713 43.4751 31.1511C46.3964 26.3599 46.8971 20.5046 46.8637 14.8977C46.8509 12.7589 46.7587 10.5584 45.8889 8.60235C45.0192 6.64733 43.1992 4.97006 41.0553 4.87323C38.9104 4.77641 36.7341 6.75979 37.1405 8.86054C35.2263 8.34024 35.4874 5.05906 36.6653 3.46785C39.9666 -0.988899 45.2862 0.362694 47.3771 0.908418C50.3407 1.68202 52.8331 3.92163 54.5392 6.45759C56.2443 8.99257 57.2329 11.9412 57.9406 14.9105C59.2099 20.2298 59.6408 25.7966 58.6955 31.1834C57.7502 36.5692 55.3756 41.7703 51.5491 45.6901C49.416 47.8749 46.8843 49.6246 44.4057 51.4114C39.84 54.7033 24.3516 60.6907 28.018 78.6741C28.2595 79.8565 28.4215 81.4849 27.2759 81.879C26.8979 82.0091 26.4817 81.9377 26.091 81.8507C24.5145 81.4976 18.4833 83.4252 17.0795 82.6292Z" fill="url(#paint9_linear_12_4275)" stroke="white" stroke-width="0.5713" stroke-miterlimit="10"/>
<path d="M36.9206 8.54433C36.1461 6.71743 37.0452 4.4465 38.714 3.36484C45.5071 -1.03617 50.7667 9.42747 51.3861 14.5639C52.4316 23.2349 49.1127 31.9459 43.6351 38.5914C38.5609 44.747 31.4204 48.9886 26.8302 55.5226C22.399 61.8307 20.6743 74.1897 21.3261 81.865" stroke="white" stroke-width="0.5713" stroke-miterlimit="10"/>
<path d="M17.6617 93.5546C13.9746 92.1306 11.4164 88.7184 9.74368 85.1477C6.58375 78.4044 5.94076 70.5256 7.96492 63.3627C9.98908 56.1999 14.6637 49.8125 20.8893 45.702C23.9697 43.6687 27.4055 42.1773 30.3338 39.9299C35.5856 35.9005 42.731 29.3743 39.2864 22.2163C37.6588 19.3537 34.2397 18.0422 31.1367 19.8926C27.9415 21.7977 29.2019 25.6237 30.6371 26.2867C26.3542 26.7532 24.3702 17.7547 29.838 14.4608C34.4567 11.6783 38.9654 13.0916 42.4159 15.9708C45.8654 18.85 47.6481 23.3664 47.9573 27.8388C48.4196 34.5274 45.7182 41.3675 40.804 45.9485C37.3574 49.1622 32.9999 51.2297 29.2942 54.1422C20.5192 61.038 16.0282 72.3369 15.4304 83.4567C15.2527 86.7555 15.1339 91.4186 17.6617 93.5546Z" fill="url(#paint10_linear_12_4275)" stroke="white" stroke-width="0.5713" stroke-miterlimit="10"/>
<path d="M29.9861 26.1097C27.961 24.8256 27.9581 22.5605 28.4047 20.8128C30.048 14.3737 39.6799 14.5263 42.778 21.2911C46.0116 28.3532 41.7934 37.565 37.0835 42.0237C32.0074 46.8286 25.4941 49.7861 20.2992 54.4629C10.7733 63.039 7.25509 78.5237 15.6423 88.7008" stroke="white" stroke-width="0.5713" stroke-miterlimit="10"/>
<path d="M51.6985 87.7381C50.8611 102.465 41.5629 112.637 33.6616 112.782C29.5377 112.858 21.6885 109.125 17.703 100.09C17.703 100.09 14.3988 93.1709 14.8464 83.9825C15.6445 67.6186 27.2318 66.7169 32.5808 66.5331C38.3254 66.3365 52.7714 68.849 51.6985 87.7381Z" fill="url(#paint11_linear_12_4275)" stroke="white" stroke-width="0.5713" stroke-miterlimit="10"/>
<path d="M87.0788 36.1359C79.8047 33.8797 72.567 35.244 59.8694 53.5639C58.393 55.694 56.9196 57.8651 54.9877 59.5952C52.509 61.8153 49.2333 63.1317 45.9025 63.2471C44.537 63.294 43.1225 63.1551 41.8473 63.6432C40.0215 64.3424 38.8621 66.2515 38.6157 68.185C38.2486 71.072 39.2381 73.8212 41.5008 75.6784C46.8822 80.0951 55.0721 80.6476 60.8815 76.7679C64.7148 74.2085 67.329 70.0158 69.0047 65.8163C70.8423 61.2099 72.0909 56.3639 74.4233 51.9629C76.2345 48.5458 79.1078 44.3531 82.9224 42.9829C85.458 42.0714 88.6631 42.9438 89.8205 45.5335C90.6628 47.4181 89.632 49.4592 87.4361 48.9174C88.6072 49.9013 90.3339 50.1575 91.6356 49.3516C92.9461 48.5409 93.7265 47.0142 93.9169 45.4885C94.2595 42.7374 93.8207 38.2259 87.0788 36.1359Z" fill="url(#paint12_linear_12_4275)" stroke="white" stroke-width="0.5713" stroke-miterlimit="10"/>
<path d="M89.7901 49.4161C91.4265 47.906 91.6101 45.2028 90.4802 43.2879C89.3503 41.372 87.1426 40.2415 84.9201 40.0498C82.6987 39.8581 80.4988 40.2405 78.5061 41.2371C72.5622 44.2102 68.5708 50.31 65.6749 56.2748C64.1642 59.3848 62.8645 62.6064 61.0641 65.559C59.2638 68.5115 56.8931 71.2304 53.793 72.7786C51.0896 74.1282 47.8649 74.5008 44.9808 73.5952C42.0957 72.6896 39.6141 70.4617 38.605 67.6215" stroke="white" stroke-width="0.5713" stroke-miterlimit="10"/>
<path d="M73.8846 16.5907C65.6437 15.5384 53.6637 15.2802 43.7097 30.8891C39.2894 37.8202 38.4952 45.9855 41.2006 53.431C41.8662 55.2628 43.0589 56.8755 43.6567 58.7308C44.2546 60.5861 46.1501 65.9191 41.5472 67.1338C40.3986 67.437 36.0489 67.1348 37.4144 63.8213C37.7374 63.036 36.8912 61.744 36.0401 61.7196C35.189 61.6951 33.2925 62.0042 32.8635 62.7377C31.4882 65.0868 31.9192 68.813 34.0179 70.5519C37.4527 73.3959 40.3427 73.5387 43.0609 73.2923C63.5096 71.438 58.3029 48.852 59.7754 39.3742C61.292 29.6108 72.69 21.0563 82.1943 26.6455C85.4926 28.5839 86.4527 33.9669 81.9253 35.6451C88.2452 35.9082 88.5829 30.0196 88.3237 28.3795C87.025 20.1722 79.7146 17.335 73.8846 16.5907Z" fill="url(#paint13_linear_12_4275)" stroke="white" stroke-width="0.5713" stroke-miterlimit="10"/>
<path d="M84.3557 35.0083C86.1138 32.974 86.0667 29.7985 84.7464 27.4581C83.4251 25.1178 81.0632 23.5217 78.5767 22.486C72.8674 20.1065 66.1029 20.393 60.6184 23.2468C55.133 26.1006 51.0297 31.466 49.7261 37.4924C48.2673 44.2337 50.1825 51.1785 50.8893 58.0392C51.1141 60.2113 51.2044 62.4705 50.427 64.5116C49.5857 66.719 47.806 68.4471 45.876 69.8182C43.3777 71.5914 40.2895 72.9234 37.2896 72.2828" stroke="white" stroke-width="0.5713" stroke-miterlimit="10"/>
<path d="M35.7741 64.8892C37.4596 61.7029 34.3095 61.2344 33.4015 62.6065C32.0321 64.675 33.051 67.5758 34.9328 69.0242C36.4318 70.1782 44.5933 73.3186 48.2921 67.7254C50.7295 64.0393 50.488 59.7195 49.5751 55.7703C48.4325 50.8285 46.5477 45.781 47.5853 40.6465C48.3932 36.6465 50.8012 33.2206 54.18 30.9438C54.9182 30.446 55.6937 30.0049 56.4948 29.6147C59.1707 28.313 62.0499 27.4905 64.9124 26.6748C56.1492 34.3296 60.9387 43.5101 62.0823 49.0055C63.0914 53.8583 63.4272 59.076 61.8791 63.8594C61.6288 64.6339 61.3264 65.3929 60.9681 66.1244C59.37 69.3841 56.1973 72.4178 52.8774 73.8614C48.0761 75.9484 42.8901 76.1489 37.8533 74.457C33.215 72.898 29.0223 68.32 30.1669 63.1376C30.8374 60.1029 34.3763 57.8241 36.8736 60.5214C38.7318 62.5303 37.4341 64.6692 35.7741 64.8892Z" fill="url(#paint14_linear_12_4275)" stroke="white" stroke-width="0.5713" stroke-miterlimit="10"/>
<path d="M36.7644 83.7664C38.3144 81.2891 44.9553 80.0803 49.6643 81.9424" stroke="white" stroke-width="0.6913" stroke-miterlimit="10"/>
<path d="M18.9182 81.3212C18.9182 81.3212 30.0668 79.7349 31.2438 84.8518C32.0183 88.222 30.3446 95.8103 30.3446 95.8103C31.7552 96.4127 34.7424 96.4128 35.9802 95.6401" stroke="white" stroke-width="0.6913" stroke-miterlimit="10"/>
<path d="M39.3423 103.744C39.1322 103.864 38.9241 103.991 38.7111 104.106C38.4794 104.179 38.2438 104.273 38.0003 104.333L37.6283 104.377C37.5036 104.384 37.377 104.422 37.2523 104.403C37.0059 104.376 36.737 104.368 36.5014 104.318L36.147 104.239L35.9703 104.199L35.8132 104.189L35.45 104.165C35.3312 104.161 35.236 104.195 35.131 104.206C35.0279 104.23 34.9288 104.217 34.8247 104.267L34.5194 104.378C34.3152 104.445 34.1484 104.595 33.9628 104.692H33.9618L33.6615 104.817L33.4848 104.631C33.4455 104.589 33.3925 104.534 33.3032 104.482C33.2256 104.43 33.1245 104.387 33.0322 104.342C32.8339 104.264 32.6219 104.197 32.4059 104.167C32.19 104.126 31.9691 104.12 31.7571 104.147C31.544 104.167 31.2908 104.233 31.0601 104.274L30.3396 104.399C30.0971 104.435 29.8438 104.428 29.6004 104.443C29.4777 104.448 29.355 104.411 29.2332 104.396L28.871 104.336C28.6168 104.302 28.4312 104.1 28.2751 103.93C28.4617 104.083 28.6462 104.243 28.8887 104.245L29.244 104.258C29.3618 104.257 29.4787 104.279 29.5945 104.259C29.8271 104.213 30.0578 104.192 30.2856 104.128L30.9678 103.917C31.2034 103.845 31.4086 103.758 31.6697 103.695C31.9289 103.629 32.1949 103.604 32.456 103.618C32.7201 103.622 32.9792 103.668 33.2394 103.733C33.3689 103.774 33.4975 103.811 33.6291 103.875C33.7567 103.93 33.8961 104.017 34.0335 104.141L33.5564 104.08L33.5584 104.079C33.8116 103.974 34.0453 103.827 34.3103 103.771L34.703 103.683C34.8277 103.643 34.9798 103.663 35.1153 103.654C35.4058 103.634 35.6434 103.681 35.877 103.734L36.0802 103.775L36.252 103.837L36.5956 103.961C36.8263 104.041 37.0452 104.068 37.2749 104.127C37.3888 104.16 37.5066 104.137 37.6224 104.146L37.9758 104.15C38.2065 104.123 38.4352 104.064 38.6728 104.021C38.8956 103.936 39.1184 103.837 39.3423 103.744Z" fill="white"/>
<path d="M28.8513 104.93C28.8513 104.93 28.9927 105.015 29.244 105.15C29.4943 105.274 29.8595 105.426 30.3189 105.569C30.7734 105.713 31.3064 105.874 31.8876 105.974C32.1742 106.045 32.4775 106.067 32.7799 106.117C33.0852 106.126 33.3895 106.175 33.6997 106.163C34.0354 106.163 34.3132 106.146 34.6234 106.121C34.9277 106.098 35.2202 106.044 35.5059 105.996C36.0753 105.889 36.5936 105.724 37.0353 105.552C37.4731 105.376 37.8442 105.213 38.0975 105.083C38.3517 104.954 38.5048 104.891 38.5048 104.891C38.5048 104.891 38.3959 105.016 38.1858 105.211C37.9738 105.402 37.6704 105.691 37.2424 105.957C36.8193 106.227 36.2785 106.488 35.663 106.653C35.3577 106.742 35.0318 106.802 34.7 106.837C34.377 106.884 34.005 106.895 33.6938 106.881C33.0135 106.867 32.3421 106.743 31.7423 106.565C31.1395 106.393 30.6065 106.153 30.1667 105.921C29.7309 105.685 29.3922 105.433 29.1664 105.252C28.9573 105.055 28.8513 104.93 28.8513 104.93Z" fill="white"/>
<path d="M48.4609 85.603C48.5493 86.6612 49.7155 86.5937 50.2642 85.8505C49.9864 86.5879 49.6428 87.0114 49.1206 87.2519C48.5984 87.4935 48.4187 87.4084 47.87 87.4984C47.9799 87.828 48.618 88.0383 49.2227 87.8104C48.5424 88.4764 46.8638 90.0803 43.5625 90.1996C41.8407 90.2622 40.7903 89.5454 40.1503 88.9478C39.5456 88.3806 38.3902 86.1908 37.8582 86.3444C38.8388 85.5571 39.3287 88.0216 40.86 88.7874C42.8135 89.7644 44.9427 89.1395 45.9577 88.6251C47.2672 87.962 47.9122 86.7101 48.4609 85.603Z" fill="white"/>
<path d="M18.6785 85.603C18.5902 86.6612 17.424 86.5937 16.8762 85.8505C17.153 86.5879 17.4966 87.0114 18.0189 87.2519C18.5411 87.4935 18.7207 87.4084 19.2695 87.4984C19.1595 87.828 18.5224 88.0383 17.9168 87.8104C18.597 88.4764 20.2757 90.0803 23.577 90.1996C25.2988 90.2622 26.3491 89.5454 26.9882 88.9478C27.5929 88.3806 28.7493 86.1908 29.2803 86.3444C28.3006 85.5571 27.8098 88.0216 26.2785 88.7874C24.325 89.7644 22.1968 89.1395 21.1817 88.6251C19.8712 87.962 19.2263 86.7101 18.6785 85.603Z" fill="white"/>
<path d="M63.6489 27.5444C59.4151 29.4281 56.1855 33.1982 54.4273 37.4731C52.6682 41.7479 52.2903 46.4961 52.7418 51.0937C52.893 52.6292 53.1325 54.1558 53.268 55.6932C53.6577 60.1187 53.1158 64.7574 50.8463 68.5804C48.5757 72.4034 44.3527 75.2484 39.8979 75.0625" stroke="white" stroke-width="0.5713" stroke-miterlimit="10"/>
<path d="M28.7307 116.301C29.1008 116.274 29.5366 116.274 29.7614 116.567C29.8979 116.745 29.9136 116.984 29.9234 117.207L29.6436 122.977" stroke="white" stroke-width="0.5006" stroke-miterlimit="10"/>
<path d="M29.8762 118.229C30.2247 116.49 31.3801 116.453 31.6766 116.614C31.9092 116.741 32.1576 117.042 32.1438 117.305C32.028 119.524 31.8955 122.973 31.8955 122.973" stroke="white" stroke-width="0.5006" stroke-miterlimit="10"/>
<path d="M32.147 117.805C32.3168 117.343 32.5956 116.756 33.1159 116.618C33.5605 116.5 33.9876 116.702 34.1446 117.135C34.2811 117.512 34.2497 117.949 34.2418 118.344C34.2261 119.085 34.072 121.47 34.0592 121.931C34.0465 122.368 34.0111 122.813 34.1495 123.236C34.2791 123.633 34.5726 123.991 34.9673 124.151C35.461 124.351 35.9489 124.383 36.5408 124.399" stroke="white" stroke-width="0.5006" stroke-miterlimit="10"/>
<path d="M34.2044 119.645C34.4625 119.346 34.866 118.974 35.2459 118.865C35.6268 118.756 36.0989 118.879 36.2766 119.231C36.3571 119.391 36.3699 119.576 36.366 119.755C36.3493 120.493 36.0774 121.208 35.6808 121.83C35.2842 122.453 34.7669 122.99 34.2269 123.492C33.6193 124.057 32.94 124.603 32.1262 124.77" stroke="white" stroke-width="0.5006" stroke-miterlimit="10"/>
<defs>
<linearGradient id="paint0_linear_12_4275" x1="67.1447" y1="38.5159" x2="65.5208" y2="92.9579" gradientUnits="userSpaceOnUse">
<stop stop-color="#21D1FF"/>
<stop offset="1" stop-color="#993CFE"/>
</linearGradient>
<linearGradient id="paint1_linear_12_4275" x1="12.6316" y1="36.8903" x2="11.0077" y2="91.3329" gradientUnits="userSpaceOnUse">
<stop stop-color="#21D1FF"/>
<stop offset="1" stop-color="#993CFE"/>
</linearGradient>
<linearGradient id="paint2_linear_12_4275" x1="66.4983" y1="13.8323" x2="50.2556" y2="108.881" gradientUnits="userSpaceOnUse">
<stop stop-color="#21D1FF"/>
<stop offset="1" stop-color="#993CFE"/>
</linearGradient>
<linearGradient id="paint3_linear_12_4275" x1="33.4978" y1="8.20207" x2="17.2551" y2="103.251" gradientUnits="userSpaceOnUse">
<stop stop-color="#21D1FF"/>
<stop offset="1" stop-color="#993CFE"/>
</linearGradient>
<linearGradient id="paint4_linear_12_4275" x1="51.9558" y1="11.3442" x2="35.7127" y2="106.395" gradientUnits="userSpaceOnUse">
<stop stop-color="#21D1FF"/>
<stop offset="1" stop-color="#993CFE"/>
</linearGradient>
<linearGradient id="paint5_linear_12_4275" x1="67.418" y1="13.9884" x2="51.1752" y2="109.037" gradientUnits="userSpaceOnUse">
<stop stop-color="#21D1FF"/>
<stop offset="1" stop-color="#993CFE"/>
</linearGradient>
<linearGradient id="paint6_linear_12_4275" x1="66.3275" y1="13.8023" x2="50.0848" y2="108.851" gradientUnits="userSpaceOnUse">
<stop stop-color="#21D1FF"/>
<stop offset="1" stop-color="#993CFE"/>
</linearGradient>
<linearGradient id="paint7_linear_12_4275" x1="29.1798" y1="7.45527" x2="12.9373" y2="102.503" gradientUnits="userSpaceOnUse">
<stop stop-color="#21D1FF"/>
<stop offset="1" stop-color="#993CFE"/>
</linearGradient>
<linearGradient id="paint8_linear_12_4275" x1="45.5728" y1="10.255" x2="29.33" y2="105.304" gradientUnits="userSpaceOnUse">
<stop stop-color="#21D1FF"/>
<stop offset="1" stop-color="#993CFE"/>
</linearGradient>
<linearGradient id="paint9_linear_12_4275" x1="44.4218" y1="10.0587" x2="28.179" y2="105.108" gradientUnits="userSpaceOnUse">
<stop stop-color="#21D1FF"/>
<stop offset="1" stop-color="#993CFE"/>
</linearGradient>
<linearGradient id="paint10_linear_12_4275" x1="34.6003" y1="8.38034" x2="18.3574" y2="103.43" gradientUnits="userSpaceOnUse">
<stop stop-color="#21D1FF"/>
<stop offset="1" stop-color="#993CFE"/>
</linearGradient>
<linearGradient id="paint11_linear_12_4275" x1="46.2708" y1="10.3749" x2="30.0281" y2="105.424" gradientUnits="userSpaceOnUse">
<stop stop-color="#21D1FF"/>
<stop offset="1" stop-color="#993CFE"/>
</linearGradient>
<linearGradient id="paint12_linear_12_4275" x1="73.4646" y1="15.022" x2="57.2219" y2="110.071" gradientUnits="userSpaceOnUse">
<stop stop-color="#21D1FF"/>
<stop offset="1" stop-color="#993CFE"/>
</linearGradient>
<linearGradient id="paint13_linear_12_4275" x1="66.0549" y1="13.7555" x2="49.8121" y2="108.805" gradientUnits="userSpaceOnUse">
<stop stop-color="#21D1FF"/>
<stop offset="1" stop-color="#993CFE"/>
</linearGradient>
<linearGradient id="paint14_linear_12_4275" x1="55.0117" y1="11.8685" x2="38.7689" y2="106.917" gradientUnits="userSpaceOnUse">
<stop stop-color="#21D1FF"/>
<stop offset="1" stop-color="#993CFE"/>
</linearGradient>
</defs>
</svg>
