<svg width="101" height="99" viewBox="0 0 101 99" fill="none" xmlns="http://www.w3.org/2000/svg">
<path d="M65.981 19.6966C65.981 19.6966 70.301 17.6771 75.05 20.8797C71.565 22.4269 71.504 24.6348 71.504 24.6348L65.981 19.6966Z" fill="url(#paint0_linear_12_4204)" stroke="white" stroke-width="0.5" stroke-miterlimit="10"/>
<path d="M68.0959 21.7075C68.0959 21.7075 70.506 19.3594 74.913 20.852" stroke="white" stroke-width="0.1924" stroke-miterlimit="10"/>
<path d="M38.3351 27.9883C38.0271 28.1457 37.7511 28.3673 37.4891 28.6018C35.3311 30.5409 34.1111 33.4684 33.6031 36.4354C33.0951 39.4024 33.2321 42.4476 33.3711 45.4607C38.2241 43.2004 40.0351 39.0555 40.6661 37.262C41.0641 36.1356 41.2221 34.9278 41.2911 33.7253C41.3551 32.6235 41.3391 31.4789 40.9191 30.4703C40.4761 29.4102 39.3781 28.3138 38.3351 27.9883Z" fill="url(#paint1_linear_12_4204)" stroke="white" stroke-width="0.5" stroke-miterlimit="10"/>
<path opacity="0.3" d="M40.9201 30.4716C40.4881 29.4383 39.4371 28.3751 38.4191 28.0186C39.0021 28.9308 39.3361 29.9877 39.4581 31.1023C39.7481 33.7342 38.8191 36.4742 37.6781 38.7935C36.5071 41.1716 35.3201 41.9543 33.3611 45.2126C33.3651 45.295 33.3691 45.3785 33.3731 45.4621C38.2261 43.2017 40.0371 39.0569 40.6681 37.2634C41.0661 36.137 41.2241 34.9291 41.2931 33.7267C41.3551 32.6238 41.3391 31.4803 40.9201 30.4716Z" fill="url(#paint2_linear_12_4204)"/>
<path d="M38.5781 28.1372C39.5161 29.799 39.8981 31.8099 39.6451 33.7308C39.3491 35.9783 38.2311 38.0009 36.9931 39.8426C35.7551 41.6843 34.3651 43.4274 33.3921 45.4426" stroke="white" stroke-width="0.1924" stroke-miterlimit="10"/>
<path d="M29.5991 12.4168C29.5991 12.4168 31.2281 3.75664 36.0121 0.631133C40.6671 0.499431 52.2631 3.868 58.1821 14.5283C46.7831 15.6451 29.5991 12.4168 29.5991 12.4168Z" fill="url(#paint3_linear_12_4204)" stroke="white" stroke-width="0.5" stroke-miterlimit="10"/>
<path opacity="0.3" d="M31.0851 7.5125C30.0271 10.1465 29.5991 12.4165 29.5991 12.4165C29.5991 12.4165 46.7831 15.6448 58.1821 14.528C57.8201 13.8759 57.4351 13.2517 57.0341 12.6521C56.2941 12.2163 48.3101 5.30355 31.0851 7.5125Z" fill="url(#paint4_linear_12_4204)"/>
<path d="M14.202 34.6846C14.122 27.305 19.6 9.51458 40.982 9.47175C63.809 9.4257 78.765 33.1781 78.765 33.1781C79.725 34.2113 82.855 35.3378 83.913 35.8945C82.793 36.7886 80.395 37.4814 78.658 36.3368C77.745 40.5223 75.612 40.6487 75.612 40.6487C75.612 40.6487 75.629 35.4266 75.31 34.5433C74.992 33.661 69.55 27.0695 57.052 29.7485C44.555 32.4285 23.447 44.1735 14.202 34.6846Z" fill="url(#paint5_linear_12_4204)" stroke="white" stroke-width="0.5" stroke-miterlimit="10"/>
<path opacity="0.3" d="M25.9819 18.7937C25.9819 18.7937 27.0999 17.9724 27.4629 17.7465C37.7399 11.3509 44.6279 13.652 46.7789 13.8864C50.7509 14.3169 54.4719 15.7335 58.1149 17.4681C61.8369 19.2391 65.3089 21.5851 68.4799 24.3144C71.9929 27.3382 74.9489 31.0569 78.5689 33.9361C78.5829 33.9383 78.5979 33.9436 78.6139 33.9554C79.8249 34.8784 81.0029 35.8549 82.2499 36.719C82.9129 36.5252 83.4999 36.2243 83.9129 35.8945C82.8539 35.3378 79.7249 34.2113 78.7649 33.1781C78.7649 33.1781 63.8089 9.4257 40.9819 9.47175C32.5939 9.48888 26.4549 12.4388 22.3369 16.2185C22.7899 16.5237 25.9819 18.7937 25.9819 18.7937Z" fill="url(#paint6_linear_12_4204)"/>
<path opacity="0.3" d="M33.473 31.1891C32.439 28.0882 31.891 25.5655 29.064 22.2516C27.048 19.8895 25.035 17.5446 22.248 16.2886C16.098 22.1274 14.154 30.2704 14.202 34.6861C18.887 39.4938 26.617 38.8492 34.73 36.6949C34.46 34.8243 34.067 32.9708 33.473 31.1891Z" fill="url(#paint7_linear_12_4204)"/>
<path d="M39.8359 25.6883C40.8299 30.0409 43.7369 33.8463 47.5239 35.7533C49.2349 36.6153 51.0849 37.0982 52.9009 37.6561C56.4319 38.7429 60.0249 40.2312 62.4949 43.1447C62.5679 41.0835 62.585 39.018 62.305 36.9772C62.025 34.9364 61.3649 32.9094 60.1259 31.3322C58.9919 29.8889 57.4379 28.8973 55.8449 28.0943C50.9059 25.6059 45.2379 24.8424 39.8359 25.6883Z" fill="url(#paint8_linear_12_4204)" stroke="white" stroke-width="0.5" stroke-miterlimit="10"/>
<path opacity="0.3" d="M60.3979 38.3127C59.9829 37.8523 59.5149 37.4658 59.0289 37.091C57.2709 35.7354 55.2439 34.836 53.2319 34.0094C51.4169 33.2642 49.5929 32.5382 47.7879 31.763C44.8509 30.5027 41.3899 28.888 39.9249 25.6758C39.8959 25.6811 39.8659 25.6844 39.8369 25.6887C40.8309 30.0412 43.7379 33.8467 47.5249 35.7537C49.2359 36.6156 51.0859 37.0985 52.9019 37.6564C56.4329 38.7432 60.0259 40.2315 62.4959 43.145C62.5019 42.9319 62.3919 40.527 60.3979 38.3127Z" fill="url(#paint9_linear_12_4204)"/>
<path d="M22.2429 16.2637C22.2429 16.2637 33.5249 21.6827 34.7469 36.6153" stroke="white" stroke-width="0.3105" stroke-miterlimit="10"/>
<path d="M25.338 28.0024C25.352 29.5196 24.215 30.7628 22.796 30.7777C22.007 30.7863 21.298 30.4126 20.824 29.8184C20.441 29.3472 20.211 28.7305 20.204 28.057C20.19 26.5376 21.327 25.2944 22.746 25.2795C23.213 25.2741 23.652 25.4047 24.031 25.6349C24.803 26.1018 25.328 26.983 25.338 28.0024Z" fill="url(#paint10_linear_12_4204)" stroke="white" stroke-width="0.5" stroke-miterlimit="10"/>
<path opacity="0.3" d="M24.655 27.3986C24.669 28.918 23.53 30.159 22.113 30.174C21.645 30.1782 21.203 30.0487 20.824 29.8174C20.441 29.3463 20.211 28.7295 20.204 28.056C20.19 26.5366 21.327 25.2935 22.746 25.2785C23.213 25.2731 23.652 25.4038 24.031 25.634C24.415 26.1094 24.649 26.7261 24.655 27.3986Z" fill="url(#paint11_linear_12_4204)"/>
<path d="M74.429 33.2149C80.999 30.9824 86.4019 35.5277 88.2109 36.5921C90.0209 37.6574 91.976 38.5205 94.033 38.71C96.195 38.9113 98.4139 38.3406 100.255 37.1103C99.5979 38.301 99.0459 39.4702 98.3279 40.6202C93.0879 49.0234 88.31 48.8018 87.027 48.6455C84.627 48.3542 82.111 47.5297 80.603 45.5071C78.736 43.0026 78.897 39.3653 77.395 36.5931C76.703 35.3147 75.467 34.1914 74.429 33.2149Z" fill="url(#paint12_linear_12_4204)" stroke="white" stroke-width="0.5" stroke-miterlimit="10"/>
<path opacity="0.3" d="M95.155 41.5917C91.456 43.6122 86.848 42.7652 83.514 40.3068C81.692 38.9619 80.3189 37.0828 78.5129 35.7218C77.7859 35.1736 77.048 34.6243 76.293 34.12C75.743 33.7527 75.108 33.3405 74.446 33.2109C74.44 33.2131 74.434 33.2142 74.428 33.2163C75.466 34.1928 76.701 35.316 77.395 36.5955C78.897 39.3677 78.736 43.005 80.603 45.5095C82.111 47.5322 84.626 48.3556 87.027 48.6479C88.31 48.8042 93.0879 49.0258 98.3279 40.6226C99.0459 39.4727 99.5969 38.3034 100.255 37.1127C100.051 37.2476 96.859 40.659 95.155 41.5917Z" fill="url(#paint13_linear_12_4204)"/>
<path d="M74.9308 33.6014C74.9308 33.6014 79.9049 43.4715 85.4459 44.5262C94.5019 46.2512 100.062 37.4047 100.062 37.4047C100.062 37.4047 93.2098 43.4394 86.5228 39.7914C82.3148 37.4957 76.5378 33.1067 74.8198 33.3316" stroke="white" stroke-width="0.1924" stroke-miterlimit="10"/>
<path d="M74.2869 33.1792C75.5119 34.5755 75.6509 36.7159 75.3359 38.6015C74.8519 41.5032 73.4489 44.2004 71.4859 46.2669C69.5239 48.3356 67.0199 49.7811 64.3589 50.5371C66.3879 52.3498 69.1709 53.2567 71.8039 53.0254C72.8449 52.9334 73.8689 52.671 74.8559 52.3081C77.1689 51.4568 79.2629 49.6612 80.3349 47.3077C81.6209 44.4862 81.1159 41.3008 79.6879 38.5586C78.4879 36.2565 76.5169 34.3013 74.2869 33.1792Z" fill="url(#paint14_linear_12_4204)" stroke="white" stroke-width="0.5" stroke-miterlimit="10"/>
<path opacity="0.3" d="M79.688 38.5595C78.608 36.4865 76.903 34.6973 74.947 33.542C75.945 34.9372 76.7129 36.5261 77.0699 38.2479C77.7549 41.5447 76.5459 45.0536 74.0699 47.1854C72.8949 48.1962 71.606 48.9082 70.181 49.3837C68.375 49.9865 66.759 50.4662 64.908 50.8784C66.905 52.5135 69.301 53.2469 71.804 53.0274C72.845 52.9353 73.869 52.673 74.856 52.31C77.169 51.4588 79.263 49.6631 80.335 47.3096C81.622 44.4882 81.117 41.3017 79.688 38.5595Z" fill="url(#paint15_linear_12_4204)"/>
<path d="M75.0049 33.793C75.0049 33.793 84.025 47.3293 64.855 50.8981" stroke="white" stroke-width="0.1924" stroke-miterlimit="10"/>
<path d="M39.8921 25.5781C41.2321 28.3663 44.1291 29.798 46.8221 31.0325C49.3501 32.1911 51.8791 33.3496 54.4081 34.5092C56.2521 35.354 58.1241 36.2171 59.6701 37.5844C61.2151 38.9528 62.4171 40.9219 62.4581 43.0688" stroke="white" stroke-width="0.1924" stroke-miterlimit="10"/>
<path d="M40.073 25.874C43.466 27.6911 47.94 28.0776 51.505 29.4707C55.069 30.8658 58.612 32.9784 60.537 36.4808C61.567 38.3557 62.063 40.5026 62.546 42.6151" stroke="white" stroke-width="0.1924" stroke-miterlimit="10"/>
<path d="M32.8081 10.5194C32.8081 10.5194 32.9641 3.83907 39.2861 1.1001" stroke="white" stroke-width="0.1924" stroke-miterlimit="10"/>
<path d="M36.759 9.54924C36.759 9.54924 37.086 3.79505 42.71 1.87842" stroke="white" stroke-width="0.1924" stroke-miterlimit="10"/>
<path d="M40.3921 9.33635C40.3921 9.33635 41.7001 4.09397 46.1961 3.40869" stroke="white" stroke-width="0.1924" stroke-miterlimit="10"/>
<path d="M43.9731 9.47195C43.9731 9.47195 46.3211 5.20824 49.0841 4.88916" stroke="white" stroke-width="0.1924" stroke-miterlimit="10"/>
<path d="M47.5581 10.0752C47.5581 10.0752 49.4251 6.62846 51.6521 6.89508" stroke="white" stroke-width="0.1924" stroke-miterlimit="10"/>
<path d="M51.0391 10.9672C51.0391 10.9672 51.7271 9.21758 53.5131 8.67578" stroke="white" stroke-width="0.1924" stroke-miterlimit="10"/>
<path d="M26.0481 18.7402C26.0481 18.7402 46.7061 -0.0620919 77.6741 33.0689" stroke="white" stroke-width="0.1924" stroke-miterlimit="10"/>
<path d="M35.2741 79.5148C35.2741 79.5148 30.9541 81.5353 26.2051 78.3327C29.6891 76.7865 29.7511 74.5786 29.7511 74.5786L35.2741 79.5148Z" fill="url(#paint16_linear_12_4204)" stroke="white" stroke-width="0.5" stroke-miterlimit="10"/>
<path d="M33.1591 77.5039C33.1591 77.5039 30.7481 79.852 26.3411 78.3605" stroke="white" stroke-width="0.1924" stroke-miterlimit="10"/>
<path d="M62.9189 71.2229C63.2279 71.0655 63.5029 70.8439 63.7649 70.6105C65.9229 68.6713 67.1429 65.7439 67.6509 62.7769C68.1589 59.8099 68.0219 56.7646 67.8829 53.7505C63.0299 56.0119 61.2189 60.1568 60.5879 61.9492C60.1909 63.0767 60.0319 64.2845 59.9629 65.4869C59.8999 66.5877 59.9149 67.7334 60.3349 68.7409C60.7779 69.8031 61.8769 70.8974 62.9189 71.2229Z" fill="url(#paint17_linear_12_4204)" stroke="white" stroke-width="0.5" stroke-miterlimit="10"/>
<path opacity="0.3" d="M60.3349 68.7409C60.7659 69.7753 61.8179 70.8385 62.8359 71.194C62.2529 70.2828 61.9189 69.226 61.7969 68.1113C61.5069 65.4784 62.4359 62.7383 63.5769 60.4202C64.7479 58.042 65.9339 57.2593 67.8939 54.0011C67.8899 53.9175 67.8859 53.834 67.8819 53.7505C63.0289 56.0119 61.2179 60.1568 60.5869 61.9492C60.1899 63.0767 60.0309 64.2845 59.9619 65.4869C59.8999 66.5877 59.9159 67.7323 60.3349 68.7409Z" fill="url(#paint18_linear_12_4204)"/>
<path d="M62.6769 71.076C61.7389 69.4142 61.3569 67.4033 61.6099 65.4824C61.9059 63.2349 63.0239 61.2123 64.2619 59.3695C65.4999 57.5279 66.8899 55.7857 67.8629 53.7695" stroke="white" stroke-width="0.1924" stroke-miterlimit="10"/>
<path d="M71.656 86.7957C71.656 86.7957 70.027 95.456 65.243 98.5815C60.588 98.7132 48.992 95.3446 43.073 84.6842C54.472 83.5685 71.656 86.7957 71.656 86.7957Z" fill="url(#paint19_linear_12_4204)" stroke="white" stroke-width="0.5" stroke-miterlimit="10"/>
<path opacity="0.3" d="M70.169 91.7001C71.227 89.065 71.655 86.7961 71.655 86.7961C71.655 86.7961 54.471 83.5678 43.072 84.6846C43.434 85.3367 43.818 85.9609 44.22 86.5595C44.96 86.9974 52.944 93.9091 70.169 91.7001Z" fill="url(#paint20_linear_12_4204)"/>
<path d="M87.0531 64.5275C87.1331 71.906 81.655 89.6976 60.273 89.7404C37.446 89.7864 22.489 66.0341 22.489 66.0341C21.53 65.0008 18.4001 63.8733 17.3411 63.3176C18.4611 62.4235 20.8591 61.7297 22.5961 62.8743C23.5091 58.6888 25.6421 58.5635 25.6421 58.5635C25.6421 58.5635 25.6251 63.7855 25.9441 64.6678C26.2621 65.5512 31.7041 72.1427 44.2021 69.4647C56.7001 66.7847 77.8081 55.0397 87.0531 64.5275Z" fill="url(#paint21_linear_12_4204)" stroke="white" stroke-width="0.5" stroke-miterlimit="10"/>
<path opacity="0.3" d="M75.273 80.4184C75.273 80.4184 74.1541 81.2386 73.7921 81.4645C63.5151 87.8601 56.627 85.5601 54.476 85.3256C50.504 84.8952 46.7831 83.4786 43.1391 81.744C39.4181 79.973 35.9461 77.627 32.7751 74.8966C29.2611 71.8739 26.3061 68.1552 22.6861 65.2759C22.6721 65.2738 22.6571 65.2674 22.6411 65.2567C21.4301 64.3337 20.2521 63.3572 19.0051 62.4941C18.3421 62.6869 17.755 62.9888 17.342 63.3186C18.4 63.8754 21.5311 65.0018 22.4901 66.0351C22.4901 66.0351 37.4471 89.7874 60.2741 89.7414C68.6621 89.7243 74.801 86.7733 78.919 82.9946C78.465 82.6884 75.273 80.4184 75.273 80.4184Z" fill="url(#paint22_linear_12_4204)"/>
<path opacity="0.3" d="M67.7819 68.0251C68.8159 71.1249 69.3639 73.6486 72.1909 76.9615C74.2069 79.3236 76.2199 81.6685 79.0069 82.9245C85.1559 77.0868 87.1009 68.9427 87.0529 64.528C82.3689 59.7204 74.6379 60.365 66.5249 62.5183C66.7939 64.3878 67.1879 66.2434 67.7819 68.0251Z" fill="url(#paint23_linear_12_4204)"/>
<path d="M61.4189 73.5252C60.4249 69.1726 57.5179 65.3672 53.7309 63.4591C52.0209 62.5983 50.1709 62.1143 48.3549 61.5564C44.8239 60.4707 41.2309 58.9823 38.7609 56.0688C38.6879 58.13 38.6709 60.1966 38.9509 62.2364C39.2309 64.2772 39.8899 66.303 41.1299 67.8813C42.2639 69.3247 43.8179 70.3162 45.4109 71.1192C50.3489 73.6077 56.0169 74.3711 61.4189 73.5252Z" fill="url(#paint24_linear_12_4204)" stroke="white" stroke-width="0.5" stroke-miterlimit="10"/>
<path opacity="0.3" d="M40.8571 60.8999C41.2721 61.3614 41.74 61.7469 42.226 62.1227C43.984 63.4772 46.011 64.3777 48.023 65.2033C49.838 65.9496 51.662 66.6756 53.467 67.4508C56.404 68.711 59.8641 70.3257 61.3301 73.538C61.3591 73.5337 61.3891 73.5305 61.4181 73.5262C60.4241 69.1736 57.517 65.3682 53.73 63.4601C52.02 62.5992 50.1701 62.1153 48.3541 61.5574C44.8231 60.4717 41.23 58.9833 38.76 56.0698C38.753 56.2808 38.8631 58.6846 40.8571 60.8999Z" fill="url(#paint25_linear_12_4204)"/>
<path d="M79.0121 82.9489C79.0121 82.9489 67.7301 77.531 66.5081 62.5962" stroke="white" stroke-width="0.3105" stroke-miterlimit="10"/>
<path d="M75.9181 71.21C75.9041 69.6939 77.0411 68.4507 78.4601 68.4347C79.2491 68.4272 79.9581 68.8009 80.4321 69.3951C80.8141 69.8673 81.0451 70.4841 81.0511 71.1565C81.0661 72.6759 79.9291 73.919 78.5101 73.934C78.0431 73.9394 77.6041 73.8087 77.2251 73.5785C76.4521 73.1117 75.9271 72.2305 75.9181 71.21Z" fill="url(#paint26_linear_12_4204)" stroke="white" stroke-width="0.5" stroke-miterlimit="10"/>
<path opacity="0.3" d="M76.6 71.8141C76.586 70.2947 77.725 69.0537 79.142 69.0387C79.61 69.0334 80.052 69.164 80.431 69.3942C80.813 69.8664 81.044 70.4832 81.05 71.1556C81.065 72.675 79.928 73.9181 78.509 73.9331C78.042 73.9384 77.6029 73.8078 77.2239 73.5776C76.8399 73.1033 76.606 72.4876 76.6 71.8141Z" fill="url(#paint27_linear_12_4204)"/>
<path d="M26.826 65.9978C20.256 68.2292 14.853 63.685 13.044 62.6196C11.234 61.5553 9.27899 60.6922 7.22198 60.5006C5.05999 60.2993 2.841 60.8711 1 62.1013C1.657 60.9096 2.209 59.7414 2.927 58.5914C8.167 50.1882 12.944 50.4088 14.228 50.5651C16.628 50.8575 19.144 51.6809 20.652 53.7035C22.519 56.208 22.357 59.8463 23.86 62.6174C24.552 63.897 25.788 65.0213 26.826 65.9978Z" fill="url(#paint28_linear_12_4204)" stroke="white" stroke-width="0.5" stroke-miterlimit="10"/>
<path opacity="0.3" d="M6.10001 57.6225C9.79901 55.601 14.407 56.449 17.741 58.9075C19.563 60.2512 20.935 62.1315 22.742 63.4924C23.469 64.0406 24.207 64.5899 24.962 65.0932C25.512 65.4604 26.147 65.8737 26.809 66.0033C26.815 66.0012 26.821 66.0001 26.827 65.9979C25.789 65.0214 24.554 63.8971 23.86 62.6176C22.357 59.8465 22.519 56.2081 20.652 53.7036C19.144 51.681 16.628 50.8587 14.228 50.5653C12.944 50.41 8.168 50.1884 2.927 58.5916C2.209 59.7416 1.657 60.9098 1 62.1015C1.203 61.9666 4.39601 58.5541 6.10001 57.6225Z" fill="url(#paint29_linear_12_4204)"/>
<path d="M26.3239 65.612C26.3239 65.612 21.3499 55.7419 15.8089 54.6862C6.75287 52.9623 1.19287 61.8087 1.19287 61.8087C1.19287 61.8087 8.04487 55.774 14.7319 59.422C18.9399 61.7167 24.7169 66.1067 26.4349 65.8819" stroke="white" stroke-width="0.1924" stroke-miterlimit="10"/>
<path d="M26.968 66.0338C25.743 64.6364 25.604 62.496 25.919 60.6104C26.403 57.7087 27.806 55.0126 29.768 52.9439C31.731 50.8763 34.235 49.4297 36.896 48.6748C34.867 46.861 32.085 45.9551 29.451 46.1864C28.41 46.2774 27.387 46.5408 26.399 46.9038C24.086 47.7551 21.992 49.5507 20.92 51.9042C19.634 54.7256 20.139 57.91 21.567 60.6522C22.767 62.9564 24.738 64.9116 26.968 66.0338Z" fill="url(#paint30_linear_12_4204)" stroke="white" stroke-width="0.5" stroke-miterlimit="10"/>
<path opacity="0.3" d="M21.567 60.6514C22.647 62.7265 24.352 64.5135 26.308 65.6689C25.31 64.2748 24.542 62.6858 24.185 60.963C23.5 57.6661 24.709 54.1573 27.185 52.0243C28.36 51.0136 29.648 50.3026 31.074 49.8272C32.88 49.2243 34.496 48.7436 36.345 48.3335C34.349 46.6974 31.952 45.965 29.45 46.1845C28.409 46.2755 27.386 46.5389 26.398 46.9019C24.085 47.7531 21.991 49.5488 20.919 51.9023C19.633 54.7248 20.138 57.9102 21.567 60.6514Z" fill="url(#paint31_linear_12_4204)"/>
<path d="M26.25 65.4182C26.25 65.4182 17.23 51.8829 36.4 48.313" stroke="white" stroke-width="0.1924" stroke-miterlimit="10"/>
<path d="M61.3629 73.6348C60.0229 70.8455 57.1259 69.415 54.4329 68.1804C51.9049 67.0218 49.3749 65.8622 46.8469 64.7037C45.0029 63.8589 43.1309 62.9958 41.5849 61.6274C40.0399 60.2601 38.8379 58.291 38.7969 56.1431" stroke="white" stroke-width="0.1924" stroke-miterlimit="10"/>
<path d="M61.182 73.3398C57.789 71.5216 53.315 71.1351 49.75 69.742C46.185 68.3479 42.643 66.2353 40.718 62.7329C39.688 60.8581 39.192 58.7112 38.709 56.5986" stroke="white" stroke-width="0.1924" stroke-miterlimit="10"/>
<path d="M68.447 88.6943C68.447 88.6943 68.291 95.3747 61.969 98.1126" stroke="white" stroke-width="0.1924" stroke-miterlimit="10"/>
<path d="M64.4959 89.6646C64.4959 89.6646 64.1689 95.4177 58.5449 97.3354" stroke="white" stroke-width="0.1924" stroke-miterlimit="10"/>
<path d="M60.8631 89.8765C60.8631 89.8765 59.5551 95.1178 55.0591 95.803" stroke="white" stroke-width="0.1924" stroke-miterlimit="10"/>
<path d="M57.2819 89.7397C57.2819 89.7397 54.9339 94.0034 52.1709 94.3236" stroke="white" stroke-width="0.1924" stroke-miterlimit="10"/>
<path d="M53.697 89.1387C53.697 89.1387 51.83 92.5854 49.603 92.3188" stroke="white" stroke-width="0.1924" stroke-miterlimit="10"/>
<path d="M50.2159 88.2461C50.2159 88.2461 49.5279 89.9957 47.7419 90.5375" stroke="white" stroke-width="0.1924" stroke-miterlimit="10"/>
<path d="M75.2061 80.4723C75.2061 80.4723 54.5491 99.2735 23.5811 66.1436" stroke="white" stroke-width="0.1924" stroke-miterlimit="10"/>
<path d="M53.0372 54.9199C50.2382 52.9391 50.1212 47.656 52.9472 45.022" stroke="white" stroke-width="0.5724" stroke-miterlimit="10"/>
<path d="M46.3732 54.9894C49.1352 52.9507 49.1562 47.6655 46.2832 45.0903" stroke="white" stroke-width="0.5724" stroke-miterlimit="10"/>
<path d="M53.2671 49.6328L45.8301 49.7859" stroke="white" stroke-width="0.5724" stroke-miterlimit="10"/>
<defs>
<linearGradient id="paint0_linear_12_4204" x1="70.9492" y1="-4.57463" x2="68.9428" y2="95.805" gradientUnits="userSpaceOnUse">
<stop stop-color="#21D1FF"/>
<stop offset="1" stop-color="#993CFE"/>
</linearGradient>
<linearGradient id="paint1_linear_12_4204" x1="38.0169" y1="-5.23245" x2="36.0107" y2="95.1444" gradientUnits="userSpaceOnUse">
<stop stop-color="#21D1FF"/>
<stop offset="1" stop-color="#993CFE"/>
</linearGradient>
<linearGradient id="paint2_linear_12_4204" x1="38.1124" y1="-5.23117" x2="36.106" y2="95.1475" gradientUnits="userSpaceOnUse">
<stop stop-color="#21D1FF"/>
<stop offset="1" stop-color="#993CFE"/>
</linearGradient>
<linearGradient id="paint3_linear_12_4204" x1="44.2147" y1="-5.10839" x2="42.2084" y2="95.2711" gradientUnits="userSpaceOnUse">
<stop stop-color="#21D1FF"/>
<stop offset="1" stop-color="#993CFE"/>
</linearGradient>
<linearGradient id="paint4_linear_12_4204" x1="44.2147" y1="-5.10903" x2="42.2083" y2="95.2725" gradientUnits="userSpaceOnUse">
<stop stop-color="#21D1FF"/>
<stop offset="1" stop-color="#993CFE"/>
</linearGradient>
<linearGradient id="paint5_linear_12_4204" x1="49.7571" y1="-4.99746" x2="47.7509" y2="95.3789" gradientUnits="userSpaceOnUse">
<stop stop-color="#21D1FF"/>
<stop offset="1" stop-color="#993CFE"/>
</linearGradient>
<linearGradient id="paint6_linear_12_4204" x1="53.6655" y1="-4.91919" x2="51.6592" y2="95.4566" gradientUnits="userSpaceOnUse">
<stop stop-color="#21D1FF"/>
<stop offset="1" stop-color="#993CFE"/>
</linearGradient>
<linearGradient id="paint7_linear_12_4204" x1="25.1808" y1="-5.48933" x2="23.1746" y2="94.8897" gradientUnits="userSpaceOnUse">
<stop stop-color="#21D1FF"/>
<stop offset="1" stop-color="#993CFE"/>
</linearGradient>
<linearGradient id="paint8_linear_12_4204" x1="51.8588" y1="-4.95531" x2="49.8526" y2="95.422" gradientUnits="userSpaceOnUse">
<stop stop-color="#21D1FF"/>
<stop offset="1" stop-color="#993CFE"/>
</linearGradient>
<linearGradient id="paint9_linear_12_4204" x1="51.8519" y1="-4.95719" x2="49.8456" y2="95.4244" gradientUnits="userSpaceOnUse">
<stop stop-color="#21D1FF"/>
<stop offset="1" stop-color="#993CFE"/>
</linearGradient>
<linearGradient id="paint10_linear_12_4204" x1="23.3555" y1="-5.52199" x2="21.3494" y2="94.8456" gradientUnits="userSpaceOnUse">
<stop stop-color="#21D1FF"/>
<stop offset="1" stop-color="#993CFE"/>
</linearGradient>
<linearGradient id="paint11_linear_12_4204" x1="23.0091" y1="-5.53109" x2="21.0028" y2="94.8438" gradientUnits="userSpaceOnUse">
<stop stop-color="#21D1FF"/>
<stop offset="1" stop-color="#993CFE"/>
</linearGradient>
<linearGradient id="paint12_linear_12_4204" x1="88.0291" y1="-4.23207" x2="86.0229" y2="96.1443" gradientUnits="userSpaceOnUse">
<stop stop-color="#21D1FF"/>
<stop offset="1" stop-color="#993CFE"/>
</linearGradient>
<linearGradient id="paint13_linear_12_4204" x1="88.0292" y1="-4.23077" x2="86.0229" y2="96.1437" gradientUnits="userSpaceOnUse">
<stop stop-color="#21D1FF"/>
<stop offset="1" stop-color="#993CFE"/>
</linearGradient>
<linearGradient id="paint14_linear_12_4204" x1="73.6188" y1="-4.5202" x2="71.6125" y2="95.8563" gradientUnits="userSpaceOnUse">
<stop stop-color="#21D1FF"/>
<stop offset="1" stop-color="#993CFE"/>
</linearGradient>
<linearGradient id="paint15_linear_12_4204" x1="73.8967" y1="-4.51637" x2="71.8903" y2="95.8628" gradientUnits="userSpaceOnUse">
<stop stop-color="#21D1FF"/>
<stop offset="1" stop-color="#993CFE"/>
</linearGradient>
<linearGradient id="paint16_linear_12_4204" x1="32.2085" y1="-5.34217" x2="30.2023" y2="95.0275" gradientUnits="userSpaceOnUse">
<stop stop-color="#21D1FF"/>
<stop offset="1" stop-color="#993CFE"/>
</linearGradient>
<linearGradient id="paint17_linear_12_4204" x1="65.1408" y1="-4.69058" x2="63.1345" y2="95.6865" gradientUnits="userSpaceOnUse">
<stop stop-color="#21D1FF"/>
<stop offset="1" stop-color="#993CFE"/>
</linearGradient>
<linearGradient id="paint18_linear_12_4204" x1="65.0453" y1="-4.69344" x2="63.039" y2="95.6854" gradientUnits="userSpaceOnUse">
<stop stop-color="#21D1FF"/>
<stop offset="1" stop-color="#993CFE"/>
</linearGradient>
<linearGradient id="paint19_linear_12_4204" x1="58.9431" y1="-4.81566" x2="56.9367" y2="95.5635" gradientUnits="userSpaceOnUse">
<stop stop-color="#21D1FF"/>
<stop offset="1" stop-color="#993CFE"/>
</linearGradient>
<linearGradient id="paint20_linear_12_4204" x1="58.943" y1="-4.81351" x2="56.9368" y2="95.564" gradientUnits="userSpaceOnUse">
<stop stop-color="#21D1FF"/>
<stop offset="1" stop-color="#993CFE"/>
</linearGradient>
<linearGradient id="paint21_linear_12_4204" x1="53.4007" y1="-4.92437" x2="51.3944" y2="95.4523" gradientUnits="userSpaceOnUse">
<stop stop-color="#21D1FF"/>
<stop offset="1" stop-color="#993CFE"/>
</linearGradient>
<linearGradient id="paint22_linear_12_4204" x1="49.492" y1="-5.00179" x2="47.4858" y2="95.3743" gradientUnits="userSpaceOnUse">
<stop stop-color="#21D1FF"/>
<stop offset="1" stop-color="#993CFE"/>
</linearGradient>
<linearGradient id="paint23_linear_12_4204" x1="77.9767" y1="-4.43149" x2="75.9704" y2="95.9436" gradientUnits="userSpaceOnUse">
<stop stop-color="#21D1FF"/>
<stop offset="1" stop-color="#993CFE"/>
</linearGradient>
<linearGradient id="paint24_linear_12_4204" x1="51.2986" y1="-4.96657" x2="49.2923" y2="95.4108" gradientUnits="userSpaceOnUse">
<stop stop-color="#21D1FF"/>
<stop offset="1" stop-color="#993CFE"/>
</linearGradient>
<linearGradient id="paint25_linear_12_4204" x1="51.3057" y1="-4.96534" x2="49.2995" y2="95.41" gradientUnits="userSpaceOnUse">
<stop stop-color="#21D1FF"/>
<stop offset="1" stop-color="#993CFE"/>
</linearGradient>
<linearGradient id="paint26_linear_12_4204" x1="79.8018" y1="-4.40324" x2="77.7954" y2="95.9819" gradientUnits="userSpaceOnUse">
<stop stop-color="#21D1FF"/>
<stop offset="1" stop-color="#993CFE"/>
</linearGradient>
<linearGradient id="paint27_linear_12_4204" x1="80.1481" y1="-4.39147" x2="78.1417" y2="95.9876" gradientUnits="userSpaceOnUse">
<stop stop-color="#21D1FF"/>
<stop offset="1" stop-color="#993CFE"/>
</linearGradient>
<linearGradient id="paint28_linear_12_4204" x1="15.1285" y1="-5.6915" x2="13.1222" y2="94.6884" gradientUnits="userSpaceOnUse">
<stop stop-color="#21D1FF"/>
<stop offset="1" stop-color="#993CFE"/>
</linearGradient>
<linearGradient id="paint29_linear_12_4204" x1="15.1285" y1="-5.69223" x2="13.1222" y2="94.6891" gradientUnits="userSpaceOnUse">
<stop stop-color="#21D1FF"/>
<stop offset="1" stop-color="#993CFE"/>
</linearGradient>
<linearGradient id="paint30_linear_12_4204" x1="29.5388" y1="-5.40194" x2="27.5324" y2="94.9753" gradientUnits="userSpaceOnUse">
<stop stop-color="#21D1FF"/>
<stop offset="1" stop-color="#993CFE"/>
</linearGradient>
<linearGradient id="paint31_linear_12_4204" x1="29.2605" y1="-5.4058" x2="27.2542" y2="94.9685" gradientUnits="userSpaceOnUse">
<stop stop-color="#21D1FF"/>
<stop offset="1" stop-color="#993CFE"/>
</linearGradient>
</defs>
</svg>
