<svg width="101" height="101" viewBox="0 0 101 101" fill="none" xmlns="http://www.w3.org/2000/svg">
<path d="M73.304 16.4942C73.304 16.4942 94.7579 2.33573 98.5359 25.5966C101.325 19.1668 99.278 12.8108 99.278 12.8108C95.738 7.48708 88.066 5.63041 79.78 4.28662L73.304 16.4942Z" fill="url(#paint0_linear_12_4057)" stroke="white" stroke-width="0.565" stroke-miterlimit="10"/>
<path d="M30.614 16.4229C30.614 16.4229 9.15997 2.26441 5.38197 25.5253C2.59297 19.0955 4.63997 12.7395 4.63997 12.7395C8.17997 7.41579 15.852 5.55805 24.138 4.21533L30.614 16.4229Z" fill="url(#paint1_linear_12_4057)" stroke="white" stroke-width="0.565" stroke-miterlimit="10"/>
<path d="M40.3031 24.3618C49.1861 17.7874 60.5131 19.2276 69.7341 25.2441C83.3121 34.1024 86.0411 43.1512 88.1041 51.6615C93.3301 73.2242 83.2361 87.2702 75.7291 93.1947C65.5711 101.213 33.3281 107.378 23.1821 76.8444C28.9211 82.3309 37.7871 86.4501 45.0751 84.4874C65.7111 78.9302 46.4661 48.385 43.3511 44.6257C40.2371 40.8684 35.8901 31.1974 40.3031 24.3618Z" fill="url(#paint2_linear_12_4057)" stroke="white" stroke-width="0.6377" stroke-miterlimit="10"/>
<path d="M40.3031 24.3618C49.1861 17.7874 60.5131 19.2276 69.7341 25.2441C83.3121 34.1024 86.0411 43.1512 88.1041 51.6615C93.3301 73.2242 83.2361 87.2702 75.7291 93.1947C65.5711 101.213 33.3281 107.378 23.1821 76.8444C28.9211 82.3309 37.7871 86.4501 45.0751 84.4874C65.7111 78.9302 46.4661 48.385 43.3511 44.6257C40.2371 40.8684 35.8901 31.1974 40.3031 24.3618Z" fill="url(#paint3_linear_12_4057)" stroke="white" stroke-width="0.6377" stroke-miterlimit="10"/>
<path d="M38.681 87.9441C44.061 90.38 50.381 91.757 56.044 89.7836C76.88 82.5218 73.732 59.8049 63.297 44.9579C60.303 40.6974 56.544 39.6567 52.149 37.2978C47.905 35.0193 43.29 32.7129 38.489 32.4409C38.873 37.3963 41.359 42.2232 43.352 44.6281C46.467 48.3875 65.712 78.9316 45.076 84.4899C39.774 85.9172 33.641 84.1194 28.48 80.9254C31.457 83.8828 34.963 86.2609 38.681 87.9441Z" fill="url(#paint4_linear_12_4057)" stroke="white" stroke-width="0.6377" stroke-miterlimit="10"/>
<path opacity="0.3" d="M38.681 87.9441C44.061 90.38 50.381 91.757 56.044 89.7836C76.88 82.5218 73.732 59.8049 63.297 44.9579C60.303 40.6974 56.544 39.6567 52.149 37.2978C47.905 35.0193 43.29 32.7129 38.489 32.4409C38.873 37.3963 41.359 42.2232 43.352 44.6281C46.467 48.3875 65.712 78.9316 45.076 84.4899C39.774 85.9172 33.641 84.1194 28.48 80.9254C31.457 83.8828 34.963 86.2609 38.681 87.9441Z" fill="url(#paint5_linear_12_4057)" stroke="white" stroke-width="0.6377" stroke-miterlimit="10"/>
<path d="M40.0439 84.834C40.0439 84.834 43.4179 89.602 52.8619 90.4693" stroke="white" stroke-width="0.4597" stroke-miterlimit="10"/>
<path d="M50.366 81.8711C50.366 81.8711 56.168 87.3619 66.22 83.5329" stroke="white" stroke-width="0.4597" stroke-miterlimit="10"/>
<path d="M54.3459 75.08C54.3459 75.08 65.3429 77.3917 71.1449 70.3848" stroke="white" stroke-width="0.4597" stroke-miterlimit="10"/>
<path d="M54.144 66.9897C54.144 66.9897 64.871 65.1844 69.458 57.2373" stroke="white" stroke-width="0.4597" stroke-miterlimit="10"/>
<path d="M50.7029 58.0316C50.7029 58.0316 58.6639 58.1762 65.6129 48.5684" stroke="white" stroke-width="0.4597" stroke-miterlimit="10"/>
<path d="M69.1421 70.5607C68.6431 72.8831 67.4171 74.9947 65.8071 76.6415C64.6461 77.8289 63.2871 78.7905 62.1901 80.0454C62.3841 79.101 62.3691 78.1073 62.1461 77.1693C61.5701 79.2348 59.7411 80.7681 57.9701 81.7928C56.2001 82.8165 52.7011 84.4654 52.2721 86.5566H52.2691C51.8421 84.4654 48.3421 82.8165 46.5721 81.7928C44.8021 80.7681 42.9721 79.2337 42.3961 77.1693C42.1731 78.1073 42.1601 79.102 42.3531 80.0454C41.2551 78.7905 39.8961 77.83 38.7361 76.6415C37.1261 74.9947 35.9001 72.8831 35.4011 70.5607C34.9021 68.2361 35.1611 65.7038 36.2641 63.6351C36.9921 62.2678 38.0501 61.1457 39.0231 59.9678C39.8941 58.9132 40.7131 57.791 41.2871 56.5232C41.8591 55.2555 42.1751 53.825 42.0011 52.4298L41.9561 52.1567H62.5851L62.5401 52.4298C62.3661 53.826 62.6831 55.2565 63.2561 56.5232C63.8281 57.791 64.6471 58.9132 65.5181 59.9678C66.4921 61.1457 67.5491 62.2678 68.2771 63.6351C69.3821 65.7027 69.6411 68.2361 69.1421 70.5607Z" fill="url(#paint6_linear_12_4057)" stroke="white" stroke-width="0.4976" stroke-miterlimit="10"/>
<path d="M58.4871 23.8994C61.6321 12.3589 69.9691 2.81639 78.9191 1.21241C97.7441 -2.16151 100.33 14.7113 100.081 17.6826C94.3681 5.49217 83.1431 7.28891 76.7291 13.269C70.8731 18.7298 67.3581 29.2274 68.1971 34.9431C64.8401 33.9954 58.8011 30.1129 58.4871 23.8994Z" fill="url(#paint7_linear_12_4057)" stroke="white" stroke-width="0.565" stroke-miterlimit="10"/>
<path opacity="0.3" d="M91.7941 8.33596C88.8341 6.82514 85.4801 6.19659 82.2191 6.58848C78.4521 7.04034 74.9851 8.95806 72.1451 11.5974C69.3771 14.1694 67.1921 17.3944 65.7561 21.0018C64.3721 24.4764 63.4181 28.1116 62.6311 31.7864C64.5041 33.43 66.6391 34.5028 68.1971 34.9429C67.3581 29.2273 70.8721 18.7286 76.7291 13.2689C82.8531 7.55967 93.3631 5.66443 99.2731 16.1149C97.7071 12.6853 95.0181 9.9817 91.7941 8.33596Z" fill="url(#paint8_linear_12_4057)" stroke="white" stroke-width="0.565" stroke-miterlimit="10"/>
<path d="M63.2851 12.5947C63.2851 12.5947 63.2571 12.8303 63.2081 13.2415C63.1761 13.446 63.1641 13.6976 63.1591 13.9846C63.1441 14.2726 63.1391 14.596 63.1691 14.9493C63.1761 15.3026 63.2261 15.6817 63.2861 16.0821C63.3321 16.4837 63.4511 16.8938 63.5471 17.3199C63.6831 17.7364 63.8011 18.1722 63.9921 18.5877C64.1491 19.0138 64.3881 19.4196 64.5901 19.8158C64.8451 20.2002 65.0831 20.6103 65.3691 20.9422C65.6281 21.2999 65.9431 21.605 66.2291 21.9124C66.5431 22.1886 66.8301 22.4777 67.1431 22.694C67.4481 22.9231 67.7391 23.133 68.0281 23.2915C68.3061 23.4703 68.5741 23.6052 68.8171 23.7123C69.0551 23.8301 69.2651 23.9254 69.4461 23.9821C69.8021 24.1106 70.0061 24.1845 70.0061 24.1845L69.8401 24.7637C69.8401 24.7637 69.6271 24.6759 69.2551 24.5239C69.0661 24.4564 68.8481 24.3451 68.6011 24.2102C68.3501 24.0849 68.0731 23.9307 67.7881 23.7316C67.4921 23.5527 67.1951 23.3204 66.8861 23.0677C66.5691 22.8268 66.2791 22.513 65.9651 22.2122C65.6781 21.8781 65.3671 21.5526 65.1051 21.1607C64.8141 20.7891 64.5991 20.3812 64.3571 19.9829C64.1491 19.5406 63.9301 19.1316 63.7821 18.6819C63.6031 18.2504 63.4981 17.7985 63.3761 17.3692C63.2941 16.9312 63.1901 16.5104 63.1581 16.1014C63.1121 15.6935 63.0761 15.3091 63.0821 14.9514C63.0661 14.5949 63.0821 14.2672 63.1091 13.9792C63.1251 13.689 63.1461 13.4395 63.1861 13.2361C63.2481 12.8281 63.2851 12.5947 63.2851 12.5947Z" fill="white"/>
<path d="M72.2991 3.49219C72.2991 3.49219 72.2231 3.70527 72.0911 4.07896C72.0251 4.26527 71.9441 4.49227 71.8511 4.75246C71.8051 4.88202 71.7561 5.02014 71.7041 5.16683C71.6731 5.31887 71.6401 5.47843 71.6071 5.6444C71.5411 5.9774 71.4691 6.33823 71.3931 6.71834C71.3111 7.09632 71.3251 7.51605 71.2841 7.93685C71.2551 8.36087 71.2131 8.79773 71.2601 9.24317C71.2861 9.68752 71.3131 10.1383 71.3391 10.5902C71.4151 11.0345 71.4921 11.4778 71.5671 11.9157C71.6201 12.3569 71.7691 12.7681 71.8801 13.1728C72.0091 13.5722 72.0811 13.9759 72.2421 14.3238C72.3881 14.6772 72.5261 15.0113 72.6531 15.3196C72.8831 15.9482 73.2171 16.3936 73.3831 16.7416C73.5701 17.0778 73.6761 17.2695 73.6761 17.2695L73.2021 17.6003C73.2021 17.6003 73.0981 17.3958 72.9171 17.0371C72.7571 16.6677 72.4321 16.1912 72.2181 15.5306C72.0991 15.2072 71.9701 14.8571 71.8341 14.4855C71.6841 14.1215 71.6231 13.7007 71.5071 13.2863C71.4101 12.8655 71.2751 12.4404 71.2371 11.9843C71.1771 11.5346 71.1171 11.0773 71.0571 10.6223C71.0471 10.1608 71.0381 9.70144 71.0291 9.24745C70.9991 8.79345 71.0591 8.35123 71.1051 7.92293C71.1631 7.49678 71.1651 7.07704 71.2631 6.69479C71.3551 6.31253 71.4421 5.95171 71.5231 5.61763C71.5631 5.45167 71.6031 5.29212 71.6391 5.14114C71.6971 4.99767 71.7511 4.86168 71.8021 4.73426C71.9041 4.47835 71.9941 4.25562 72.0681 4.07252C72.2161 3.70205 72.2991 3.49219 72.2991 3.49219Z" fill="white"/>
<path d="M86.9731 0.853749C86.9731 0.853749 86.7731 0.863364 86.4231 0.878354C86.2461 0.874071 86.0371 0.91372 85.8001 0.97047C85.5601 1.01009 85.2961 1.08075 85.0181 1.20068C84.7311 1.29062 84.4441 1.44909 84.1431 1.62041C83.8381 1.77995 83.553 2.02193 83.252 2.24786C82.975 2.51234 82.6751 2.76609 82.4301 3.09052C82.1571 3.38177 81.9481 3.75545 81.7271 4.08203C81.5411 4.46 81.3281 4.83264 81.2021 5.21489C81.0421 5.5843 80.9511 5.98367 80.8411 6.35736C80.7701 6.74283 80.6741 7.10903 80.6461 7.46987C80.6021 7.82643 80.5691 8.16481 80.5671 8.47961C80.5391 9.10707 80.5731 9.63172 80.6081 9.99577C80.6451 10.3598 80.665 10.5675 80.665 10.5675L80.1041 10.6382C80.1041 10.6382 80.0911 10.4198 80.0681 10.0354C80.0471 9.65419 80.0351 9.10276 80.0911 8.44853C80.1071 8.11982 80.156 7.76755 80.217 7.39707C80.263 7.02338 80.3781 6.6422 80.4691 6.24496C80.6001 5.85735 80.7111 5.45259 80.8991 5.06177C81.0571 4.65275 81.2791 4.30261 81.4811 3.93106C81.7421 3.57344 81.9631 3.21794 82.2621 2.92348C82.5291 2.60119 82.849 2.3517 83.144 2.09686C83.463 1.87736 83.7641 1.64504 84.0821 1.4962C84.3971 1.33666 84.6941 1.18996 84.9901 1.1118C85.2761 1.00258 85.5481 0.945815 85.7931 0.915834C86.0351 0.870863 86.2461 0.840892 86.4221 0.85267C86.7731 0.853741 86.9731 0.853749 86.9731 0.853749Z" fill="white"/>
<path d="M95.629 5.91553C95.629 5.91553 95.5289 5.86093 95.3549 5.76457C95.2719 5.70568 95.157 5.67463 95.024 5.65C94.895 5.6136 94.748 5.58684 94.58 5.5954C94.415 5.58362 94.237 5.59967 94.049 5.62965C93.8609 5.6425 93.672 5.71103 93.464 5.75493C93.056 5.862 92.653 6.01618 92.27 6.24318C92.07 6.33634 91.901 6.48304 91.728 6.61367C91.547 6.73252 91.424 6.88565 91.265 7.05376C91.102 7.20687 90.9959 7.37496 90.9019 7.53129C90.7999 7.68441 90.704 7.82683 90.651 7.98958C90.588 8.14163 90.53 8.27975 90.479 8.40395C90.453 8.53458 90.43 8.64809 90.412 8.74232C90.374 8.92863 90.352 9.03356 90.352 9.03356L89.793 8.94576C89.793 8.94576 89.827 8.82046 89.888 8.60096C89.919 8.49174 89.957 8.36005 90 8.21015C90.069 8.07202 90.147 7.91675 90.233 7.7465C90.307 7.57197 90.433 7.40708 90.568 7.23576C90.698 7.05802 90.838 6.88134 91.004 6.74964C91.153 6.61472 91.333 6.43164 91.539 6.31814C91.736 6.19286 91.928 6.05367 92.147 5.97229C92.562 5.76885 93.0219 5.63716 93.4319 5.56756C93.6379 5.54186 93.841 5.48723 94.038 5.49044C94.233 5.47652 94.417 5.4744 94.587 5.50224C94.757 5.50759 94.91 5.54828 95.043 5.5986C95.179 5.63608 95.29 5.67678 95.369 5.74316C95.534 5.85238 95.629 5.91553 95.629 5.91553Z" fill="white"/>
<path d="M67.982 32.7832C69.637 29.9072 72.504 27.8556 75.629 27.3866C79.248 26.8427 82.84 28.2999 86.243 29.7294C84.703 33.4791 81.854 36.4922 78.3 38.0063C74.746 39.5214 70.576 39.3736 67.187 37.4741C67.017 37.3777 66.84 37.2706 66.749 37.0897C66.62 36.8381 66.852 34.7448 67.982 32.7832Z" fill="url(#paint9_linear_12_4057)" stroke="white" stroke-width="0.565" stroke-miterlimit="10"/>
<path opacity="0.3" d="M74.631 32.3869C71.342 32.782 68.874 34.2168 67.165 37.4676C70.536 39.3178 74.779 39.5063 78.299 38.0061C79.99 37.2855 81.87 35.7736 83.177 34.4577C79.803 32.1224 77.515 32.041 74.631 32.3869Z" fill="url(#paint10_linear_12_4057)" stroke="white" stroke-width="0.6377" stroke-miterlimit="10"/>
<path d="M66.563 37.0107C67.665 35.4989 69.15 34.3307 70.78 33.534C72.409 32.7374 74.177 32.2534 75.965 32.1271C79.573 31.8744 81.487 33.3338 83.052 34.3028" stroke="white" stroke-width="0.565" stroke-miterlimit="10"/>
<path d="M45.474 23.8994C42.329 12.3589 33.992 2.81639 25.042 1.21241C6.217 -2.16151 3.63101 14.7113 3.88101 17.6826C9.59301 5.49217 20.818 7.28891 27.233 13.269C33.089 18.7298 36.604 29.2274 35.765 34.9431C39.122 33.9954 45.16 30.1129 45.474 23.8994Z" fill="url(#paint11_linear_12_4057)" stroke="white" stroke-width="0.565" stroke-miterlimit="10"/>
<path opacity="0.3" d="M12.167 8.33596C15.126 6.82514 18.481 6.19659 21.742 6.58848C25.509 7.04034 28.976 8.95806 31.816 11.5974C34.584 14.1694 36.769 17.3944 38.205 21.0018C39.589 24.4764 40.543 28.1116 41.33 31.7864C39.458 33.43 37.322 34.5028 35.764 34.9429C36.603 29.2273 33.089 18.7286 27.232 13.2689C21.107 7.55967 10.598 5.66443 4.68799 16.1149C6.25399 12.6853 8.94399 9.9817 12.167 8.33596Z" fill="url(#paint12_linear_12_4057)" stroke="white" stroke-width="0.565" stroke-miterlimit="10"/>
<path d="M40.6761 12.5947C40.6761 12.5947 40.7131 12.8282 40.7771 13.2372C40.8171 13.4406 40.8381 13.6912 40.8551 13.9803C40.8811 14.2694 40.8971 14.5959 40.8811 14.9525C40.8871 15.3101 40.8511 15.6945 40.8051 16.1025C40.7731 16.5115 40.6681 16.9312 40.5861 17.3702C40.4651 17.7985 40.3591 18.2504 40.1811 18.683C40.0351 19.1306 39.8101 19.5471 39.6091 19.9775C39.3601 20.3876 39.1501 20.7881 38.8571 21.1607C38.5951 21.5515 38.2841 21.8792 37.9971 22.2122C37.6821 22.512 37.3931 22.8268 37.0761 23.0677C36.7671 23.3204 36.4701 23.5527 36.1741 23.7316C35.8891 23.9307 35.6121 24.0849 35.3611 24.2102C35.1141 24.3451 34.8961 24.4564 34.7071 24.5239C34.3341 24.6759 34.1211 24.7637 34.1211 24.7637L33.9551 24.1845C33.9551 24.1845 34.1591 24.1117 34.5151 23.9821C34.6961 23.9254 34.9061 23.8301 35.1441 23.7123C35.3871 23.6052 35.6551 23.4703 35.9321 23.2915C36.2211 23.1341 36.5121 22.9231 36.8171 22.694C37.1301 22.4777 37.4171 22.1875 37.7311 21.9124C38.0171 21.605 38.3321 21.2999 38.5911 20.9422C38.8751 20.6135 39.1181 20.196 39.3661 19.8223C39.5741 19.4132 39.8091 19.016 39.9681 18.5877C40.1591 18.1722 40.2781 17.7364 40.4131 17.3199C40.5091 16.8938 40.6281 16.4837 40.6741 16.0821C40.7351 15.6827 40.7841 15.3026 40.7911 14.9493C40.8201 14.596 40.8161 14.2715 40.8011 13.9846C40.7961 13.6965 40.7841 13.446 40.7521 13.2415C40.7041 12.8303 40.6761 12.5947 40.6761 12.5947Z" fill="white"/>
<path d="M31.6621 3.49219C31.6621 3.49219 31.7471 3.69776 31.8961 4.0586C31.9711 4.23849 32.0611 4.45802 32.1651 4.70857C32.2771 4.95591 32.3861 5.24179 32.4611 5.57372C32.5501 5.90029 32.6461 6.25472 32.7471 6.62734C32.8641 6.99996 32.8781 7.41327 32.9531 7.83193C33.0101 8.25273 33.0971 8.6864 33.0861 9.13504C33.0971 9.58261 33.1081 10.0377 33.1201 10.4927C33.0781 10.9467 33.0371 11.3996 32.9961 11.8461C32.9771 12.298 32.8621 12.7242 32.7771 13.1439C32.6751 13.5572 32.6321 13.9759 32.4901 14.3399C32.3631 14.7104 32.2421 15.0595 32.1321 15.3828C32.0341 15.7126 31.9041 15.9953 31.7741 16.2394C31.6521 16.4868 31.5451 16.7041 31.4571 16.8819C31.2801 17.2384 31.1791 17.4419 31.1791 17.4419L30.7051 17.111C30.7051 17.111 30.8091 16.9204 30.9901 16.5885C31.0811 16.4225 31.1921 16.2202 31.3181 15.9878C31.4531 15.7597 31.5881 15.4931 31.6951 15.1805C31.8141 14.8742 31.9431 14.5412 32.0801 14.1911C32.2321 13.8442 32.2871 13.4415 32.4021 13.0443C32.5011 12.6417 32.6311 12.2306 32.6651 11.7926C32.7221 11.359 32.7801 10.9178 32.8381 10.4767C32.8441 10.0302 32.8501 9.58473 32.8561 9.14572C32.8851 8.70351 32.8161 8.27413 32.7751 7.85761C32.7181 7.44431 32.7201 7.02888 32.6191 6.66054C32.5341 6.28685 32.4521 5.9335 32.3781 5.608C32.3171 5.27606 32.2191 4.98483 32.1171 4.73213C32.0231 4.47729 31.9411 4.25457 31.8741 4.0704C31.7391 3.70206 31.6621 3.49219 31.6621 3.49219Z" fill="white"/>
<path d="M16.988 0.853611C16.988 0.853611 17.188 0.853603 17.538 0.852532C17.714 0.839683 17.925 0.870725 18.167 0.915696C18.413 0.944606 18.685 1.00244 18.97 1.11166C19.266 1.18982 19.563 1.33652 19.878 1.49606C20.197 1.6449 20.497 1.87615 20.816 2.09673C21.111 2.35156 21.431 2.60212 21.698 2.92334C21.996 3.2178 22.218 3.57437 22.479 3.93093C22.682 4.30247 22.904 4.65261 23.062 5.06163C23.25 5.45246 23.361 5.85721 23.492 6.24482C23.583 6.64207 23.698 7.02431 23.744 7.39693C23.805 7.76848 23.854 8.12075 23.87 8.4484C23.926 9.10262 23.914 9.65405 23.893 10.0352C23.87 10.4186 23.857 10.6381 23.857 10.6381L23.296 10.5674C23.296 10.5674 23.316 10.3597 23.353 9.99563C23.388 9.63158 23.422 9.10693 23.394 8.47947C23.392 8.16467 23.359 7.82629 23.315 7.46973C23.287 7.10889 23.19 6.7427 23.12 6.35723C23.01 5.98247 22.919 5.58309 22.759 5.21476C22.633 4.8325 22.421 4.45987 22.234 4.08189C22.013 3.75531 21.804 3.3827 21.531 3.09039C21.286 2.76595 20.986 2.5122 20.709 2.24772C20.408 2.0218 20.123 1.77981 19.818 1.62027C19.517 1.45002 19.23 1.29048 18.942 1.20054C18.664 1.08061 18.4 1.00995 18.16 0.970331C17.923 0.913582 17.714 0.873933 17.537 0.878216C17.188 0.863226 16.988 0.853611 16.988 0.853611Z" fill="white"/>
<path d="M8.33203 5.91523C8.33203 5.91523 8.42704 5.85208 8.59404 5.74286C8.67304 5.67648 8.78404 5.63578 8.92004 5.5983C9.05204 5.54798 9.20504 5.50729 9.37604 5.50194C9.54604 5.47517 9.73003 5.47729 9.92503 5.49014C10.122 5.48693 10.326 5.54156 10.531 5.56726C10.941 5.63686 11.401 5.76855 11.816 5.97199C12.035 6.05337 12.228 6.19256 12.424 6.31784C12.629 6.43241 12.809 6.61442 12.959 6.74933C13.124 6.88103 13.264 7.05772 13.395 7.23546C13.531 7.40678 13.657 7.57167 13.73 7.7462C13.815 7.91537 13.894 8.07172 13.963 8.20984C14.007 8.36082 14.044 8.49251 14.075 8.60066C14.136 8.82016 14.17 8.94546 14.17 8.94546L13.611 9.03326C13.611 9.03326 13.589 8.92725 13.55 8.74201C13.532 8.64779 13.509 8.53428 13.483 8.40365C13.431 8.28051 13.374 8.14132 13.31 7.98928C13.257 7.82759 13.161 7.68411 13.059 7.53099C12.965 7.37466 12.859 7.2055 12.696 7.05345C12.537 6.88642 12.414 6.73222 12.233 6.61337C12.061 6.48273 11.891 6.33603 11.692 6.24288C11.309 6.01588 10.906 5.86063 10.498 5.75463C10.29 5.71072 10.101 5.64219 9.91304 5.62934C9.72504 5.59936 9.54703 5.58332 9.38203 5.5951C9.21503 5.58653 9.06803 5.6133 8.93803 5.6497C8.80603 5.67326 8.69004 5.70537 8.60704 5.76426C8.43204 5.86063 8.33203 5.91523 8.33203 5.91523Z" fill="white"/>
<path d="M35.98 32.7832C34.325 29.9072 31.457 27.8556 28.333 27.3866C24.713 26.8427 21.121 28.2999 17.719 29.7294C19.259 33.4791 22.108 36.4922 25.662 38.0063C29.216 39.5214 33.386 39.3736 36.775 37.4741C36.945 37.3777 37.122 37.2706 37.214 37.0897C37.341 36.8381 37.109 34.7448 35.98 32.7832Z" fill="url(#paint13_linear_12_4057)" stroke="white" stroke-width="0.565" stroke-miterlimit="10"/>
<path opacity="0.3" d="M30.0359 32.412C26.1679 31.5929 23.1369 32.5266 20.6809 34.5075C22.0339 35.9262 23.8769 37.2475 25.6619 38.0078C29.2159 39.5229 33.3859 39.374 36.7749 37.4756C36.8429 37.437 37.2139 36.7218 37.2779 36.6747C35.1909 34.6831 32.8469 33.0063 30.0359 32.412Z" fill="url(#paint14_linear_12_4057)" stroke="white" stroke-width="0.6377" stroke-miterlimit="10"/>
<path d="M37.3979 37.0107C36.2959 35.4989 34.8109 34.3307 33.1809 33.534C31.5519 32.7374 29.7839 32.2534 27.9959 32.1271C24.3879 31.8744 22.4739 33.3338 20.9089 34.3028" stroke="white" stroke-width="0.565" stroke-miterlimit="10"/>
<path d="M61.498 61.4271C62.297 69.5679 57.126 72.2887 52.43 72.3819C52.388 72.3819 52.345 72.384 52.303 72.3819C52.261 72.384 52.218 72.3819 52.176 72.3819C47.479 72.2876 42.309 69.5679 43.108 61.4271C43.674 55.6686 34.858 41.8977 34.438 41.2232C32.071 37.4188 37.291 24.5517 44.085 24.2444L52.096 24.0174L52.304 24.0088L52.512 24.0174L60.523 24.2444C68.113 25.2337 72.654 37.8771 70.17 41.2232C69.697 41.8581 60.934 55.6686 61.498 61.4271Z" fill="url(#paint15_linear_12_4057)" stroke="white" stroke-width="0.6377" stroke-miterlimit="10"/>
<path opacity="0.3" d="M70.6739 36.604C63.9259 38.9382 57.8829 43.0906 56.2759 50.4883C56.2679 50.5258 56.2489 50.5494 56.2359 50.5815C55.9789 54.6867 57.6309 58.8434 58.2689 62.7923C58.6809 65.345 58.5009 68.5947 57.3329 71.1506C59.4019 69.4813 61.9339 65.8664 61.4979 61.4282C60.9339 55.6697 69.6969 41.8592 70.1679 41.2243C70.8739 40.2724 71.0109 38.5731 70.6739 36.604Z" fill="url(#paint16_linear_12_4057)"/>
<path opacity="0.3" d="M34.008 36.604C40.756 38.9382 46.799 43.0906 48.406 50.4883C48.414 50.5258 48.433 50.5494 48.446 50.5815C48.703 54.6867 47.052 58.8434 46.413 62.7923C46.001 65.345 46.181 68.5947 47.349 71.1506C45.28 69.4813 42.748 65.8664 43.184 61.4282C43.748 55.6697 34.985 41.8592 34.514 41.2243C33.809 40.2724 33.672 38.5731 34.008 36.604Z" fill="url(#paint17_linear_12_4057)"/>
<path d="M21.3479 73.3844C21.1339 72.3158 21.0879 71.2172 21.0989 70.1239C21.1289 67.0809 21.7729 58.9036 27.9369 54.0488C27.5539 55.7535 28.2569 57.5063 29.0229 59.0556C30.2669 61.5687 31.7289 63.9661 32.7289 66.6012C33.7279 69.2352 34.2419 72.2012 33.4939 74.9294C32.8229 77.375 31.0799 79.4084 28.9419 80.4887C28.0839 80.9224 26.6229 81.5831 25.6609 81.2479C24.5839 80.8721 23.8839 79.1846 23.3439 78.2348C22.4839 76.723 21.6979 75.1286 21.3479 73.3844Z" fill="url(#paint18_linear_12_4057)" stroke="white" stroke-width="0.4597" stroke-miterlimit="10"/>
<path opacity="0.3" d="M27.3259 72.3011C27.1899 69.5064 26.5869 66.775 26.2019 64.0135C25.7779 60.9769 25.6419 57.9381 26.6449 55.2056C21.6899 60.1139 21.1269 67.3114 21.0989 70.1243C21.0879 71.2175 21.1339 72.3161 21.3479 73.3847C21.6979 75.1289 22.4829 76.7233 23.3439 78.2352C23.7479 78.9451 24.2409 80.0662 24.9129 80.745C26.6639 78.2566 27.4919 75.6889 27.3259 72.3011Z" fill="url(#paint19_linear_12_4057)"/>
<path d="M27.36 54.4927C27.36 54.4927 23.493 62.2631 23.897 69.4221C24.302 76.5971 26.191 80.9315 26.191 80.9315" stroke="white" stroke-width="0.4597" stroke-miterlimit="10"/>
<path d="M27.6299 54.7324C27.6299 54.7324 27.0239 60.8796 29.2939 68.5547C31.5879 76.3079 26.1899 81.2205 26.1899 81.2205" stroke="white" stroke-width="0.4597" stroke-miterlimit="10"/>
<path d="M5.74901 70.5048C4.13201 70.5723 2.454 70.6708 1 71.4331C2.674 71.8465 3.88201 73.3744 4.88101 74.8703C6.50201 77.2966 7.92001 79.8899 9.76201 82.1278C11.604 84.3667 13.996 85.9899 16.739 86.5157C19.197 86.9868 21.765 86.4675 23.715 84.825C24.497 84.1654 25.76 83.0068 25.917 81.8826C26.091 80.6234 22.439 69.8035 5.74901 70.5048Z" fill="url(#paint20_linear_12_4057)" stroke="white" stroke-width="0.4823" stroke-miterlimit="10"/>
<path opacity="0.3" d="M14.8849 79.6792C10.7229 77.1576 7.46292 73.5984 2.88892 72.4741C3.65492 73.138 4.30491 74.0064 4.88191 74.8694C6.50291 77.2957 7.92091 79.889 9.76291 82.1269C11.6049 84.3658 13.9969 85.9891 16.7399 86.5148C19.1979 86.9859 21.7659 86.4666 23.7159 84.8241C24.4979 84.1645 25.7609 83.006 25.9179 81.8817C25.9319 81.7789 25.9179 81.6076 25.8759 81.3891C22.1109 82.1237 18.5009 81.8721 14.8849 79.6792Z" fill="url(#paint21_linear_12_4057)"/>
<path d="M1.76807 71.3965C1.76807 71.3965 15.1171 73.296 25.9161 81.8823" stroke="white" stroke-width="0.4597" stroke-miterlimit="10"/>
<path d="M25.8761 82.2327C15.5761 87.2417 9.90909 75.1048 2.03809 71.3486" stroke="white" stroke-width="0.4597" stroke-miterlimit="10"/>
<path d="M34.314 36.5737C34.314 36.5737 34.939 36.7076 36.003 37.0673C37.062 37.4335 38.575 38.0053 40.261 38.9925C41.937 39.9787 43.834 41.3386 45.437 43.2895C47.045 45.2168 48.306 47.7577 48.748 50.5009C48.829 51.1873 48.973 51.8608 48.878 52.5985C48.811 53.2945 48.678 53.9627 48.539 54.6222C48.237 55.9243 47.941 57.2059 47.654 58.4459C47.083 60.9171 46.646 63.2503 46.576 65.2804C46.485 67.3073 46.785 68.9991 47.222 70.0891C47.439 70.6341 47.66 71.04 47.827 71.3023C47.998 71.5636 48.09 71.7028 48.09 71.7028C48.09 71.7028 47.992 71.5679 47.81 71.3162C47.63 71.0614 47.391 70.6652 47.146 70.1256C46.666 69.0473 46.25 67.3384 46.297 65.2729C46.325 63.2118 46.682 60.8293 47.233 58.3399C47.509 57.0989 47.795 55.8172 48.086 54.5141C48.217 53.8641 48.341 53.2056 48.399 52.5514C48.484 51.9325 48.343 51.2526 48.258 50.5951C47.846 47.9472 46.66 45.4866 45.11 43.5957C43.565 41.693 41.762 40.2721 40.123 39.257C38.479 38.2441 37.019 37.562 35.976 37.153C34.932 36.7408 34.314 36.5737 34.314 36.5737Z" fill="white"/>
<path d="M70.5981 36.5737C70.5981 36.5737 69.9791 36.7397 68.9361 37.1519C67.8931 37.561 66.4331 38.243 64.7891 39.256C63.1501 40.2699 61.3481 41.6919 59.8021 43.5946C58.2521 45.4856 57.0651 47.9461 56.6541 50.5941C56.5691 51.2515 56.4281 51.9315 56.5131 52.5503C56.5711 53.2046 56.6951 53.8631 56.8261 54.513C57.1161 55.8161 57.4021 57.0978 57.6791 58.3388C58.2311 60.8272 58.5871 63.2107 58.6161 65.2719C58.6631 67.3384 58.2481 69.0463 57.7671 70.1245C57.5231 70.6641 57.2831 71.0603 57.1041 71.3152C56.9211 71.5668 56.8241 71.7017 56.8241 71.7017C56.8241 71.7017 56.9151 71.5625 57.0871 71.3012C57.2541 71.0389 57.4751 70.6331 57.6921 70.0881C58.1291 68.9981 58.4301 67.3052 58.3381 65.2794C58.2691 63.2492 57.8311 60.9161 57.2601 58.4448C56.9731 57.2049 56.6761 55.9232 56.3751 54.6212C56.2361 53.9627 56.1041 53.2945 56.0361 52.5974C55.9411 51.8597 56.0841 51.1862 56.1661 50.4999C56.6071 47.7555 57.8681 45.2146 59.4771 43.2884C61.0801 41.3385 62.9771 39.9776 64.6531 38.9915C66.3391 38.0042 67.8521 37.4325 68.9111 37.0663C69.9731 36.7076 70.5981 36.5737 70.5981 36.5737Z" fill="white"/>
<path d="M47.2539 64.7013C47.2539 64.7013 47.4669 64.6574 47.8469 64.6146C48.2239 64.5846 48.7859 64.5161 49.4319 64.7527C49.7449 64.8641 50.1009 65.0718 50.3169 65.439C50.5279 65.8277 50.6009 66.2474 50.7499 66.6297C50.8999 66.9873 51.1949 67.3246 51.5319 67.5334C51.8759 67.7508 52.2859 67.8654 52.6869 67.8397C53.1129 67.8161 53.4679 67.6533 53.7989 67.3899C54.1199 67.1287 54.3539 66.7785 54.4869 66.3877C54.6339 65.9872 54.7119 65.5825 54.8719 65.1981C54.9439 65.0032 55.0909 64.8148 55.2669 64.7195C55.4349 64.6231 55.6099 64.5674 55.7759 64.5417C56.4469 64.4443 56.9929 64.5835 57.3599 64.6927C57.7299 64.8052 57.9119 64.9422 57.9119 64.9422C57.9119 64.9422 57.7189 64.8287 57.3459 64.7495C56.9809 64.6659 56.4279 64.5856 55.8069 64.7131C55.4969 64.788 55.1799 64.9176 55.0689 65.2806C54.9399 65.636 54.8889 66.0729 54.7389 66.4862C54.6019 66.9177 54.3359 67.3343 53.9779 67.633C53.6359 67.9296 53.1529 68.1459 52.7069 68.1651C52.2379 68.1887 51.7739 68.0474 51.3879 67.7936C50.9939 67.5291 50.6879 67.1801 50.5089 66.7389C50.3499 66.3149 50.2919 65.8845 50.1349 65.5718C49.9619 65.2409 49.6669 65.0493 49.3749 64.9251C48.7879 64.6756 48.2269 64.6724 47.8539 64.6777C47.4709 64.6927 47.2539 64.7013 47.2539 64.7013Z" fill="white"/>
<path d="M48.594 28.6607C49.547 28.2324 50.065 28.802 50.37 29.4263C50.675 30.0505 50.614 33.4823 50.513 34.4802" stroke="white" stroke-width="0.6178" stroke-miterlimit="10"/>
<path d="M50.5469 30.7886C51.2699 28.8237 52.5009 28.4126 52.9049 28.5261C53.2959 28.6364 53.4499 29.1289 53.5429 29.5497C53.6459 30.0176 53.6469 34.1336 53.8619 34.8735C54.1549 35.8832 54.9399 36.8308 55.9359 37.0492C56.7029 37.2184 57.5459 36.8961 58.0399 36.2451C58.5329 35.5952 58.6549 34.6443 58.3429 33.8755C58.1739 33.4579 57.8859 33.096 57.5189 32.8679C57.1409 32.6302 56.6899 32.5403 56.2529 32.5756C55.8839 32.6035 55.5149 32.7234 55.2199 32.9622C54.7369 33.3541 54.5139 34.0136 54.4119 34.6539C54.3089 35.2942 54.3019 35.9528 54.1309 36.5749C53.9059 37.394 53.2699 37.7131 52.5289 37.8651C52.0829 37.9572 51.6259 37.9743 51.1719 37.9915" stroke="white" stroke-width="0.6178" stroke-miterlimit="10"/>
<path d="M48.4541 49.7732C49.0401 48.3201 49.6711 46.8918 50.3111 45.4666C50.9451 44.0404 51.6271 42.6388 52.2821 41.2233L52.5141 40.7222L52.7261 41.235C53.3541 42.7566 53.9841 44.277 54.5911 45.8082C55.1901 47.3437 55.7841 48.8802 56.3241 50.4445C55.5901 48.9744 54.9101 47.4785 54.2341 45.9795C53.5671 44.4783 52.9221 42.9643 52.2761 41.4524L52.7211 41.4653C52.0271 42.8594 51.3591 44.2674 50.6441 45.6497C49.9361 47.0374 49.2171 48.4176 48.4541 49.7732Z" fill="white"/>
<path d="M52.73 68.0024V72.3111" stroke="white" stroke-width="0.8096" stroke-miterlimit="10"/>
<path d="M67.3501 37.7773C67.3501 37.7773 67.3411 37.9615 67.3261 38.2849C67.3241 38.4466 67.2951 38.6414 67.2541 38.8652C67.2231 39.0911 67.1741 39.3438 67.0841 39.6072C67.0151 39.8792 66.9021 40.1587 66.7761 40.4521C66.6611 40.7508 66.4821 41.0356 66.3091 41.3344C66.1061 41.6127 65.9121 41.9147 65.6591 42.1717C65.4271 42.4554 65.1501 42.6717 64.8661 42.9255C64.5701 43.1171 64.2931 43.327 63.9631 43.4748C63.6501 43.6525 63.3211 43.751 63.0101 43.8677C62.6901 43.947 62.3801 44.038 62.0791 44.0583C61.7791 44.0926 61.4961 44.1183 61.2331 44.1001C60.9701 44.1076 60.7321 44.0765 60.5221 44.0348C60.3121 44.0048 60.1301 43.9716 59.9851 43.9223C59.6941 43.8335 59.5281 43.7831 59.5281 43.7831C59.5281 43.7831 59.6981 43.8099 59.9971 43.8592C60.2911 43.9116 60.7231 43.9448 61.2301 43.9149C61.4851 43.9149 61.7591 43.8731 62.0461 43.8206C62.3351 43.7831 62.6261 43.6696 62.9331 43.5936C63.2281 43.4758 63.5441 43.373 63.8291 43.2028C64.1261 43.0668 64.4111 42.843 64.7011 42.6471C64.9461 42.4318 65.2351 42.2188 65.4541 41.9564C65.7001 41.7166 65.8911 41.4318 66.0911 41.1705C66.2571 40.8836 66.4511 40.6244 66.5761 40.3439C66.7141 40.0687 66.8391 39.8064 66.9211 39.5473C67.1111 39.0397 67.2181 38.5986 67.2671 38.2774C67.3201 37.9593 67.3501 37.7773 67.3501 37.7773Z" fill="white"/>
<path d="M37.595 37.7773C37.595 37.7773 37.625 37.9593 37.678 38.2774C37.727 38.5986 37.834 39.0397 38.024 39.5473C38.106 39.8064 38.231 40.0687 38.369 40.3439C38.495 40.6255 38.688 40.8846 38.854 41.1705C39.054 41.4318 39.245 41.7177 39.491 41.9564C39.711 42.2188 39.999 42.4318 40.244 42.6471C40.534 42.843 40.819 43.0668 41.116 43.2028C41.401 43.373 41.717 43.4758 42.012 43.5936C42.319 43.6696 42.611 43.7831 42.899 43.8206C43.186 43.8731 43.46 43.9149 43.715 43.9149C44.223 43.9448 44.654 43.9116 44.948 43.8592C45.246 43.8099 45.417 43.7831 45.417 43.7831C45.417 43.7831 45.251 43.8335 44.96 43.9223C44.815 43.9727 44.633 44.0048 44.423 44.0348C44.213 44.0755 43.975 44.1065 43.713 44.1001C43.45 44.1183 43.168 44.0926 42.867 44.0583C42.566 44.038 42.256 43.948 41.936 43.8677C41.625 43.751 41.297 43.6525 40.983 43.4748C40.652 43.327 40.376 43.1171 40.08 42.9255C39.795 42.6717 39.519 42.4543 39.287 42.1717C39.035 41.9147 38.84 41.6117 38.637 41.3344C38.464 41.0356 38.284 40.7508 38.17 40.4521C38.044 40.1587 37.931 39.8792 37.862 39.6072C37.772 39.3438 37.723 39.0911 37.691 38.8652C37.649 38.6414 37.621 38.4466 37.619 38.2849C37.604 37.9615 37.595 37.7773 37.595 37.7773Z" fill="white"/>
<defs>
<linearGradient id="paint0_linear_12_4057" x1="86.6536" y1="-24.0358" x2="86.6536" y2="85.8932" gradientUnits="userSpaceOnUse">
<stop stop-color="#21D1FF"/>
<stop offset="1" stop-color="#993CFE"/>
</linearGradient>
<linearGradient id="paint1_linear_12_4057" x1="17.2648" y1="-24.0353" x2="17.2648" y2="85.8935" gradientUnits="userSpaceOnUse">
<stop stop-color="#21D1FF"/>
<stop offset="1" stop-color="#993CFE"/>
</linearGradient>
<linearGradient id="paint2_linear_12_4057" x1="56.365" y1="-24.036" x2="56.365" y2="85.893" gradientUnits="userSpaceOnUse">
<stop stop-color="#21D1FF"/>
<stop offset="1" stop-color="#993CFE"/>
</linearGradient>
<linearGradient id="paint3_linear_12_4057" x1="56.365" y1="-24.036" x2="56.365" y2="85.893" gradientUnits="userSpaceOnUse">
<stop stop-color="#21D1FF"/>
<stop offset="1" stop-color="#993CFE"/>
</linearGradient>
<linearGradient id="paint4_linear_12_4057" x1="49.9642" y1="-24.0363" x2="49.9642" y2="85.8941" gradientUnits="userSpaceOnUse">
<stop stop-color="#21D1FF"/>
<stop offset="1" stop-color="#993CFE"/>
</linearGradient>
<linearGradient id="paint5_linear_12_4057" x1="49.9642" y1="-24.0363" x2="49.9642" y2="85.8941" gradientUnits="userSpaceOnUse">
<stop stop-color="#21D1FF"/>
<stop offset="1" stop-color="#993CFE"/>
</linearGradient>
<linearGradient id="paint6_linear_12_4057" x1="52.2715" y1="-24.0335" x2="52.2715" y2="85.8934" gradientUnits="userSpaceOnUse">
<stop stop-color="#21D1FF"/>
<stop offset="1" stop-color="#993CFE"/>
</linearGradient>
<linearGradient id="paint7_linear_12_4057" x1="79.2922" y1="-24.0364" x2="79.2922" y2="85.8944" gradientUnits="userSpaceOnUse">
<stop stop-color="#21D1FF"/>
<stop offset="1" stop-color="#993CFE"/>
</linearGradient>
<linearGradient id="paint8_linear_12_4057" x1="80.9525" y1="-24.0369" x2="80.9525" y2="85.8948" gradientUnits="userSpaceOnUse">
<stop stop-color="#21D1FF"/>
<stop offset="1" stop-color="#993CFE"/>
</linearGradient>
<linearGradient id="paint9_linear_12_4057" x1="76.4798" y1="-24.0374" x2="76.4798" y2="85.8947" gradientUnits="userSpaceOnUse">
<stop stop-color="#21D1FF"/>
<stop offset="1" stop-color="#993CFE"/>
</linearGradient>
<linearGradient id="paint10_linear_12_4057" x1="75.1712" y1="-24.0377" x2="75.1712" y2="85.8945" gradientUnits="userSpaceOnUse">
<stop stop-color="#21D1FF"/>
<stop offset="1" stop-color="#993CFE"/>
</linearGradient>
<linearGradient id="paint11_linear_12_4057" x1="24.6695" y1="-24.0364" x2="24.6695" y2="85.8944" gradientUnits="userSpaceOnUse">
<stop stop-color="#21D1FF"/>
<stop offset="1" stop-color="#993CFE"/>
</linearGradient>
<linearGradient id="paint12_linear_12_4057" x1="23.009" y1="-24.0369" x2="23.009" y2="85.8948" gradientUnits="userSpaceOnUse">
<stop stop-color="#21D1FF"/>
<stop offset="1" stop-color="#993CFE"/>
</linearGradient>
<linearGradient id="paint13_linear_12_4057" x1="27.4816" y1="-24.0374" x2="27.4816" y2="85.8947" gradientUnits="userSpaceOnUse">
<stop stop-color="#21D1FF"/>
<stop offset="1" stop-color="#993CFE"/>
</linearGradient>
<linearGradient id="paint14_linear_12_4057" x1="28.9791" y1="-24.0379" x2="28.9791" y2="85.8954" gradientUnits="userSpaceOnUse">
<stop stop-color="#21D1FF"/>
<stop offset="1" stop-color="#993CFE"/>
</linearGradient>
<linearGradient id="paint15_linear_12_4057" x1="52.3541" y1="-24.0365" x2="52.3541" y2="85.8937" gradientUnits="userSpaceOnUse">
<stop stop-color="#21D1FF"/>
<stop offset="1" stop-color="#993CFE"/>
</linearGradient>
<linearGradient id="paint16_linear_12_4057" x1="63.5293" y1="-24.0344" x2="63.5293" y2="85.8931" gradientUnits="userSpaceOnUse">
<stop stop-color="#21D1FF"/>
<stop offset="1" stop-color="#993CFE"/>
</linearGradient>
<linearGradient id="paint17_linear_12_4057" x1="41.1532" y1="-24.0344" x2="41.1532" y2="85.8931" gradientUnits="userSpaceOnUse">
<stop stop-color="#21D1FF"/>
<stop offset="1" stop-color="#993CFE"/>
</linearGradient>
<linearGradient id="paint18_linear_12_4057" x1="27.4744" y1="-24.0346" x2="27.4744" y2="85.8937" gradientUnits="userSpaceOnUse">
<stop stop-color="#21D1FF"/>
<stop offset="1" stop-color="#993CFE"/>
</linearGradient>
<linearGradient id="paint19_linear_12_4057" x1="24.2224" y1="-24.0385" x2="24.2224" y2="85.8938" gradientUnits="userSpaceOnUse">
<stop stop-color="#21D1FF"/>
<stop offset="1" stop-color="#993CFE"/>
</linearGradient>
<linearGradient id="paint20_linear_12_4057" x1="13.4611" y1="-24.0346" x2="13.4611" y2="85.8938" gradientUnits="userSpaceOnUse">
<stop stop-color="#21D1FF"/>
<stop offset="1" stop-color="#993CFE"/>
</linearGradient>
<linearGradient id="paint21_linear_12_4057" x1="14.4051" y1="-24.0375" x2="14.4051" y2="85.8939" gradientUnits="userSpaceOnUse">
<stop stop-color="#21D1FF"/>
<stop offset="1" stop-color="#993CFE"/>
</linearGradient>
</defs>
</svg>
