<svg width="92" height="104" viewBox="0 0 92 104" fill="none" xmlns="http://www.w3.org/2000/svg">
<path d="M43.5804 58.4637C43.5804 58.4637 31.2324 85.0792 45.2044 102.825C24.5714 96.9099 16.2854 70.6413 22.9464 58.4637C29.6074 46.2861 40.9804 45.7646 40.9804 45.7646L43.5804 58.4637Z" fill="url(#paint0_linear_12_3722)" stroke="white" stroke-width="0.8139" stroke-miterlimit="10"/>
<path opacity="0.3" d="M36.8254 92.5163C33.0714 85.8809 29.1944 77.3534 31.0164 69.3368C32.8164 61.4207 37.6374 57.9419 42.6794 54.0615L43.5804 58.4634C43.5804 58.4634 31.2324 85.0789 45.2044 102.824C44.6564 102.667 42.6804 99.822 42.1494 99.6368C39.9514 96.2885 38.8054 96.0176 36.8254 92.5163Z" fill="url(#paint1_linear_12_3722)"/>
<path d="M48.4546 36.7176C48.4546 36.7176 14.0926 59.5941 26.5216 91.5163C26.5216 91.5163 5.88762 79.0346 9.66562 59.9849C13.4426 40.9364 37.1626 32.2387 48.4546 36.7176Z" fill="url(#paint2_linear_12_3722)" stroke="white" stroke-width="0.8139" stroke-miterlimit="10"/>
<path opacity="0.3" d="M26.5205 91.5164C26.5205 91.5164 26.5025 91.5057 26.4755 91.4886C24.5605 87.6435 22.5655 83.822 21.2295 79.6964C18.7105 71.9185 17.3565 62.0163 21.3445 54.5489C22.1475 53.0445 23.0715 51.5819 24.3165 50.4544C25.7745 49.1352 30.6705 43.9367 39.3955 44.4411C30.2095 53.7298 18.4155 70.6979 26.5205 91.5164Z" fill="url(#paint3_linear_12_3722)"/>
<path d="M47.5604 37.6751C47.5604 37.6751 11.5734 36.4576 6.86245 70.0319C6.86245 70.0319 1.25745 51.8967 6.86245 39.111C12.4674 26.3241 37.3254 22.1493 47.5604 37.6751Z" fill="url(#paint4_linear_12_3722)" stroke="white" stroke-width="0.8139" stroke-miterlimit="10"/>
<path opacity="0.3" d="M7.5196 56.6593C8.2416 53.0145 10.0176 44.7858 18.5826 39.537C21.7616 37.5893 25.6696 36.5047 29.2706 36.3697C32.9586 36.2327 37.3926 36.2702 40.7046 38.0883C29.7796 39.9332 10.1226 46.7988 6.8626 70.0318C6.8626 70.0318 6.7626 69.7074 6.6056 69.1281C6.2976 64.8805 6.6936 60.8277 7.5196 56.6593Z" fill="url(#paint5_linear_12_3722)"/>
<path d="M6.86249 70.0314C6.86249 70.0314 2.34149 31.9343 36.4595 36.6306" stroke="white" stroke-width="0.3656" stroke-miterlimit="10"/>
<path d="M48.1695 34.0213C48.1695 34.0213 6.78049 21.1488 1.66249 55.4191C1.66249 55.4191 -3.61751 24.193 15.6345 17.4087C34.8885 10.6234 47.1625 22.4091 48.1695 34.0213Z" fill="url(#paint6_linear_12_3722)" stroke="white" stroke-width="0.8139" stroke-miterlimit="10"/>
<path opacity="0.3" d="M3.53842 40.2927C4.76242 36.5793 6.60042 33.8521 9.07542 30.8904C11.8234 27.6022 16.7214 25.8429 20.8244 25.4072C28.5564 24.5859 35.8504 26.7156 41.1514 32.3916C29.0814 30.5328 5.85142 30.4279 1.78442 54.7049C1.97442 49.8116 1.99142 44.9879 3.53842 40.2927Z" fill="url(#paint7_linear_12_3722)"/>
<path d="M26.7005 7.37155C45.7425 9.10081 45.1315 28.5787 45.1315 28.5787C45.1315 28.5787 18.0725 8.62218 1.98853 24.6277C2.38853 21.5546 12.1155 6.04704 26.7005 7.37155Z" fill="url(#paint8_linear_12_3722)" stroke="white" stroke-width="0.8139" stroke-miterlimit="10"/>
<path opacity="0.3" d="M9.98455 17.4087C16.0126 13.7863 23.0525 11.2262 29.9335 13.4619C36.2295 15.5081 39.7886 20.9785 42.6105 26.8955C35.5295 22.4454 15.1095 11.571 1.98755 24.6276C2.02755 24.3225 2.20255 24.0826 2.42155 23.5622C4.74355 21.2783 7.22555 19.0672 9.98455 17.4087Z" fill="url(#paint9_linear_12_3722)"/>
<path d="M43.4454 27.933C43.4454 27.933 31.8284 -4.33716 2.09644 24.0183" stroke="white" stroke-width="0.3656" stroke-miterlimit="10"/>
<path d="M45.1236 27.8454C45.1236 27.8454 50.9726 10.6236 40.4126 3.6648C26.7356 -5.34767 12.9146 7.66617 12.9146 7.66617C12.9146 7.66617 40.1276 0.816606 45.1236 27.8454Z" fill="url(#paint10_linear_12_3722)" stroke="white" stroke-width="0.8139" stroke-miterlimit="10"/>
<path opacity="0.3" d="M24.7134 4.36698C28.9534 4.22779 33.4534 5.01371 37.3204 7.42932C40.7404 9.56652 43.3734 12.7274 44.3824 16.8358C45.2564 20.395 45.1324 24.1436 45.1134 27.7992C40.6684 3.91297 18.8494 6.54273 13.9114 7.45822C17.2954 5.69149 20.9144 4.49226 24.7134 4.36698Z" fill="url(#paint11_linear_12_3722)"/>
<path d="M1.66339 55.4191C1.66339 55.4191 0.180393 30.9879 16.2644 26.2905C32.2544 21.621 41.5774 32.8906 41.5774 32.8906" stroke="white" stroke-width="0.3656" stroke-miterlimit="10"/>
<path d="M26.5204 91.5159C26.5204 91.5159 6.11743 57.767 30.4884 46.1548" stroke="white" stroke-width="0.3656" stroke-miterlimit="10"/>
<path d="M45.2044 102.824C45.2044 102.824 18.4984 76.6208 37.2644 58.355" stroke="white" stroke-width="0.3656" stroke-miterlimit="10"/>
<path d="M48.6035 58.4637C48.6035 58.4637 60.9515 85.0792 46.9795 102.825C67.6125 96.9099 75.8985 70.6413 69.2375 58.4637C62.5765 46.2861 51.2035 45.7646 51.2035 45.7646L48.6035 58.4637Z" fill="url(#paint12_linear_12_3722)" stroke="white" stroke-width="0.8139" stroke-miterlimit="10"/>
<path opacity="0.3" d="M55.3585 92.5163C59.1125 85.8809 62.6825 77.4263 61.1675 69.3368C59.8065 62.0739 54.5465 57.9419 49.5045 54.0615L48.6035 58.4634C48.6035 58.4634 60.9515 85.0789 46.9795 102.824C47.5275 102.667 50.0515 99.2181 50.5825 99.0318C52.7805 95.6836 53.3785 96.0176 55.3585 92.5163Z" fill="url(#paint13_linear_12_3722)"/>
<path d="M43.7295 36.7176C43.7295 36.7176 78.0915 59.5941 65.6625 91.5163C65.6625 91.5163 86.2965 79.0346 82.5185 59.9849C78.7415 40.9364 55.0215 32.2387 43.7295 36.7176Z" fill="url(#paint14_linear_12_3722)" stroke="white" stroke-width="0.8139" stroke-miterlimit="10"/>
<path opacity="0.3" d="M65.6636 91.5164C65.6636 91.5164 65.6816 91.5057 65.7086 91.4886C67.6236 87.6435 69.6186 83.822 70.9546 79.6964C73.4736 71.9185 74.8276 62.0163 70.8396 54.5489C70.0366 53.0445 69.1116 51.5819 67.8676 50.4544C66.4096 49.1352 61.5136 43.9367 52.7886 44.4411C61.9746 53.7298 73.7686 70.6979 65.6636 91.5164Z" fill="url(#paint15_linear_12_3722)"/>
<path d="M44.6235 37.6751C44.6235 37.6751 80.6105 36.4576 85.3215 70.0319C85.3215 70.0319 90.9265 51.8967 85.3215 39.111C79.7165 26.3241 54.8585 22.1493 44.6235 37.6751Z" fill="url(#paint16_linear_12_3722)" stroke="white" stroke-width="0.8139" stroke-miterlimit="10"/>
<path opacity="0.3" d="M84.6645 56.6593C83.9425 53.0145 82.1665 44.7858 73.6025 39.537C70.4235 37.5893 66.5145 36.5047 62.9145 36.3697C59.2265 36.2327 54.7925 36.2702 51.4805 38.0883C62.4055 39.9332 82.0625 46.7988 85.3225 70.0318C85.3225 70.0318 85.4225 69.7074 85.5795 69.1281C85.8865 64.8805 85.4905 60.8277 84.6645 56.6593Z" fill="url(#paint17_linear_12_3722)"/>
<path d="M85.3216 70.0314C85.3216 70.0314 89.8426 31.9343 55.7246 36.6306" stroke="white" stroke-width="0.3656" stroke-miterlimit="10"/>
<path d="M44.0144 34.0213C44.0144 34.0213 85.4034 21.1488 90.5214 55.4191C90.5214 55.4191 95.8014 24.193 76.5484 17.4087C57.2954 10.6234 45.0214 22.4091 44.0144 34.0213Z" fill="url(#paint18_linear_12_3722)" stroke="white" stroke-width="0.8139" stroke-miterlimit="10"/>
<path opacity="0.3" d="M88.6455 40.2927C87.4215 36.5793 85.8505 32.8778 83.3745 29.915C80.6275 26.6268 75.7285 24.8675 71.6255 24.4317C63.8945 23.6105 56.3335 26.7146 51.0325 32.3906C63.1025 30.5318 86.3325 30.4268 90.3995 54.7038C90.2095 49.8116 90.1925 44.9879 88.6455 40.2927Z" fill="url(#paint19_linear_12_3722)"/>
<path d="M65.4835 7.37155C46.4405 9.10081 47.0525 28.5787 47.0525 28.5787C47.0525 28.5787 74.1105 8.62218 90.1955 24.6277C89.7955 21.5546 80.0685 6.04704 65.4835 7.37155Z" fill="url(#paint20_linear_12_3722)" stroke="white" stroke-width="0.8139" stroke-miterlimit="10"/>
<path opacity="0.3" d="M82.1995 17.4087C76.1715 13.7863 69.1305 11.2262 62.2505 13.4619C55.9545 15.5081 52.3945 20.9785 49.5735 26.8955C56.6535 22.4454 77.0745 11.571 90.1955 24.6276C90.1565 24.3225 89.9805 24.0826 89.7615 23.5622C87.4395 21.2783 84.9585 19.0672 82.1995 17.4087Z" fill="url(#paint21_linear_12_3722)"/>
<path d="M48.7385 27.933C48.7385 27.933 60.3555 -4.33716 90.0865 24.0183" stroke="white" stroke-width="0.3656" stroke-miterlimit="10"/>
<path d="M47.0604 27.8454C47.0604 27.8454 41.2114 10.6236 51.7714 3.6648C65.4484 -5.34767 79.2694 7.66617 79.2694 7.66617C79.2694 7.66617 52.0564 0.816606 47.0604 27.8454Z" fill="url(#paint22_linear_12_3722)" stroke="white" stroke-width="0.8139" stroke-miterlimit="10"/>
<path opacity="0.3" d="M67.4695 4.36698C63.2295 4.22779 58.7305 5.01371 54.8625 7.42932C51.4425 9.56652 48.8095 12.7274 47.8005 16.8358C46.9265 20.395 47.0505 24.1436 47.0695 27.7992C51.5135 3.91297 73.3335 6.54273 78.2715 7.45822C74.8885 5.69149 71.2695 4.49226 67.4695 4.36698Z" fill="url(#paint23_linear_12_3722)"/>
<path d="M90.5214 55.4193C90.5214 55.4193 92.1994 30.108 76.1144 25.4106C60.1244 20.7411 50.6074 32.8909 50.6074 32.8909" stroke="white" stroke-width="0.3656" stroke-miterlimit="10"/>
<path d="M65.6636 91.5159C65.6636 91.5159 86.0656 57.767 61.6956 46.1548" stroke="white" stroke-width="0.3656" stroke-miterlimit="10"/>
<path d="M46.9795 102.824C46.9795 102.824 73.7585 76.6863 54.9935 58.4204" stroke="white" stroke-width="0.3656" stroke-miterlimit="10"/>
<path d="M53.2996 29.6762C53.2996 29.6762 59.3516 18.1999 64.5156 19.064C69.4986 19.8971 69.1556 31.4622 60.8036 31.5918C58.2066 31.6314 53.2996 29.6762 53.2996 29.6762Z" fill="url(#paint24_linear_12_3722)" stroke="white" stroke-width="0.8139" stroke-miterlimit="10"/>
<path d="M57.2466 28.826C57.2466 28.826 60.2866 22.1134 63.2086 22.2698C66.0276 22.4208 66.4696 28.8784 61.8286 29.4759C60.3846 29.6611 57.2466 28.826 57.2466 28.826Z" fill="url(#paint25_linear_12_3722)" stroke="white" stroke-width="0.8139" stroke-miterlimit="10"/>
<path d="M37.7225 29.5458C37.7225 29.5458 31.6715 18.0696 26.5075 18.9337C21.5245 19.7678 21.8675 31.3318 30.2195 31.4614C32.8165 31.501 37.7225 29.5458 37.7225 29.5458Z" fill="url(#paint26_linear_12_3722)" stroke="white" stroke-width="0.8139" stroke-miterlimit="10"/>
<path d="M33.7754 28.6955C33.7754 28.6955 30.7354 21.983 27.8144 22.1404C24.9954 22.2914 24.5524 28.7491 29.1934 29.3465C30.6374 29.5318 33.7754 28.6955 33.7754 28.6955Z" fill="url(#paint27_linear_12_3722)" stroke="white" stroke-width="0.8139" stroke-miterlimit="10"/>
<path d="M59.5014 52.8502C55.1364 57.0004 53.6244 63.1989 55.7544 68.71C57.7914 73.9813 50.8964 80.6157 45.9454 81.953C41.3454 81.0879 34.1154 73.9813 36.1514 68.71C38.2814 63.2 36.7694 57.0004 32.4044 52.8502C27.3974 48.0907 22.6214 41.9189 25.0114 37.2387C29.1974 29.0432 43.7754 24.4069 45.9674 24.4111C48.1144 24.4154 62.7104 29.0432 66.8944 37.2387C69.2874 41.9189 64.5104 48.0918 59.5014 52.8502Z" fill="url(#paint28_linear_12_3722)" stroke="white" stroke-width="0.8139" stroke-miterlimit="10"/>
<path opacity="0.3" d="M67.4925 39.0229C64.5275 38.6845 60.9075 38.7702 58.2025 39.7895C55.6375 40.7564 52.5595 42.8925 50.9895 45.8981C49.6865 48.3919 49.1005 64.9777 49.0895 64.9863C49.0535 65.0109 49.0185 65.0377 48.9775 65.0527C48.9565 65.0623 48.9445 65.0773 48.9215 65.0859C46.7355 65.8161 42.6475 64.8514 42.6475 64.8514C42.6475 64.8514 41.8555 57.7256 41.7435 54.9748C41.5685 50.6801 41.2235 45.7921 37.9455 42.6784C34.3415 39.2541 28.9605 39.419 24.4265 39.4833C24.4965 43.6474 28.3515 48.9979 32.4055 52.8505C36.7705 57.0007 38.2825 63.1992 36.1525 68.7104C34.1155 73.9816 41.3465 81.0892 45.9465 81.9533C50.8965 80.616 57.7915 73.9816 55.7555 68.7104C53.6255 63.2003 55.1375 57.0007 59.5025 52.8505C63.7405 48.8234 67.7895 43.3133 67.4925 39.0229Z" fill="url(#paint29_linear_12_3722)"/>
<path d="M45.9765 75.3596C50.2385 75.3596 53.6935 73.5 53.6935 71.2062C53.6935 68.9123 50.2385 67.0527 45.9765 67.0527C41.7145 67.0527 38.2595 68.9123 38.2595 71.2062C38.2595 73.5 41.7145 75.3596 45.9765 75.3596Z" fill="url(#paint30_linear_12_3722)" stroke="white" stroke-width="0.8139" stroke-miterlimit="10"/>
<path d="M24.6116 39.5015C27.2986 39.2092 30.0406 39.3109 32.6966 39.9459C33.3666 40.0776 34.0096 40.3357 34.6596 40.5509C35.2836 40.8485 35.9376 41.0787 36.5166 41.4792C36.8086 41.6709 37.1256 41.8218 37.3966 42.0478L38.2116 42.7277C38.5006 42.9333 38.7036 43.2417 38.9466 43.504C39.1656 43.7888 39.4486 44.0212 39.6146 44.3499C39.9766 44.9795 40.3976 45.5812 40.6006 46.2976C40.7246 46.6488 40.8606 46.9753 40.9726 47.348L41.1946 48.4069C41.3666 49.104 41.4176 49.8471 41.5316 50.5666C41.6406 51.2926 41.6896 52.0111 41.7706 52.7338C41.9116 54.1772 42.0236 55.6227 42.1156 57.0682C42.2136 58.5148 42.2866 59.9603 42.3496 61.4111L42.0756 61.1295L49.4676 61.1263L49.1906 61.4154C49.2766 58.4323 49.3826 55.4524 49.5446 52.4704C49.6306 50.9789 49.7136 49.4916 49.8906 47.9936C49.9096 47.8073 49.9406 47.6178 49.9776 47.4272L50.0306 47.1413C50.0666 47.0289 50.1076 46.9154 50.1506 46.8062C50.3276 46.4774 50.4896 46.1755 50.6806 45.8489C51.0506 45.2043 51.4666 44.5887 51.9276 44.0147C52.3866 43.4397 52.8866 42.9001 53.4266 42.4129C53.9576 41.9118 54.5476 41.4953 55.1336 41.0777C55.7556 40.7211 56.3606 40.3324 57.0226 40.0701C57.6606 39.7467 58.3446 39.5615 59.0166 39.3452C59.6946 39.1589 60.3896 39.0422 61.0776 38.9116C61.7756 38.8569 62.4696 38.7531 63.1676 38.7402C63.8656 38.7542 64.5646 38.7252 65.2596 38.7745L67.3406 38.9812L65.2566 38.843C64.5626 38.8163 63.8666 38.8677 63.1736 38.8773C62.4806 38.9126 61.7946 39.039 61.1066 39.115C60.4296 39.267 59.7476 39.4041 59.0856 39.6097C58.4316 39.8474 57.7646 40.0444 57.1446 40.3699C56.4996 40.6376 55.9156 41.0295 55.3146 41.3871C54.7486 41.8058 54.1826 42.2212 53.6736 42.717C53.1566 43.1999 52.6806 43.731 52.2446 44.2974C51.8066 44.8617 51.4136 45.4645 51.0656 46.0973C50.8926 46.4057 50.7116 46.7537 50.5466 47.0717C50.5306 47.137 50.5116 47.2002 50.4886 47.2623L50.4456 47.5257C50.4146 47.7002 50.3886 47.878 50.3706 48.0632C50.2056 49.5248 50.1296 51.0163 50.0516 52.5015C49.9066 55.4739 49.8156 58.4548 49.7466 61.4315L49.7396 61.7206H49.4686L42.0766 61.7174H41.8136L41.8026 61.4347C41.7476 59.9935 41.6816 58.548 41.5926 57.1067C41.5086 55.6644 41.4046 54.2243 41.2716 52.7884C41.1946 52.0742 41.1486 51.3472 41.0466 50.6426C40.9376 49.9349 40.8936 49.2282 40.7346 48.5183L40.5286 47.455C40.4376 47.1402 40.3036 46.7997 40.1946 46.471C40.0136 45.7825 39.6206 45.2086 39.2866 44.6004C39.1356 44.2824 38.8656 44.0586 38.6616 43.7824C38.4326 43.5275 38.2456 43.2277 37.9696 43.0254L37.1956 42.3572C36.9376 42.1334 36.6316 41.9814 36.3516 41.7908C35.7966 41.3914 35.1596 41.1548 34.5546 40.8517C33.9186 40.6333 33.2966 40.3549 32.6396 40.2039C30.0356 39.4898 27.3046 39.2959 24.6116 39.5015Z" fill="white"/>
<path d="M36.9186 61.2034C37.5536 60.849 45.2276 61.319 45.6106 67.554C46.0666 74.9764 35.4666 74.0116 34.2476 72.3156C33.0296 70.6195 31.4356 63.8128 36.9186 61.2034Z" fill="url(#paint31_linear_12_3722)" stroke="white" stroke-width="0.5426" stroke-miterlimit="10"/>
<path d="M54.7864 61.2034C54.1514 60.849 46.4774 61.319 46.0944 67.554C45.6384 74.9764 55.9984 73.2621 57.2174 71.565C58.4354 69.8679 60.2694 63.8128 54.7864 61.2034Z" fill="url(#paint32_linear_12_3722)" stroke="white" stroke-width="0.5426" stroke-miterlimit="10"/>
<path d="M40.0864 61.4204H51.4594C51.4594 61.4204 48.4214 67.9455 45.6504 67.9006C43.6084 67.8674 40.0864 61.4204 40.0864 61.4204Z" fill="white"/>
<path d="M58.5095 39.7051C58.5095 39.7051 58.5165 39.8818 58.5295 40.1912C58.5405 40.3454 58.5245 40.5317 58.4975 40.7523C58.4815 40.975 58.4475 41.2234 58.3665 41.4804C58.3095 41.747 58.2065 42.019 58.0905 42.3081C57.9845 42.6004 57.8185 42.8831 57.6515 43.1743C57.4565 43.4452 57.2735 43.7461 57.0255 43.9934C56.8005 44.2654 56.5215 44.4828 56.2575 44.7183C55.9615 44.8939 55.6665 45.0695 55.3765 45.2419C55.1135 45.4346 54.7655 45.5096 54.4585 45.6156C54.1455 45.7023 53.8485 45.8394 53.5565 45.8415C53.2675 45.864 52.9945 45.8876 52.7435 45.9068C52.4935 45.9465 52.2635 45.9208 52.0605 45.8811C51.8595 45.8512 51.6835 45.8255 51.5395 45.804C51.2555 45.7537 51.0925 45.7248 51.0925 45.7248C51.0925 45.7248 51.2575 45.7098 51.5465 45.6852C51.8325 45.6456 52.2405 45.6895 52.7135 45.5642C52.9485 45.5149 53.2045 45.4603 53.4735 45.4036C53.7485 45.3672 53.9935 45.1991 54.2715 45.1134C54.5445 45.0042 54.8255 44.9293 55.1025 44.728C55.3735 44.5598 55.6485 44.3907 55.9245 44.2204C56.1665 44.0095 56.4255 43.82 56.6345 43.5758C56.8635 43.3542 57.0515 43.0993 57.2435 42.8595C57.4045 42.5972 57.5945 42.3627 57.7205 42.1046C57.8565 41.853 57.9825 41.6099 58.0635 41.368C58.2525 40.8958 58.3695 40.4921 58.4195 40.1816C58.4765 39.8775 58.5095 39.7051 58.5095 39.7051Z" fill="white"/>
<path d="M32.5705 40.0308C32.5705 40.0308 32.6035 40.2042 32.6615 40.5073C32.7105 40.8178 32.8285 41.2214 33.0165 41.6936C33.0975 41.9356 33.2235 42.1776 33.3595 42.4303C33.4845 42.6883 33.6755 42.9228 33.8365 43.1852C34.0285 43.425 34.2165 43.6799 34.4455 43.9015C34.6535 44.1456 34.9135 44.3352 35.1545 44.5461C35.4295 44.7163 35.7055 44.8855 35.9765 45.0536C36.2535 45.2549 36.5345 45.3299 36.8065 45.4391C37.0855 45.5237 37.3295 45.6918 37.6045 45.7293C37.8735 45.786 38.1295 45.8406 38.3645 45.8899C38.8375 46.0152 39.2455 45.9723 39.5315 46.0109C39.8205 46.0355 39.9855 46.0505 39.9855 46.0505C39.9855 46.0505 39.8225 46.0794 39.5385 46.1297C39.3945 46.1511 39.2195 46.1768 39.0175 46.2068C38.8145 46.2464 38.5845 46.2721 38.3345 46.2336C38.0835 46.2132 37.8105 46.1908 37.5215 46.1672C37.2285 46.1651 36.9315 46.028 36.6195 45.9413C36.3125 45.8353 35.9645 45.7614 35.7015 45.5687C35.4115 45.3963 35.1155 45.2207 34.8205 45.0451C34.5565 44.8095 34.2765 44.5921 34.0525 44.3202C33.8035 44.0739 33.6205 43.773 33.4265 43.501C33.2595 43.2087 33.0935 42.9271 32.9875 42.6337C32.8715 42.3457 32.7685 42.0737 32.7115 41.8071C32.6305 41.5512 32.5965 41.3007 32.5805 41.079C32.5535 40.8585 32.5385 40.6721 32.5485 40.518C32.5635 40.2074 32.5705 40.0308 32.5705 40.0308Z" fill="white"/>
<defs>
<linearGradient id="paint0_linear_12_3722" x1="35.8844" y1="-4.07204" x2="32.7746" y2="78.6038" gradientUnits="userSpaceOnUse">
<stop stop-color="#21D1FF"/>
<stop offset="1" stop-color="#993CFE"/>
</linearGradient>
<linearGradient id="paint1_linear_12_3722" x1="40.894" y1="-3.88359" x2="37.7842" y2="78.7922" gradientUnits="userSpaceOnUse">
<stop stop-color="#21D1FF"/>
<stop offset="1" stop-color="#993CFE"/>
</linearGradient>
<linearGradient id="paint2_linear_12_3722" x1="30.6249" y1="-4.26986" x2="27.5151" y2="78.4058" gradientUnits="userSpaceOnUse">
<stop stop-color="#21D1FF"/>
<stop offset="1" stop-color="#993CFE"/>
</linearGradient>
<linearGradient id="paint3_linear_12_3722" x1="31.05" y1="-4.25441" x2="27.9402" y2="78.4217" gradientUnits="userSpaceOnUse">
<stop stop-color="#21D1FF"/>
<stop offset="1" stop-color="#993CFE"/>
</linearGradient>
<linearGradient id="paint4_linear_12_3722" x1="27.5807" y1="-4.38379" x2="24.4709" y2="78.2909" gradientUnits="userSpaceOnUse">
<stop stop-color="#21D1FF"/>
<stop offset="1" stop-color="#993CFE"/>
</linearGradient>
<linearGradient id="paint5_linear_12_3722" x1="25.4497" y1="-4.46431" x2="22.3399" y2="78.2106" gradientUnits="userSpaceOnUse">
<stop stop-color="#21D1FF"/>
<stop offset="1" stop-color="#993CFE"/>
</linearGradient>
<linearGradient id="paint6_linear_12_3722" x1="26.0287" y1="-4.44283" x2="22.9189" y2="78.2323" gradientUnits="userSpaceOnUse">
<stop stop-color="#21D1FF"/>
<stop offset="1" stop-color="#993CFE"/>
</linearGradient>
<linearGradient id="paint7_linear_12_3722" x1="23.0456" y1="-4.55542" x2="19.9359" y2="78.1206" gradientUnits="userSpaceOnUse">
<stop stop-color="#21D1FF"/>
<stop offset="1" stop-color="#993CFE"/>
</linearGradient>
<linearGradient id="paint8_linear_12_3722" x1="24.5799" y1="-4.49724" x2="21.4703" y2="78.1778" gradientUnits="userSpaceOnUse">
<stop stop-color="#21D1FF"/>
<stop offset="1" stop-color="#993CFE"/>
</linearGradient>
<linearGradient id="paint9_linear_12_3722" x1="23.2939" y1="-4.54603" x2="20.1842" y2="78.1306" gradientUnits="userSpaceOnUse">
<stop stop-color="#21D1FF"/>
<stop offset="1" stop-color="#993CFE"/>
</linearGradient>
<linearGradient id="paint10_linear_12_3722" x1="30.3887" y1="-4.27874" x2="27.2789" y2="78.3962" gradientUnits="userSpaceOnUse">
<stop stop-color="#21D1FF"/>
<stop offset="1" stop-color="#993CFE"/>
</linearGradient>
<linearGradient id="paint11_linear_12_3722" x1="30.232" y1="-4.28517" x2="27.1222" y2="78.391" gradientUnits="userSpaceOnUse">
<stop stop-color="#21D1FF"/>
<stop offset="1" stop-color="#993CFE"/>
</linearGradient>
<linearGradient id="paint12_linear_12_3722" x1="62.1569" y1="-3.08385" x2="59.0471" y2="79.5921" gradientUnits="userSpaceOnUse">
<stop stop-color="#21D1FF"/>
<stop offset="1" stop-color="#993CFE"/>
</linearGradient>
<linearGradient id="paint13_linear_12_3722" x1="57.2543" y1="-3.26813" x2="54.1445" y2="79.4074" gradientUnits="userSpaceOnUse">
<stop stop-color="#21D1FF"/>
<stop offset="1" stop-color="#993CFE"/>
</linearGradient>
<linearGradient id="paint14_linear_12_3722" x1="65.1219" y1="-2.97223" x2="62.0121" y2="79.7031" gradientUnits="userSpaceOnUse">
<stop stop-color="#21D1FF"/>
<stop offset="1" stop-color="#993CFE"/>
</linearGradient>
<linearGradient id="paint15_linear_12_3722" x1="64.9883" y1="-2.97797" x2="61.8785" y2="79.6979" gradientUnits="userSpaceOnUse">
<stop stop-color="#21D1FF"/>
<stop offset="1" stop-color="#993CFE"/>
</linearGradient>
<linearGradient id="paint16_linear_12_3722" x1="67.8107" y1="-2.87062" x2="64.701" y2="79.8037" gradientUnits="userSpaceOnUse">
<stop stop-color="#21D1FF"/>
<stop offset="1" stop-color="#993CFE"/>
</linearGradient>
<linearGradient id="paint17_linear_12_3722" x1="70.3945" y1="-2.77371" x2="67.2848" y2="79.9011" gradientUnits="userSpaceOnUse">
<stop stop-color="#21D1FF"/>
<stop offset="1" stop-color="#993CFE"/>
</linearGradient>
<linearGradient id="paint18_linear_12_3722" x1="69.0242" y1="-2.82558" x2="65.9144" y2="79.8496" gradientUnits="userSpaceOnUse">
<stop stop-color="#21D1FF"/>
<stop offset="1" stop-color="#993CFE"/>
</linearGradient>
<linearGradient id="paint19_linear_12_3722" x1="72.234" y1="-2.70534" x2="69.1242" y2="79.971" gradientUnits="userSpaceOnUse">
<stop stop-color="#21D1FF"/>
<stop offset="1" stop-color="#993CFE"/>
</linearGradient>
<linearGradient id="paint20_linear_12_3722" x1="69.5808" y1="-2.8046" x2="66.4711" y2="79.8705" gradientUnits="userSpaceOnUse">
<stop stop-color="#21D1FF"/>
<stop offset="1" stop-color="#993CFE"/>
</linearGradient>
<linearGradient id="paint21_linear_12_3722" x1="70.8202" y1="-2.75842" x2="67.7104" y2="79.9182" gradientUnits="userSpaceOnUse">
<stop stop-color="#21D1FF"/>
<stop offset="1" stop-color="#993CFE"/>
</linearGradient>
<linearGradient id="paint22_linear_12_3722" x1="62.8641" y1="-3.05713" x2="59.7545" y2="79.6179" gradientUnits="userSpaceOnUse">
<stop stop-color="#21D1FF"/>
<stop offset="1" stop-color="#993CFE"/>
</linearGradient>
<linearGradient id="paint23_linear_12_3722" x1="63.273" y1="-3.04247" x2="60.1632" y2="79.6339" gradientUnits="userSpaceOnUse">
<stop stop-color="#21D1FF"/>
<stop offset="1" stop-color="#993CFE"/>
</linearGradient>
<linearGradient id="paint24_linear_12_3722" x1="61.5264" y1="-3.10757" x2="58.4166" y2="79.5674" gradientUnits="userSpaceOnUse">
<stop stop-color="#21D1FF"/>
<stop offset="1" stop-color="#993CFE"/>
</linearGradient>
<linearGradient id="paint25_linear_12_3722" x1="62.2785" y1="-3.07856" x2="59.1688" y2="79.594" gradientUnits="userSpaceOnUse">
<stop stop-color="#21D1FF"/>
<stop offset="1" stop-color="#993CFE"/>
</linearGradient>
<linearGradient id="paint26_linear_12_3722" x1="31.5005" y1="-4.23705" x2="28.3909" y2="78.4384" gradientUnits="userSpaceOnUse">
<stop stop-color="#21D1FF"/>
<stop offset="1" stop-color="#993CFE"/>
</linearGradient>
<linearGradient id="paint27_linear_12_3722" x1="30.7592" y1="-4.26576" x2="27.6493" y2="78.4122" gradientUnits="userSpaceOnUse">
<stop stop-color="#21D1FF"/>
<stop offset="1" stop-color="#993CFE"/>
</linearGradient>
<linearGradient id="paint28_linear_12_3722" x1="47.3834" y1="-3.64026" x2="44.2736" y2="79.0358" gradientUnits="userSpaceOnUse">
<stop stop-color="#21D1FF"/>
<stop offset="1" stop-color="#993CFE"/>
</linearGradient>
<linearGradient id="paint29_linear_12_3722" x1="47.3834" y1="-3.64013" x2="44.2736" y2="79.0358" gradientUnits="userSpaceOnUse">
<stop stop-color="#21D1FF"/>
<stop offset="1" stop-color="#993CFE"/>
</linearGradient>
<linearGradient id="paint30_linear_12_3722" x1="48.4308" y1="-3.59984" x2="45.3211" y2="79.0746" gradientUnits="userSpaceOnUse">
<stop stop-color="#21D1FF"/>
<stop offset="1" stop-color="#993CFE"/>
</linearGradient>
<linearGradient id="paint31_linear_12_3722" x1="41.6909" y1="-3.85483" x2="38.5811" y2="78.8219" gradientUnits="userSpaceOnUse">
<stop stop-color="#21D1FF"/>
<stop offset="1" stop-color="#993CFE"/>
</linearGradient>
<linearGradient id="paint32_linear_12_3722" x1="54.6257" y1="-3.36944" x2="51.5159" y2="79.3087" gradientUnits="userSpaceOnUse">
<stop stop-color="#21D1FF"/>
<stop offset="1" stop-color="#993CFE"/>
</linearGradient>
</defs>
</svg>
