<svg width="110" height="97" viewBox="0 0 110 97" fill="none" xmlns="http://www.w3.org/2000/svg">
<path d="M39.6109 32.1621C36.0599 28.9895 30.7919 28.2036 26.5669 30.2187C24.6969 31.1096 23.0639 32.478 21.5059 33.8978C26.0119 39.5342 31.7869 40.3544 39.1659 37.0094C39.5279 35.0938 39.2379 34.0766 39.6109 32.1621Z" fill="url(#paint0_linear_12_3459)" stroke="white" stroke-width="0.75" stroke-miterlimit="10"/>
<path d="M38.0005 33.1878C35.8555 31.2851 32.6735 30.8151 30.1215 32.0229C28.9925 32.5572 28.0065 33.3774 27.0645 34.2286C29.7865 37.6068 33.2745 38.0983 37.7305 36.0938C37.9505 34.9439 37.7755 34.3346 38.0005 33.1878Z" fill="url(#paint1_linear_12_3459)" stroke="white" stroke-width="0.75" stroke-miterlimit="10"/>
<path d="M70.9614 32.1621C74.5124 28.9895 79.7804 28.2036 84.0054 30.2187C85.8744 31.1096 87.5084 32.478 89.0664 33.8978C84.5604 39.5342 78.7854 40.3544 71.4064 37.0094C71.0444 35.0938 71.3344 34.0766 70.9614 32.1621Z" fill="url(#paint2_linear_12_3459)" stroke="white" stroke-width="0.75" stroke-miterlimit="10"/>
<path d="M72.0835 33.1878C74.2285 31.2851 77.4105 30.8151 79.9625 32.0229C81.0915 32.5572 82.0775 33.3774 83.0195 34.2286C80.2975 37.6068 76.8095 38.0983 72.3535 36.0938C72.1335 34.9439 72.3095 34.3346 72.0835 33.1878Z" fill="url(#paint3_linear_12_3459)" stroke="white" stroke-width="0.75" stroke-miterlimit="10"/>
<path d="M80.4255 72.171C79.6725 75.6712 77.8255 78.8546 75.3995 81.3365C73.6505 83.1268 71.6025 84.5756 69.9475 86.4665C70.2405 85.0424 70.2175 83.5444 69.8815 82.13C69.0135 85.2426 66.2565 87.5554 63.5875 89.0995C60.9185 90.6435 55.6455 93.1287 54.9995 96.282L54.9945 96.2809C54.3505 93.1287 49.0765 90.6435 46.4075 89.0995C43.7385 87.5554 40.9815 85.2426 40.1135 82.13C39.7775 83.5444 39.7575 85.0424 40.0475 86.4665C38.3935 84.5745 36.3445 83.1258 34.5955 81.3365C32.1685 78.8546 30.3215 75.6712 29.5685 72.171C28.8155 68.6686 29.2065 64.8503 30.8695 61.7323C31.9665 59.6711 33.5605 57.9804 35.0285 56.2051C36.3415 54.615 37.5765 52.9232 38.4415 51.013C39.3035 49.1028 39.7795 46.9474 39.5185 44.8434L39.4495 44.4312H70.5445L70.4755 44.8434C70.2145 46.9474 70.6915 49.1039 71.5555 51.013C72.4175 52.9232 73.6525 54.615 74.9655 56.2051C76.4335 57.9804 78.0275 59.6711 79.1255 61.7323C80.7885 64.8513 81.1785 68.6686 80.4255 72.171Z" fill="url(#paint4_linear_12_3459)" stroke="white" stroke-width="0.75" stroke-miterlimit="10"/>
<path opacity="0.3" d="M80.4287 72.1719C79.6757 75.6732 77.8277 78.8512 75.4027 81.3407C73.6467 83.1224 71.5977 84.5733 69.9497 86.4621C70.2427 85.0391 70.2167 83.5432 69.8827 82.1288C69.0127 85.2446 66.2537 87.5553 63.5857 89.1036C60.9177 90.6433 55.6407 93.1243 54.9977 96.2851C54.6717 94.7004 53.1997 93.2945 51.4597 92.0856C49.7287 90.8768 47.7467 89.8735 46.4087 89.1036C43.7407 87.5553 40.9817 85.2446 40.1117 82.1288C39.7767 83.5432 39.7607 85.0391 40.0447 86.4621C38.3887 84.5722 36.3487 83.1224 34.5917 81.3407C32.1667 78.8512 30.3187 75.6722 29.5657 72.1719C29.0227 69.6289 29.0807 66.9242 29.7827 64.4443C30.6357 67.5966 32.3757 70.4523 34.5917 72.718C36.3477 74.5093 38.3887 75.9591 40.0447 77.849C39.7607 76.4249 39.7767 74.9301 40.1117 73.5157C40.9817 76.623 43.7407 78.9412 46.4087 80.482C47.7467 81.2518 49.7287 82.2551 51.4597 83.4736C53.1987 84.6739 54.6707 86.0884 54.9977 87.6635C55.6417 84.5122 60.9187 82.0217 63.5857 80.482C66.2527 78.9422 69.0127 76.623 69.8827 73.5157C70.2167 74.9301 70.2427 76.426 69.9497 77.849C71.5967 75.9591 73.6457 74.5093 75.4027 72.718C77.6187 70.4523 79.3587 67.5966 80.2117 64.4443C80.9147 66.9242 80.9727 69.6289 80.4287 72.1719Z" fill="url(#paint5_linear_12_3459)"/>
<path d="M66.0207 63.9398C66.9597 73.5144 60.8787 76.7127 55.3558 76.8241C55.3068 76.8241 55.2547 76.8273 55.2057 76.8241C55.1567 76.8273 55.1057 76.8241 55.0567 76.8241C49.5337 76.7127 43.4527 73.5144 44.3917 63.9398C45.0577 57.1673 33.8297 41.0472 34.1947 40.1767C35.3927 37.3168 45.5407 20.2095 45.5407 20.2095L54.9627 19.9418L55.2067 19.9321L55.4507 19.9418L64.8727 20.2095C64.8727 20.2095 75.0208 37.3168 76.2188 40.1767C76.5827 41.0472 65.3577 57.1662 66.0207 63.9398Z" fill="url(#paint6_linear_12_3459)" stroke="white" stroke-width="0.75" stroke-miterlimit="10"/>
<path opacity="0.3" d="M76.3276 40.1553C73.1096 40.9905 69.1996 42.6223 66.4226 44.6749C63.0836 47.1419 60.5136 50.9323 60.4556 55.3267C60.4016 59.4041 62.4676 63.4847 62.9276 67.4925C63.2146 69.9895 62.6726 73.2863 61.1386 75.2661C64.5126 73.1803 66.5536 69.3695 66.0216 63.9387C65.4406 58.0164 74.4246 43.9254 76.3276 40.1553Z" fill="url(#paint7_linear_12_3459)"/>
<path opacity="0.3" d="M34.1646 40.1553C37.3816 40.9905 41.2926 42.6223 44.0686 44.6749C47.4075 47.1419 49.9776 50.9323 50.0356 55.3267C50.0896 59.4041 48.0236 63.4847 47.5636 67.4925C47.2766 69.9895 47.8175 73.2863 49.3535 75.2661C45.9785 73.1803 43.9376 69.3695 44.4706 63.9387C45.0506 58.0164 36.0666 43.9254 34.1646 40.1553Z" fill="url(#paint8_linear_12_3459)"/>
<path d="M77.7265 62.3713C79.6345 64.9175 82.8295 66.378 85.8765 66.4594C90.8595 66.5922 101.979 64.153 107.385 47.7107C109.9 40.0612 111.319 27.525 105.518 16.0819C102.789 10.6993 97.6165 5.77168 92.2085 3.36893C85.5785 0.422235 76.5875 0.572138 70.0745 3.80258C59.3885 9.10384 56.8215 20.1218 56.8215 20.1218C55.1685 23.1799 63.1845 32.8573 71.0815 31.2672C71.7115 29.3334 72.9805 27.7198 74.3695 26.3118C77.7935 22.8426 82.5305 20.8414 87.2385 21.093C91.9465 21.3446 96.2875 25.0055 98.1595 29.6375C103.864 43.7489 93.5795 63.169 83.3675 59.9418C81.3535 59.3058 77.7795 55.2926 80.8635 51.5771C82.9695 49.0394 88.1045 49.7697 87.4735 55.8847C90.1515 50.501 87.2675 46.626 83.8315 46.4001C80.1805 46.1591 78.1305 48.0908 76.8795 49.9871C74.8525 53.0601 74.9015 58.6044 77.7265 62.3713Z" fill="url(#paint9_linear_12_3459)" stroke="white" stroke-width="0.75" stroke-miterlimit="10"/>
<path opacity="0.3" d="M87.2378 21.0948C91.9458 21.3465 96.2868 25.0073 98.1588 29.6394C103.863 43.7507 93.5788 63.1708 83.3668 59.9436C81.3528 59.3076 77.7788 55.2944 80.8628 51.579C82.9688 49.0413 88.1038 49.7715 87.4728 55.8866C90.1508 50.5029 87.2668 46.6278 83.8308 46.4019C81.9748 46.2798 80.5348 46.7199 79.4008 47.4309C77.8788 49.1441 76.8418 51.3273 76.7598 53.7387C76.6088 58.2304 80.3348 61.1247 84.0968 61.9673C91.5318 63.6323 98.2838 58.3032 101.143 51.2877C104.189 43.8128 104.971 34.507 101.521 25.9817C95.8558 11.9817 73.9768 7.06592 62.6348 29.2261C65.1188 30.8675 68.1088 31.8665 71.0818 31.268C71.7118 29.3342 72.9808 27.7206 74.3698 26.3136C77.7928 22.8444 82.5298 20.8432 87.2378 21.0948Z" fill="url(#paint10_linear_12_3459)"/>
<mask id="mask0_12_3459" style="mask-type:luminance" maskUnits="userSpaceOnUse" x="56" y="1" width="54" height="66">
<path d="M77.7265 62.3713C79.6345 64.9175 82.8295 66.378 85.8765 66.4594C90.8595 66.5922 101.979 64.153 107.385 47.7107C109.9 40.0612 111.319 27.525 105.518 16.0819C102.789 10.6993 97.6165 5.77168 92.2085 3.36893C85.5785 0.422235 76.5875 0.572138 70.0745 3.80258C59.3885 9.10384 56.8215 20.1218 56.8215 20.1218C55.1685 23.1799 63.1845 32.8573 71.0815 31.2672C71.7115 29.3334 72.9805 27.7198 74.3695 26.3118C77.7935 22.8426 82.5305 20.8414 87.2385 21.093C91.9465 21.3446 96.2875 25.0055 98.1595 29.6375C103.864 43.7489 93.5795 63.169 83.3675 59.9418C81.3535 59.3058 77.7795 55.2926 80.8635 51.5771C82.9695 49.0394 88.1045 49.7697 87.4735 55.8847C90.1515 50.501 87.2675 46.626 83.8315 46.4001C80.1805 46.1591 78.1305 48.0908 76.8795 49.9871C74.8525 53.0601 74.9015 58.6044 77.7265 62.3713Z" fill="white"/>
</mask>
<g mask="url(#mask0_12_3459)">
<path d="M61.9297 10.6479C61.9297 10.6479 62.2547 10.6565 62.8167 10.7465C63.3787 10.8321 64.1767 11.0141 65.0957 11.3675C66.0137 11.723 67.0447 12.2519 68.0927 12.9222C69.1417 13.5871 70.2057 14.4009 71.2417 15.234C71.7427 15.6815 72.2747 16.0938 72.7347 16.5756C72.9707 16.8101 73.2047 17.0435 73.4357 17.2727C73.6507 17.5221 73.8627 17.7684 74.0707 18.0104C74.5027 18.4879 74.8497 18.9912 75.1847 19.4859C75.5147 19.9816 75.7977 20.4656 76.0387 20.9303C76.2757 21.395 76.4847 21.8297 76.6307 22.2345C76.7957 22.6307 76.8967 22.9958 76.9857 23.2945C77.0777 23.5922 77.1087 23.8406 77.1487 24.0034C77.1827 24.1683 77.2007 24.2561 77.2007 24.2561L76.6337 24.3514C76.6337 24.3514 76.6187 24.27 76.5907 24.1158C76.5567 23.9637 76.5357 23.7346 76.4557 23.4519C76.3777 23.1692 76.2937 22.8234 76.1457 22.4422C76.0167 22.0546 75.8267 21.6317 75.6097 21.1777C75.3897 20.7258 75.1247 20.245 74.8197 19.76C74.5147 19.2803 74.1727 18.7589 73.7697 18.2888C73.5727 18.0457 73.3717 17.7995 73.1687 17.55C72.9477 17.3176 72.7237 17.0821 72.4987 16.8444C72.0587 16.3561 71.5477 15.9364 71.0647 15.4802C70.0497 14.6151 69.0217 13.782 67.9957 13.0892C66.9747 12.3943 65.9657 11.8386 65.0627 11.4585C64.1597 11.0795 63.3697 10.8749 62.8117 10.7732C62.2547 10.6662 61.9297 10.6479 61.9297 10.6479Z" fill="white"/>
<path d="M79.8125 1.44482C79.8125 1.44482 79.9905 1.71358 80.3025 2.18364C80.4715 2.40957 80.6125 2.72758 80.8005 3.07664C80.9995 3.42142 81.1535 3.84544 81.3415 4.29836C81.5265 4.75236 81.6745 5.26739 81.8415 5.80704C81.9835 6.35419 82.1385 6.93026 82.2545 7.53844C82.5045 8.74945 82.7055 10.0525 82.8835 11.3578C82.9815 12.0067 83.0445 12.6684 83.1245 13.314C83.1675 13.964 83.2525 14.6011 83.2575 15.2253C83.3205 16.4695 83.2625 17.642 83.1305 18.6378C83.0935 19.14 82.9665 19.5865 82.8885 19.988C82.8175 20.3917 82.7115 20.7322 82.6105 21.0084C82.4235 21.5663 82.3175 21.8843 82.3175 21.8843L81.7935 21.6327C81.7935 21.6327 81.9025 21.3339 82.0925 20.8114C82.1955 20.5523 82.3055 20.2321 82.3835 19.8477C82.4675 19.4655 82.6035 19.0436 82.6505 18.5586C82.8045 17.6024 82.8935 16.4631 82.8645 15.2382C82.8775 14.6257 82.8095 13.9929 82.7855 13.3483C82.7235 12.7059 82.6805 12.0538 82.5985 11.3995C82.4565 10.0922 82.2915 8.788 82.0765 7.57806C81.9775 6.97094 81.8395 6.39488 81.7135 5.84666C81.5635 5.307 81.4295 4.79091 81.2585 4.3337C81.0835 3.87863 80.9415 3.45033 80.7545 3.10448C80.5775 2.75221 80.4455 2.42991 80.2825 2.19863C79.9835 1.71894 79.8125 1.44482 79.8125 1.44482Z" fill="white"/>
<path d="M92.2689 3.03564C92.2689 3.03564 92.2979 3.10632 92.3529 3.24016C92.3989 3.37721 92.5059 3.56245 92.5689 3.82693C92.6259 4.09247 92.7189 4.4137 92.7449 4.79381C92.7969 5.17071 92.8109 5.59901 92.8319 6.06693C92.8449 6.53377 92.8589 7.03917 92.8739 7.57347C92.9009 8.10777 92.8719 8.67312 92.8689 9.25882C92.8709 9.84452 92.8479 10.4495 92.7809 11.062C92.7189 11.6734 92.7059 12.3029 92.5669 12.9154C92.4429 13.529 92.3689 14.1521 92.2049 14.7507C92.0589 15.3396 91.8599 15.9156 91.6619 16.4735C91.4339 17.0132 91.2209 17.54 90.9539 18.0068C90.7209 18.4929 90.4139 18.8977 90.1639 19.2928C89.8649 19.6483 89.6259 20.0102 89.3489 20.2672C89.0779 20.5263 88.8649 20.7854 88.6449 20.9417C88.2229 21.2769 87.9809 21.4685 87.9809 21.4685L87.6729 20.9492C87.6729 20.9492 87.9039 20.7768 88.3069 20.477C88.5179 20.3389 88.7219 20.1001 88.9859 19.8656C89.2539 19.6343 89.4879 19.2971 89.7829 18.9694C90.0299 18.6 90.3359 18.2252 90.5729 17.7648C90.8419 17.3258 91.0629 16.8236 91.2989 16.3086C91.5029 15.7818 91.7119 15.2347 91.8769 14.6425C92.0519 14.0718 92.1439 13.4561 92.2829 12.8587C92.4369 12.2612 92.4669 11.6402 92.5469 11.0373C92.6309 10.4334 92.6709 9.83488 92.6859 9.25347C92.7069 8.67205 92.7509 8.11205 92.7399 7.57561C92.7399 7.04024 92.7399 6.53484 92.7409 6.06907C92.7339 5.60436 92.7319 5.17607 92.6909 4.80024C92.6749 4.42012 92.5929 4.10318 92.5449 3.83656C92.4899 3.57102 92.3869 3.3815 92.3459 3.24337C92.2959 3.10738 92.2689 3.03564 92.2689 3.03564Z" fill="white"/>
<path d="M104.343 13.6387C104.343 13.6387 104.268 13.8924 104.136 14.3379C104.067 14.5595 103.998 14.8336 103.89 15.1377C103.766 15.4354 103.626 15.7716 103.473 16.1389C103.324 16.5093 103.087 16.867 102.877 17.2696C102.662 17.6711 102.357 18.0362 102.084 18.4474C101.768 18.82 101.45 19.2183 101.083 19.5749C100.714 19.9293 100.338 20.288 99.9197 20.5932C99.1097 21.2367 98.2197 21.7581 97.3567 22.1693C96.4987 22.5955 95.6597 22.8931 94.9387 23.134C94.2167 23.3707 93.6067 23.5302 93.1847 23.6469C92.7647 23.7615 92.5247 23.8268 92.5247 23.8268L92.3867 23.2293C92.3867 23.2293 92.6317 23.1726 93.0597 23.073C93.4847 22.9734 94.0907 22.8385 94.8057 22.634C95.5187 22.4263 96.3497 22.1661 97.2007 21.7828C98.0567 21.4144 98.9417 20.9379 99.7547 20.3405C100.174 20.0589 100.552 19.7216 100.925 19.3886C101.296 19.0534 101.621 18.6744 101.944 18.321C102.225 17.9281 102.539 17.579 102.763 17.1914C102.983 16.8027 103.231 16.4558 103.389 16.0971C103.553 15.7395 103.703 15.4108 103.837 15.1206C103.955 14.8218 104.032 14.5499 104.109 14.3314C104.259 13.8903 104.343 13.6387 104.343 13.6387Z" fill="white"/>
<path d="M109.114 26.3408C109.114 26.3408 108.984 26.4897 108.755 26.7498C108.525 27.0047 108.177 27.3645 107.712 27.7253C106.802 28.4791 105.411 29.2308 103.913 29.6548C102.428 30.0777 100.875 30.2169 99.7267 30.2576C98.5727 30.2983 97.8027 30.2576 97.8027 30.2576L97.8357 29.6441C97.8357 29.6441 98.5877 29.7201 99.7207 29.7351C100.855 29.749 102.364 29.688 103.847 29.3421C105.316 29.007 106.725 28.341 107.658 27.6439C108.135 27.3109 108.493 26.9747 108.736 26.7306C108.977 26.4822 109.114 26.3408 109.114 26.3408Z" fill="white"/>
<path d="M109.181 39.9479C109.181 39.9479 108.515 40.0893 107.497 40.1599C106.481 40.237 105.108 40.2124 103.76 39.9222C103.091 39.7638 102.422 39.5635 101.83 39.2701C101.523 39.1502 101.26 38.9553 100.992 38.8119C100.734 38.648 100.509 38.4575 100.291 38.3001C100.085 38.1245 99.9116 37.9403 99.7506 37.7882C99.5826 37.6415 99.4776 37.4724 99.3726 37.3492C99.1726 37.0955 99.0586 36.9498 99.0586 36.9498L99.5306 36.5986C99.5306 36.5986 99.6286 36.7357 99.7986 36.9777C99.8886 37.0944 99.9766 37.2571 100.125 37.3996C100.267 37.5462 100.416 37.7261 100.6 37.8996C100.795 38.0559 100.996 38.2465 101.23 38.4125C101.476 38.5613 101.713 38.7605 102 38.89C102.548 39.2016 103.183 39.4308 103.827 39.6224C105.125 39.9801 106.484 40.0828 107.496 40.0636C108.508 40.0518 109.181 39.9479 109.181 39.9479Z" fill="white"/>
<path d="M106.236 50.8707C106.236 50.8707 106.097 50.9596 105.818 51.0088C105.542 51.0613 105.141 51.103 104.659 51.0816C104.177 51.0752 103.617 50.9895 103.027 50.8493C102.439 50.6962 101.824 50.4627 101.247 50.134C100.962 49.967 100.685 49.7753 100.425 49.5729C100.184 49.3438 99.9128 49.1521 99.7188 48.892C99.5078 48.6478 99.2998 48.4155 99.1538 48.1521C98.9948 47.8994 98.8318 47.666 98.7388 47.4175C98.6328 47.1755 98.5348 46.955 98.4478 46.759C98.3868 46.5534 98.3338 46.3736 98.2908 46.2247C98.2048 45.9271 98.1548 45.7568 98.1548 45.7568L98.7178 45.6294C98.7178 45.6294 98.7558 45.7879 98.8218 46.0663C98.8548 46.2055 98.8948 46.3757 98.9398 46.5695C99.0098 46.7547 99.0888 46.9635 99.1758 47.1905C99.2498 47.4272 99.3888 47.6477 99.5228 47.8908C99.6448 48.1446 99.8268 48.3694 100.01 48.6093C100.178 48.8641 100.423 49.0558 100.638 49.2871C100.874 49.4926 101.127 49.6907 101.39 49.8674C101.925 50.2143 102.508 50.4777 103.074 50.6608C103.643 50.8321 104.19 50.951 104.664 50.9853C105.138 51.0356 105.538 51.0185 105.813 50.9831C106.09 50.951 106.236 50.8707 106.236 50.8707Z" fill="white"/>
<path d="M99.2336 61.1929C99.2326 61.1832 99.1026 61.2368 98.8636 61.2175C98.6246 61.21 98.2876 61.1543 97.8936 61.043C97.1056 60.8256 96.0816 60.3577 95.2236 59.6028C94.7896 59.2345 94.4106 58.7912 94.1116 58.3286C93.9776 58.0877 93.8146 57.8714 93.7266 57.6284C93.6336 57.3896 93.5086 57.1765 93.4606 56.9549C93.3996 56.7375 93.3426 56.5373 93.2926 56.3606C93.2646 56.1786 93.2406 56.0201 93.2206 55.8895C93.1826 55.6261 93.1606 55.4762 93.1606 55.4762L93.7336 55.4419C93.7336 55.4419 93.7456 55.5789 93.7656 55.8177C93.7706 56.0619 93.8226 56.4002 93.9226 56.8007C93.9516 57.0073 94.0566 57.2054 94.1266 57.4313C94.1926 57.6605 94.3316 57.8671 94.4406 58.1005C94.6906 58.5481 95.0206 58.9914 95.4116 59.3715C96.1836 60.15 97.1556 60.6832 97.9196 60.9519C98.3006 61.089 98.6316 61.1682 98.8646 61.1918C99.0976 61.2271 99.2346 61.1832 99.2336 61.1929Z" fill="white"/>
<path d="M91.4897 65.6658C91.4897 65.6658 91.3757 65.6937 91.1707 65.668C90.9677 65.6423 90.6777 65.5845 90.3497 65.4463C89.6957 65.1968 88.8417 64.6144 88.3747 63.6882C88.2477 63.4655 88.1577 63.2235 88.0877 62.9772C87.9917 62.7373 87.9857 62.4825 87.9357 62.2427C87.8977 62.0007 87.9147 61.7651 87.9027 61.5403C87.8877 61.3143 87.9367 61.1098 87.9487 60.9149C87.9737 60.523 88.0697 60.2179 88.1127 59.9962C88.1627 59.7757 88.1907 59.6504 88.1907 59.6504L88.7347 59.8485C88.7347 59.8485 88.7007 59.962 88.6407 60.1622C88.5867 60.3624 88.4747 60.644 88.4277 60.9963C88.4047 61.1719 88.3427 61.3625 88.3437 61.5659C88.3407 61.7672 88.3077 61.9857 88.3267 62.2052C88.3577 62.4225 88.3437 62.6603 88.4157 62.8808C88.4627 63.1089 88.5287 63.3348 88.6297 63.5479C88.9897 64.4281 89.7607 65.0619 90.3837 65.3575C90.6947 65.5191 90.9757 65.5994 91.1727 65.6412C91.3717 65.684 91.4897 65.6658 91.4897 65.6658Z" fill="white"/>
<path d="M82.0589 65.666C82.0589 65.666 81.8279 65.333 81.6619 64.7388C81.4869 64.1531 81.3639 63.3222 81.4469 62.4848C81.4839 62.0662 81.5879 61.6529 81.7219 61.277C81.8629 60.9023 82.0519 60.58 82.2349 60.3176C82.4329 60.0692 82.6059 59.8658 82.7489 59.7512C82.8849 59.6259 82.9629 59.5542 82.9629 59.5542L83.2869 60.0628C83.2869 60.0628 83.2159 60.1174 83.0909 60.2127C82.9569 60.2994 82.7969 60.4579 82.6039 60.6549C82.4259 60.8659 82.2349 61.1303 82.0799 61.4516C81.9309 61.7749 81.8009 62.1433 81.7319 62.5309C81.5839 63.305 81.6279 64.1252 81.7499 64.7141C81.8599 65.3105 82.0589 65.666 82.0589 65.666Z" fill="white"/>
<path d="M75.7256 57.9274C75.7256 57.9274 75.7986 57.9392 75.9276 57.9595C76.0556 57.9713 76.2386 58.0302 76.4586 58.0152C76.6786 58.0205 76.9306 58.0163 77.2016 57.967C77.4726 57.9456 77.7536 57.846 78.0336 57.7796C78.3056 57.6715 78.5826 57.588 78.8216 57.453C79.0696 57.3406 79.2836 57.2025 79.4636 57.0826C79.6516 56.9744 79.7776 56.8406 79.8776 56.7678C79.9736 56.6885 80.0286 56.6436 80.0286 56.6436L80.3786 57.1318C80.3786 57.1318 80.3106 57.1746 80.1926 57.2496C80.0716 57.3181 79.9126 57.4466 79.6966 57.5376C79.4856 57.6426 79.2396 57.7593 78.9636 57.8449C78.6956 57.9541 78.3916 58.0055 78.0976 58.0794C77.7956 58.1126 77.4986 58.1747 77.2136 58.1619C76.9326 58.1769 76.6686 58.1469 76.4446 58.1115C76.2186 58.0966 76.0476 58.0163 75.9206 57.9873C75.7966 57.9488 75.7256 57.9274 75.7256 57.9274Z" fill="white"/>
<path d="M79.1519 47.5054C79.1519 47.5054 79.1219 47.8544 79.2349 48.3448C79.2959 48.5879 79.3929 48.8631 79.5399 49.1286C79.6139 49.2614 79.7009 49.3899 79.7969 49.5119C79.8869 49.6072 80.0169 49.7561 80.1319 49.8257C80.3609 50.0066 80.6529 50.1555 80.9109 50.2786C81.1779 50.3953 81.4319 50.482 81.6529 50.5441C82.0969 50.6576 82.3809 50.6587 82.3809 50.6587L82.3399 51.2723C82.3399 51.2723 81.9829 51.2305 81.5089 51.0506C81.2729 50.9575 81.0059 50.8332 80.7329 50.6769C80.4609 50.5077 80.1849 50.3364 79.9219 50.0816C79.7769 49.9542 79.6969 49.8407 79.5819 49.6854C79.4929 49.5366 79.4159 49.3845 79.3539 49.2314C79.2319 48.9252 79.1659 48.6243 79.1349 48.3663C79.0789 47.8416 79.1519 47.5054 79.1519 47.5054Z" fill="white"/>
</g>
<path d="M32.8456 62.3713C30.9366 64.9175 27.7426 66.378 24.6956 66.4594C19.7126 66.5922 8.59264 64.153 3.18764 47.7107C0.672642 40.0612 -0.747357 27.525 5.05464 16.0819C7.78364 10.6993 12.9556 5.77168 18.3636 3.36893C24.9936 0.422235 33.9846 0.572138 40.4976 3.80258C51.1836 9.10384 53.7506 20.1218 53.7506 20.1218C55.4036 23.1799 47.3876 32.8573 39.4916 31.2672C38.8616 29.3334 37.5936 27.7198 36.2036 26.3118C32.7796 22.8426 28.0426 20.8414 23.3346 21.093C18.6266 21.3446 14.2856 25.0055 12.4136 29.6375C6.70864 43.7489 16.9936 63.169 27.2056 59.9418C29.2196 59.3058 32.7936 55.2926 29.7096 51.5771C27.6036 49.0394 22.4686 49.7697 23.0996 55.8847C20.4216 50.501 23.3056 46.626 26.7416 46.4001C30.3926 46.1591 32.4426 48.0908 33.6936 49.9871C35.7196 53.0601 35.6706 58.6044 32.8456 62.3713Z" fill="url(#paint11_linear_12_3459)" stroke="white" stroke-width="0.75" stroke-miterlimit="10"/>
<path opacity="0.3" d="M23.3607 21.0948C18.6527 21.3465 14.3117 25.0073 12.4397 29.6394C6.73575 43.7507 17.0197 63.1708 27.2317 59.9436C29.2457 59.3076 32.8197 55.2944 29.7357 51.579C27.6297 49.0413 22.4947 49.7715 23.1257 55.8866C20.4477 50.5029 23.3317 46.6278 26.7677 46.4019C28.6237 46.2798 30.0637 46.7199 31.1977 47.4309C32.7197 49.1441 33.7567 51.3273 33.8387 53.7387C33.9897 58.2304 30.2637 61.1247 26.5027 61.9673C19.0667 63.6323 12.3157 58.3032 9.45675 51.2877C6.41075 43.8128 5.62875 34.507 9.07875 25.9817C14.7437 11.9817 36.6227 7.06592 47.9657 29.2261C45.4807 30.8675 42.4907 31.8665 39.5177 31.268C38.8877 29.3342 37.6187 27.7206 36.2297 26.3136C32.8057 22.8444 28.0687 20.8432 23.3607 21.0948Z" fill="url(#paint12_linear_12_3459)"/>
<mask id="mask1_12_3459" style="mask-type:luminance" maskUnits="userSpaceOnUse" x="1" y="1" width="53" height="66">
<path d="M32.8456 62.3713C30.9366 64.9175 27.7426 66.378 24.6956 66.4594C19.7126 66.5922 8.59264 64.153 3.18764 47.7107C0.672642 40.0612 -0.747357 27.525 5.05464 16.0819C7.78364 10.6993 12.9556 5.77168 18.3636 3.36893C24.9936 0.422235 33.9846 0.572138 40.4976 3.80258C51.1836 9.10384 53.7506 20.1218 53.7506 20.1218C55.4036 23.1799 47.3876 32.8573 39.4916 31.2672C38.8616 29.3334 37.5936 27.7198 36.2036 26.3118C32.7796 22.8426 28.0426 20.8414 23.3346 21.093C18.6266 21.3446 14.2856 25.0055 12.4136 29.6375C6.70864 43.7489 16.9936 63.169 27.2056 59.9418C29.2196 59.3058 32.7936 55.2926 29.7096 51.5771C27.6036 49.0394 22.4686 49.7697 23.0996 55.8847C20.4216 50.501 23.3056 46.626 26.7416 46.4001C30.3926 46.1591 32.4426 48.0908 33.6936 49.9871C35.7196 53.0601 35.6706 58.6044 32.8456 62.3713Z" fill="white"/>
</mask>
<g mask="url(#mask1_12_3459)">
<path d="M48.6426 10.6479C48.6426 10.6479 48.3176 10.6662 47.7596 10.7732C47.2016 10.8749 46.4116 11.0805 45.5096 11.4585C44.6076 11.8386 43.5986 12.3943 42.5766 13.0892C41.5506 13.782 40.5226 14.6161 39.5076 15.4802C39.0246 15.9364 38.5136 16.3561 38.0736 16.8444C37.8476 17.0821 37.6246 17.3166 37.4036 17.55C37.2006 17.7995 37.0006 18.0457 36.8026 18.2888C36.3996 18.7589 36.0576 19.2803 35.7526 19.76C35.4476 20.245 35.1826 20.7258 34.9626 21.1777C34.7456 21.6317 34.5556 22.0546 34.4266 22.4422C34.2786 22.8234 34.1946 23.1703 34.1166 23.4519C34.0366 23.7335 34.0156 23.9637 33.9816 24.1158C33.9536 24.27 33.9386 24.3514 33.9386 24.3514L33.3716 24.2561C33.3716 24.2561 33.3896 24.1672 33.4236 24.0034C33.4646 23.8406 33.4946 23.5922 33.5866 23.2945C33.6756 22.9969 33.7756 22.6307 33.9416 22.2345C34.0876 21.8297 34.2966 21.395 34.5336 20.9303C34.7746 20.4656 35.0576 19.9816 35.3876 19.4859C35.7226 18.9912 36.0706 18.4879 36.5016 18.0104C36.7096 17.7684 36.9216 17.5221 37.1366 17.2727C37.3676 17.0424 37.6016 16.8101 37.8376 16.5756C38.2976 16.0927 38.8296 15.6805 39.3306 15.234C40.3666 14.402 41.4306 13.5871 42.4796 12.9222C43.5276 12.253 44.5596 11.723 45.4766 11.3675C46.3966 11.0141 47.1936 10.8321 47.7556 10.7465C48.3176 10.6565 48.6426 10.6479 48.6426 10.6479Z" fill="white"/>
<path d="M30.7596 1.44482C30.7596 1.44482 30.5886 1.71894 30.2896 2.19863C30.1256 2.42991 29.9946 2.75221 29.8176 3.10448C29.6296 3.45141 29.4886 3.87863 29.3136 4.3337C29.1426 4.78984 29.0086 5.307 28.8576 5.84559C28.7316 6.39381 28.5936 6.96987 28.4946 7.57699C28.2796 8.78693 28.1146 10.0911 27.9726 11.3985C27.8916 12.0527 27.8476 12.7048 27.7856 13.3472C27.7616 13.9918 27.6936 14.6246 27.7066 15.2371C27.6776 16.4631 27.7666 17.6013 27.9196 18.5575C27.9676 19.0425 28.1036 19.4644 28.1866 19.8467C28.2646 20.2311 28.3746 20.5512 28.4786 20.8103C28.6696 21.3329 28.7776 21.6316 28.7776 21.6316L28.2536 21.8832C28.2536 21.8832 28.1476 21.5652 27.9606 21.0073C27.8596 20.7311 27.7536 20.3917 27.6826 19.9869C27.6046 19.5854 27.4776 19.1389 27.4406 18.6367C27.3086 17.6409 27.2506 16.4685 27.3136 15.2242C27.3176 14.6 27.4026 13.9629 27.4456 13.313C27.5256 12.6673 27.5886 12.0056 27.6866 11.3567C27.8646 10.0515 28.0656 8.74731 28.3156 7.53737C28.4306 6.93026 28.5856 6.35312 28.7286 5.80597C28.8946 5.26632 29.0436 4.75236 29.2286 4.29729C29.4166 3.84437 29.5706 3.42035 29.7696 3.07557C29.9576 2.72651 30.0976 2.40743 30.2676 2.18257C30.5816 1.71358 30.7596 1.44482 30.7596 1.44482Z" fill="white"/>
<path d="M18.3034 3.03564C18.3034 3.03564 18.2764 3.10738 18.2264 3.24337C18.1844 3.3815 18.0814 3.57209 18.0274 3.83656C17.9794 4.10318 17.8974 4.42012 17.8814 4.80024C17.8404 5.175 17.8394 5.60436 17.8314 6.06907C17.8314 6.53591 17.8314 7.04131 17.8324 7.57668C17.8214 8.11205 17.8664 8.67312 17.8864 9.25347C17.9014 9.83488 17.9414 10.4334 18.0254 11.0373C18.1044 11.6402 18.1344 12.2623 18.2894 12.8587C18.4284 13.4561 18.5194 14.0718 18.6944 14.6425C18.8594 15.2347 19.0684 15.7829 19.2724 16.3086C19.5084 16.8236 19.7294 17.3258 19.9984 17.7648C20.2354 18.2252 20.5414 18.5989 20.7884 18.9694C21.0824 19.296 21.3174 19.6333 21.5854 19.8656C21.8494 20.1001 22.0534 20.3389 22.2644 20.477C22.6674 20.7779 22.8984 20.9492 22.8984 20.9492L22.5904 21.4685C22.5904 21.4685 22.3494 21.2769 21.9264 20.9417C21.7064 20.7854 21.4944 20.5263 21.2224 20.2672C20.9464 20.0102 20.7064 19.6483 20.4084 19.2928C20.1584 18.8966 19.8514 18.4929 19.6174 18.0068C19.3514 17.54 19.1374 17.0142 18.9094 16.4735C18.7114 15.9146 18.5124 15.3385 18.3674 14.7507C18.2034 14.1511 18.1294 13.5279 18.0054 12.9154C17.8664 12.304 17.8534 11.6744 17.7914 11.063C17.7254 10.4506 17.7014 9.84559 17.7034 9.25989C17.7004 8.67526 17.6714 8.10884 17.6984 7.57454C17.7134 7.04024 17.7274 6.53484 17.7414 6.068C17.7624 5.59901 17.7764 5.17178 17.8284 4.79488C17.8554 4.41477 17.9484 4.09354 18.0044 3.828C18.0674 3.56459 18.1744 3.37828 18.2204 3.24123C18.2744 3.10632 18.3034 3.03564 18.3034 3.03564Z" fill="white"/>
<path d="M6.22949 13.6387C6.22949 13.6387 6.31349 13.8903 6.45949 14.3304C6.53649 14.5488 6.61349 14.8208 6.73149 15.1195C6.86449 15.4097 7.01549 15.7384 7.17949 16.096C7.33849 16.4558 7.58549 16.8027 7.80549 17.1903C8.02949 17.5779 8.34349 17.927 8.62449 18.32C8.94749 18.6744 9.27249 19.0524 9.64349 19.3875C10.0175 19.7205 10.3955 20.0578 10.8135 20.3394C11.6265 20.9369 12.5105 21.4134 13.3675 21.7817C14.2185 22.165 15.0495 22.4252 15.7625 22.6329C16.4775 22.8375 17.0835 22.9724 17.5085 23.0719C17.9375 23.1715 18.1815 23.2283 18.1815 23.2283L18.0435 23.8257C18.0435 23.8257 17.8035 23.7604 17.3835 23.6459C16.9605 23.5302 16.3515 23.3696 15.6295 23.133C14.9095 22.8921 14.0705 22.5944 13.2125 22.1682C12.3495 21.7571 11.4605 21.2345 10.6495 20.5921C10.2325 20.288 9.85649 19.9282 9.48649 19.5738C9.12049 19.2173 8.80149 18.8189 8.48549 18.4463C8.21249 18.0362 7.90749 17.67 7.69249 17.2685C7.48249 16.8659 7.24549 16.5093 7.09649 16.1378C6.94349 15.7705 6.80349 15.4343 6.67949 15.1366C6.57149 14.8326 6.50349 14.5584 6.43349 14.3368C6.30449 13.8924 6.22949 13.6387 6.22949 13.6387Z" fill="white"/>
<path d="M1.4585 26.3408C1.4585 26.3408 1.5955 26.4822 1.83549 26.7306C2.0785 26.9747 2.43649 27.3109 2.91349 27.6439C3.84549 28.341 5.25449 29.007 6.72449 29.3421C8.20749 29.688 9.71749 29.749 10.8505 29.7351C11.9835 29.7201 12.7355 29.6441 12.7355 29.6441L12.7685 30.2576C12.7685 30.2576 11.9985 30.2983 10.8445 30.2576C9.6965 30.2169 8.1435 30.0777 6.6585 29.6548C5.1605 29.2308 3.7695 28.4791 2.8595 27.7253C2.3955 27.3655 2.0465 27.0047 1.8175 26.7498C1.5885 26.4897 1.4585 26.3408 1.4585 26.3408Z" fill="white"/>
<path d="M1.3916 39.9479C1.3916 39.9479 2.0646 40.0518 3.0796 40.0636C4.0916 40.0828 5.4506 39.979 6.7486 39.6224C7.3926 39.4308 8.0266 39.2006 8.5756 38.89C8.8626 38.7605 9.0996 38.5602 9.3456 38.4125C9.5796 38.2454 9.7806 38.0559 9.9756 37.8996C10.1586 37.7261 10.3086 37.5462 10.4506 37.3996C10.5986 37.2582 10.6866 37.0944 10.7766 36.9777C10.9476 36.7368 11.0456 36.5986 11.0456 36.5986L11.5176 36.9498C11.5176 36.9498 11.4036 37.0955 11.2036 37.3492C11.0996 37.4713 10.9936 37.6405 10.8256 37.7882C10.6636 37.9403 10.4916 38.1245 10.2856 38.3001C10.0676 38.4575 9.8426 38.648 9.5846 38.8119C9.3166 38.9553 9.0536 39.1502 8.7466 39.2701C8.1546 39.5635 7.4866 39.7638 6.8166 39.9222C5.4686 40.2124 4.0946 40.237 3.0796 40.1599C2.0576 40.0893 1.3916 39.9479 1.3916 39.9479Z" fill="white"/>
<path d="M4.33643 50.8706C4.33643 50.8706 4.48243 50.952 4.75943 50.983C5.03443 51.0184 5.43443 51.0355 5.90843 50.9852C6.38343 50.9509 6.93043 50.8321 7.49943 50.6607C8.06543 50.4776 8.64843 50.2142 9.18343 49.8673C9.44743 49.6906 9.70043 49.4926 9.93643 49.288C10.1514 49.0568 10.3964 48.8651 10.5644 48.6103C10.7484 48.3715 10.9304 48.1456 11.0514 47.8918C11.1854 47.6477 11.3244 47.4271 11.3984 47.1915C11.4844 46.9645 11.5644 46.7557 11.6344 46.5705C11.6804 46.3756 11.7194 46.2064 11.7524 46.0672C11.8184 45.7899 11.8564 45.6304 11.8564 45.6304L12.4194 45.7578C12.4194 45.7578 12.3694 45.928 12.2834 46.2257C12.2404 46.3735 12.1864 46.5534 12.1264 46.76C12.0404 46.956 11.9424 47.1776 11.8364 47.4185C11.7424 47.6659 11.5794 47.9003 11.4214 48.153C11.2754 48.4164 11.0674 48.6499 10.8574 48.8929C10.6624 49.1531 10.3924 49.3448 10.1504 49.5739C9.88943 49.7763 9.61243 49.968 9.32843 50.135C8.75143 50.4626 8.13643 50.6971 7.54843 50.8503C6.95843 50.9905 6.39843 51.0762 5.91643 51.0826C5.43543 51.104 5.03443 51.0623 4.75743 51.0098C4.47543 50.9595 4.33643 50.8706 4.33643 50.8706Z" fill="white"/>
<path d="M11.3384 61.1929C11.3384 61.1832 11.4744 61.2271 11.7084 61.1907C11.9414 61.1672 12.2724 61.0879 12.6534 60.9509C13.4174 60.6832 14.3894 60.1489 15.1614 59.3705C15.5524 58.9903 15.8824 58.5481 16.1324 58.1005C16.2414 57.8671 16.3804 57.6605 16.4464 57.4313C16.5164 57.2054 16.6214 57.0073 16.6504 56.8007C16.7514 56.4002 16.8024 56.0619 16.8074 55.8177C16.8284 55.5789 16.8394 55.4419 16.8394 55.4419L17.4124 55.4762C17.4124 55.4762 17.3914 55.6261 17.3524 55.8895C17.3324 56.0201 17.3084 56.1796 17.2804 56.3606C17.2304 56.5373 17.1734 56.7375 17.1124 56.9549C17.0644 57.1776 16.9394 57.3907 16.8464 57.6284C16.7584 57.8714 16.5964 58.0877 16.4624 58.3286C16.1634 58.7912 15.7834 59.2345 15.3494 59.6028C14.4914 60.3577 13.4674 60.8256 12.6794 61.043C12.2844 61.1543 11.9474 61.21 11.7094 61.2175C11.4694 61.2368 11.3384 61.1832 11.3384 61.1929Z" fill="white"/>
<path d="M19.0825 65.6658C19.0825 65.6658 19.2015 65.6851 19.3995 65.6412C19.5965 65.5994 19.8785 65.5191 20.1885 65.3575C20.8105 65.0619 21.5815 64.4281 21.9425 63.5479C22.0445 63.3348 22.1095 63.1089 22.1565 62.8808C22.2285 62.6603 22.2145 62.4215 22.2455 62.2052C22.2655 61.9857 22.2315 61.7672 22.2285 61.5659C22.2295 61.3625 22.1675 61.1719 22.1445 60.9963C22.0985 60.643 21.9855 60.3624 21.9315 60.1622C21.8715 59.963 21.8375 59.8485 21.8375 59.8485L22.3815 59.6504C22.3815 59.6504 22.4095 59.7757 22.4595 59.9962C22.5025 60.2179 22.5985 60.523 22.6235 60.9149C22.6355 61.1098 22.6845 61.3133 22.6695 61.5403C22.6575 61.764 22.6745 62.0007 22.6365 62.2427C22.5865 62.4825 22.5805 62.7373 22.4845 62.9772C22.4145 63.2245 22.3245 63.4655 22.1975 63.6882C21.7315 64.6144 20.8765 65.1968 20.2225 65.4463C19.8945 65.5845 19.6045 65.6423 19.4015 65.668C19.1965 65.6937 19.0825 65.6658 19.0825 65.6658Z" fill="white"/>
<path d="M28.5136 65.6661C28.5136 65.6661 28.7136 65.3106 28.8236 64.7142C28.9456 64.1253 28.9896 63.3051 28.8416 62.531C28.7726 62.1434 28.6426 61.775 28.4926 61.4517C28.3376 61.1294 28.1466 60.8649 27.9686 60.6539C27.7756 60.4569 27.6166 60.2974 27.4816 60.2117C27.3566 60.1164 27.2856 60.0618 27.2856 60.0618L27.6096 59.5532C27.6096 59.5532 27.6876 59.625 27.8236 59.7502C27.9666 59.8648 28.1396 60.0682 28.3376 60.3167C28.5216 60.579 28.7096 60.9013 28.8506 61.2761C28.9856 61.6519 29.0886 62.0641 29.1256 62.4839C29.2096 63.3212 29.0866 64.1521 28.9116 64.7378C28.7446 65.3331 28.5136 65.6661 28.5136 65.6661Z" fill="white"/>
<path d="M34.8464 57.9276C34.8464 57.9276 34.7754 57.949 34.6504 57.9854C34.5234 58.0143 34.3524 58.0957 34.1264 58.1096C33.9034 58.1449 33.6384 58.1749 33.3574 58.1599C33.0724 58.1738 32.7764 58.1117 32.4734 58.0775C32.1794 58.0036 31.8764 57.9522 31.6084 57.843C31.3324 57.7573 31.0864 57.6406 30.8754 57.5357C30.6594 57.4436 30.5004 57.3162 30.3794 57.2476C30.2614 57.1727 30.1934 57.1299 30.1934 57.1299L30.5434 56.6416C30.5434 56.6416 30.5984 56.6866 30.6944 56.7658C30.7944 56.8397 30.9204 56.9735 31.1084 57.0806C31.2884 57.2005 31.5024 57.3387 31.7504 57.4511C31.9894 57.5871 32.2674 57.6695 32.5384 57.7777C32.8184 57.8451 33.0994 57.9436 33.3704 57.965C33.6424 58.0143 33.8934 58.0186 34.1134 58.0132C34.3334 58.0282 34.5164 57.9693 34.6444 57.9576C34.7734 57.9393 34.8464 57.9276 34.8464 57.9276Z" fill="white"/>
<path d="M31.4204 47.5054C31.4204 47.5054 31.4934 47.8416 31.4394 48.3652C31.4074 48.6232 31.3424 48.9241 31.2194 49.2303C31.1574 49.3835 31.0814 49.5355 30.9914 49.6843C30.8764 49.8407 30.7964 49.9531 30.6514 50.0805C30.3884 50.3354 30.1124 50.5067 29.8404 50.6758C29.5674 50.8322 29.2994 50.9564 29.0644 51.0495C28.5904 51.2294 28.2334 51.2712 28.2334 51.2712L28.1924 50.6576C28.1924 50.6576 28.4764 50.6566 28.9204 50.5431C29.1404 50.482 29.3954 50.3953 29.6624 50.2775C29.9204 50.1544 30.2114 50.0056 30.4404 49.8246C30.5564 49.7539 30.6864 49.6062 30.7764 49.5098C30.8724 49.3877 30.9594 49.2593 31.0334 49.1265C31.1794 48.8609 31.2774 48.5868 31.3384 48.3427C31.4504 47.8544 31.4204 47.5054 31.4204 47.5054Z" fill="white"/>
</g>
<defs>
<linearGradient id="paint0_linear_12_3459" x1="28.1774" y1="-12.511" x2="32.6101" y2="61.4392" gradientUnits="userSpaceOnUse">
<stop stop-color="#21D1FF"/>
<stop offset="1" stop-color="#993CFE"/>
</linearGradient>
<linearGradient id="paint1_linear_12_3459" x1="30.1104" y1="-12.6277" x2="34.5431" y2="61.3234" gradientUnits="userSpaceOnUse">
<stop stop-color="#21D1FF"/>
<stop offset="1" stop-color="#993CFE"/>
</linearGradient>
<linearGradient id="paint2_linear_12_3459" x1="82.1782" y1="-8.36398" x2="77.7455" y2="65.5863" gradientUnits="userSpaceOnUse">
<stop stop-color="#21D1FF"/>
<stop offset="1" stop-color="#993CFE"/>
</linearGradient>
<linearGradient id="paint3_linear_12_3459" x1="79.7571" y1="-8.48056" x2="75.3244" y2="65.4705" gradientUnits="userSpaceOnUse">
<stop stop-color="#21D1FF"/>
<stop offset="1" stop-color="#993CFE"/>
</linearGradient>
<linearGradient id="paint4_linear_12_3459" x1="59.0995" y1="-9.74698" x2="54.6667" y2="64.2036" gradientUnits="userSpaceOnUse">
<stop stop-color="#21D1FF"/>
<stop offset="1" stop-color="#993CFE"/>
</linearGradient>
<linearGradient id="paint5_linear_12_3459" x1="57.0617" y1="29.2542" x2="54.2608" y2="75.9836" gradientUnits="userSpaceOnUse">
<stop stop-color="#21D1FF"/>
<stop offset="1" stop-color="#993CFE"/>
</linearGradient>
<linearGradient id="paint6_linear_12_3459" x1="57.8228" y1="-9.82432" x2="53.3902" y2="64.1266" gradientUnits="userSpaceOnUse">
<stop stop-color="#21D1FF"/>
<stop offset="1" stop-color="#993CFE"/>
</linearGradient>
<linearGradient id="paint7_linear_12_3459" x1="71.5384" y1="-12.5353" x2="66.8852" y2="65.0941" gradientUnits="userSpaceOnUse">
<stop stop-color="#21D1FF"/>
<stop offset="1" stop-color="#993CFE"/>
</linearGradient>
<linearGradient id="paint8_linear_12_3459" x1="38.9531" y1="-12.5353" x2="43.6063" y2="65.0941" gradientUnits="userSpaceOnUse">
<stop stop-color="#21D1FF"/>
<stop offset="1" stop-color="#993CFE"/>
</linearGradient>
<linearGradient id="paint9_linear_12_3459" x1="84.9784" y1="-8.19609" x2="80.5458" y2="65.7546" gradientUnits="userSpaceOnUse">
<stop stop-color="#21D1FF"/>
<stop offset="1" stop-color="#993CFE"/>
</linearGradient>
<linearGradient id="paint10_linear_12_3459" x1="85.6903" y1="-13.4389" x2="80.9247" y2="66.0648" gradientUnits="userSpaceOnUse">
<stop stop-color="#21D1FF"/>
<stop offset="1" stop-color="#993CFE"/>
</linearGradient>
<linearGradient id="paint11_linear_12_3459" x1="25.3768" y1="-12.3431" x2="29.8095" y2="61.6075" gradientUnits="userSpaceOnUse">
<stop stop-color="#21D1FF"/>
<stop offset="1" stop-color="#993CFE"/>
</linearGradient>
<linearGradient id="paint12_linear_12_3459" x1="24.9085" y1="-13.4389" x2="29.6741" y2="66.0648" gradientUnits="userSpaceOnUse">
<stop stop-color="#21D1FF"/>
<stop offset="1" stop-color="#993CFE"/>
</linearGradient>
</defs>
</svg>
