<!-- icon666.com - MILLIONS vector ICONS FREE --><svg version="1.1" id="Capa_1" xmlns="http://www.w3.org/2000/svg" xmlns:xlink="http://www.w3.org/1999/xlink" x="0px" y="0px" viewBox="0 0 512 512" style="enable-background:new 0 0 512 512;" xml:space="preserve"><g><g><path d="M437.019,74.981C388.667,26.628,324.38,0,256,0S123.333,26.628,74.981,74.981C26.628,123.333,0,187.62,0,256 s26.628,132.667,74.981,181.019C123.333,485.372,187.62,512,256,512s132.667-26.628,181.019-74.981 C485.372,388.667,512,324.38,512,256S485.371,123.333,437.019,74.981z M463.255,166.322H320.996l-43.92-135.174 C360.653,38.92,431.154,92.419,463.255,166.322z M176.469,308.576l53.885,39.149l-87.362,63.52L176.469,308.576z M160.628,259.81 l-87.299-63.332h107.875L160.628,259.81z M186.285,278.433l26.628-81.955h86.173l26.628,81.955L256,329.084L186.285,278.433z M335.532,308.576l33.482,102.675l-87.368-63.525L335.532,308.576z M330.795,196.479h107.888l-87.31,63.332L330.795,196.479z M289.288,166.322h-66.576L256,63.873L289.288,166.322z M234.924,31.148l-43.92,135.173H48.745 C80.846,92.419,151.346,38.92,234.924,31.148z M30.157,256c0-17.034,1.908-33.63,5.5-49.596l115.165,83.548l-44.129,135.339 C59.792,383.878,30.157,323.339,30.157,256z M256,481.843c-42.07,0-81.48-11.575-115.24-31.69L256,366.364l115.239,83.79 C337.48,470.268,298.069,481.843,256,481.843z M405.311,425.289l-44.132-135.336l115.167-83.54 c3.591,15.963,5.498,32.555,5.498,49.587C481.843,323.338,452.209,383.875,405.311,425.289z" fill="#000000" style="fill: rgb(255, 255, 255);"></path></g></g></svg>