<svg width="121" height="99" viewBox="0 0 121 99" fill="none" xmlns="http://www.w3.org/2000/svg">
<path d="M96.0219 80.8655C96.5519 81.8463 95.9639 83.1762 95.0439 83.7372C94.1239 84.2983 92.9849 84.4139 91.9469 84.1944C86.8279 83.113 81.7309 81.6257 76.7469 79.7112C75.4209 79.2016 73.6929 77.7421 75.2259 76.3298C76.4729 75.182 79.3269 75.8084 80.7349 76.1424C85.2999 77.225 95.6799 80.2338 96.0219 80.8655Z" fill="url(#paint0_linear_12_3625)" stroke="white" stroke-width="0.7721" stroke-miterlimit="10"/>
<path opacity="0.3" d="M96.022 80.8655C95.91 80.6589 94.7249 80.1985 93.0249 79.6353C92.0089 81.0262 91.9989 82.6483 92.3849 84.2652C93.2979 84.3722 94.2519 84.2202 95.0439 83.7373C95.9649 83.1773 96.552 81.8463 96.022 80.8655Z" fill="url(#paint1_linear_12_3625)"/>
<path d="M100.611 92.6462C100.25 92.9021 99.7919 92.9577 99.3629 92.9149C97.8069 92.7575 97.2119 91.1332 96.3419 89.7327C95.4209 88.2518 91.5999 81.8584 93.2079 80.6345C94.3689 79.7512 95.6969 80.2309 97.3089 82.2182C98.564 83.7643 102.388 91.387 100.611 92.6462Z" fill="url(#paint2_linear_12_3625)" stroke="white" stroke-width="0.7721" stroke-miterlimit="10"/>
<path opacity="0.3" d="M98.8328 88.8221C97.8938 88.5522 96.8978 88.7867 96.0388 89.2375C96.1578 89.4345 96.2618 89.6037 96.3418 89.7322C97.2118 91.1317 97.8078 92.756 99.3648 92.9145C99.7928 92.9573 100.251 92.9016 100.612 92.6457C100.985 92.3801 101.109 91.833 101.064 91.121C100.865 90.1305 99.9088 89.1315 98.8328 88.8221Z" fill="url(#paint3_linear_12_3625)"/>
<path d="M97.4018 89.4432C95.9638 89.576 94.6468 90.5568 93.8408 91.8395C93.0348 93.1223 92.7629 94.7744 93.1109 96.2745C93.5979 95.3772 94.0588 94.5667 95.3178 94.0527C95.4278 95.3773 95.1328 96.7703 94.3988 97.8421C95.6718 97.9867 97.0069 97.7468 98.0879 97.0101C98.4569 96.7585 98.8019 96.4598 99.0819 96.1C99.6869 95.3237 100.719 93.4585 100.301 91.3769C100.206 90.9005 99.4328 89.2547 97.4018 89.4432Z" fill="url(#paint4_linear_12_3625)" stroke="white" stroke-width="0.7721" stroke-miterlimit="10"/>
<path opacity="0.3" d="M100.302 91.3757C100.238 91.0555 99.8629 90.2053 99.0059 89.7417C99.7389 91.6573 98.415 94.2442 97.091 95.4713C96.987 95.5676 96.804 95.5409 96.768 95.3802C96.572 94.5033 96.149 93.7088 95.93 92.8511C94.923 93.136 94.0049 93.7549 93.0239 94.151C92.9289 94.8567 92.952 95.5815 93.112 96.2743C93.599 95.377 94.06 94.5665 95.319 94.0525C95.429 95.377 95.134 96.7701 94.4 97.8419C95.673 97.9864 97.008 97.7466 98.089 97.0099C98.458 96.7583 98.803 96.4596 99.083 96.0998C99.688 95.3224 100.719 93.4572 100.302 91.3757Z" fill="url(#paint5_linear_12_3625)"/>
<path d="M97.2969 46.964C102.329 41.818 103.743 36.2661 101.211 24.292C103.203 27.9764 104.935 31.966 105.298 36.2051C105.66 40.4442 104.576 44.9767 101.737 47.9576C101.557 48.1471 101.361 48.3356 101.117 48.4063C100.853 48.4823 100.573 48.4095 100.308 48.3367C99.2209 48.0379 98.3829 47.2638 97.2969 46.964Z" fill="url(#paint6_linear_12_3625)" stroke="white" stroke-width="0.7721" stroke-miterlimit="10"/>
<path opacity="0.3" d="M99.8539 43.813C99.1439 44.9094 98.2919 45.9459 97.2959 46.9642C98.3829 47.2629 99.2209 48.0381 100.308 48.3369C100.573 48.4097 100.853 48.4825 101.117 48.4065C101.238 48.3712 101.348 48.3069 101.45 48.2277C101.989 46.8229 101.384 44.5572 99.8539 43.813Z" fill="url(#paint7_linear_12_3625)"/>
<path d="M98.0829 45.5431C95.4259 48.281 92.3999 50.8059 90.0669 52.6197C88.5759 55.0203 89.1919 57.0537 91.6599 57.0794C94.7319 55.3565 97.7919 52.7407 100.179 49.5456C100.179 49.5456 101.502 47.5358 99.3549 45.5014C98.9899 45.1555 98.4339 45.1802 98.0829 45.5431Z" fill="url(#paint8_linear_12_3625)" stroke="white" stroke-width="0.7721" stroke-miterlimit="10"/>
<path opacity="0.3" d="M90.9149 51.9526C90.6249 52.1839 90.3409 52.4077 90.0669 52.6197C88.5759 55.0203 89.1919 57.0537 91.6599 57.0794C92.0529 56.8588 92.4449 56.6232 92.8369 56.3737C92.7579 54.6445 92.2359 52.7321 90.9149 51.9526Z" fill="url(#paint9_linear_12_3625)"/>
<path d="M89.0199 53.1785C86.9579 54.7235 85.5999 55.5373 85.5999 55.5373L82.3579 57.7655L84.5359 62.8419C86.5679 61.4168 88.6299 60.0409 90.5799 58.5697C91.5549 57.8341 92.0799 56.5524 91.8249 55.306C91.6869 54.6336 91.3899 53.9804 90.8369 53.3626C90.3599 52.8305 89.5839 52.7566 89.0199 53.1785Z" fill="url(#paint10_linear_12_3625)" stroke="white" stroke-width="0.7721" stroke-miterlimit="10"/>
<path opacity="0.3" d="M86.9349 54.6704C86.0939 55.2422 85.5999 55.5388 85.5999 55.5388L82.3579 57.767L84.5359 62.8434C86.2589 61.6356 87.9979 60.4599 89.6769 59.2339C88.9339 57.5893 88.1719 55.9585 86.9349 54.6704Z" fill="url(#paint11_linear_12_3625)"/>
<path d="M103.681 58.0838C109.561 55.2634 112.401 50.8884 113.656 39.6006C114.328 43.4756 114.685 47.5316 113.775 51.3509C112.865 55.1703 110.607 58.7648 107.268 60.4244C107.056 60.5294 106.83 60.629 106.597 60.6097C106.345 60.5893 106.121 60.4319 105.911 60.281C105.05 59.6589 104.543 58.7048 103.681 58.0838Z" fill="url(#paint12_linear_12_3625)" stroke="white" stroke-width="0.7721" stroke-miterlimit="10"/>
<path opacity="0.3" d="M106.825 56.1826C105.888 56.9043 104.846 57.5253 103.682 58.0832C104.543 58.7042 105.051 59.6583 105.912 60.2793C106.122 60.4313 106.346 60.5877 106.598 60.608C106.714 60.6176 106.828 60.5973 106.94 60.563C107.817 59.5148 107.945 57.339 106.825 56.1826Z" fill="url(#paint13_linear_12_3625)"/>
<path d="M104.779 57.1042C101.668 58.6107 98.2989 59.8099 95.7379 60.6205C93.7419 62.2202 93.691 64.1989 95.837 65.0395C99.016 64.5555 102.443 63.2877 105.449 61.2929C105.449 61.2929 107.185 59.9781 105.901 57.4907C105.682 57.0667 105.19 56.905 104.779 57.1042Z" fill="url(#paint14_linear_12_3625)" stroke="white" stroke-width="0.7721" stroke-miterlimit="10"/>
<path opacity="0.3" d="M96.6709 60.3184C96.3509 60.4233 96.0369 60.5239 95.7379 60.6192C93.7419 62.2189 93.691 64.1977 95.837 65.0382C96.244 64.9761 96.6539 64.9011 97.0679 64.8133C97.4989 63.2779 97.5969 61.4373 96.6709 60.3184Z" fill="url(#paint15_linear_12_3625)"/>
<path d="M94.6619 60.7605C92.4169 61.4254 90.996 61.6846 90.996 61.6846L87.5229 62.5529L87.9529 67.7054C90.1399 67.1368 92.3359 66.6196 94.4639 65.9825C95.5269 65.6645 96.356 64.7201 96.494 63.5477C96.568 62.9159 96.4979 62.2467 96.1929 61.5239C95.9309 60.9008 95.2759 60.5785 94.6619 60.7605Z" fill="url(#paint16_linear_12_3625)" stroke="white" stroke-width="0.7721" stroke-miterlimit="10"/>
<path d="M101.526 72.576C107.92 73.4368 112.468 71.2793 119.017 62.3311C117.711 66.0166 116.048 69.6807 113.417 72.4368C110.787 75.1939 107.113 77.0099 103.456 76.5698C103.224 76.542 102.982 76.5013 102.793 76.3546C102.587 76.1961 102.472 75.9392 102.366 75.6918C101.931 74.6832 101.962 73.5867 101.526 72.576Z" fill="url(#paint17_linear_12_3625)" stroke="white" stroke-width="0.7721" stroke-miterlimit="10"/>
<path opacity="0.3" d="M105.134 72.7004C103.984 72.7957 102.791 72.7464 101.526 72.5762C101.962 73.5859 101.931 74.6834 102.367 75.6942C102.473 75.9405 102.588 76.1985 102.794 76.357C102.888 76.4298 102.995 76.4758 103.107 76.5079C104.365 76.1011 105.531 74.3118 105.134 72.7004Z" fill="url(#paint18_linear_12_3625)"/>
<path d="M102.939 72.35C99.55 71.9067 96.089 71.0576 93.508 70.3252C91.027 70.5811 90.024 72.244 91.449 74.1563C94.4 75.5108 97.943 76.3342 101.48 76.3021C101.48 76.3021 103.601 76.1447 103.711 73.304C103.729 72.82 103.387 72.4078 102.939 72.35Z" fill="url(#paint19_linear_12_3625)" stroke="white" stroke-width="0.7721" stroke-miterlimit="10"/>
<path opacity="0.3" d="M94.451 70.5865C94.127 70.4976 93.81 70.4109 93.509 70.3252C91.028 70.5811 90.025 72.244 91.45 74.1563C91.827 74.3298 92.216 74.4936 92.611 74.6489C93.723 73.576 94.701 72.0577 94.451 70.5865Z" fill="url(#paint20_linear_12_3625)"/>
<path d="M92.5209 69.8469C90.2799 69.1659 88.9399 68.5973 88.9399 68.5973L85.551 67.4077L83.4189 72.0494C85.5619 72.7796 87.69 73.5592 89.817 74.1995C90.88 74.5185 92.046 74.1727 92.733 73.2476C93.103 72.7486 93.3679 72.1383 93.4589 71.3513C93.5379 70.6735 93.1339 70.0332 92.5209 69.8469Z" fill="url(#paint21_linear_12_3625)" stroke="white" stroke-width="0.7721" stroke-miterlimit="10"/>
<path opacity="0.3" d="M90.3019 69.1156C89.4269 68.803 88.9399 68.5963 88.9399 68.5963L85.551 67.4067L83.4189 72.0484C85.2349 72.6673 87.041 73.3162 88.845 73.8912C89.513 72.3589 90.1619 70.8192 90.3019 69.1156Z" fill="url(#paint22_linear_12_3625)"/>
<path d="M81.7778 26.9934C84.2608 27.2985 89.8898 27.623 91.9498 22.1836C92.9538 25.8016 93.1688 30.0065 91.4428 33.5988C90.0908 36.4106 87.9488 38.9279 85.1508 39.9398C88.5028 35.9555 86.1648 29.5493 81.7778 26.9934Z" fill="url(#paint23_linear_12_3625)" stroke="white" stroke-width="0.7721" stroke-miterlimit="10"/>
<path opacity="0.3" d="M91.9499 22.1846C91.1869 24.1976 89.9359 25.4193 88.5359 26.1474C89.3569 28.2418 89.5539 30.4818 89.5319 32.7453C89.5169 34.2208 89.4159 35.6728 89.1569 37.0968C90.0689 36.0636 90.8369 34.8622 91.4429 33.5998C93.1689 30.0074 92.9539 25.8026 91.9499 22.1846Z" fill="url(#paint24_linear_12_3625)"/>
<path d="M69.4019 45.8888C74.9849 45.3877 80.424 43.1712 84.906 39.5714C88.99 36.2906 92.404 31.5108 92.687 26.0532C93.97 32.8086 93.7519 39.9836 90.3889 45.7474C86.3079 52.7416 82.349 54.5982 76.262 56.5224C72.23 55.4174 68.8759 50.5476 69.4019 45.8888Z" fill="url(#paint25_linear_12_3625)" stroke="white" stroke-width="0.7721" stroke-miterlimit="10"/>
<path opacity="0.3" d="M92.6869 26.0532C92.6849 26.0939 92.6779 26.1346 92.6759 26.1753C92.6759 26.1839 92.6799 26.1903 92.6789 26.1988C92.4249 32.7936 90.5809 39.1988 85.4269 43.2762C82.8989 45.2753 79.9109 46.7133 76.9749 47.8804C74.6339 48.8119 72.1719 49.1439 69.7039 49.4265C70.6309 52.7855 73.2579 55.6979 76.2619 56.5213C82.3489 54.5972 86.3079 52.7405 90.3889 45.7464C93.7529 39.9836 93.9709 32.8086 92.6869 26.0532Z" fill="url(#paint26_linear_12_3625)"/>
<path d="M73.9159 18.7837C73.4639 15.9441 73.1899 13.3936 73.1289 10.2734C75.0369 12.764 77.8219 14.489 80.1009 15.0779C83.8109 16.0362 92.3899 18.0139 88.0409 27.2844C87.4809 28.4783 76.2619 33.5215 73.9159 18.7837Z" fill="url(#paint27_linear_12_3625)" stroke="white" stroke-width="0.7721" stroke-miterlimit="10"/>
<path opacity="0.3" d="M84.7939 23.3735C82.4819 23.2097 80.1119 22.6326 78.1699 21.2224C75.5529 19.3229 74.0669 16.1942 73.2429 12.9595C73.3729 14.9543 73.599 16.8013 73.916 18.7843C76.263 33.5221 87.481 28.4789 88.041 27.2861C88.692 25.8984 89.0479 24.6766 89.1799 23.5952C87.7089 23.6359 86.2089 23.4742 84.7939 23.3735Z" fill="url(#paint28_linear_12_3625)"/>
<path d="M84.4869 27.6152C79.3259 25.5605 81.7779 14.6603 81.9389 13.5242C82.5359 9.31082 81.4149 3.08551 74.8589 0.702029C79.6809 0.642067 82.0469 1.13782 85.1289 2.77927C93.5349 7.25606 92.8999 18.0492 92.8249 19.5332C92.4249 27.581 86.4159 28.3829 84.4869 27.6152Z" fill="url(#paint29_linear_12_3625)" stroke="white" stroke-width="0.7721" stroke-miterlimit="10"/>
<path opacity="0.3" d="M85.1289 2.77927C82.7309 1.50294 80.7609 0.920454 77.7339 0.753418C82.1119 1.54898 86.1419 4.77086 87.7789 9.23051C90.0229 15.3423 88.1119 22.4028 84.9049 27.7416C87.1619 28.2512 92.4509 27.067 92.8249 19.5343C92.8989 18.0492 93.5349 7.25605 85.1289 2.77927Z" fill="url(#paint30_linear_12_3625)"/>
<path d="M24.9949 80.8655C24.4649 81.8463 25.053 83.1762 25.972 83.7372C26.891 84.2983 28.0309 84.4139 29.0689 84.1944C34.1869 83.113 39.285 81.6257 44.269 79.7112C45.595 79.2016 47.3229 77.7421 45.7899 76.3298C44.5429 75.182 41.6889 75.8084 40.2809 76.1424C35.7169 77.225 25.3369 80.2338 24.9949 80.8655Z" fill="url(#paint31_linear_12_3625)" stroke="white" stroke-width="0.7721" stroke-miterlimit="10"/>
<path opacity="0.3" d="M24.9951 80.8655C25.1061 80.6589 26.2921 80.1985 27.9921 79.6353C29.0081 81.0262 29.0181 82.6483 28.6321 84.2652C27.7191 84.3722 26.7651 84.2202 25.9731 83.7373C25.0521 83.1773 24.4651 81.8463 24.9951 80.8655Z" fill="url(#paint32_linear_12_3625)"/>
<path d="M20.406 92.6462C20.767 92.9021 21.2251 92.9577 21.6531 92.9149C23.2101 92.7575 23.8051 91.1332 24.6751 89.7327C25.5961 88.2518 29.4171 81.8584 27.8091 80.6345C26.6481 79.7512 25.32 80.2309 23.708 82.2182C22.453 83.7643 18.629 91.387 20.406 92.6462Z" fill="url(#paint33_linear_12_3625)" stroke="white" stroke-width="0.7721" stroke-miterlimit="10"/>
<path opacity="0.3" d="M22.1841 88.8221C23.1231 88.5522 24.1191 88.7867 24.9781 89.2375C24.8591 89.4345 24.7551 89.6037 24.6751 89.7322C23.8051 91.1317 23.2091 92.756 21.6531 92.9145C21.2251 92.9573 20.7671 92.9016 20.4061 92.6457C20.0331 92.3801 19.9091 91.833 19.9541 91.121C20.1521 90.1305 21.1081 89.1315 22.1841 88.8221Z" fill="url(#paint34_linear_12_3625)"/>
<path d="M23.615 89.4432C25.052 89.576 26.37 90.5568 27.175 91.8395C27.981 93.1223 28.253 94.7744 27.905 96.2745C27.418 95.3772 26.957 94.5667 25.698 94.0527C25.588 95.3773 25.882 96.7703 26.617 97.8421C25.344 97.9867 24.009 97.7468 22.928 97.0101C22.559 96.7585 22.214 96.4598 21.934 96.1C21.328 95.3237 20.297 93.4585 20.715 91.3769C20.811 90.9005 21.584 89.2547 23.615 89.4432Z" fill="url(#paint35_linear_12_3625)" stroke="white" stroke-width="0.7721" stroke-miterlimit="10"/>
<path opacity="0.3" d="M20.716 91.3757C20.78 91.0555 21.154 90.2053 22.012 89.7417C21.279 91.6573 22.603 94.2442 23.927 95.4713C24.032 95.5676 24.214 95.5409 24.25 95.3802C24.446 94.5033 24.869 93.7088 25.088 92.8511C26.095 93.136 27.013 93.7549 27.994 94.151C28.089 94.8567 28.066 95.5815 27.906 96.2743C27.419 95.377 26.958 94.5665 25.699 94.0525C25.589 95.377 25.883 96.7701 26.618 97.8419C25.345 97.9864 24.01 97.7466 22.929 97.0099C22.56 96.7583 22.215 96.4596 21.935 96.0998C21.328 95.3224 20.298 93.4572 20.716 91.3757Z" fill="url(#paint36_linear_12_3625)"/>
<path d="M23.72 46.964C18.688 41.818 17.274 36.2661 19.806 24.292C17.814 27.9764 16.082 31.966 15.719 36.2051C15.357 40.4442 16.441 44.9767 19.28 47.9576C19.46 48.1471 19.656 48.3356 19.9 48.4063C20.164 48.4823 20.444 48.4095 20.709 48.3367C21.796 48.0379 22.633 47.2638 23.72 46.964Z" fill="url(#paint37_linear_12_3625)" stroke="white" stroke-width="0.7721" stroke-miterlimit="10"/>
<path opacity="0.3" d="M21.1629 43.813C21.8729 44.9094 22.7249 45.9459 23.7209 46.9642C22.6339 47.2629 21.7959 48.0381 20.7089 48.3369C20.4439 48.4097 20.1639 48.4825 19.8999 48.4065C19.7789 48.3712 19.6689 48.3069 19.5669 48.2277C19.0269 46.8229 19.6329 44.5572 21.1629 43.813Z" fill="url(#paint38_linear_12_3625)"/>
<path d="M22.9341 45.5431C25.5911 48.281 28.616 50.8059 30.95 52.6197C32.441 55.0203 31.825 57.0537 29.357 57.0794C26.285 55.3565 23.224 52.7407 20.837 49.5456C20.837 49.5456 19.514 47.5358 21.661 45.5014C22.027 45.1555 22.5831 45.1802 22.9341 45.5431Z" fill="url(#paint39_linear_12_3625)" stroke="white" stroke-width="0.7721" stroke-miterlimit="10"/>
<path opacity="0.3" d="M30.102 51.9526C30.392 52.1839 30.676 52.4077 30.95 52.6197C32.441 55.0203 31.8249 57.0537 29.3569 57.0794C28.9639 56.8588 28.5709 56.6232 28.1799 56.3737C28.2589 54.6445 28.781 52.7321 30.102 51.9526Z" fill="url(#paint40_linear_12_3625)"/>
<path d="M31.997 53.1785C34.058 54.7235 35.417 55.5373 35.417 55.5373L38.659 57.7655L36.481 62.8419C34.449 61.4168 32.387 60.0409 30.436 58.5697C29.462 57.8341 28.937 56.5524 29.192 55.306C29.33 54.6336 29.628 53.9804 30.18 53.3626C30.657 52.8305 31.433 52.7566 31.997 53.1785Z" fill="url(#paint41_linear_12_3625)" stroke="white" stroke-width="0.7721" stroke-miterlimit="10"/>
<path opacity="0.3" d="M34.0821 54.6704C34.9231 55.2422 35.4171 55.5388 35.4171 55.5388L38.6591 57.767L36.4811 62.8434C34.7581 61.6356 33.0191 60.4599 31.3401 59.2339C32.0831 57.5893 32.8451 55.9585 34.0821 54.6704Z" fill="url(#paint42_linear_12_3625)"/>
<path d="M17.3361 58.0838C11.4561 55.2634 8.6161 50.8884 7.3611 39.6006C6.6891 43.4756 6.33211 47.5316 7.24211 51.3509C8.15211 55.1703 10.4091 58.7648 13.7491 60.4244C13.9611 60.5294 14.1871 60.629 14.4201 60.6097C14.6721 60.5893 14.8961 60.4319 15.1061 60.281C15.9671 59.6589 16.4741 58.7048 17.3361 58.0838Z" fill="url(#paint43_linear_12_3625)" stroke="white" stroke-width="0.7721" stroke-miterlimit="10"/>
<path opacity="0.3" d="M14.192 56.1826C15.129 56.9043 16.172 57.5253 17.336 58.0832C16.475 58.7042 15.968 59.6583 15.106 60.2793C14.896 60.4313 14.672 60.5877 14.42 60.608C14.304 60.6176 14.19 60.5973 14.078 60.563C13.2 59.5148 13.072 57.339 14.192 56.1826Z" fill="url(#paint44_linear_12_3625)"/>
<path d="M16.2382 57.1042C19.3492 58.6107 22.7182 59.8099 25.2792 60.6205C27.2752 62.2202 27.3262 64.1989 25.1802 65.0395C22.0012 64.5555 18.5742 63.2877 15.5672 61.2929C15.5672 61.2929 13.8322 59.9781 15.1162 57.4907C15.3352 57.0667 15.8272 56.905 16.2382 57.1042Z" fill="url(#paint45_linear_12_3625)" stroke="white" stroke-width="0.7721" stroke-miterlimit="10"/>
<path opacity="0.3" d="M24.346 60.3184C24.666 60.4233 24.979 60.5239 25.279 60.6192C27.275 62.2189 27.326 64.1977 25.18 65.0382C24.773 64.9761 24.363 64.9011 23.949 64.8133C23.518 63.2779 23.42 61.4373 24.346 60.3184Z" fill="url(#paint46_linear_12_3625)"/>
<path d="M26.3552 60.7605C28.6002 61.4254 30.0212 61.6846 30.0212 61.6846L33.4943 62.5529L33.0633 67.7054C30.8773 67.1368 28.6812 66.6196 26.5532 65.9825C25.4902 65.6645 24.6602 64.7201 24.5232 63.5477C24.4492 62.9159 24.5192 62.2467 24.8232 61.5239C25.0862 60.9008 25.7402 60.5785 26.3552 60.7605Z" fill="url(#paint47_linear_12_3625)" stroke="white" stroke-width="0.7721" stroke-miterlimit="10"/>
<path d="M19.491 72.576C13.097 73.4368 8.549 71.2793 2 62.3311C3.306 66.0166 4.96901 69.6807 7.60001 72.4368C10.23 75.1939 13.904 77.0099 17.561 76.5698C17.793 76.542 18.035 76.5013 18.224 76.3546C18.43 76.1961 18.545 75.9392 18.651 75.6918C19.086 74.6832 19.055 73.5867 19.491 72.576Z" fill="url(#paint48_linear_12_3625)" stroke="white" stroke-width="0.7721" stroke-miterlimit="10"/>
<path opacity="0.3" d="M15.8821 72.7004C17.0331 72.7957 18.226 72.7464 19.491 72.5762C19.055 73.5859 19.086 74.6834 18.65 75.6942C18.545 75.9405 18.429 76.1985 18.223 76.357C18.129 76.4298 18.022 76.4758 17.909 76.5079C16.652 76.1011 15.4861 74.3118 15.8821 72.7004Z" fill="url(#paint49_linear_12_3625)"/>
<path d="M18.078 72.35C21.467 71.9067 24.928 71.0576 27.509 70.3252C29.991 70.5811 30.993 72.244 29.569 74.1563C26.618 75.5108 23.0749 76.3342 19.5379 76.3021C19.5379 76.3021 17.417 76.1447 17.308 73.304C17.288 72.82 17.629 72.4078 18.078 72.35Z" fill="url(#paint50_linear_12_3625)" stroke="white" stroke-width="0.7721" stroke-miterlimit="10"/>
<path opacity="0.3" d="M26.566 70.5865C26.89 70.4976 27.207 70.4109 27.508 70.3252C29.99 70.5811 30.992 72.244 29.568 74.1563C29.19 74.3298 28.802 74.4936 28.407 74.6489C27.294 73.576 26.316 72.0577 26.566 70.5865Z" fill="url(#paint51_linear_12_3625)"/>
<path d="M28.4959 69.8469C30.7369 69.1659 32.0769 68.5973 32.0769 68.5973L35.4659 67.4077L37.5979 72.0494C35.4549 72.7796 33.3269 73.5592 31.1999 74.1995C30.1369 74.5185 28.9699 74.1727 28.2839 73.2476C27.9139 72.7486 27.6489 72.1383 27.5579 71.3513C27.4789 70.6735 27.8829 70.0332 28.4959 69.8469Z" fill="url(#paint52_linear_12_3625)" stroke="white" stroke-width="0.7721" stroke-miterlimit="10"/>
<path opacity="0.3" d="M30.7151 69.1156C31.5901 68.803 32.0771 68.5963 32.0771 68.5963L35.4661 67.4067L37.5981 72.0484C35.7821 72.6673 33.9761 73.3162 32.1721 73.8912C31.5041 72.3589 30.8551 70.8192 30.7151 69.1156Z" fill="url(#paint53_linear_12_3625)"/>
<path d="M39.239 26.9934C36.756 27.2985 31.127 27.623 29.067 22.1836C28.063 25.8016 27.847 30.0065 29.574 33.5988C30.926 36.4106 33.068 38.9279 35.866 39.9398C32.514 35.9555 34.852 29.5493 39.239 26.9934Z" fill="url(#paint54_linear_12_3625)" stroke="white" stroke-width="0.7721" stroke-miterlimit="10"/>
<path opacity="0.3" d="M29.067 22.1846C29.83 24.1976 31.081 25.4193 32.48 26.1474C31.66 28.2418 31.462 30.4818 31.485 32.7453C31.499 34.2208 31.601 35.6728 31.86 37.0968C30.947 36.0636 30.18 34.8622 29.574 33.5998C27.847 30.0074 28.063 25.8026 29.067 22.1846Z" fill="url(#paint55_linear_12_3625)"/>
<path d="M51.6149 45.8888C46.0319 45.3877 40.5919 43.1712 36.1109 39.5714C32.0269 36.2906 28.6129 31.5108 28.3299 26.0532C27.0469 32.8086 27.2649 39.9836 30.6269 45.7474C34.7079 52.7416 38.6679 54.5982 44.7549 56.5224C48.7869 55.4174 52.1409 50.5476 51.6149 45.8888Z" fill="url(#paint56_linear_12_3625)" stroke="white" stroke-width="0.7721" stroke-miterlimit="10"/>
<path opacity="0.3" d="M28.3299 26.0532C28.3319 26.0939 28.3389 26.1346 28.3409 26.1753C28.3409 26.1839 28.3369 26.1903 28.3369 26.1988C28.5919 32.7936 30.4359 39.1988 35.5899 43.2762C38.1179 45.2753 41.1059 46.7133 44.0419 47.8804C46.3829 48.8119 48.8449 49.1439 51.3129 49.4265C50.3859 52.7855 47.7589 55.6979 44.7549 56.5213C38.6679 54.5972 34.7079 52.7405 30.6269 45.7464C27.2639 39.9836 27.0469 32.8086 28.3299 26.0532Z" fill="url(#paint57_linear_12_3625)"/>
<path d="M47.1008 18.7837C47.5528 15.9441 47.8268 13.3936 47.8878 10.2734C45.9798 12.764 43.1948 14.489 40.9158 15.0779C37.2058 16.0362 28.6268 18.0139 32.9758 27.2844C33.5358 28.4783 44.7548 33.5215 47.1008 18.7837Z" fill="url(#paint58_linear_12_3625)" stroke="white" stroke-width="0.7721" stroke-miterlimit="10"/>
<path opacity="0.3" d="M36.2229 23.3735C38.5339 23.2097 40.9039 22.6326 42.8459 21.2224C45.4639 19.3229 46.9489 16.1942 47.7739 12.9595C47.6439 14.9543 47.4169 16.8013 47.1009 18.7843C44.7539 33.5221 33.5359 28.4789 32.9759 27.2861C32.3249 25.8984 31.9689 24.6766 31.8369 23.5952C33.3079 23.6359 34.8079 23.4742 36.2229 23.3735Z" fill="url(#paint59_linear_12_3625)"/>
<path d="M36.5298 27.6152C41.6898 25.5605 39.2388 14.6603 39.0778 13.5242C38.4808 9.31082 39.6018 3.08551 46.1578 0.702029C41.3358 0.642067 38.9698 1.13782 35.8878 2.77927C27.4818 7.25606 28.1168 18.0492 28.1918 19.5332C28.5908 27.581 34.5998 28.3829 36.5298 27.6152Z" fill="url(#paint60_linear_12_3625)" stroke="white" stroke-width="0.7721" stroke-miterlimit="10"/>
<path opacity="0.3" d="M35.888 2.77927C38.286 1.50294 40.256 0.920454 43.283 0.753418C38.905 1.54898 34.875 4.77086 33.238 9.23051C30.994 15.3423 32.905 22.4028 36.112 27.7416C33.855 28.2512 28.566 27.067 28.192 19.5343C28.118 18.0492 27.482 7.25605 35.888 2.77927Z" fill="url(#paint61_linear_12_3625)"/>
<path d="M54.4689 43.4238C54.4689 45.7506 53.3949 47.6383 52.0699 47.6383C50.7459 47.6383 49.6719 45.7516 49.6719 43.4238C49.6719 41.0971 50.7459 39.2104 52.0699 39.2104C53.3949 39.2104 54.4689 41.0971 54.4689 43.4238Z" fill="url(#paint62_linear_12_3625)" stroke="white" stroke-width="0.7721" stroke-miterlimit="10"/>
<path d="M71.2101 43.4238C71.2101 45.7506 70.1361 47.6383 68.8111 47.6383C67.4871 47.6383 66.4131 45.7516 66.4131 43.4238C66.4131 41.0971 67.4871 39.2104 68.8111 39.2104C70.1351 39.2104 71.2101 41.0971 71.2101 43.4238Z" fill="url(#paint63_linear_12_3625)" stroke="white" stroke-width="0.7721" stroke-miterlimit="10"/>
<path d="M74.5221 79.9727C68.4561 87.1885 61.9251 87.0932 60.5091 86.9754C59.0991 87.0921 52.5631 87.1928 46.4941 79.9727C40.3011 72.6028 28.9961 69.9484 30.3431 65.9824C34.9091 52.5349 49.8161 41.6689 49.8161 41.6689C56.9801 42.411 64.109 42.4056 71.201 41.6689C71.201 41.6689 86.1061 52.5349 90.6741 65.9824C92.0201 69.9495 80.7161 72.6028 74.5221 79.9727Z" fill="url(#paint64_linear_12_3625)" stroke="white" stroke-width="0.7721" stroke-miterlimit="10"/>
<path opacity="0.3" d="M90.674 65.9826C86.642 54.1091 74.0359 43.8899 71.2609 41.7441C70.2319 47.2895 67.5209 57.3877 69.9039 60.8098C73.2389 65.5982 77.874 70.1232 81.989 73.7958C86.831 70.756 91.535 68.5203 90.674 65.9826Z" fill="url(#paint65_linear_12_3625)"/>
<path opacity="0.3" d="M30.492 65.9826C34.524 54.1091 47.1299 43.8899 49.9039 41.7441C50.9339 47.2895 53.6439 57.3877 51.2619 60.8098C47.9259 65.5982 43.2909 70.1232 39.1759 73.7958C34.3339 70.756 29.63 68.5203 30.492 65.9826Z" fill="url(#paint66_linear_12_3625)"/>
<defs>
<linearGradient id="paint0_linear_12_3625" x1="87.7465" y1="1.83719" x2="84.5015" y2="96.6169" gradientUnits="userSpaceOnUse">
<stop stop-color="#21D1FF"/>
<stop offset="1" stop-color="#993CFE"/>
</linearGradient>
<linearGradient id="paint1_linear_12_3625" x1="96.5727" y1="2.13162" x2="93.3273" y2="96.9205" gradientUnits="userSpaceOnUse">
<stop stop-color="#21D1FF"/>
<stop offset="1" stop-color="#993CFE"/>
</linearGradient>
<linearGradient id="paint2_linear_12_3625" x1="99.463" y1="2.23645" x2="96.2178" y2="97.0189" gradientUnits="userSpaceOnUse">
<stop stop-color="#21D1FF"/>
<stop offset="1" stop-color="#993CFE"/>
</linearGradient>
<linearGradient id="paint3_linear_12_3625" x1="101.185" y1="2.2908" x2="97.9394" y2="97.0776" gradientUnits="userSpaceOnUse">
<stop stop-color="#21D1FF"/>
<stop offset="1" stop-color="#993CFE"/>
</linearGradient>
<linearGradient id="paint4_linear_12_3625" x1="99.4108" y1="2.23285" x2="96.1655" y2="97.0165" gradientUnits="userSpaceOnUse">
<stop stop-color="#21D1FF"/>
<stop offset="1" stop-color="#993CFE"/>
</linearGradient>
<linearGradient id="paint5_linear_12_3625" x1="99.4133" y1="2.23232" x2="96.168" y2="97.0161" gradientUnits="userSpaceOnUse">
<stop stop-color="#21D1FF"/>
<stop offset="1" stop-color="#993CFE"/>
</linearGradient>
<linearGradient id="paint6_linear_12_3625" x1="102.53" y1="2.34277" x2="99.2853" y2="97.1234" gradientUnits="userSpaceOnUse">
<stop stop-color="#21D1FF"/>
<stop offset="1" stop-color="#993CFE"/>
</linearGradient>
<linearGradient id="paint7_linear_12_3625" x1="100.807" y1="2.28497" x2="97.562" y2="97.0636" gradientUnits="userSpaceOnUse">
<stop stop-color="#21D1FF"/>
<stop offset="1" stop-color="#993CFE"/>
</linearGradient>
<linearGradient id="paint8_linear_12_3625" x1="96.3983" y1="2.13231" x2="93.153" y2="96.9142" gradientUnits="userSpaceOnUse">
<stop stop-color="#21D1FF"/>
<stop offset="1" stop-color="#993CFE"/>
</linearGradient>
<linearGradient id="paint9_linear_12_3625" x1="92.6528" y1="2.00661" x2="89.4077" y2="96.7843" gradientUnits="userSpaceOnUse">
<stop stop-color="#21D1FF"/>
<stop offset="1" stop-color="#993CFE"/>
</linearGradient>
<linearGradient id="paint10_linear_12_3625" x1="88.766" y1="1.87339" x2="85.5209" y2="96.6509" gradientUnits="userSpaceOnUse">
<stop stop-color="#21D1FF"/>
<stop offset="1" stop-color="#993CFE"/>
</linearGradient>
<linearGradient id="paint11_linear_12_3625" x1="87.7094" y1="1.83599" x2="84.4642" y2="96.6158" gradientUnits="userSpaceOnUse">
<stop stop-color="#21D1FF"/>
<stop offset="1" stop-color="#993CFE"/>
</linearGradient>
<linearGradient id="paint12_linear_12_3625" x1="110.489" y1="2.61511" x2="107.244" y2="97.3962" gradientUnits="userSpaceOnUse">
<stop stop-color="#21D1FF"/>
<stop offset="1" stop-color="#993CFE"/>
</linearGradient>
<linearGradient id="paint13_linear_12_3625" x1="107.321" y1="2.51219" x2="104.077" y2="97.2836" gradientUnits="userSpaceOnUse">
<stop stop-color="#21D1FF"/>
<stop offset="1" stop-color="#993CFE"/>
</linearGradient>
<linearGradient id="paint14_linear_12_3625" x1="102.062" y1="2.32779" x2="98.8167" y2="97.1076" gradientUnits="userSpaceOnUse">
<stop stop-color="#21D1FF"/>
<stop offset="1" stop-color="#993CFE"/>
</linearGradient>
<linearGradient id="paint15_linear_12_3625" x1="97.6234" y1="2.17905" x2="94.3784" y2="96.9532" gradientUnits="userSpaceOnUse">
<stop stop-color="#21D1FF"/>
<stop offset="1" stop-color="#993CFE"/>
</linearGradient>
<linearGradient id="paint16_linear_12_3625" x1="93.8379" y1="2.04456" x2="90.5927" y2="96.8262" gradientUnits="userSpaceOnUse">
<stop stop-color="#21D1FF"/>
<stop offset="1" stop-color="#993CFE"/>
</linearGradient>
<linearGradient id="paint17_linear_12_3625" x1="112.206" y1="2.67212" x2="108.961" y2="97.4554" gradientUnits="userSpaceOnUse">
<stop stop-color="#21D1FF"/>
<stop offset="1" stop-color="#993CFE"/>
</linearGradient>
<linearGradient id="paint18_linear_12_3625" x1="105.477" y1="2.44228" x2="102.231" y2="97.2249" gradientUnits="userSpaceOnUse">
<stop stop-color="#21D1FF"/>
<stop offset="1" stop-color="#993CFE"/>
</linearGradient>
<linearGradient id="paint19_linear_12_3625" x1="99.3627" y1="2.23367" x2="96.1174" y2="97.0153" gradientUnits="userSpaceOnUse">
<stop stop-color="#21D1FF"/>
<stop offset="1" stop-color="#993CFE"/>
</linearGradient>
<linearGradient id="paint20_linear_12_3625" x1="94.7243" y1="2.07778" x2="91.4791" y2="96.8553" gradientUnits="userSpaceOnUse">
<stop stop-color="#21D1FF"/>
<stop offset="1" stop-color="#993CFE"/>
</linearGradient>
<linearGradient id="paint21_linear_12_3625" x1="90.5258" y1="1.9301" x2="87.2806" y2="96.713" gradientUnits="userSpaceOnUse">
<stop stop-color="#21D1FF"/>
<stop offset="1" stop-color="#993CFE"/>
</linearGradient>
<linearGradient id="paint22_linear_12_3625" x1="88.9129" y1="1.87368" x2="85.6676" y2="96.6585" gradientUnits="userSpaceOnUse">
<stop stop-color="#21D1FF"/>
<stop offset="1" stop-color="#993CFE"/>
</linearGradient>
<linearGradient id="paint23_linear_12_3625" x1="88.014" y1="1.8451" x2="84.7688" y2="96.6265" gradientUnits="userSpaceOnUse">
<stop stop-color="#21D1FF"/>
<stop offset="1" stop-color="#993CFE"/>
</linearGradient>
<linearGradient id="paint24_linear_12_3625" x1="91.3769" y1="1.96011" x2="88.1316" y2="96.7421" gradientUnits="userSpaceOnUse">
<stop stop-color="#21D1FF"/>
<stop offset="1" stop-color="#993CFE"/>
</linearGradient>
<linearGradient id="paint25_linear_12_3625" x1="82.5341" y1="1.65778" x2="79.2889" y2="96.4392" gradientUnits="userSpaceOnUse">
<stop stop-color="#21D1FF"/>
<stop offset="1" stop-color="#993CFE"/>
</linearGradient>
<linearGradient id="paint26_linear_12_3625" x1="82.7527" y1="1.66528" x2="79.5075" y2="96.4463" gradientUnits="userSpaceOnUse">
<stop stop-color="#21D1FF"/>
<stop offset="1" stop-color="#993CFE"/>
</linearGradient>
<linearGradient id="paint27_linear_12_3625" x1="81.6301" y1="1.62684" x2="78.3849" y2="96.4071" gradientUnits="userSpaceOnUse">
<stop stop-color="#21D1FF"/>
<stop offset="1" stop-color="#993CFE"/>
</linearGradient>
<linearGradient id="paint28_linear_12_3625" x1="81.7082" y1="1.62959" x2="78.463" y2="96.4114" gradientUnits="userSpaceOnUse">
<stop stop-color="#21D1FF"/>
<stop offset="1" stop-color="#993CFE"/>
</linearGradient>
<linearGradient id="paint29_linear_12_3625" x1="84.0971" y1="1.71089" x2="80.8518" y2="96.4932" gradientUnits="userSpaceOnUse">
<stop stop-color="#21D1FF"/>
<stop offset="1" stop-color="#993CFE"/>
</linearGradient>
<linearGradient id="paint30_linear_12_3625" x1="85.5339" y1="1.76035" x2="82.2888" y2="96.5403" gradientUnits="userSpaceOnUse">
<stop stop-color="#21D1FF"/>
<stop offset="1" stop-color="#993CFE"/>
</linearGradient>
<linearGradient id="paint31_linear_12_3625" x1="37.9654" y1="0.13256" x2="34.7203" y2="94.9126" gradientUnits="userSpaceOnUse">
<stop stop-color="#21D1FF"/>
<stop offset="1" stop-color="#993CFE"/>
</linearGradient>
<linearGradient id="paint32_linear_12_3625" x1="29.2875" y1="-0.171767" x2="26.0422" y2="94.6165" gradientUnits="userSpaceOnUse">
<stop stop-color="#21D1FF"/>
<stop offset="1" stop-color="#993CFE"/>
</linearGradient>
<linearGradient id="paint33_linear_12_3625" x1="26.6629" y1="-0.25582" x2="23.4176" y2="94.5263" gradientUnits="userSpaceOnUse">
<stop stop-color="#21D1FF"/>
<stop offset="1" stop-color="#993CFE"/>
</linearGradient>
<linearGradient id="paint34_linear_12_3625" x1="25.1673" y1="-0.311436" x2="21.9219" y2="94.475" gradientUnits="userSpaceOnUse">
<stop stop-color="#21D1FF"/>
<stop offset="1" stop-color="#993CFE"/>
</linearGradient>
<linearGradient id="paint35_linear_12_3625" x1="27.1408" y1="-0.240779" x2="23.8955" y2="94.5422" gradientUnits="userSpaceOnUse">
<stop stop-color="#21D1FF"/>
<stop offset="1" stop-color="#993CFE"/>
</linearGradient>
<linearGradient id="paint36_linear_12_3625" x1="27.1391" y1="-0.242495" x2="23.8939" y2="94.5415" gradientUnits="userSpaceOnUse">
<stop stop-color="#21D1FF"/>
<stop offset="1" stop-color="#993CFE"/>
</linearGradient>
<linearGradient id="paint37_linear_12_3625" x1="20.9611" y1="-0.450054" x2="17.7158" y2="94.3307" gradientUnits="userSpaceOnUse">
<stop stop-color="#21D1FF"/>
<stop offset="1" stop-color="#993CFE"/>
</linearGradient>
<linearGradient id="paint38_linear_12_3625" x1="22.9617" y1="-0.38087" x2="19.7166" y2="94.3991" gradientUnits="userSpaceOnUse">
<stop stop-color="#21D1FF"/>
<stop offset="1" stop-color="#993CFE"/>
</linearGradient>
<linearGradient id="paint39_linear_12_3625" x1="27.6389" y1="-0.222044" x2="24.3937" y2="94.56" gradientUnits="userSpaceOnUse">
<stop stop-color="#21D1FF"/>
<stop offset="1" stop-color="#993CFE"/>
</linearGradient>
<linearGradient id="paint40_linear_12_3625" x1="31.6327" y1="-0.0826259" x2="28.3877" y2="94.6956" gradientUnits="userSpaceOnUse">
<stop stop-color="#21D1FF"/>
<stop offset="1" stop-color="#993CFE"/>
</linearGradient>
<linearGradient id="paint41_linear_12_3625" x1="35.5891" y1="0.0527993" x2="32.3439" y2="94.8302" gradientUnits="userSpaceOnUse">
<stop stop-color="#21D1FF"/>
<stop offset="1" stop-color="#993CFE"/>
</linearGradient>
<linearGradient id="paint42_linear_12_3625" x1="36.7441" y1="0.0907865" x2="33.499" y2="94.8708" gradientUnits="userSpaceOnUse">
<stop stop-color="#21D1FF"/>
<stop offset="1" stop-color="#993CFE"/>
</linearGradient>
<linearGradient id="paint43_linear_12_3625" x1="13.5897" y1="-0.702483" x2="10.3445" y2="94.0786" gradientUnits="userSpaceOnUse">
<stop stop-color="#21D1FF"/>
<stop offset="1" stop-color="#993CFE"/>
</linearGradient>
<linearGradient id="paint44_linear_12_3625" x1="17.1164" y1="-0.575841" x2="13.8715" y2="94.1945" gradientUnits="userSpaceOnUse">
<stop stop-color="#21D1FF"/>
<stop offset="1" stop-color="#993CFE"/>
</linearGradient>
<linearGradient id="paint45_linear_12_3625" x1="22.5513" y1="-0.394358" x2="19.3061" y2="94.385" gradientUnits="userSpaceOnUse">
<stop stop-color="#21D1FF"/>
<stop offset="1" stop-color="#993CFE"/>
</linearGradient>
<linearGradient id="paint46_linear_12_3625" x1="27.0919" y1="-0.235159" x2="23.8469" y2="94.5384" gradientUnits="userSpaceOnUse">
<stop stop-color="#21D1FF"/>
<stop offset="1" stop-color="#993CFE"/>
</linearGradient>
<linearGradient id="paint47_linear_12_3625" x1="30.8737" y1="-0.111281" x2="27.6284" y2="94.6708" gradientUnits="userSpaceOnUse">
<stop stop-color="#21D1FF"/>
<stop offset="1" stop-color="#993CFE"/>
</linearGradient>
<linearGradient id="paint48_linear_12_3625" x1="12.7817" y1="-0.732102" x2="9.53645" y2="94.0513" gradientUnits="userSpaceOnUse">
<stop stop-color="#21D1FF"/>
<stop offset="1" stop-color="#993CFE"/>
</linearGradient>
<linearGradient id="paint49_linear_12_3625" x1="19.8402" y1="-0.490172" x2="16.595" y2="94.2928" gradientUnits="userSpaceOnUse">
<stop stop-color="#21D1FF"/>
<stop offset="1" stop-color="#993CFE"/>
</linearGradient>
<linearGradient id="paint50_linear_12_3625" x1="25.9483" y1="-0.279797" x2="22.7031" y2="94.5016" gradientUnits="userSpaceOnUse">
<stop stop-color="#21D1FF"/>
<stop offset="1" stop-color="#993CFE"/>
</linearGradient>
<linearGradient id="paint51_linear_12_3625" x1="30.5207" y1="-0.120241" x2="27.2757" y2="94.6577" gradientUnits="userSpaceOnUse">
<stop stop-color="#21D1FF"/>
<stop offset="1" stop-color="#993CFE"/>
</linearGradient>
<linearGradient id="paint52_linear_12_3625" x1="34.7103" y1="0.0194583" x2="31.4651" y2="94.8023" gradientUnits="userSpaceOnUse">
<stop stop-color="#21D1FF"/>
<stop offset="1" stop-color="#993CFE"/>
</linearGradient>
<linearGradient id="paint53_linear_12_3625" x1="36.2618" y1="0.0714036" x2="33.0165" y2="94.8562" gradientUnits="userSpaceOnUse">
<stop stop-color="#21D1FF"/>
<stop offset="1" stop-color="#993CFE"/>
</linearGradient>
<linearGradient id="paint54_linear_12_3625" x1="34.577" y1="0.0154146" x2="31.3318" y2="94.7969" gradientUnits="userSpaceOnUse">
<stop stop-color="#21D1FF"/>
<stop offset="1" stop-color="#993CFE"/>
</linearGradient>
<linearGradient id="paint55_linear_12_3625" x1="31.1884" y1="-0.100858" x2="27.9432" y2="94.6814" gradientUnits="userSpaceOnUse">
<stop stop-color="#21D1FF"/>
<stop offset="1" stop-color="#993CFE"/>
</linearGradient>
<linearGradient id="paint56_linear_12_3625" x1="40.8225" y1="0.229623" x2="37.5774" y2="95.0109" gradientUnits="userSpaceOnUse">
<stop stop-color="#21D1FF"/>
<stop offset="1" stop-color="#993CFE"/>
</linearGradient>
<linearGradient id="paint57_linear_12_3625" x1="40.6802" y1="0.224803" x2="37.4351" y2="95.0061" gradientUnits="userSpaceOnUse">
<stop stop-color="#21D1FF"/>
<stop offset="1" stop-color="#993CFE"/>
</linearGradient>
<linearGradient id="paint58_linear_12_3625" x1="40.3171" y1="0.212389" x2="37.072" y2="94.9926" gradientUnits="userSpaceOnUse">
<stop stop-color="#21D1FF"/>
<stop offset="1" stop-color="#993CFE"/>
</linearGradient>
<linearGradient id="paint59_linear_12_3625" x1="40.3452" y1="0.213422" x2="37.1001" y2="94.9951" gradientUnits="userSpaceOnUse">
<stop stop-color="#21D1FF"/>
<stop offset="1" stop-color="#993CFE"/>
</linearGradient>
<linearGradient id="paint60_linear_12_3625" x1="37.4272" y1="0.112798" x2="34.182" y2="94.8955" gradientUnits="userSpaceOnUse">
<stop stop-color="#21D1FF"/>
<stop offset="1" stop-color="#993CFE"/>
</linearGradient>
<linearGradient id="paint61_linear_12_3625" x1="35.9921" y1="0.0640719" x2="32.747" y2="94.8441" gradientUnits="userSpaceOnUse">
<stop stop-color="#21D1FF"/>
<stop offset="1" stop-color="#993CFE"/>
</linearGradient>
<linearGradient id="paint62_linear_12_3625" x1="53.3477" y1="0.655669" x2="50.1022" y2="95.443" gradientUnits="userSpaceOnUse">
<stop stop-color="#21D1FF"/>
<stop offset="1" stop-color="#993CFE"/>
</linearGradient>
<linearGradient id="paint63_linear_12_3625" x1="70.071" y1="1.22841" x2="66.8255" y2="96.0157" gradientUnits="userSpaceOnUse">
<stop stop-color="#21D1FF"/>
<stop offset="1" stop-color="#993CFE"/>
</linearGradient>
<linearGradient id="paint64_linear_12_3625" x1="62.4695" y1="0.971083" x2="59.2242" y2="95.7521" gradientUnits="userSpaceOnUse">
<stop stop-color="#21D1FF"/>
<stop offset="1" stop-color="#993CFE"/>
</linearGradient>
<linearGradient id="paint65_linear_12_3625" x1="30.3049" y1="57.9801" x2="70.9681" y2="57.8199" gradientUnits="userSpaceOnUse">
<stop stop-color="#21D1FF"/>
<stop offset="1" stop-color="#993CFE"/>
</linearGradient>
<linearGradient id="paint66_linear_12_3625" x1="77.6917" y1="57.9206" x2="37.0288" y2="57.7604" gradientUnits="userSpaceOnUse">
<stop stop-color="#21D1FF"/>
<stop offset="1" stop-color="#993CFE"/>
</linearGradient>
</defs>
</svg>
