<svg width="98" height="110" viewBox="0 0 98 110" fill="none" xmlns="http://www.w3.org/2000/svg">
<path d="M83.3302 96.4192C81.9032 95.1354 80.9192 93.2991 80.6032 91.3321C80.2882 89.3651 80.9242 87.5973 81.8712 85.8767C83.5132 82.8893 86.4482 80.8516 87.9942 77.8064C89.1142 75.5996 89.1972 72.8253 88.2102 70.5479C89.4342 72.5683 97.6782 78.5774 97.3262 88.0749C97.1962 91.5858 94.0722 96.6869 89.7822 97.8743C87.6692 98.46 85.0012 97.9225 83.3302 96.4192Z" fill="url(#paint0_linear_12_3841)" stroke="white" stroke-width="0.7659" stroke-miterlimit="10"/>
<path opacity="0.3" d="M89.1371 71.6753C90.7231 75.7816 91.5921 79.9189 89.9101 84.2865C88.1381 88.8822 84.0801 92.2058 85.7651 97.6687C85.7741 97.6987 85.7721 97.7276 85.7751 97.7576C87.0911 98.1634 88.5331 98.2201 89.7821 97.8732C94.0721 96.6857 97.1961 91.5847 97.3261 88.0738C97.6261 79.9511 91.6421 74.3832 89.1371 71.6753Z" fill="url(#paint1_linear_12_3841)" stroke="white" stroke-width="0.7659" stroke-miterlimit="10"/>
<path d="M88.3823 70.9287C88.3823 70.9287 96.2834 82.9018 95.7014 92.9047" stroke="white" stroke-width="0.3416" stroke-miterlimit="10"/>
<path d="M87.4211 78.897C87.4211 78.897 95.3542 91.2384 90.1362 97.7988" stroke="white" stroke-width="0.3416" stroke-miterlimit="10"/>
<path d="M84.7692 82.1147C84.7692 82.1147 82.9542 91.6037 88.5032 98.0421" stroke="white" stroke-width="0.3416" stroke-miterlimit="10"/>
<path d="M87.7503 96.6C88.3273 97.9588 88.0583 99.4964 87.1753 100.529C86.8763 100.884 86.5053 101.176 86.0763 101.386C84.3853 102.211 82.3792 101.411 81.6062 99.5928C81.1232 98.4535 81.2422 97.1825 81.8142 96.1964C82.1562 95.6043 82.6552 95.1203 83.2832 94.814C84.9812 93.9864 86.9803 94.7883 87.7503 96.6Z" fill="url(#paint2_linear_12_3841)" stroke="white" stroke-width="0.7659" stroke-miterlimit="10"/>
<path opacity="0.3" d="M87.1742 100.528C86.8752 100.884 86.5042 101.176 86.0752 101.386C84.3842 102.211 82.3783 101.411 81.6053 99.5926C81.1223 98.4533 81.2413 97.1823 81.8133 96.1962C82.3943 96.0977 82.9283 96.0463 83.3763 96.0784C85.7133 96.2422 87.1382 98.2884 87.1742 100.528Z" fill="url(#paint3_linear_12_3841)" stroke="white" stroke-width="0.7659" stroke-miterlimit="10"/>
<path d="M83.5734 106.149C82.1284 106.95 80.3514 107.291 78.7214 107.411C76.2504 107.603 74.1304 107.277 74.1304 107.277L74.4443 99.0796C74.4443 99.0796 75.6084 98.5678 77.1224 98.0324C78.9454 97.3782 81.2833 96.6801 82.7053 96.7754C86.9513 97.0688 88.1794 103.582 83.5734 106.149Z" fill="url(#paint4_linear_12_3841)" stroke="white" stroke-width="0.7659" stroke-miterlimit="10"/>
<path opacity="0.3" d="M78.7214 107.41C76.2504 107.602 74.1304 107.276 74.1304 107.276L74.4443 99.0784C74.4443 99.0784 75.6084 98.5666 77.1224 98.0312C77.5044 98.1191 77.8504 98.224 78.1384 98.3568C81.0594 99.6824 81.1684 104.708 78.7214 107.41Z" fill="url(#paint5_linear_12_3841)" stroke="white" stroke-width="0.7659" stroke-miterlimit="10"/>
<path d="M74.2853 109.371C73.1603 109.477 71.4433 108.706 69.8533 107.809C67.7663 106.623 65.9043 105.208 65.9043 105.208L68.6093 97.8464C68.6093 97.8464 71.4973 97.6858 74.0813 97.9374L74.0883 97.9342C75.2573 98.0552 76.3693 98.2533 77.1133 98.5895C81.0353 100.369 79.8853 108.844 74.2853 109.371Z" fill="url(#paint6_linear_12_3841)" stroke="white" stroke-width="0.7659" stroke-miterlimit="10"/>
<path opacity="0.3" d="M69.8533 107.809C67.7663 106.623 65.9043 105.208 65.9043 105.208L68.6093 97.8464C68.6093 97.8464 71.4973 97.6858 74.0813 97.9374L74.0883 97.9342C76.5433 100.428 73.4713 106.007 69.8533 107.809Z" fill="url(#paint7_linear_12_3841)" stroke="white" stroke-width="0.7659" stroke-miterlimit="10"/>
<path d="M65.2963 107.787C64.1793 107.365 62.9803 105.869 61.9703 104.287C60.6183 102.166 59.6023 99.8945 59.6023 99.8945L64.7263 93.5664C64.7263 93.5664 66.9373 94.2645 69.1413 95.2485C70.6463 95.9135 72.1513 96.7155 72.9733 97.5207C76.3003 100.778 69.8873 109.512 65.2963 107.787Z" fill="url(#paint8_linear_12_3841)" stroke="white" stroke-width="0.7659" stroke-miterlimit="10"/>
<path opacity="0.3" d="M69.1413 95.2496C70.4953 98.207 65.7913 102.964 61.9703 104.287C60.6183 102.166 59.6023 99.8945 59.6023 99.8945L64.7263 93.5664C64.7263 93.5664 66.9373 94.2656 69.1413 95.2496Z" fill="url(#paint9_linear_12_3841)" stroke="white" stroke-width="0.7659" stroke-miterlimit="10"/>
<path d="M57.0672 103.028C56.2962 101.973 55.5672 100.046 55.0012 98.1997C54.2512 95.8163 53.7632 93.572 53.7632 93.572L60.2462 88.2686C60.2462 88.2686 63.7572 90.2794 66.1502 92.3438C66.8752 92.9713 67.4952 93.602 67.8902 94.1802C70.6552 98.2651 59.7712 106.725 57.0672 103.028Z" fill="url(#paint10_linear_12_3841)" stroke="white" stroke-width="0.7659" stroke-miterlimit="10"/>
<path opacity="0.3" d="M66.1502 92.3428C64.2982 95.2456 58.6682 98.052 55.0012 98.1997C54.2512 95.8163 53.7632 93.572 53.7632 93.572L60.2462 88.2686C60.2462 88.2686 63.7562 90.2784 66.1502 92.3428Z" fill="url(#paint11_linear_12_3841)" stroke="white" stroke-width="0.7659" stroke-miterlimit="10"/>
<path d="M66.0931 88.6901C67.9081 93.3425 53.2392 100.112 51.3652 95.8641C50.1352 93.0748 50.5781 85.6267 50.5781 85.6267L59.4022 81.3276C59.4022 81.3276 64.9831 85.844 66.0931 88.6901Z" fill="url(#paint12_linear_12_3841)" stroke="white" stroke-width="0.7659" stroke-miterlimit="10"/>
<path opacity="0.3" d="M63.8681 85.5232C61.2071 88.4827 54.5101 91.6725 50.6171 91.9455C50.3821 88.9175 50.5811 85.6228 50.5811 85.6228L59.4041 81.3237C59.4041 81.3237 61.8881 83.3367 63.8681 85.5232Z" fill="url(#paint13_linear_12_3841)" stroke="white" stroke-width="0.7659" stroke-miterlimit="10"/>
<path d="M64.2292 80.9874C65.8062 85.1408 48.8472 93.0675 47.1662 89.2996C46.0622 86.8251 47.2622 79.8106 47.2622 79.8106L57.4852 74.8306C57.4852 74.8306 63.2642 78.4465 64.2292 80.9874Z" fill="url(#paint14_linear_12_3841)" stroke="white" stroke-width="0.7659" stroke-miterlimit="10"/>
<path opacity="0.3" d="M62.1292 78.3417C60.8512 79.6074 56.0582 79.86 54.5262 82.8967C54.5162 82.9256 54.5002 82.9417 54.4932 82.962C54.4632 82.9609 54.4482 82.9599 54.4212 82.9492C51.5502 82.25 48.5231 85.2834 46.7021 85.9622C46.7021 83.1012 47.2652 79.814 47.2652 79.814L57.4882 74.834C57.4882 74.834 60.1242 76.4818 62.1292 78.3417Z" fill="url(#paint15_linear_12_3841)" stroke="white" stroke-width="0.7659" stroke-miterlimit="10"/>
<path d="M61.7182 75.0777C62.7652 77.5415 55.8132 77.0061 53.9132 80.7837C53.8972 80.8126 53.8872 80.8287 53.8742 80.8512C53.8502 80.8469 53.8282 80.8479 53.8012 80.8383C49.8932 79.8885 45.7022 85.8526 44.6552 83.3888C43.5952 80.8929 44.7512 73.8999 44.7512 73.8999L54.9742 68.9209C54.9742 68.9209 60.6582 72.5807 61.7182 75.0777Z" fill="url(#paint16_linear_12_3841)" stroke="white" stroke-width="0.7659" stroke-miterlimit="10"/>
<path opacity="0.3" d="M57.8603 70.9939C56.3423 69.8032 54.9743 68.9209 54.9743 68.9209L44.7513 73.8999C44.7513 73.8999 44.4842 75.5306 44.3232 77.4944C49.4372 77.4462 54.3353 74.9246 57.8603 70.9939Z" fill="url(#paint17_linear_12_3841)" stroke="white" stroke-width="0.7659" stroke-miterlimit="10"/>
<path d="M68.4233 66.0529C73.1003 65.1385 76.5333 66.5294 81.7003 72.8339C80.5973 70.1763 79.2324 67.5487 77.1884 65.6332C75.1454 63.7176 72.3703 62.5409 69.6923 63.0248C69.5223 63.0548 69.3454 63.0955 69.2114 63.2111C69.0654 63.3375 68.9904 63.5324 68.9224 63.7187C68.6414 64.4832 68.7063 65.2895 68.4233 66.0529Z" fill="url(#paint18_linear_12_3841)" stroke="white" stroke-width="0.7659" stroke-miterlimit="10"/>
<path opacity="0.3" d="M71.0773 65.8034C70.2263 65.7831 69.3503 65.8719 68.4243 66.0529C68.7053 65.2894 68.6423 64.4832 68.9243 63.7197C68.9923 63.5334 69.0683 63.3385 69.2133 63.2122C69.2793 63.1544 69.3563 63.1158 69.4393 63.0869C70.3813 63.3321 71.3073 64.5988 71.0773 65.8034Z" fill="url(#paint19_linear_12_3841)" stroke="white" stroke-width="0.7659" stroke-miterlimit="10"/>
<path d="M69.4733 66.1577C66.9933 66.632 64.4763 67.4094 62.6023 68.0625C60.7643 67.9833 59.9613 66.8012 60.9393 65.3311C63.0613 64.2036 65.6403 63.4412 68.2483 63.3105C68.2483 63.3105 69.8163 63.3341 70.0063 65.4221C70.0373 65.7765 69.8013 66.0945 69.4733 66.1577Z" fill="url(#paint20_linear_12_3841)" stroke="white" stroke-width="0.7659" stroke-miterlimit="10"/>
<path opacity="0.3" d="M63.2873 67.8304C63.0523 67.9086 62.8223 67.9867 62.6023 68.0638C60.7643 67.9846 59.9613 66.8025 60.9393 65.3323C61.2103 65.1878 61.4903 65.0497 61.7753 64.918C62.6363 65.6589 63.4153 66.735 63.2873 67.8304Z" fill="url(#paint21_linear_12_3841)" stroke="white" stroke-width="0.7659" stroke-miterlimit="10"/>
<path d="M61.8932 68.4586C60.2682 69.0583 59.3022 69.5369 59.3022 69.5369L56.8522 70.5616L55.1042 67.2348C56.6552 66.6031 58.1932 65.9349 59.7362 65.3706C60.5072 65.089 61.3802 65.2924 61.9212 65.9435C62.2132 66.2947 62.4312 66.7326 62.5272 67.3087C62.6112 67.8055 62.3382 68.2948 61.8932 68.4586Z" fill="url(#paint22_linear_12_3841)" stroke="white" stroke-width="0.7659" stroke-miterlimit="10"/>
<path opacity="0.3" d="M60.2872 69.0945C59.6542 69.3621 59.3032 69.5367 59.3032 69.5367L56.8532 70.5614L55.1052 67.2346C56.4192 66.6992 57.7252 66.1413 59.0322 65.6392C59.5822 66.7399 60.1182 67.8449 60.2872 69.0945Z" fill="url(#paint23_linear_12_3841)" stroke="white" stroke-width="0.7659" stroke-miterlimit="10"/>
<path d="M60.7332 42.5583C64.5112 39.4692 65.8611 35.8137 64.9811 27.479C66.0761 30.1409 66.9721 32.9891 66.9211 35.8972C66.8701 38.8054 65.8172 41.7959 63.6802 43.5916C63.5442 43.7051 63.3982 43.8175 63.2272 43.8453C63.0422 43.8764 62.8582 43.8047 62.6832 43.734C61.9642 43.4428 61.4502 42.8485 60.7332 42.5583Z" fill="url(#paint24_linear_12_3841)" stroke="white" stroke-width="0.7659" stroke-miterlimit="10"/>
<path opacity="0.3" d="M62.6912 40.624C62.1322 41.3125 61.4812 41.9464 60.7332 42.5578C61.4502 42.848 61.9642 43.4422 62.6822 43.7324C62.8572 43.8031 63.0411 43.8748 63.2261 43.8438C63.3111 43.8298 63.3902 43.7945 63.4642 43.7495C63.9292 42.8383 63.6782 41.2515 62.6912 40.624Z" fill="url(#paint25_linear_12_3841)" stroke="white" stroke-width="0.7659" stroke-miterlimit="10"/>
<path d="M61.3672 41.6563C59.3712 43.301 57.1392 44.7722 55.4272 45.8172C54.2462 47.327 54.5232 48.7575 56.1962 48.9738C58.4032 48.0508 60.6652 46.5207 62.5092 44.5441C62.5092 44.5441 63.5492 43.286 62.2342 41.7313C62.0092 41.4657 61.6312 41.4379 61.3672 41.6563Z" fill="url(#paint26_linear_12_3841)" stroke="white" stroke-width="0.7659" stroke-miterlimit="10"/>
<path opacity="0.3" d="M56.0502 45.4321C55.8362 45.566 55.6282 45.6955 55.4272 45.8176C54.2462 47.3273 54.5232 48.7579 56.1962 48.9742C56.4782 48.8564 56.7612 48.7279 57.0452 48.5897C57.1122 47.4076 56.8922 46.0682 56.0502 45.4321Z" fill="url(#paint27_linear_12_3841)" stroke="white" stroke-width="0.7659" stroke-miterlimit="10"/>
<path d="M54.6772 46.1118C53.1692 46.9952 52.1902 47.4384 52.1902 47.4384L49.8333 48.6901L50.9553 52.3125C52.4353 51.5083 53.9313 50.7395 55.3593 49.8979C56.0723 49.4771 56.5183 48.6484 56.4333 47.7821C56.3863 47.3142 56.2302 46.8463 55.8982 46.3827C55.6122 45.9833 55.0902 45.8698 54.6772 46.1118Z" fill="url(#paint28_linear_12_3841)" stroke="white" stroke-width="0.7659" stroke-miterlimit="10"/>
<path opacity="0.3" d="M53.1583 46.9565C52.5473 47.2767 52.1902 47.4384 52.1902 47.4384L49.8333 48.6901L50.9553 52.3124C52.2093 51.6303 53.4732 50.9729 54.6992 50.2759C54.3102 49.0991 53.9063 47.9309 53.1583 46.9565Z" fill="url(#paint29_linear_12_3841)" stroke="white" stroke-width="0.7659" stroke-miterlimit="10"/>
<path d="M63.104 51.1212C67.39 48.9187 69.406 45.6326 70.126 37.2808C70.693 40.1257 71.028 43.1099 70.427 45.9452C69.825 48.7806 68.225 51.4799 65.792 52.7723C65.638 52.8548 65.473 52.9319 65.3 52.9233C65.114 52.9137 64.946 52.8023 64.788 52.6952C64.142 52.2551 63.751 51.5624 63.104 51.1212Z" fill="url(#paint30_linear_12_3841)" stroke="white" stroke-width="0.7659" stroke-miterlimit="10"/>
<path opacity="0.3" d="M65.388 49.6543C64.71 50.2057 63.951 50.6854 63.104 51.1212C63.75 51.5624 64.142 52.2551 64.789 52.6952C64.947 52.8034 65.114 52.9137 65.301 52.9233C65.387 52.9276 65.471 52.9104 65.553 52.8826C66.18 52.0924 66.235 50.4841 65.388 49.6543Z" fill="url(#paint31_linear_12_3841)" stroke="white" stroke-width="0.7659" stroke-miterlimit="10"/>
<path d="M63.8961 50.3775C61.6281 51.5531 59.164 52.5082 57.291 53.1582C55.848 54.3799 55.847 55.8393 57.444 56.4165C59.78 55.9935 62.285 54.987 64.467 53.4526C64.467 53.4526 65.724 52.4472 64.731 50.6387C64.561 50.3303 64.1961 50.2211 63.8961 50.3775Z" fill="url(#paint32_linear_12_3841)" stroke="white" stroke-width="0.7659" stroke-miterlimit="10"/>
<path opacity="0.3" d="M57.973 52.916C57.739 53.0006 57.51 53.0809 57.29 53.158C55.847 54.3797 55.8461 55.8391 57.4431 56.4163C57.7421 56.3617 58.0441 56.2974 58.3461 56.2246C58.6381 55.0821 58.677 53.7223 57.973 52.916Z" fill="url(#paint33_linear_12_3841)" stroke="white" stroke-width="0.7659" stroke-miterlimit="10"/>
<path d="M56.5001 53.2839C54.8561 53.8204 53.8121 54.042 53.8121 54.042L51.2661 54.754L51.6771 58.5445C53.2791 58.0798 54.8901 57.6526 56.4471 57.1386C57.2251 56.8827 57.8201 56.1674 57.9001 55.3012C57.9441 54.8333 57.8791 54.3418 57.6421 53.8139C57.4391 53.361 56.9501 53.1361 56.5001 53.2839Z" fill="url(#paint34_linear_12_3841)" stroke="white" stroke-width="0.7659" stroke-miterlimit="10"/>
<path opacity="0.3" d="M54.8511 53.7803C54.1921 53.9612 53.8121 54.0415 53.8121 54.0415L51.2661 54.7536L51.6771 58.544C53.0341 58.15 54.3971 57.7806 55.7301 57.3641C55.5731 56.1295 55.3991 54.8971 54.8511 53.7803Z" fill="url(#paint35_linear_12_3841)" stroke="white" stroke-width="0.7659" stroke-miterlimit="10"/>
<path d="M66.3232 57.9105C70.8812 56.4607 73.3552 53.5579 75.3012 45.4331C75.4412 48.338 75.3322 51.3415 74.3192 54.0398C73.3062 56.738 71.3282 59.1312 68.7352 59.9963C68.5702 60.0509 68.3962 60.1002 68.2272 60.0627C68.0442 60.021 67.8952 59.8828 67.7552 59.75C67.1802 59.205 66.8962 58.4544 66.3232 57.9105Z" fill="url(#paint36_linear_12_3841)" stroke="white" stroke-width="0.7659" stroke-miterlimit="10"/>
<path opacity="0.3" d="M68.7953 56.8486C68.0443 57.2791 67.2253 57.6238 66.3223 57.9108C66.8953 58.4547 67.1793 59.2064 67.7543 59.7503C67.8943 59.8831 68.0433 60.0213 68.2263 60.063C68.3103 60.0823 68.3953 60.0791 68.4803 60.0652C69.2173 59.3895 69.5093 57.8112 68.7953 56.8486Z" fill="url(#paint37_linear_12_3841)" stroke="white" stroke-width="0.7659" stroke-miterlimit="10"/>
<path d="M67.2143 57.3087C64.8023 58.0861 62.2293 58.6118 60.2813 58.9363C58.6763 59.8978 58.4593 61.3401 59.9523 62.1785C62.3213 62.156 64.9423 61.5874 67.3233 60.4417C67.3233 60.4417 68.7133 59.6612 68.0003 57.7081C67.8793 57.3751 67.5343 57.2059 67.2143 57.3087Z" fill="url(#paint38_linear_12_3841)" stroke="white" stroke-width="0.7659" stroke-miterlimit="10"/>
<path opacity="0.3" d="M60.9925 58.8135C60.7485 58.8574 60.5105 58.8991 60.2825 58.9366C58.6775 59.8981 58.4605 61.3404 59.9535 62.1788C60.2565 62.1756 60.5635 62.1638 60.8735 62.1424C61.3285 61.0653 61.5685 59.729 60.9925 58.8135Z" fill="url(#paint39_linear_12_3841)" stroke="white" stroke-width="0.7659" stroke-miterlimit="10"/>
<path d="M59.4833 58.9271C57.7803 59.1787 56.7164 59.2205 56.7164 59.2205L54.0984 59.4924L53.9443 63.3054C55.5943 63.1169 57.2484 62.9692 58.8624 62.725C59.6694 62.603 60.3613 61.9991 60.5693 61.1564C60.6803 60.7024 60.6904 60.2056 60.5344 59.6445C60.3984 59.1627 59.9493 58.8586 59.4833 58.9271Z" fill="url(#paint40_linear_12_3841)" stroke="white" stroke-width="0.7659" stroke-miterlimit="10"/>
<path opacity="0.3" d="M57.7813 59.1377C57.1043 59.2052 56.7173 59.2202 56.7173 59.2202L54.0993 59.4921L53.9453 63.3051C55.3433 63.1455 56.7433 63.0117 58.1213 62.8264C58.1473 61.579 58.1583 60.3326 57.7813 59.1377Z" fill="url(#paint41_linear_12_3841)" stroke="white" stroke-width="0.7659" stroke-miterlimit="10"/>
<path d="M36.8932 34.397C37.7542 33.5875 37.9862 32.1752 37.6192 31.0124C37.2522 29.8506 36.3732 28.9319 35.3662 28.3451C36.9102 28.0378 38.5272 28.6664 39.6622 29.8303C41.8882 32.111 41.9012 35.6979 41.5902 36.5717L36.8932 34.397Z" fill="url(#paint42_linear_12_3841)" stroke="white" stroke-width="0.7659" stroke-miterlimit="10"/>
<path d="M44.1792 39.9493C43.3532 35.8815 47.9542 33.9991 49.5242 33.7036C50.3562 33.5473 51.2332 33.5366 51.9882 33.1318C52.3712 33.8803 52.8842 34.5581 53.5062 35.0892C54.1222 35.6149 55.1022 35.1481 55.5902 35.8098C55.8222 36.1235 56.1502 37.0443 55.2332 38.1772C54.6702 38.8732 53.7502 39.1302 52.9082 39.3154C52.5662 39.3914 52.2182 39.4332 51.8732 39.4931C51.4052 39.5724 50.9422 39.6827 50.4882 39.8219C49.2232 40.2095 47.9382 40.9087 47.3362 42.1604C47.0262 42.8039 46.9252 43.5363 46.8292 44.2526C46.0572 43.8618 44.8592 43.2943 44.1792 39.9493Z" fill="url(#paint43_linear_12_3841)" stroke="white" stroke-width="0.7659" stroke-miterlimit="10"/>
<path opacity="0.3" d="M51.8641 36.783C52.8811 37.7627 54.3001 37.6878 55.5931 37.6107C56.0261 36.7455 55.7811 36.0699 55.5891 35.8107C55.1011 35.149 54.1211 35.6159 53.5051 35.0901C52.8831 34.558 52.3701 33.8813 51.9871 33.1328C51.5101 33.3876 50.9851 33.484 50.4541 33.5611C50.6851 34.7271 51.0321 35.9831 51.8641 36.783Z" fill="url(#paint44_linear_12_3841)" stroke="white" stroke-width="0.7659" stroke-miterlimit="10"/>
<path d="M57.0842 26.9834C57.1642 26.9416 57.2372 26.8945 57.2972 26.8324C59.4632 24.5571 60.1542 21.0183 60.0692 17.8692C59.9272 12.5647 58.6042 -0.703964 35.8532 3.13466C33.1742 3.58651 30.1452 3.4002 28.1682 1.41504C29.1822 5.41963 31.8722 8.81817 35.2962 10.7605C38.5992 12.6332 42.5592 13.0969 45.5692 15.4675C47.7382 17.1754 49.1952 19.7098 50.4642 22.2528C51.0172 23.361 51.5562 24.5014 52.3642 25.4137C52.9722 26.1022 53.7332 26.6065 54.5872 26.8635C55.1982 27.0476 56.4182 27.3282 57.0842 26.9834Z" fill="url(#paint45_linear_12_3841)" stroke="white" stroke-width="0.7659" stroke-miterlimit="10"/>
<path opacity="0.3" d="M55.9731 15.8892C54.9651 13.7488 53.4961 11.6898 51.6051 10.3642C49.6741 9.00862 47.5541 8.878 45.3151 9.12106C41.7931 9.50331 38.5441 10.0654 35.1531 8.5664C32.6041 7.43891 30.5071 5.51906 28.7751 3.26514C30.0551 6.45596 32.4141 9.12533 35.2951 10.7604C38.5981 12.6331 42.5581 13.0967 45.5681 15.4674C47.7371 17.1752 49.1951 19.7097 50.4631 22.2527C51.0161 23.3609 51.5551 24.5012 52.3631 25.4135C52.9711 26.102 53.7321 26.6063 54.5861 26.8633C55.0101 26.9907 55.7242 27.161 56.3462 27.1406C57.3612 23.2913 57.8091 19.7878 55.9731 15.8892Z" fill="url(#paint46_linear_12_3841)" stroke="white" stroke-width="0.7659" stroke-miterlimit="10"/>
<path d="M55.6852 27.6815C53.5192 28.1398 49.9122 29.1463 46.2162 27.2521C39.4972 23.8097 42.1372 16.7353 35.2422 12.7628C49.7142 7.59432 54.7292 22.6404 55.6852 27.6815Z" fill="url(#paint47_linear_12_3841)" stroke="white" stroke-width="0.7659" stroke-miterlimit="10"/>
<path opacity="0.3" d="M46.0773 23.1876C44.0283 21.4947 43.2783 18.9185 41.6503 16.8616C40.1553 14.9718 38.0843 13.9439 35.9343 13.1943C41.9603 17.23 39.7353 23.9296 46.2163 27.2511C49.9113 29.1452 53.5193 28.1387 55.6853 27.6804C55.5423 26.9245 55.3043 25.9394 54.9603 24.8344C51.8813 25.448 48.6823 25.3398 46.0773 23.1876Z" fill="url(#paint48_linear_12_3841)" stroke="white" stroke-width="0.7659" stroke-miterlimit="10"/>
<path d="M50.6562 31.0524C50.6182 29.8671 50.8572 28.6722 51.4182 27.5897C51.9072 26.6463 52.6713 25.9268 53.1673 24.9942C53.8683 23.675 54.6113 20.1587 56.7193 20.9382C57.1483 21.0966 57.4753 21.4671 57.7843 21.8258C58.8093 23.0208 59.9162 24.3057 60.4702 25.8422C61.2712 28.064 60.7712 30.4817 59.5972 32.438C58.9112 33.5837 58.1133 34.6748 57.1153 35.5303C56.2003 36.3152 54.8672 37.2146 53.6402 36.7563C53.1952 36.5903 52.8293 36.2423 52.5113 35.8687C51.3793 34.542 50.7132 32.8063 50.6562 31.0524Z" fill="url(#paint49_linear_12_3841)" stroke="white" stroke-width="0.7659" stroke-miterlimit="10"/>
<path opacity="0.3" d="M58.8351 23.0884C59.6781 25.308 59.9942 27.774 59.1562 30.0407C58.0542 33.0217 55.1492 34.7884 52.2952 35.5926C52.3662 35.6846 52.4352 35.7799 52.5112 35.8688C52.8292 36.2414 53.1952 36.5894 53.6402 36.7564C54.8672 37.2137 56.2002 36.3142 57.1152 35.5305C58.1122 34.676 58.9102 33.5838 59.5972 32.4381C60.7712 30.4819 61.2722 28.0641 60.4702 25.8423C60.1042 24.8305 59.4991 23.9278 58.8351 23.0884Z" fill="url(#paint50_linear_12_3841)" stroke="white" stroke-width="0.7659" stroke-miterlimit="10"/>
<path d="M54.1802 22.4458C54.1802 22.4458 58.0812 25.7351 60.2142 31.1842" stroke="white" stroke-width="0.3416" stroke-miterlimit="10"/>
<path d="M52.4573 25.8979C52.4573 25.8979 57.1913 29.9197 58.2943 34.2808" stroke="white" stroke-width="0.3416" stroke-miterlimit="10"/>
<path d="M40.2681 4.93742C40.6831 5.91394 40.2801 7.06606 39.3681 7.51042C38.4561 7.95478 37.3801 7.52326 36.9651 6.54674C36.5501 5.57022 36.9531 4.4181 37.8651 3.97374C38.7771 3.52938 39.8531 3.9609 40.2681 4.93742Z" fill="white"/>
<path d="M45.413 4.7923C45.672 5.40156 45.421 6.12002 44.852 6.39734C44.283 6.67467 43.612 6.40485 43.353 5.79667C43.094 5.18741 43.345 4.46893 43.914 4.19161C44.484 3.91429 45.154 4.18412 45.413 4.7923Z" fill="white"/>
<path d="M50.0041 5.21797C50.1551 5.57453 50.0081 5.99426 49.6761 6.15701C49.3431 6.3187 48.9501 6.1613 48.7991 5.80475C48.6481 5.44819 48.7951 5.02845 49.1271 4.86676C49.4601 4.70401 49.8521 4.86248 50.0041 5.21797Z" fill="white"/>
<path d="M54.0431 7.21922C54.1451 7.46013 54.0462 7.74496 53.8212 7.85417C53.5952 7.96446 53.3302 7.85738 53.2272 7.61647C53.1252 7.37448 53.2241 7.09072 53.4491 6.98043C53.6741 6.87015 53.9401 6.97723 54.0431 7.21922Z" fill="white"/>
<path d="M34.6863 82.486C30.9693 85.6607 29.6934 89.3463 30.7364 97.6595C29.5894 95.0223 28.6384 92.1955 28.6324 89.2874C28.6254 86.3792 29.6204 83.3651 31.7224 81.5223C31.8554 81.4056 31.9993 81.2889 32.1693 81.2568C32.3533 81.2225 32.5393 81.29 32.7163 81.3574C33.4373 81.6305 33.9633 82.2119 34.6863 82.486Z" fill="url(#paint51_linear_12_3841)" stroke="white" stroke-width="0.7659" stroke-miterlimit="10"/>
<path opacity="0.3" d="M32.7672 84.4648C33.3122 83.7646 33.9512 83.1146 34.6862 82.4861C33.9632 82.212 33.4372 81.6306 32.7152 81.3564C32.5382 81.289 32.3522 81.2215 32.1682 81.2558C32.0832 81.2729 32.0053 81.3093 31.9323 81.3564C31.4853 82.2784 31.7682 83.8588 32.7672 84.4648Z" fill="url(#paint52_linear_12_3841)" stroke="white" stroke-width="0.7659" stroke-miterlimit="10"/>
<path d="M34.0702 83.4018C36.0342 81.7132 38.2362 80.1917 39.9272 79.1081C41.0782 77.5716 40.7742 76.1475 39.0962 75.9697C36.9082 76.942 34.6772 78.5235 32.8712 80.5418C32.8712 80.5418 31.8572 81.8235 33.2032 83.3472C33.4312 83.6074 33.8102 83.6256 34.0702 83.4018Z" fill="url(#paint53_linear_12_3841)" stroke="white" stroke-width="0.7659" stroke-miterlimit="10"/>
<path opacity="0.3" d="M39.3114 79.5084C39.5224 79.3692 39.7284 79.2354 39.9264 79.1091C41.0774 77.5725 40.7734 76.1484 39.0954 75.9707C38.8164 76.0949 38.5344 76.2298 38.2544 76.3744C38.2114 77.5565 38.4574 78.8917 39.3114 79.5084Z" fill="url(#paint54_linear_12_3841)" stroke="white" stroke-width="0.7659" stroke-miterlimit="10"/>
<path d="M40.6703 78.7963C42.1603 77.8798 43.1313 77.414 43.1313 77.414L45.4633 76.1087L44.2703 72.5132C42.8063 73.3505 41.3263 74.1525 39.9153 75.0273C39.2113 75.4631 38.7803 76.3015 38.8833 77.1667C38.9393 77.6335 39.1053 78.0971 39.4463 78.5543C39.7393 78.9452 40.2633 79.0469 40.6703 78.7963Z" fill="url(#paint55_linear_12_3841)" stroke="white" stroke-width="0.7659" stroke-miterlimit="10"/>
<path opacity="0.3" d="M42.1734 77.9162C42.7774 77.5822 43.1314 77.413 43.1314 77.413L45.4634 76.1078L44.2704 72.5122C43.0304 73.221 41.7804 73.9085 40.5674 74.6323C40.9794 75.8015 41.4064 76.9611 42.1734 77.9162Z" fill="url(#paint56_linear_12_3841)" stroke="white" stroke-width="0.7659" stroke-miterlimit="10"/>
<path d="M23.1983 60.8429C18.5413 61.8633 15.0803 60.5505 9.79028 54.3638C10.9453 56.9957 12.3623 59.5912 14.4423 61.4596C16.5233 63.3291 19.3213 64.4427 21.9893 63.8977C22.1583 63.8624 22.3343 63.8185 22.4663 63.6996C22.6103 63.5711 22.6803 63.3741 22.7453 63.1867C23.0113 62.4169 22.9313 61.6117 23.1983 60.8429Z" fill="url(#paint57_linear_12_3841)" stroke="white" stroke-width="0.7659" stroke-miterlimit="10"/>
<path opacity="0.3" d="M20.5503 61.1518C21.4023 61.1529 22.2764 61.0437 23.1974 60.8413C22.9304 61.6112 23.0113 62.4164 22.7443 63.1852C22.6793 63.3736 22.6083 63.5696 22.4653 63.6981C22.4003 63.7569 22.3223 63.7976 22.2413 63.8287C21.2953 63.6071 20.3433 62.3618 20.5503 61.1518Z" fill="url(#paint58_linear_12_3841)" stroke="white" stroke-width="0.7659" stroke-miterlimit="10"/>
<path d="M22.1473 60.7608C24.6173 60.2297 27.1183 59.3956 28.9783 58.7007C30.8183 58.7392 31.6433 59.9021 30.6953 61.3947C28.5963 62.5693 26.0333 63.3895 23.4283 63.5801C23.4283 63.5801 21.8603 63.5929 21.6293 61.5093C21.5903 61.1548 21.8203 60.8315 22.1473 60.7608Z" fill="url(#paint59_linear_12_3841)" stroke="white" stroke-width="0.7659" stroke-miterlimit="10"/>
<path opacity="0.3" d="M28.2984 58.9502C28.5324 58.8656 28.7604 58.7821 28.9784 58.7007C30.8184 58.7392 31.6434 59.9021 30.6954 61.3947C30.4274 61.5446 30.1504 61.6891 29.8684 61.8273C28.9924 61.1056 28.1934 60.0477 28.2984 58.9502Z" fill="url(#paint60_linear_12_3841)" stroke="white" stroke-width="0.7659" stroke-miterlimit="10"/>
<path d="M29.6792 58.2892C31.2922 57.6532 32.2472 57.1531 32.2472 57.1531L34.6782 56.0728L36.4922 59.3589C34.9532 60.0249 33.4282 60.7273 31.8972 61.3269C31.1322 61.6256 30.2552 61.4415 29.7022 60.8033C29.4032 60.4585 29.1772 60.0249 29.0682 59.452C28.9752 58.9595 29.2382 58.4637 29.6792 58.2892Z" fill="url(#paint61_linear_12_3841)" stroke="white" stroke-width="0.7659" stroke-miterlimit="10"/>
<path opacity="0.3" d="M31.2732 57.6178C31.9002 57.3352 32.2482 57.1531 32.2482 57.1531L34.6792 56.0728L36.4932 59.3589C35.1882 59.9232 33.8942 60.511 32.5982 61.0421C32.0242 59.9553 31.4662 58.8631 31.2732 57.6178Z" fill="url(#paint62_linear_12_3841)" stroke="white" stroke-width="0.7659" stroke-miterlimit="10"/>
<path d="M27.6693 68.3828C23.3023 70.3948 19.6643 69.8626 13.3113 64.9575C14.9423 67.2832 16.8223 69.5157 19.2133 70.8927C21.6063 72.2707 24.5573 72.7515 27.0663 71.6368C27.2253 71.5672 27.3883 71.4848 27.4953 71.3402C27.6103 71.1828 27.6423 70.9751 27.6713 70.777C27.7863 69.9654 27.5543 69.1944 27.6693 68.3828Z" fill="url(#paint63_linear_12_3841)" stroke="white" stroke-width="0.7659" stroke-miterlimit="10"/>
<path opacity="0.3" d="M25.1353 69.2619C25.9693 69.0767 26.8053 68.7811 27.6693 68.3828C27.5543 69.1944 27.7853 69.9654 27.6703 70.7759C27.6423 70.9751 27.6093 71.1817 27.4943 71.3391C27.4403 71.4109 27.3743 71.4676 27.3003 71.5147C26.3323 71.503 25.1643 70.4911 25.1353 69.2619Z" fill="url(#paint64_linear_12_3841)" stroke="white" stroke-width="0.7659" stroke-miterlimit="10"/>
<path d="M26.6253 68.5326C28.9423 67.4747 31.2333 66.1138 32.9233 65.0281C34.7313 64.6651 35.7604 65.6245 35.1154 67.2927C33.2834 68.8999 30.9284 70.2597 28.4154 71.0135C28.4154 71.0135 26.8824 71.3679 26.2614 69.3785C26.1554 69.038 26.3183 68.6729 26.6253 68.5326Z" fill="url(#paint65_linear_12_3841)" stroke="white" stroke-width="0.7659" stroke-miterlimit="10"/>
<path opacity="0.3" d="M32.3042 65.4199C32.5172 65.2861 32.7242 65.1555 32.9222 65.0281C34.7302 64.6651 35.7592 65.6245 35.1142 67.2927C34.8802 67.4972 34.6362 67.6996 34.3852 67.8955C33.3922 67.3794 32.4092 66.5175 32.3042 65.4199Z" fill="url(#paint66_linear_12_3841)" stroke="white" stroke-width="0.7659" stroke-miterlimit="10"/>
<path d="M33.5314 64.4726C34.9894 63.4983 35.8304 62.8012 35.8304 62.8012L38.0054 61.2144L40.4044 64.0368C39.0234 65.0241 37.6654 66.0434 36.2794 66.9643C35.5884 67.4236 34.6944 67.4332 34.0304 66.93C33.6724 66.657 33.3684 66.2822 33.1534 65.7447C32.9684 65.2811 33.1314 64.7392 33.5314 64.4726Z" fill="url(#paint67_linear_12_3841)" stroke="white" stroke-width="0.7659" stroke-miterlimit="10"/>
<path opacity="0.3" d="M34.9634 63.4668C35.5244 63.0535 35.8294 62.7997 35.8294 62.7997L38.0044 61.2129L40.4034 64.0354C39.2334 64.8716 38.0784 65.7282 36.9094 66.5313C36.1434 65.5933 35.3894 64.6436 34.9634 63.4668Z" fill="url(#paint68_linear_12_3841)" stroke="white" stroke-width="0.7659" stroke-miterlimit="10"/>
<path d="M30.3341 75.4412C26.3191 78.1673 22.6491 78.2583 15.6501 74.4893C17.6041 76.5098 19.7901 78.3964 22.3551 79.3515C24.9201 80.3066 27.9061 80.282 30.2181 78.7572C30.3651 78.6598 30.5141 78.5517 30.5981 78.39C30.6891 78.2155 30.6901 78.0045 30.6881 77.8043C30.6821 76.9841 30.3401 76.2624 30.3341 75.4412Z" fill="url(#paint69_linear_12_3841)" stroke="white" stroke-width="0.7659" stroke-miterlimit="10"/>
<path opacity="0.3" d="M27.9612 76.7392C28.7572 76.4158 29.5382 75.9811 30.3332 75.4414C30.3402 76.2627 30.6822 76.9844 30.6882 77.8056C30.6902 78.0059 30.6892 78.2168 30.5982 78.3913C30.5562 78.4716 30.4972 78.5391 30.4322 78.598C29.4732 78.75 28.1702 77.948 27.9612 76.7392Z" fill="url(#paint70_linear_12_3841)" stroke="white" stroke-width="0.7659" stroke-miterlimit="10"/>
<path d="M29.3243 75.7656C31.4573 74.3297 33.5173 72.5983 35.0253 71.2395C36.7573 70.5757 37.9153 71.3477 37.5253 73.1037C35.9533 75.0021 33.8293 76.7432 31.4593 77.9124C31.4593 77.9124 29.9963 78.5206 29.0903 76.6618C28.9353 76.3459 29.0423 75.9551 29.3243 75.7656Z" fill="url(#paint71_linear_12_3841)" stroke="white" stroke-width="0.7659" stroke-miterlimit="10"/>
<path opacity="0.3" d="M34.4722 71.731C34.6632 71.564 34.8492 71.398 35.0252 71.2395C36.7572 70.5757 37.9152 71.3477 37.5252 73.1037C37.3242 73.3468 37.1132 73.5866 36.8942 73.8232C35.8362 73.4827 34.7382 72.7975 34.4722 71.731Z" fill="url(#paint72_linear_12_3841)" stroke="white" stroke-width="0.7659" stroke-miterlimit="10"/>
<path d="M35.543 70.5884C36.84 69.3795 37.5681 68.5486 37.5681 68.5486L39.4801 66.6138L42.2661 68.9951C41.0491 70.204 39.858 71.4396 38.625 72.5843C38.01 73.1539 37.1291 73.3166 36.3991 72.9301C36.0051 72.7224 35.649 72.4033 35.358 71.9086C35.108 71.4824 35.189 70.9182 35.543 70.5884Z" fill="url(#paint73_linear_12_3841)" stroke="white" stroke-width="0.7659" stroke-miterlimit="10"/>
<path opacity="0.3" d="M36.8101 69.3528C37.3021 68.8496 37.5681 68.5476 37.5681 68.5476L39.4801 66.6128L42.2661 68.9941C41.2351 70.0178 40.2201 71.0596 39.1851 72.05C38.2891 71.2523 37.4041 70.4429 36.8101 69.3528Z" fill="url(#paint74_linear_12_3841)" stroke="white" stroke-width="0.7659" stroke-miterlimit="10"/>
<path d="M33.1171 36.238C31.9811 36.4007 30.8351 35.6598 30.2581 34.5998C29.6811 33.5397 29.6132 32.227 29.8612 31.0288C28.6312 32.0739 28.0111 33.7924 28.0841 35.4713C28.2281 38.7671 30.7441 41.1345 31.5641 41.4568L33.1171 36.238Z" fill="url(#paint75_linear_12_3841)" stroke="white" stroke-width="0.7659" stroke-miterlimit="10"/>
<path d="M32.2382 45.7662C29.9172 42.4265 25.5692 44.9031 24.3302 45.976C23.6732 46.5446 23.0892 47.2459 22.3092 47.5896C22.5842 48.3895 22.7242 49.2482 22.6902 50.1005C22.6552 50.9432 21.6832 51.4272 21.8282 52.2559C21.8972 52.6489 22.3292 53.5183 23.7302 53.5237C24.5892 53.5269 25.3762 52.9519 26.0592 52.3951C26.3372 52.1681 26.5962 51.9154 26.8642 51.6756C27.2272 51.3501 27.6092 51.0492 28.0062 50.773C29.1102 50.0074 30.4462 49.4302 31.7242 49.7654C32.3812 49.9388 32.9622 50.3382 33.5312 50.7312C33.7582 49.8521 34.1472 48.5126 32.2382 45.7662Z" fill="url(#paint76_linear_12_3841)" stroke="white" stroke-width="0.7659" stroke-miterlimit="10"/>
<path opacity="0.3" d="M24.9612 49.8885C24.9822 51.3522 23.9963 52.4497 23.0923 53.4423C22.1983 53.2228 21.8842 52.5803 21.8272 52.2559C21.6822 51.4271 22.6542 50.9431 22.6892 50.1005C22.7232 49.2482 22.5843 48.3894 22.3083 47.5896C22.8003 47.3722 23.2132 47.0103 23.6172 46.6323C24.2872 47.5864 24.9432 48.6914 24.9612 49.8885Z" fill="url(#paint77_linear_12_3841)" stroke="white" stroke-width="0.7659" stroke-miterlimit="10"/>
<path d="M14.6302 47.6626C14.5492 47.7 14.4672 47.7279 14.3852 47.7343C11.3592 47.9881 8.41323 46.2213 6.25223 44.0841C2.61123 40.4832 -5.86078 30.6977 11.7902 14.856C13.8682 12.9908 15.7262 10.4231 15.6292 7.52246C17.7822 10.9713 18.4072 15.3764 17.5252 19.4163C16.6742 23.3127 14.3982 26.8141 14.0882 30.8015C13.8652 33.6744 14.6932 36.5161 15.6502 39.2112C16.0672 40.3858 16.5152 41.57 16.6262 42.8217C16.7112 43.7651 16.5672 44.7105 16.1872 45.5682C15.9152 46.1828 15.3112 47.3521 14.6302 47.6626Z" fill="url(#paint78_linear_12_3841)" stroke="white" stroke-width="0.7659" stroke-miterlimit="10"/>
<path opacity="0.3" d="M7.54917 39.4765C6.70517 37.2568 6.22218 34.7181 6.52918 32.3207C6.84418 29.8719 8.14418 28.0741 9.78718 26.4273C12.3712 23.8361 14.9012 21.5833 16.0732 17.8603C16.9552 15.0624 16.9802 12.1072 16.5322 9.229C17.9372 12.3588 18.2672 16.0165 17.5242 19.4171C16.6732 23.3136 14.3972 26.8149 14.0872 30.8024C13.8642 33.6752 14.6922 36.517 15.6492 39.212C16.0662 40.3866 16.5142 41.5709 16.6252 42.8226C16.7102 43.7659 16.5662 44.7114 16.1862 45.569C15.9972 45.9952 15.6472 46.6837 15.2252 47.172C11.8492 45.4609 9.08817 43.5196 7.54917 39.4765Z" fill="url(#paint79_linear_12_3841)" stroke="white" stroke-width="0.7659" stroke-miterlimit="10"/>
<path d="M16.0423 46.9923C17.7873 45.5447 20.8653 43.295 21.9613 39.0677C23.9513 31.3819 17.2363 28.8646 18.9703 20.6895C5.82228 28.9749 13.1213 42.9096 16.0423 46.9923Z" fill="url(#paint80_linear_12_3841)" stroke="white" stroke-width="0.7659" stroke-miterlimit="10"/>
<path opacity="0.3" d="M19.1911 36.285C19.3451 33.5192 18.0241 31.2203 17.6451 28.5552C17.2971 26.1064 17.9351 23.7594 18.8191 21.5322C17.7011 29.0478 23.8811 31.654 21.9611 39.0678C20.8651 43.2951 17.7871 45.5458 16.0421 46.9924C15.6031 46.38 15.0661 45.5416 14.5151 44.5372C16.9681 42.4546 18.9941 39.8013 19.1911 36.285Z" fill="url(#paint81_linear_12_3841)" stroke="white" stroke-width="0.7659" stroke-miterlimit="10"/>
<path d="M21.7181 45.1473C20.9081 44.3367 19.9101 43.7446 18.7801 43.4866C17.7941 43.2617 16.7871 43.4052 15.8031 43.1921C14.4131 42.8912 11.4511 41.1812 10.6151 43.3945C10.4441 43.8453 10.4901 44.3528 10.5401 44.8368C10.7071 46.4493 10.8861 48.1871 11.6041 49.6455C12.6411 51.7516 14.6721 52.9369 16.8211 53.2742C18.0781 53.4723 19.3711 53.5462 20.6281 53.3031C21.7821 53.0804 23.2911 52.5954 23.7751 51.3041C23.9511 50.8351 23.9461 50.3115 23.8921 49.8093C23.7001 48.0233 22.9161 46.3465 21.7181 45.1473Z" fill="url(#paint82_linear_12_3841)" stroke="white" stroke-width="0.7659" stroke-miterlimit="10"/>
<path opacity="0.3" d="M10.7383 46.5181C11.7473 48.6563 13.2753 50.5312 15.4213 51.345C18.2443 52.4147 21.3973 51.2315 23.8383 49.4551C23.8573 49.5729 23.8783 49.6918 23.8913 49.8106C23.9453 50.3128 23.9503 50.8364 23.7743 51.3054C23.2913 52.5967 21.7823 53.0807 20.6273 53.3045C19.3703 53.5475 18.0773 53.4736 16.8203 53.2755C14.6723 52.9372 12.6403 51.754 11.6033 49.6468C11.1303 48.6863 10.8933 47.6049 10.7383 46.5181Z" fill="url(#paint83_linear_12_3841)" stroke="white" stroke-width="0.7659" stroke-miterlimit="10"/>
<path d="M13.3443 42.3379C13.3443 42.3379 13.0962 47.6477 15.5302 52.95" stroke="white" stroke-width="0.3416" stroke-miterlimit="10"/>
<path d="M16.9062 43.2139C16.9062 43.2139 16.6282 49.679 18.9732 53.4331" stroke="white" stroke-width="0.3416" stroke-miterlimit="10"/>
<path d="M10.1592 19.6048C10.5742 20.5814 11.6502 21.0139 12.5622 20.5685C13.4742 20.1242 13.8772 18.972 13.4622 17.9955C13.0472 17.019 11.9712 16.5875 11.0592 17.0318C10.1472 17.4762 9.7442 18.6283 10.1592 19.6048Z" fill="white"/>
<path d="M6.67524 23.6619C6.93524 24.2712 7.60623 24.5399 8.17423 24.2626C8.74223 23.9853 8.99424 23.2668 8.73524 22.6586C8.47624 22.0494 7.80525 21.7806 7.23625 22.0569C6.66825 22.3342 6.41824 23.0527 6.67524 23.6619Z" fill="white"/>
<path d="M3.9602 27.6476C4.1112 28.0042 4.50418 28.1605 4.83718 27.9988C5.16918 27.8371 5.31718 27.4163 5.16518 27.0608C5.01418 26.7043 4.62117 26.5469 4.28817 26.7086C3.95617 26.8713 3.8082 27.2911 3.9602 27.6476Z" fill="white"/>
<path d="M2.71331 32.2229C2.81631 32.4638 3.0813 32.5709 3.3073 32.4606C3.5333 32.3514 3.63229 32.0666 3.53029 31.8246C3.42729 31.5837 3.1623 31.4766 2.9363 31.5869C2.7113 31.6961 2.61131 31.9809 2.71331 32.2229Z" fill="white"/>
<path d="M55.5041 54.1218C60.3091 65.431 60.9641 69.5116 51.4881 74.24C41.5931 79.1772 39.5811 75.5271 34.7751 64.2189C29.9701 52.9097 28.3651 36.0765 34.0881 33.2883C39.8131 30.499 50.7001 42.8125 55.5041 54.1218Z" fill="url(#paint84_linear_12_3841)" stroke="white" stroke-width="0.7659" stroke-miterlimit="10"/>
<path opacity="0.3" d="M46.7862 69.2251C45.6492 66.9905 44.1002 64.9014 42.6332 62.8927C41.3592 61.1496 39.4702 59.7297 37.7132 58.5755C36.0452 57.4801 34.1172 57.1332 32.2402 56.646C32.9252 59.2907 33.7812 61.8734 34.7762 64.2183C39.0892 74.3679 41.1572 78.3436 48.6872 75.4836C48.1352 73.4053 47.7712 71.16 46.7862 69.2251Z" fill="url(#paint85_linear_12_3841)" stroke="white" stroke-width="0.7659" stroke-miterlimit="10"/>
<path opacity="0.3" d="M30.4582 43.5278C32.7842 47.7519 36.0852 47.8279 39.4862 46.2293C42.8982 44.6242 45.0252 41.0865 43.3122 36.6761C39.8812 33.6459 36.5202 32.104 34.0892 33.2882C31.6652 34.4682 30.5592 38.1708 30.4512 42.9025C30.4562 42.9078 30.4542 43.5214 30.4582 43.5278Z" fill="url(#paint86_linear_12_3841)" stroke="white" stroke-width="0.7659" stroke-miterlimit="10"/>
<path opacity="0.3" d="M49.4882 58.8731C49.4702 61.6571 50.0202 64.5749 51.0902 67.0611C51.9942 69.1641 52.9292 70.8644 54.1432 72.7736C60.4222 68.648 59.7343 64.0738 55.5052 54.1201C54.4612 51.6627 53.1292 49.1583 51.6262 46.7705C49.8332 50.3832 49.5142 54.8621 49.4882 58.8731Z" fill="url(#paint87_linear_12_3841)" stroke="white" stroke-width="0.7659" stroke-miterlimit="10"/>
<path d="M57.2261 83.4936C57.6631 84.5194 57.2392 85.7304 56.2802 86.1973C55.3222 86.6641 54.1912 86.2112 53.7552 85.1843C53.3192 84.1575 53.7422 82.9465 54.7012 82.4807C55.6602 82.0138 56.7911 82.4668 57.2261 83.4936Z" fill="white"/>
<path d="M59.7752 90.8919C60.1142 91.6885 59.7852 92.6286 59.0412 92.9906C58.2972 93.3535 57.4202 93.0013 57.0812 92.2047C56.7422 91.408 57.0713 90.4689 57.8153 90.106C58.5593 89.7419 59.4372 90.0942 59.7752 90.8919Z" fill="white"/>
<path d="M63.6502 97.5092C63.9232 98.1527 63.6582 98.9119 63.0572 99.2042C62.4552 99.4965 61.7462 99.2128 61.4732 98.5693C61.2002 97.9247 61.4652 97.1666 62.0672 96.8732C62.6682 96.5809 63.3762 96.8657 63.6502 97.5092Z" fill="white"/>
<path d="M69.5643 101.124C69.7863 101.645 69.5703 102.26 69.0843 102.496C68.5983 102.733 68.0233 102.503 67.8033 101.983C67.5813 101.462 67.7963 100.848 68.2843 100.61C68.7693 100.374 69.3423 100.604 69.5643 101.124Z" fill="white"/>
<path d="M76.3994 103.153C76.5614 103.535 76.4043 103.987 76.0453 104.161C75.6883 104.335 75.2663 104.166 75.1033 103.782C74.9413 103.4 75.0984 102.948 75.4564 102.774C75.8144 102.599 76.2364 102.768 76.3994 103.153Z" fill="white"/>
<path d="M82.6652 100.971C82.8272 101.354 82.6702 101.806 82.3112 101.979C81.9542 102.154 81.5322 101.985 81.3692 101.601C81.2072 101.219 81.3642 100.766 81.7232 100.593C82.0802 100.418 82.5012 100.587 82.6652 100.971Z" fill="white"/>
<path d="M30.3792 43.198C30.3792 43.198 30.5252 43.5277 30.8592 44.0471C31.1902 44.5653 31.7342 45.2677 32.5362 45.8952C33.3322 46.528 34.4392 46.9937 35.6652 47.0237C36.8912 47.0687 38.1942 46.6832 39.3872 46.0761C40.0082 45.7838 40.5682 45.4487 41.1022 45.0407C41.6292 44.6392 42.1022 44.1777 42.4892 43.6691C43.2702 42.6572 43.6941 41.4676 43.7971 40.4097C43.9071 39.3518 43.8031 38.447 43.6761 37.8346C43.5511 37.2178 43.4252 36.8784 43.4252 36.8784C43.4252 36.8784 43.5921 37.1975 43.7711 37.8078C43.9401 38.4149 44.1482 39.324 44.0832 40.4376C44.0212 41.5394 43.6592 42.8575 42.8362 43.9646C42.4312 44.5171 41.9341 45.0182 41.3831 45.4529C40.8401 45.8855 40.2172 46.2699 39.6052 46.5708C38.3532 47.1897 36.9682 47.5709 35.6492 47.5002C34.3232 47.4531 33.1622 46.8374 32.3632 46.1425C31.5482 45.4422 31.0762 44.651 30.7772 44.1049C30.4822 43.5459 30.3792 43.198 30.3792 43.198Z" fill="white"/>
<path d="M32.2661 56.5435C32.2661 56.5435 45.6191 59.4141 48.8371 75.5267" stroke="white" stroke-width="0.3416" stroke-miterlimit="10"/>
<path d="M51.6752 46.938C51.6752 46.938 44.9222 59.6028 54.1522 72.7879" stroke="white" stroke-width="0.3416" stroke-miterlimit="10"/>
<path d="M39.1591 34.7856C39.1591 34.7856 36.3541 40.2197 38.2171 39.4134C40.0791 38.6061 39.1591 34.7856 39.1591 34.7856Z" fill="white"/>
<path d="M31.4211 38.5205C31.4211 38.5205 37.0901 39.8279 35.2981 40.8001C33.5071 41.7745 31.4211 38.5205 31.4211 38.5205Z" fill="white"/>
<path d="M37.0422 50.3813C37.3912 50.1565 37.8182 49.9273 38.1842 50.119C38.4052 50.2346 38.5382 50.4777 38.6592 50.7079L41.2332 56.93" stroke="white" stroke-width="0.5387" stroke-miterlimit="10"/>
<path d="M39.1162 51.8084C38.5992 49.7943 39.7132 49.1465 40.0822 49.1594C40.3732 49.1701 40.7652 49.3564 40.8812 49.6401C41.8632 52.0364 43.4362 55.7391 43.4362 55.7391" stroke="white" stroke-width="0.5387" stroke-miterlimit="10"/>
<path d="M41.1302 50.1637C41.0682 49.5887 41.0522 48.8242 41.4942 48.4045C41.8712 48.0458 42.3892 48.0329 42.7572 48.4066C43.0772 48.7321 43.2622 49.2096 43.4492 49.6294C43.8002 50.4174 44.8262 53.0108 45.0412 53.5012C45.2452 53.9691 45.4292 54.4563 45.7722 54.8278C46.0962 55.178 46.5602 55.4007 47.0262 55.3611C47.6082 55.3118 48.1022 55.088 48.6892 54.7936" stroke="white" stroke-width="0.5387" stroke-miterlimit="10"/>
<defs>
<linearGradient id="paint0_linear_12_3841" x1="46.8597" y1="-16.4201" x2="92.4882" y2="82.4085" gradientUnits="userSpaceOnUse">
<stop stop-color="#21D1FF"/>
<stop offset="1" stop-color="#993CFE"/>
</linearGradient>
<linearGradient id="paint1_linear_12_3841" x1="48.0485" y1="-16.9725" x2="93.6782" y2="81.8588" gradientUnits="userSpaceOnUse">
<stop stop-color="#21D1FF"/>
<stop offset="1" stop-color="#993CFE"/>
</linearGradient>
<linearGradient id="paint2_linear_12_3841" x1="39.858" y1="-13.2021" x2="85.4915" y2="85.6377" gradientUnits="userSpaceOnUse">
<stop stop-color="#21D1FF"/>
<stop offset="1" stop-color="#993CFE"/>
</linearGradient>
<linearGradient id="paint3_linear_12_3841" x1="39.1064" y1="-12.8602" x2="84.7419" y2="85.9825" gradientUnits="userSpaceOnUse">
<stop stop-color="#21D1FF"/>
<stop offset="1" stop-color="#993CFE"/>
</linearGradient>
<linearGradient id="paint4_linear_12_3841" x1="34.2535" y1="-10.6075" x2="79.8847" y2="88.2265" gradientUnits="userSpaceOnUse">
<stop stop-color="#21D1FF"/>
<stop offset="1" stop-color="#993CFE"/>
</linearGradient>
<linearGradient id="paint5_linear_12_3841" x1="31.5022" y1="-9.33242" x2="77.1316" y2="89.4976" gradientUnits="userSpaceOnUse">
<stop stop-color="#21D1FF"/>
<stop offset="1" stop-color="#993CFE"/>
</linearGradient>
<linearGradient id="paint6_linear_12_3841" x1="27.9109" y1="-7.67846" x2="73.5418" y2="91.155" gradientUnits="userSpaceOnUse">
<stop stop-color="#21D1FF"/>
<stop offset="1" stop-color="#993CFE"/>
</linearGradient>
<linearGradient id="paint7_linear_12_3841" x1="26.4031" y1="-6.98322" x2="72.0342" y2="91.8501" gradientUnits="userSpaceOnUse">
<stop stop-color="#21D1FF"/>
<stop offset="1" stop-color="#993CFE"/>
</linearGradient>
<linearGradient id="paint8_linear_12_3841" x1="24.2598" y1="-5.98909" x2="69.8893" y2="92.8416" gradientUnits="userSpaceOnUse">
<stop stop-color="#21D1FF"/>
<stop offset="1" stop-color="#993CFE"/>
</linearGradient>
<linearGradient id="paint9_linear_12_3841" x1="22.9216" y1="-5.36218" x2="68.5477" y2="93.4609" gradientUnits="userSpaceOnUse">
<stop stop-color="#21D1FF"/>
<stop offset="1" stop-color="#993CFE"/>
</linearGradient>
<linearGradient id="paint10_linear_12_3841" x1="20.8895" y1="-4.43023" x2="66.518" y2="94.3978" gradientUnits="userSpaceOnUse">
<stop stop-color="#21D1FF"/>
<stop offset="1" stop-color="#993CFE"/>
</linearGradient>
<linearGradient id="paint11_linear_12_3841" x1="20.5004" y1="-4.2452" x2="66.1266" y2="94.5783" gradientUnits="userSpaceOnUse">
<stop stop-color="#21D1FF"/>
<stop offset="1" stop-color="#993CFE"/>
</linearGradient>
<linearGradient id="paint12_linear_12_3841" x1="19.9565" y1="-4.00328" x2="65.5864" y2="94.8277" gradientUnits="userSpaceOnUse">
<stop stop-color="#21D1FF"/>
<stop offset="1" stop-color="#993CFE"/>
</linearGradient>
<linearGradient id="paint13_linear_12_3841" x1="19.904" y1="-3.98596" x2="65.5368" y2="94.8516" gradientUnits="userSpaceOnUse">
<stop stop-color="#21D1FF"/>
<stop offset="1" stop-color="#993CFE"/>
</linearGradient>
<linearGradient id="paint14_linear_12_3841" x1="19.8219" y1="-3.944" x2="65.4528" y2="94.8896" gradientUnits="userSpaceOnUse">
<stop stop-color="#21D1FF"/>
<stop offset="1" stop-color="#993CFE"/>
</linearGradient>
<linearGradient id="paint15_linear_12_3841" x1="19.7569" y1="-3.91465" x2="65.3882" y2="94.9201" gradientUnits="userSpaceOnUse">
<stop stop-color="#21D1FF"/>
<stop offset="1" stop-color="#993CFE"/>
</linearGradient>
<linearGradient id="paint16_linear_12_3841" x1="19.7138" y1="-3.8891" x2="65.3423" y2="94.9392" gradientUnits="userSpaceOnUse">
<stop stop-color="#21D1FF"/>
<stop offset="1" stop-color="#993CFE"/>
</linearGradient>
<linearGradient id="paint17_linear_12_3841" x1="19.6412" y1="-3.8562" x2="65.27" y2="94.973" gradientUnits="userSpaceOnUse">
<stop stop-color="#21D1FF"/>
<stop offset="1" stop-color="#993CFE"/>
</linearGradient>
<linearGradient id="paint18_linear_12_3841" x1="41.4828" y1="-13.9422" x2="87.1132" y2="84.8901" gradientUnits="userSpaceOnUse">
<stop stop-color="#21D1FF"/>
<stop offset="1" stop-color="#993CFE"/>
</linearGradient>
<linearGradient id="paint19_linear_12_3841" x1="38.3542" y1="-12.4891" x2="83.9801" y2="86.3338" gradientUnits="userSpaceOnUse">
<stop stop-color="#21D1FF"/>
<stop offset="1" stop-color="#993CFE"/>
</linearGradient>
<linearGradient id="paint20_linear_12_3841" x1="34.4198" y1="-10.6829" x2="80.0508" y2="88.1509" gradientUnits="userSpaceOnUse">
<stop stop-color="#21D1FF"/>
<stop offset="1" stop-color="#993CFE"/>
</linearGradient>
<linearGradient id="paint21_linear_12_3841" x1="31.2316" y1="-9.21792" x2="76.8661" y2="89.6241" gradientUnits="userSpaceOnUse">
<stop stop-color="#21D1FF"/>
<stop offset="1" stop-color="#993CFE"/>
</linearGradient>
<linearGradient id="paint22_linear_12_3841" x1="28.5538" y1="-7.97652" x2="74.1859" y2="90.8592" gradientUnits="userSpaceOnUse">
<stop stop-color="#21D1FF"/>
<stop offset="1" stop-color="#993CFE"/>
</linearGradient>
<linearGradient id="paint23_linear_12_3841" x1="27.3685" y1="-7.43464" x2="73.0032" y2="91.4073" gradientUnits="userSpaceOnUse">
<stop stop-color="#21D1FF"/>
<stop offset="1" stop-color="#993CFE"/>
</linearGradient>
<linearGradient id="paint24_linear_12_3841" x1="42.8813" y1="-14.588" x2="88.5118" y2="84.2444" gradientUnits="userSpaceOnUse">
<stop stop-color="#21D1FF"/>
<stop offset="1" stop-color="#993CFE"/>
</linearGradient>
<linearGradient id="paint25_linear_12_3841" x1="39.8475" y1="-13.1869" x2="85.4768" y2="85.6439" gradientUnits="userSpaceOnUse">
<stop stop-color="#21D1FF"/>
<stop offset="1" stop-color="#993CFE"/>
</linearGradient>
<linearGradient id="paint26_linear_12_3841" x1="35.9416" y1="-11.3806" x2="81.5694" y2="87.4462" gradientUnits="userSpaceOnUse">
<stop stop-color="#21D1FF"/>
<stop offset="1" stop-color="#993CFE"/>
</linearGradient>
<linearGradient id="paint27_linear_12_3841" x1="32.7625" y1="-9.91529" x2="78.392" y2="88.9147" gradientUnits="userSpaceOnUse">
<stop stop-color="#21D1FF"/>
<stop offset="1" stop-color="#993CFE"/>
</linearGradient>
<linearGradient id="paint28_linear_12_3841" x1="30.1019" y1="-8.68976" x2="75.7332" y2="90.1448" gradientUnits="userSpaceOnUse">
<stop stop-color="#21D1FF"/>
<stop offset="1" stop-color="#993CFE"/>
</linearGradient>
<linearGradient id="paint29_linear_12_3841" x1="28.9248" y1="-8.14369" x2="74.5547" y2="90.6875" gradientUnits="userSpaceOnUse">
<stop stop-color="#21D1FF"/>
<stop offset="1" stop-color="#993CFE"/>
</linearGradient>
<linearGradient id="paint30_linear_12_3841" x1="42.9312" y1="-14.6116" x2="88.5621" y2="84.2217" gradientUnits="userSpaceOnUse">
<stop stop-color="#21D1FF"/>
<stop offset="1" stop-color="#993CFE"/>
</linearGradient>
<linearGradient id="paint31_linear_12_3841" x1="38.907" y1="-12.75" x2="84.5357" y2="86.0784" gradientUnits="userSpaceOnUse">
<stop stop-color="#21D1FF"/>
<stop offset="1" stop-color="#993CFE"/>
</linearGradient>
<linearGradient id="paint32_linear_12_3841" x1="34.8005" y1="-10.8605" x2="80.4329" y2="87.9764" gradientUnits="userSpaceOnUse">
<stop stop-color="#21D1FF"/>
<stop offset="1" stop-color="#993CFE"/>
</linearGradient>
<linearGradient id="paint33_linear_12_3841" x1="31.6046" y1="-9.38022" x2="77.234" y2="89.4506" gradientUnits="userSpaceOnUse">
<stop stop-color="#21D1FF"/>
<stop offset="1" stop-color="#993CFE"/>
</linearGradient>
<linearGradient id="paint34_linear_12_3841" x1="28.785" y1="-8.07915" x2="74.4149" y2="90.7516" gradientUnits="userSpaceOnUse">
<stop stop-color="#21D1FF"/>
<stop offset="1" stop-color="#993CFE"/>
</linearGradient>
<linearGradient id="paint35_linear_12_3841" x1="27.6189" y1="-7.5433" x2="73.2506" y2="91.2915" gradientUnits="userSpaceOnUse">
<stop stop-color="#21D1FF"/>
<stop offset="1" stop-color="#993CFE"/>
</linearGradient>
<linearGradient id="paint36_linear_12_3841" x1="43.9332" y1="-15.0746" x2="89.564" y2="83.7582" gradientUnits="userSpaceOnUse">
<stop stop-color="#21D1FF"/>
<stop offset="1" stop-color="#993CFE"/>
</linearGradient>
<linearGradient id="paint37_linear_12_3841" x1="39.2801" y1="-12.9267" x2="84.9108" y2="85.9073" gradientUnits="userSpaceOnUse">
<stop stop-color="#21D1FF"/>
<stop offset="1" stop-color="#993CFE"/>
</linearGradient>
<linearGradient id="paint38_linear_12_3841" x1="35.1333" y1="-11.0194" x2="80.768" y2="87.8225" gradientUnits="userSpaceOnUse">
<stop stop-color="#21D1FF"/>
<stop offset="1" stop-color="#993CFE"/>
</linearGradient>
<linearGradient id="paint39_linear_12_3841" x1="32.0095" y1="-9.56361" x2="77.6369" y2="89.2623" gradientUnits="userSpaceOnUse">
<stop stop-color="#21D1FF"/>
<stop offset="1" stop-color="#993CFE"/>
</linearGradient>
<linearGradient id="paint40_linear_12_3841" x1="29.1627" y1="-8.25354" x2="74.7926" y2="90.5781" gradientUnits="userSpaceOnUse">
<stop stop-color="#21D1FF"/>
<stop offset="1" stop-color="#993CFE"/>
</linearGradient>
<linearGradient id="paint41_linear_12_3841" x1="28.085" y1="-7.75694" x2="73.7156" y2="91.0755" gradientUnits="userSpaceOnUse">
<stop stop-color="#21D1FF"/>
<stop offset="1" stop-color="#993CFE"/>
</linearGradient>
<linearGradient id="paint42_linear_12_3841" x1="23.365" y1="-5.57784" x2="68.9951" y2="93.2541" gradientUnits="userSpaceOnUse">
<stop stop-color="#21D1FF"/>
<stop offset="1" stop-color="#993CFE"/>
</linearGradient>
<linearGradient id="paint43_linear_12_3841" x1="30.8905" y1="-9.05182" x2="76.5209" y2="89.7805" gradientUnits="userSpaceOnUse">
<stop stop-color="#21D1FF"/>
<stop offset="1" stop-color="#993CFE"/>
</linearGradient>
<linearGradient id="paint44_linear_12_3841" x1="34.6211" y1="-10.7709" x2="80.2487" y2="88.0552" gradientUnits="userSpaceOnUse">
<stop stop-color="#21D1FF"/>
<stop offset="1" stop-color="#993CFE"/>
</linearGradient>
<linearGradient id="paint45_linear_12_3841" x1="36.2884" y1="-11.5438" x2="81.9186" y2="87.2884" gradientUnits="userSpaceOnUse">
<stop stop-color="#21D1FF"/>
<stop offset="1" stop-color="#993CFE"/>
</linearGradient>
<linearGradient id="paint46_linear_12_3841" x1="34.2587" y1="-10.6068" x2="79.8887" y2="88.2248" gradientUnits="userSpaceOnUse">
<stop stop-color="#21D1FF"/>
<stop offset="1" stop-color="#993CFE"/>
</linearGradient>
<linearGradient id="paint47_linear_12_3841" x1="33.4605" y1="-10.2384" x2="79.0909" y2="88.5941" gradientUnits="userSpaceOnUse">
<stop stop-color="#21D1FF"/>
<stop offset="1" stop-color="#993CFE"/>
</linearGradient>
<linearGradient id="paint48_linear_12_3841" x1="33.6347" y1="-10.3193" x2="79.2657" y2="88.5145" gradientUnits="userSpaceOnUse">
<stop stop-color="#21D1FF"/>
<stop offset="1" stop-color="#993CFE"/>
</linearGradient>
<linearGradient id="paint49_linear_12_3841" x1="38.7488" y1="-12.6782" x2="84.3777" y2="86.1512" gradientUnits="userSpaceOnUse">
<stop stop-color="#21D1FF"/>
<stop offset="1" stop-color="#993CFE"/>
</linearGradient>
<linearGradient id="paint50_linear_12_3841" x1="38.8843" y1="-12.7407" x2="84.5134" y2="86.0888" gradientUnits="userSpaceOnUse">
<stop stop-color="#21D1FF"/>
<stop offset="1" stop-color="#993CFE"/>
</linearGradient>
<linearGradient id="paint51_linear_12_3841" x1="-1.24184" y1="5.78057" x2="44.389" y2="104.614" gradientUnits="userSpaceOnUse">
<stop stop-color="#21D1FF"/>
<stop offset="1" stop-color="#993CFE"/>
</linearGradient>
<linearGradient id="paint52_linear_12_3841" x1="1.6845" y1="4.42289" x2="47.3189" y2="103.264" gradientUnits="userSpaceOnUse">
<stop stop-color="#21D1FF"/>
<stop offset="1" stop-color="#993CFE"/>
</linearGradient>
<linearGradient id="paint53_linear_12_3841" x1="5.57081" y1="2.65201" x2="51.1934" y2="101.467" gradientUnits="userSpaceOnUse">
<stop stop-color="#21D1FF"/>
<stop offset="1" stop-color="#993CFE"/>
</linearGradient>
<linearGradient id="paint54_linear_12_3841" x1="8.73372" y1="1.17662" x2="54.3639" y2="100.009" gradientUnits="userSpaceOnUse">
<stop stop-color="#21D1FF"/>
<stop offset="1" stop-color="#993CFE"/>
</linearGradient>
<linearGradient id="paint55_linear_12_3841" x1="11.3737" y1="-0.029103" x2="56.9974" y2="98.7889" gradientUnits="userSpaceOnUse">
<stop stop-color="#21D1FF"/>
<stop offset="1" stop-color="#993CFE"/>
</linearGradient>
<linearGradient id="paint56_linear_12_3841" x1="12.5451" y1="-0.56415" x2="58.1656" y2="98.247" gradientUnits="userSpaceOnUse">
<stop stop-color="#21D1FF"/>
<stop offset="1" stop-color="#993CFE"/>
</linearGradient>
<linearGradient id="paint57_linear_12_3841" x1="-3.88283" y1="7.0025" x2="41.7471" y2="105.834" gradientUnits="userSpaceOnUse">
<stop stop-color="#21D1FF"/>
<stop offset="1" stop-color="#993CFE"/>
</linearGradient>
<linearGradient id="paint58_linear_12_3841" x1="-0.639308" y1="5.51209" x2="44.9857" y2="104.333" gradientUnits="userSpaceOnUse">
<stop stop-color="#21D1FF"/>
<stop offset="1" stop-color="#993CFE"/>
</linearGradient>
<linearGradient id="paint59_linear_12_3841" x1="3.31554" y1="3.67933" x2="48.945" y2="102.51" gradientUnits="userSpaceOnUse">
<stop stop-color="#21D1FF"/>
<stop offset="1" stop-color="#993CFE"/>
</linearGradient>
<linearGradient id="paint60_linear_12_3841" x1="6.50843" y1="2.20566" x2="52.1377" y2="101.036" gradientUnits="userSpaceOnUse">
<stop stop-color="#21D1FF"/>
<stop offset="1" stop-color="#993CFE"/>
</linearGradient>
<linearGradient id="paint61_linear_12_3841" x1="9.206" y1="0.949998" x2="54.8427" y2="99.7957" gradientUnits="userSpaceOnUse">
<stop stop-color="#21D1FF"/>
<stop offset="1" stop-color="#993CFE"/>
</linearGradient>
<linearGradient id="paint62_linear_12_3841" x1="10.3927" y1="0.399164" x2="56.0312" y2="99.2492" gradientUnits="userSpaceOnUse">
<stop stop-color="#21D1FF"/>
<stop offset="1" stop-color="#993CFE"/>
</linearGradient>
<linearGradient id="paint63_linear_12_3841" x1="-3.59177" y1="6.86812" x2="42.038" y2="105.699" gradientUnits="userSpaceOnUse">
<stop stop-color="#21D1FF"/>
<stop offset="1" stop-color="#993CFE"/>
</linearGradient>
<linearGradient id="paint64_linear_12_3841" x1="0.605437" y1="4.93719" x2="46.2313" y2="103.76" gradientUnits="userSpaceOnUse">
<stop stop-color="#21D1FF"/>
<stop offset="1" stop-color="#993CFE"/>
</linearGradient>
<linearGradient id="paint65_linear_12_3841" x1="4.7314" y1="3.03847" x2="50.3533" y2="101.853" gradientUnits="userSpaceOnUse">
<stop stop-color="#21D1FF"/>
<stop offset="1" stop-color="#993CFE"/>
</linearGradient>
<linearGradient id="paint66_linear_12_3841" x1="7.91586" y1="1.56161" x2="53.5418" y2="100.385" gradientUnits="userSpaceOnUse">
<stop stop-color="#21D1FF"/>
<stop offset="1" stop-color="#993CFE"/>
</linearGradient>
<linearGradient id="paint67_linear_12_3841" x1="10.7478" y1="0.249715" x2="56.3766" y2="99.079" gradientUnits="userSpaceOnUse">
<stop stop-color="#21D1FF"/>
<stop offset="1" stop-color="#993CFE"/>
</linearGradient>
<linearGradient id="paint68_linear_12_3841" x1="11.898" y1="-0.275901" x2="57.5236" y2="98.546" gradientUnits="userSpaceOnUse">
<stop stop-color="#21D1FF"/>
<stop offset="1" stop-color="#993CFE"/>
</linearGradient>
<linearGradient id="paint69_linear_12_3841" x1="-4.30118" y1="7.18972" x2="41.3317" y2="106.028" gradientUnits="userSpaceOnUse">
<stop stop-color="#21D1FF"/>
<stop offset="1" stop-color="#993CFE"/>
</linearGradient>
<linearGradient id="paint70_linear_12_3841" x1="0.484794" y1="4.97325" x2="46.1212" y2="103.82" gradientUnits="userSpaceOnUse">
<stop stop-color="#21D1FF"/>
<stop offset="1" stop-color="#993CFE"/>
</linearGradient>
<linearGradient id="paint71_linear_12_3841" x1="4.62808" y1="3.06731" x2="50.2611" y2="101.906" gradientUnits="userSpaceOnUse">
<stop stop-color="#21D1FF"/>
<stop offset="1" stop-color="#993CFE"/>
</linearGradient>
<linearGradient id="paint72_linear_12_3841" x1="7.72985" y1="1.6441" x2="53.358" y2="100.472" gradientUnits="userSpaceOnUse">
<stop stop-color="#21D1FF"/>
<stop offset="1" stop-color="#993CFE"/>
</linearGradient>
<linearGradient id="paint73_linear_12_3841" x1="10.568" y1="0.328535" x2="56.1988" y2="99.1623" gradientUnits="userSpaceOnUse">
<stop stop-color="#21D1FF"/>
<stop offset="1" stop-color="#993CFE"/>
</linearGradient>
<linearGradient id="paint74_linear_12_3841" x1="11.616" y1="-0.163212" x2="57.2514" y2="98.6804" gradientUnits="userSpaceOnUse">
<stop stop-color="#21D1FF"/>
<stop offset="1" stop-color="#993CFE"/>
</linearGradient>
<linearGradient id="paint75_linear_12_3841" x1="15.2155" y1="-1.81504" x2="60.8462" y2="97.0178" gradientUnits="userSpaceOnUse">
<stop stop-color="#21D1FF"/>
<stop offset="1" stop-color="#993CFE"/>
</linearGradient>
<linearGradient id="paint76_linear_12_3841" x1="8.04233" y1="1.49619" x2="53.6725" y2="100.328" gradientUnits="userSpaceOnUse">
<stop stop-color="#21D1FF"/>
<stop offset="1" stop-color="#993CFE"/>
</linearGradient>
<linearGradient id="paint77_linear_12_3841" x1="4.25769" y1="3.24424" x2="49.8872" y2="102.075" gradientUnits="userSpaceOnUse">
<stop stop-color="#21D1FF"/>
<stop offset="1" stop-color="#993CFE"/>
</linearGradient>
<linearGradient id="paint78_linear_12_3841" x1="1.55758" y1="4.49072" x2="47.187" y2="103.321" gradientUnits="userSpaceOnUse">
<stop stop-color="#21D1FF"/>
<stop offset="1" stop-color="#993CFE"/>
</linearGradient>
<linearGradient id="paint79_linear_12_3841" x1="3.65723" y1="3.52129" x2="49.2868" y2="102.352" gradientUnits="userSpaceOnUse">
<stop stop-color="#21D1FF"/>
<stop offset="1" stop-color="#993CFE"/>
</linearGradient>
<linearGradient id="paint80_linear_12_3841" x1="4.71811" y1="3.03174" x2="50.3479" y2="101.863" gradientUnits="userSpaceOnUse">
<stop stop-color="#21D1FF"/>
<stop offset="1" stop-color="#993CFE"/>
</linearGradient>
<linearGradient id="paint81_linear_12_3841" x1="4.60527" y1="3.08309" x2="50.2357" y2="101.915" gradientUnits="userSpaceOnUse">
<stop stop-color="#21D1FF"/>
<stop offset="1" stop-color="#993CFE"/>
</linearGradient>
<linearGradient id="paint82_linear_12_3841" x1="-0.0215573" y1="5.21889" x2="45.6089" y2="104.052" gradientUnits="userSpaceOnUse">
<stop stop-color="#21D1FF"/>
<stop offset="1" stop-color="#993CFE"/>
</linearGradient>
<linearGradient id="paint83_linear_12_3841" x1="-0.12257" y1="5.26651" x2="45.5072" y2="104.098" gradientUnits="userSpaceOnUse">
<stop stop-color="#21D1FF"/>
<stop offset="1" stop-color="#993CFE"/>
</linearGradient>
<linearGradient id="paint84_linear_12_3841" x1="19.7504" y1="-3.90789" x2="65.3801" y2="94.923" gradientUnits="userSpaceOnUse">
<stop stop-color="#21D1FF"/>
<stop offset="1" stop-color="#993CFE"/>
</linearGradient>
<linearGradient id="paint85_linear_12_3841" x1="13.5159" y1="-1.03106" x2="59.1458" y2="97.8005" gradientUnits="userSpaceOnUse">
<stop stop-color="#21D1FF"/>
<stop offset="1" stop-color="#993CFE"/>
</linearGradient>
<linearGradient id="paint86_linear_12_3841" x1="19.2545" y1="-3.67901" x2="64.8844" y2="95.1521" gradientUnits="userSpaceOnUse">
<stop stop-color="#21D1FF"/>
<stop offset="1" stop-color="#993CFE"/>
</linearGradient>
<linearGradient id="paint87_linear_12_3841" x1="26.1438" y1="-6.86047" x2="71.7736" y2="91.9709" gradientUnits="userSpaceOnUse">
<stop stop-color="#21D1FF"/>
<stop offset="1" stop-color="#993CFE"/>
</linearGradient>
</defs>
</svg>
