<svg width="104" height="107" viewBox="0 0 104 107" fill="none" xmlns="http://www.w3.org/2000/svg">
<path d="M32.1807 10.5771L41.3747 73.0712L101.533 66.7163" stroke="white" stroke-width="0.5" stroke-miterlimit="10"/>
<path d="M83.4705 22.3174C84.1165 24.2394 84.8456 26.2791 86.3976 27.4677C88.3746 28.9785 91.0725 28.653 93.4365 28.0555C94.4185 27.8082 95.4055 27.5223 96.4145 27.5341C98.9935 27.563 101.222 29.5257 102.741 31.7571C101.651 31.3523 100.448 31.2035 99.2996 31.3213C96.3616 31.6222 93.8345 33.9104 90.8915 34.1427C88.0925 34.3643 85.3335 32.5526 83.9345 29.9464C82.5355 27.3392 82.6275 25.1838 83.4705 22.3174Z" fill="url(#paint0_linear_12_3981)" stroke="white" stroke-width="0.75" stroke-miterlimit="10"/>
<path opacity="0.3" d="M84.4486 27.2074C85.3256 28.7064 86.6316 29.9324 88.2196 30.4742C89.8376 31.0257 91.5736 30.7558 93.2126 30.4539C94.7656 30.168 96.3216 29.7665 97.9056 29.7707C99.7106 29.775 101.309 30.4635 102.688 31.6799C102.705 31.7045 102.724 31.7302 102.741 31.7549C101.651 31.3501 100.448 31.2013 99.2996 31.3191C96.3616 31.6199 93.8346 33.9081 90.8916 34.1405C88.0926 34.3621 85.3336 32.5504 83.9346 29.9442C82.7346 27.7085 82.6336 25.8026 83.1616 23.4951C83.3616 24.8057 83.7846 26.0735 84.4486 27.2074Z" fill="url(#paint1_linear_12_3981)" stroke="white" stroke-width="0.75" stroke-miterlimit="10"/>
<path d="M80.6166 19.8321C78.7276 19.5462 76.7136 19.1993 75.3116 17.8138C73.5256 16.0502 73.2736 13.1549 73.3376 10.5552C73.3646 9.47587 73.4236 8.38262 73.2086 7.32686C72.6556 4.62966 70.4066 2.69484 68.0566 1.55664C68.6486 2.61668 69.0296 3.84802 69.1566 5.07509C69.4816 8.21666 67.9046 11.3325 68.2926 14.4656C68.6616 17.4444 70.8806 19.967 73.5476 20.9018C76.2146 21.8365 78.1676 21.3012 80.6166 19.8321Z" fill="url(#paint2_linear_12_3981)" stroke="white" stroke-width="0.75" stroke-miterlimit="10"/>
<path opacity="0.3" d="M75.9456 19.8053C74.3966 19.1918 73.0086 18.0728 72.1906 16.5181C71.3566 14.9345 71.2486 13.0607 71.1896 11.28C71.1336 9.59465 71.1836 7.88038 70.8566 6.22073C70.4846 4.32872 69.5286 2.79436 68.1356 1.59833C68.1096 1.58441 68.0826 1.57154 68.0566 1.55762C68.6486 2.61766 69.0296 3.84902 69.1566 5.0761C69.4816 8.21767 67.9046 11.3335 68.2926 14.4665C68.6616 17.4453 70.8806 19.968 73.5486 20.9028C75.8376 21.7048 77.6016 21.421 79.6036 20.3974C78.3626 20.4552 77.1186 20.27 75.9456 19.8053Z" fill="url(#paint3_linear_12_3981)" stroke="white" stroke-width="0.75" stroke-miterlimit="10"/>
<path d="M1.64066 29.1838C3.52866 32.5706 9.95767 36.9959 18.2907 31.7118C20.2547 30.4665 21.9357 28.7523 23.5737 27.0177C33.5987 16.3959 38.3477 15.8947 41.6167 16.0468C56.3337 16.7396 61.3587 33.4454 75.8157 27.8357L85.2747 15.3797C71.2697 26.432 59.0397 13.3217 55.1387 10.7841C51.2407 8.24854 46.8967 5.97749 42.1937 6.33512C37.9227 6.66277 33.8617 9.14582 30.4787 12.2413C27.0907 15.3379 24.2367 19.0577 21.1387 22.4927C19.1317 24.7188 16.9527 26.8731 14.3517 28.098C11.7477 29.3262 8.62666 29.4729 6.45266 27.7907C5.62566 27.1526 4.94966 26.2349 4.75366 25.1289C4.43166 23.2957 5.67666 21.1821 7.38466 20.6649C9.09366 20.1477 10.9747 21.3117 11.3527 23.1276C10.7447 19.6424 6.96767 17.8756 4.06767 19.8479C1.17067 21.8245 0.241664 26.675 1.64066 29.1838Z" fill="url(#paint4_linear_12_3981)" stroke="white" stroke-width="0.75" stroke-miterlimit="10"/>
<path opacity="0.3" d="M11.5886 32.2122C14.6506 32.0088 17.3436 30.6007 19.7086 28.5535C21.1086 27.3414 22.3776 25.9676 23.6576 24.6163C25.0616 23.1366 26.5326 21.7639 28.0286 20.3933C30.8706 17.7882 33.7946 15.1135 37.4296 13.8971C40.7996 12.7685 44.2956 12.9902 47.6116 14.2162C53.3996 16.3545 58.2966 20.5475 64.0336 22.8464C69.0806 24.869 74.4486 25.3626 79.4046 23.113L75.8166 27.8371C61.3586 33.4468 56.3346 16.741 41.6176 16.0482C38.3486 15.8962 33.5986 16.3973 23.5746 27.0191C21.9356 28.7537 20.2556 30.468 18.2916 31.7133C9.9586 36.9963 3.5296 32.572 1.6416 29.1852C1.4966 28.925 1.3826 28.6349 1.2876 28.3297C3.8676 31.1083 7.8686 32.4585 11.5886 32.2122Z" fill="url(#paint5_linear_12_3981)" stroke="white" stroke-width="0.75" stroke-miterlimit="10"/>
<mask id="mask0_12_3981" style="mask-type:luminance" maskUnits="userSpaceOnUse" x="1" y="6" width="85" height="29">
<path d="M1.64066 29.1838C3.52866 32.5706 9.95767 36.9959 18.2907 31.7118C20.2547 30.4665 21.9357 28.7523 23.5737 27.0177C33.5987 16.3959 38.3477 15.8947 41.6167 16.0468C56.3337 16.7396 61.3587 33.4454 75.8157 27.8357L85.2747 15.3797C71.2697 26.432 59.0397 13.3217 55.1387 10.7841C51.2407 8.24854 46.8967 5.97749 42.1937 6.33512C37.9227 6.66277 33.8617 9.14582 30.4787 12.2413C27.0907 15.3379 24.2367 19.0577 21.1387 22.4927C19.1317 24.7188 16.9527 26.8731 14.3517 28.098C11.7477 29.3262 8.62666 29.4729 6.45266 27.7907C5.62566 27.1526 4.94966 26.2349 4.75366 25.1289C4.43166 23.2957 5.67666 21.1821 7.38466 20.6649C9.09366 20.1477 10.9747 21.3117 11.3527 23.1276C10.7447 19.6424 6.96767 17.8756 4.06767 19.8479C1.17067 21.8245 0.241664 26.675 1.64066 29.1838Z" fill="white"/>
</mask>
<g mask="url(#mask0_12_3981)">
<path d="M75.8585 19.757C75.8585 19.757 75.7105 19.9519 75.4505 20.2935C75.1765 20.6275 74.8515 21.1372 74.3435 21.6908C74.0975 21.9713 73.8315 22.2743 73.5505 22.5945C73.2755 22.9221 72.9305 23.2038 72.6045 23.5303C72.2705 23.8473 71.9375 24.1867 71.5425 24.4629C71.1585 24.7531 70.7695 25.0497 70.3785 25.3452C69.5845 25.8656 68.6965 26.3057 67.8635 26.6183C67.4375 26.7543 67.0295 26.9021 66.6295 26.9845C66.2295 27.067 65.8545 27.158 65.4995 27.1773C65.1465 27.2222 64.8235 27.2426 64.5355 27.2233C64.2475 27.2169 63.9975 27.2201 63.7945 27.1741C63.3875 27.1077 63.1555 27.0702 63.1555 27.0702C63.1555 27.0702 63.3885 27.0948 63.7975 27.1387C64.0005 27.1741 64.2505 27.158 64.5345 27.1484C64.8205 27.1537 65.1385 27.1162 65.4855 27.0531C65.8345 27.0167 66.2005 26.9064 66.5895 26.8047C66.9775 26.7029 67.3725 26.5359 67.7825 26.3817C68.5955 26.023 69.4005 25.5744 70.1855 25.0037C70.5485 24.6974 70.9115 24.3923 71.2675 24.0903C71.6375 23.8044 71.9485 23.4532 72.2585 23.1267C72.5615 22.7936 72.8845 22.5024 73.1345 22.1715C73.3915 21.8482 73.6345 21.543 73.8585 21.2614C74.3165 20.7153 74.6355 20.1639 74.8885 19.8234C75.1315 19.469 75.2715 19.2666 75.2715 19.2666L75.8585 19.757Z" fill="white"/>
<path d="M64.9276 17.682C64.9276 17.682 64.7936 17.8158 64.5596 18.0514C64.4336 18.1649 64.3176 18.3169 64.1176 18.4668C63.9296 18.6199 63.7166 18.7913 63.4836 18.9786C63.2416 19.136 62.9786 19.3073 62.7006 19.4883C62.4086 19.6371 62.1076 19.8117 61.7836 19.9573C61.4536 20.089 61.1236 20.2517 60.7686 20.3567C60.4196 20.4809 60.0606 20.5848 59.6966 20.6683C58.2476 21.0366 56.7556 21.0859 55.6556 21.013C55.1046 20.9649 54.6486 20.9028 54.3356 20.8182C54.0216 20.7454 53.8496 20.6726 53.8496 20.6726C53.8496 20.6726 54.0256 20.7336 54.3416 20.7839C54.6566 20.846 55.1136 20.8771 55.6606 20.8878C56.7526 20.8856 58.2186 20.7346 59.6036 20.2817C59.9516 20.1768 60.2936 20.0526 60.6216 19.9091C60.9576 19.787 61.2646 19.6071 61.5706 19.4605C61.8706 19.302 62.1446 19.1157 62.4126 18.9572C62.6636 18.7698 62.8996 18.5932 63.1176 18.4304C63.3146 18.2505 63.4956 18.0856 63.6556 17.9389C63.8186 17.8062 63.9456 17.6252 64.0566 17.5096C64.2766 17.2601 64.4026 17.1177 64.4026 17.1177L64.9276 17.682Z" fill="white"/>
<path d="M54.3245 10.2114C54.3245 10.2114 53.6365 10.494 52.6025 10.917C52.3445 11.0241 52.0645 11.1386 51.7685 11.2596C51.4705 11.3763 51.2015 11.5734 50.8965 11.7361C50.2965 12.082 49.6575 12.4525 49.0175 12.8219C48.4185 13.2737 47.8205 13.7266 47.2595 14.1496C46.9845 14.3702 46.6915 14.55 46.4615 14.7813C46.2275 15.0072 46.0065 15.2225 45.8025 15.4206C44.9825 16.214 44.4365 16.744 44.4365 16.744C44.4365 16.744 44.9515 16.1786 45.7235 15.3295C45.9175 15.1165 46.1275 14.8852 46.3485 14.6411C46.5675 14.3927 46.8495 14.1935 47.1135 13.9515C47.6555 13.4847 48.2345 12.9878 48.8125 12.4889C49.4475 12.0648 50.0825 11.6419 50.6775 11.2446C50.9795 11.0551 51.2595 10.8303 51.5485 10.6932C51.8375 10.5519 52.1095 10.418 52.3615 10.2949C53.3675 9.80235 54.0375 9.47363 54.0375 9.47363L54.3245 10.2114Z" fill="white"/>
<path d="M41.4745 6.45455C41.4745 6.45455 41.3095 6.59913 41.0205 6.85075C40.7465 7.11202 40.2855 7.44074 39.8585 7.91722C39.6335 8.1485 39.3905 8.4001 39.1325 8.66564C38.8715 8.92798 38.6345 9.25243 38.3685 9.56294C37.8225 10.1754 37.3445 10.9217 36.8265 11.6359C36.3775 12.4004 35.8835 13.1392 35.5305 13.9027C35.3485 14.2807 35.1445 14.6318 35.0005 14.9895C34.8535 15.3471 34.7145 15.6844 34.5865 15.996C34.3075 16.6106 34.1895 17.1706 34.0525 17.54C33.9325 17.9191 33.8635 18.1343 33.8635 18.1343C33.8635 18.1343 33.9215 17.9147 34.0215 17.5314C34.1385 17.1534 34.2295 16.5838 34.4775 15.951C34.5905 15.6298 34.7125 15.2818 34.8425 14.9135C34.9695 14.543 35.1555 14.1789 35.3205 13.787C35.6375 12.9947 36.0975 12.2195 36.5155 11.4153C37.0025 10.6605 37.4525 9.87239 37.9765 9.21281C38.2335 8.87981 38.4575 8.53609 38.7145 8.24699C38.9695 7.95361 39.2105 7.67736 39.4325 7.42145C39.8685 6.88715 40.2875 6.55628 40.5555 6.27146C40.8305 6.00378 40.9885 5.84961 40.9885 5.84961L41.4745 6.45455Z" fill="white"/>
<path d="M27.1896 15.741C27.1896 15.741 27.1106 15.8878 26.9716 16.1447C26.9026 16.2722 26.8186 16.4285 26.7216 16.6073C26.6326 16.7872 26.4956 16.9853 26.4246 17.2123C26.2666 17.6695 26.0126 18.1674 25.8566 18.7734C25.6816 19.3698 25.4966 20.009 25.3806 20.6708C25.2276 21.3228 25.1536 21.991 25.0626 22.6152C24.9996 23.2427 24.9396 23.8316 24.9236 24.337C24.9086 24.8424 24.8936 25.2654 24.9196 25.5609C24.9336 25.8564 24.9416 26.0267 24.9416 26.0267C24.9416 26.0267 24.9216 25.8585 24.8886 25.5641C24.8426 25.2696 24.8286 24.8456 24.8086 24.337C24.7886 23.8273 24.8086 23.232 24.8286 22.5938C24.8776 21.9578 24.9066 21.2747 25.0156 20.6012C25.0876 19.9202 25.2306 19.251 25.3696 18.6224C25.4866 17.9918 25.7236 17.4146 25.8656 16.9092C25.9346 16.648 26.0496 16.4574 26.1286 16.2657C26.2126 16.0794 26.2856 15.9188 26.3456 15.785C26.4666 15.5183 26.5356 15.3652 26.5356 15.3652L27.1896 15.741Z" fill="white"/>
<path d="M19.4576 30.8994C19.4576 30.8994 19.3536 30.9058 19.1736 30.9165C18.9926 30.9176 18.7356 30.9647 18.4236 30.939C18.1116 30.924 17.7416 30.9154 17.3556 30.8383C16.9616 30.7955 16.5586 30.6649 16.1466 30.561C15.7506 30.4058 15.3396 30.2762 14.9846 30.0792C14.6146 29.9132 14.2966 29.7012 14.0196 29.5235C13.7356 29.3575 13.5366 29.1594 13.3786 29.0481C13.2266 28.9281 13.1396 28.8585 13.1396 28.8585L13.6416 28.2686C13.6416 28.2686 13.7146 28.3403 13.8406 28.4666C13.9736 28.5844 14.1366 28.7911 14.3816 28.9742C14.6196 29.168 14.8946 29.4003 15.2236 29.5984C15.5366 29.8254 15.9086 29.9914 16.2726 30.1862C16.6526 30.3308 17.0286 30.5053 17.4036 30.5921C17.7726 30.7109 18.1246 30.7623 18.4296 30.8148C18.7326 30.878 18.9956 30.8619 19.1756 30.8823C19.3536 30.894 19.4576 30.8994 19.4576 30.8994Z" fill="white"/>
<path d="M4.31454 32.16C4.31454 32.16 4.28854 32.1482 4.23954 32.1268C4.18654 32.1118 4.14455 32.0315 4.07555 31.9501C3.97055 31.7681 3.84354 31.4865 3.75054 31.131C3.54854 30.4232 3.44255 29.4285 3.51855 28.4295C3.56655 27.9316 3.65055 27.4326 3.78955 26.9797C3.86655 26.757 3.92155 26.53 4.01855 26.3351C4.11255 26.1381 4.17855 25.9379 4.28355 25.7784C4.64655 25.1006 5.02854 24.7494 5.00954 24.7344L5.52354 25.3115C5.54154 25.3286 5.18555 25.5867 4.81155 26.1445C4.70455 26.273 4.63254 26.4443 4.53054 26.6103C4.42454 26.7741 4.35854 26.9733 4.26754 27.1682C4.10154 27.5665 3.97854 28.0194 3.88854 28.4841C3.72654 29.4146 3.73354 30.3922 3.86454 31.1C3.92154 31.4565 4.01855 31.7413 4.10355 31.9298C4.15955 32.008 4.19054 32.0947 4.24354 32.1161C4.28954 32.145 4.31454 32.16 4.31454 32.16Z" fill="white"/>
</g>
<path d="M89.8166 105.953C86.3356 104.665 80.9786 98.8294 84.1086 89.0171C84.8476 86.7043 86.0706 84.5928 87.3226 82.5209C94.9886 69.8465 94.4786 64.7658 93.6726 61.3694C90.0376 46.0834 73.7386 44.2246 75.9186 27.9257L85.3776 15.4697C78.1296 32.4046 92.6106 42.551 95.7266 46.122C98.8396 49.6908 101.803 53.781 102.435 58.7835C103.007 63.3278 101.564 68.0915 99.4246 72.2696C97.2856 76.4519 94.4666 80.2017 91.9576 84.1506C90.3315 86.7097 88.8066 89.4325 88.2166 92.4092C87.6246 95.3891 88.1276 98.6902 90.1096 100.627C90.8606 101.364 91.8376 101.885 92.8896 101.865C94.6306 101.829 96.3096 100.093 96.4336 98.1955C96.5576 96.2993 95.1096 94.5646 93.3726 94.5389C96.6836 94.4661 99.0686 98.0638 97.8566 101.506C96.6406 104.946 92.3946 106.908 89.8166 105.953Z" fill="url(#paint6_linear_12_3981)" stroke="white" stroke-width="0.75" stroke-miterlimit="10"/>
<path opacity="0.3" d="M85.0185 96.1431C84.5805 92.8912 85.3175 89.7818 86.7065 86.8844C87.5295 85.1701 88.5255 83.5608 89.5005 81.9429C90.5675 80.1697 91.5225 78.3473 92.4705 76.4992C94.2725 72.9893 96.1215 69.3787 96.4935 65.3195C96.8375 61.5569 95.9215 57.9378 94.1255 54.7127C90.9895 49.0817 86.1565 44.8041 82.8855 39.2587C80.0075 34.3793 78.4615 28.8542 79.5075 23.2007L75.9195 27.9248C73.7395 44.2248 90.0385 46.0825 93.6735 61.3685C94.4795 64.7649 94.9895 69.8456 87.3235 82.52C86.0715 84.593 84.8475 86.7034 84.1095 89.0162C80.9795 98.8285 86.3365 104.664 89.8175 105.952C90.0855 106.052 90.3735 106.112 90.6715 106.15C87.6025 104.011 85.5515 100.093 85.0185 96.1431Z" fill="url(#paint7_linear_12_3981)" stroke="white" stroke-width="0.75" stroke-miterlimit="10"/>
<mask id="mask1_12_3981" style="mask-type:luminance" maskUnits="userSpaceOnUse" x="75" y="15" width="28" height="92">
<path d="M89.8166 105.953C86.3356 104.665 80.9786 98.8294 84.1086 89.0171C84.8476 86.7043 86.0706 84.5928 87.3226 82.5209C94.9886 69.8465 94.4786 64.7658 93.6726 61.3694C90.0376 46.0834 73.7386 44.2246 75.9186 27.9257L85.3776 15.4697C78.1296 32.4046 92.6106 42.551 95.7266 46.122C98.8396 49.6908 101.803 53.781 102.435 58.7835C103.007 63.3278 101.564 68.0915 99.4246 72.2696C97.2856 76.4519 94.4666 80.2017 91.9576 84.1506C90.3315 86.7097 88.8066 89.4325 88.2166 92.4092C87.6246 95.3891 88.1276 98.6902 90.1096 100.627C90.8606 101.364 91.8376 101.885 92.8896 101.865C94.6306 101.829 96.3096 100.093 96.4336 98.1955C96.5576 96.2993 95.1096 94.5646 93.3726 94.5389C96.6836 94.4661 99.0686 98.0638 97.8566 101.506C96.6406 104.946 92.3946 106.908 89.8166 105.953Z" fill="white"/>
</mask>
<g mask="url(#mask1_12_3981)">
<path d="M83.8636 26.7501C83.8636 26.7501 83.7066 26.9374 83.4326 27.2651C83.1726 27.5992 82.7336 28.0457 82.3276 28.6367C82.1156 28.929 81.8856 29.246 81.6426 29.5822C81.3916 29.912 81.1906 30.3092 80.9476 30.6947C80.7126 31.0855 80.4556 31.4828 80.2696 31.9293C80.0666 32.3651 79.8616 32.8073 79.6556 33.2495C79.2936 34.1886 79.0476 35.1244 78.8856 36.0495C78.8276 36.511 78.7566 36.9596 78.7426 37.3869C78.7286 37.8141 78.7026 38.221 78.7406 38.5947C78.7536 38.9694 78.7846 39.3121 78.8466 39.6097C78.8956 39.9106 78.9316 40.1751 79.0056 40.3817C79.1296 40.8015 79.1996 41.0403 79.1996 41.0403C79.1996 41.0403 79.1176 40.8036 78.9746 40.3914C78.8896 40.189 78.8426 39.9245 78.7786 39.6247C78.7016 39.327 78.6546 38.9833 78.6236 38.6054C78.5686 38.2274 78.5746 37.8173 78.5686 37.3815C78.5626 36.9457 78.6136 36.4874 78.6516 36.0131C78.7676 35.0762 78.9896 34.0568 79.3026 33.1178C79.4936 32.6477 79.6846 32.1798 79.8726 31.7173C80.0436 31.2483 80.2876 30.8285 80.5086 30.4131C80.7396 30.0051 80.9286 29.5865 81.1706 29.231C81.4066 28.8712 81.6296 28.5307 81.8356 28.2159C82.2376 27.5703 82.6376 27.1259 82.8876 26.7694C83.1466 26.4289 83.2946 26.2329 83.2946 26.2329L83.8636 26.7501Z" fill="white"/>
<path d="M88.0476 37.7027C88.0476 37.7027 87.9426 37.8633 87.7586 38.146C87.6766 38.2873 87.5356 38.4565 87.4476 38.6546C87.3466 38.8527 87.2316 39.0754 87.1076 39.3185C87.0036 39.5808 86.8896 39.8645 86.7706 40.1643C86.6806 40.478 86.5666 40.8036 86.4816 41.1505C86.4106 41.5006 86.3096 41.8593 86.2656 42.2362C86.2016 42.6099 86.1576 42.9932 86.1326 43.3787C86.0006 44.9227 86.1616 46.4903 86.3826 47.636C86.5036 48.2067 86.6256 48.68 86.7456 48.9969C86.8566 49.3181 86.9486 49.4895 86.9486 49.4895C86.9486 49.4895 86.8476 49.3246 86.7166 49.0098C86.5766 48.6992 86.4256 48.2335 86.2696 47.666C85.9786 46.5267 85.7196 44.9538 85.7606 43.3605C85.7636 42.9622 85.7846 42.5639 85.8276 42.173C85.8496 41.7801 85.9316 41.4 85.9856 41.0284C86.0526 40.659 86.1516 40.3078 86.2286 39.9716C86.3366 39.6429 86.4396 39.3324 86.5346 39.0465C86.6576 38.7649 86.7716 38.5068 86.8726 38.2777C86.9686 38.0378 87.0836 37.8858 87.1626 37.7305C87.3296 37.4371 87.4246 37.269 87.4246 37.269L88.0476 37.7027Z" fill="white"/>
<path d="M97.1477 47.0089C97.1477 47.0089 96.9837 47.7787 96.7387 48.9341C96.6767 49.2232 96.6107 49.5358 96.5407 49.8656C96.4747 50.1976 96.3257 50.537 96.2147 50.8925C95.9727 51.597 95.7147 52.3487 95.4577 53.1014C95.1207 53.8092 94.7827 54.517 94.4667 55.1797C94.3007 55.5063 94.1757 55.8415 93.9937 56.122C93.8157 56.4047 93.6477 56.6713 93.4927 56.9176C92.8737 57.9005 92.4617 58.5547 92.4617 58.5547C92.4617 58.5547 92.8337 57.8738 93.3937 56.8523C93.5337 56.5985 93.6837 56.3233 93.8437 56.031C94.0077 55.7419 94.1127 55.3982 94.2577 55.0652C94.5307 54.3906 94.8217 53.6711 95.1137 52.9515C95.3207 52.2052 95.5287 51.4589 95.7227 50.7597C95.8097 50.4085 95.9347 50.0862 95.9817 49.75C96.0317 49.4149 96.0797 49.099 96.1247 48.8056C96.3017 47.6363 96.4187 46.8579 96.4187 46.8579L97.1477 47.0089Z" fill="white"/>
<path d="M103.125 59.9472C103.125 59.9472 103.017 60.1431 102.827 60.4868C102.621 60.8241 102.405 61.3316 102.005 61.897C101.816 62.1829 101.612 62.4923 101.397 62.8178C101.184 63.1476 100.917 63.4517 100.664 63.788C100.169 64.4732 99.5387 65.1049 98.9487 65.7699C98.2987 66.3727 97.6837 67.012 97.0237 67.5066C96.6987 67.7583 96.4037 68.0281 96.0917 68.2369C95.7817 68.4478 95.4887 68.647 95.2177 68.8312C94.6897 69.2198 94.1877 69.4329 93.8657 69.6321C93.5357 69.8163 93.3467 69.9212 93.3467 69.9212C93.3467 69.9212 93.5297 69.8055 93.8507 69.6021C94.1617 69.3837 94.6487 69.1449 95.1547 68.7273C95.4137 68.5292 95.6937 68.3151 95.9897 68.0881C96.2877 67.8643 96.5677 67.5773 96.8747 67.3096C97.5007 66.786 98.0767 66.1168 98.6827 65.4904C99.2307 64.7998 99.8147 64.1477 100.264 63.4507C100.494 63.108 100.741 62.7943 100.929 62.4666C101.119 62.1422 101.299 61.836 101.466 61.5522C101.814 61.0072 102.021 60.4579 102.204 60.1163C102.376 59.763 102.474 59.5596 102.474 59.5596L103.125 59.9472Z" fill="white"/>
<path d="M97.3737 77.0404C97.3737 77.0404 97.2477 77.1443 97.0287 77.3252C96.9187 77.4163 96.7857 77.5265 96.6327 77.6518C96.4737 77.7728 96.3237 77.9324 96.0987 78.0587C95.6657 78.3103 95.1867 78.6765 94.6337 78.9281C94.0867 79.2012 93.5057 79.4871 92.8977 79.7023C92.3037 79.9539 91.6847 80.1242 91.1127 80.3051C90.5337 80.4582 89.9927 80.5985 89.5237 80.682C89.0537 80.7634 88.6637 80.8362 88.3847 80.848C88.1087 80.8726 87.9507 80.8855 87.9507 80.8855C87.9507 80.8855 88.1067 80.8598 88.3807 80.8137C88.6557 80.7805 89.0397 80.6777 89.4987 80.56C89.9577 80.4411 90.4837 80.258 91.0437 80.0631C91.5957 79.8393 92.1917 79.6263 92.7577 79.3318C93.3377 79.0759 93.8847 78.7515 94.3947 78.4463C94.9177 78.1583 95.3207 77.791 95.7067 77.5319C95.8987 77.4109 96.0517 77.2267 96.1977 77.0972C96.3417 76.9601 96.4667 76.8402 96.5697 76.7406C96.7767 76.5425 96.8937 76.4312 96.8937 76.4312L97.3737 77.0404Z" fill="white"/>
<path d="M84.6125 87.627C84.6125 87.627 84.6395 87.734 84.6865 87.9203C84.7425 88.1045 84.7816 88.3839 84.9016 88.6891C85.0106 88.9975 85.1296 89.3562 85.3146 89.7181C85.4696 90.0939 85.7065 90.4515 85.9165 90.821C86.1685 91.1615 86.3955 91.518 86.6675 91.8007C86.9145 92.1059 87.1845 92.3468 87.4095 92.5556C87.6275 92.7751 87.8486 92.9046 87.9836 93.0192C88.1246 93.1274 88.2046 93.1884 88.2046 93.1884L87.7675 93.8351C87.7675 93.8351 87.6875 93.758 87.5455 93.6231C87.4105 93.4807 87.1905 93.3115 86.9795 93.0481C86.7605 92.7944 86.5026 92.5031 86.2746 92.1498C86.0216 91.8179 85.8185 91.4152 85.5975 91.0308C85.4175 90.6186 85.2165 90.2235 85.0965 89.8188C84.9485 89.4301 84.8646 89.0435 84.7876 88.7202C84.6996 88.3979 84.6905 88.1184 84.6545 87.9289C84.6285 87.7362 84.6125 87.627 84.6125 87.627Z" fill="white"/>
<path d="M86.5496 103.757C86.5496 103.757 86.5686 103.779 86.6026 103.824C86.6316 103.876 86.7176 103.89 86.8006 103.934C86.9916 103.985 87.2706 104.028 87.6096 104.015C88.2836 104.008 89.1786 103.815 89.9966 103.456C90.4016 103.267 90.7916 103.045 91.1216 102.79C91.2816 102.656 91.4496 102.545 91.5786 102.401C91.7086 102.26 91.8506 102.151 91.9466 102.012C92.3806 101.506 92.5446 101.08 92.5636 101.096L93.1966 101.517C93.1786 101.5 92.9356 101.973 92.3896 102.49C92.2666 102.633 92.0956 102.742 91.9356 102.881C91.7776 103.023 91.5816 103.126 91.3926 103.254C91.0066 103.491 90.5676 103.681 90.1226 103.833C89.2256 104.117 88.2936 104.209 87.6056 104.141C87.2606 104.117 86.9786 104.041 86.7906 103.968C86.7026 103.912 86.6196 103.884 86.5966 103.832C86.5666 103.783 86.5496 103.757 86.5496 103.757Z" fill="white"/>
</g>
<path d="M40.0445 75.8984L41.1255 84.4258L32.4585 98.7032L30.0535 89.1296L40.0445 75.8984Z" fill="url(#paint8_linear_12_3981)" stroke="white" stroke-width="0.75" stroke-miterlimit="10"/>
<path opacity="0.3" d="M36.9715 79.9673L30.0525 89.1307L32.4575 98.7032L37.0925 90.9585C33.6885 88.3577 36.2495 81.0916 36.9715 79.9673Z" fill="url(#paint9_linear_12_3981)" stroke="white" stroke-width="0.75" stroke-miterlimit="10"/>
<path d="M37.9165 79.1016L39.4075 87.2532" stroke="white" stroke-width="0.75" stroke-miterlimit="10"/>
<path d="M35.4194 82.4956L37.1204 91.0027" stroke="white" stroke-width="0.75" stroke-miterlimit="10"/>
<path d="M32.7595 86.0493L34.9655 94.5242" stroke="white" stroke-width="0.75" stroke-miterlimit="10"/>
<path d="M39.1446 75.436L31.1276 76.0432L19.8416 88.0398L29.0856 88.6084L39.1446 75.436Z" fill="url(#paint10_linear_12_3981)" stroke="white" stroke-width="0.75" stroke-miterlimit="10"/>
<path opacity="0.3" d="M36.0515 79.4868L29.0855 88.6085L19.8425 88.0399L25.9785 81.6005C29.0505 84.6403 35.1705 80.474 36.0515 79.4868Z" fill="url(#paint11_linear_12_3981)" stroke="white" stroke-width="0.75" stroke-miterlimit="10"/>
<path d="M36.6506 78.3203L28.8926 78.4199" stroke="white" stroke-width="0.75" stroke-miterlimit="10"/>
<path d="M34.0566 81.6297L25.9316 81.582" stroke="white" stroke-width="0.75" stroke-miterlimit="10"/>
<path d="M31.3496 85.1432L23.1516 84.5586" stroke="white" stroke-width="0.75" stroke-miterlimit="10"/>
<path d="M28.3436 90.5794L28.2176 90.4702C27.9196 90.2111 27.8746 89.741 28.1166 89.423L90.8366 6.83102C91.0786 6.51087 91.5166 6.46266 91.8146 6.72179L91.9406 6.83102C92.2386 7.09014 92.2836 7.55913 92.0416 7.87821L29.3216 90.4712C29.0796 90.7903 28.6416 90.8385 28.3436 90.5794Z" fill="url(#paint12_linear_12_3981)" stroke="white" stroke-width="0.75" stroke-miterlimit="10"/>
<path d="M91.8845 22.737C87.8415 15.8136 86.5495 13.7224 86.5495 13.7224L86.5295 13.7095C86.5295 13.7095 84.3565 12.7791 77.1995 9.95124C84.6815 10.6879 94.9295 2.71191 94.9295 2.71191C94.8495 2.90037 89.7015 15.1047 91.8845 22.737Z" fill="url(#paint13_linear_12_3981)" stroke="white" stroke-width="0.75" stroke-miterlimit="10"/>
<path d="M51.4106 74.3553C48.4576 78.2443 43.1206 78.8332 39.4896 75.6724C35.8586 72.5105 35.3086 66.7959 38.2606 62.9069C41.2136 59.0191 46.5506 58.4291 50.1816 61.591C53.8136 64.7529 54.3626 70.4685 51.4106 74.3553Z" fill="url(#paint14_linear_12_3981)" stroke="white" stroke-width="0.75" stroke-miterlimit="10"/>
<path d="M50.0378 73.1601C47.7018 76.2364 43.4788 76.7032 40.6048 74.2019C37.7318 71.7007 37.2968 67.1779 39.6328 64.1016C41.9688 61.0254 46.1918 60.5585 49.0658 63.0608C51.9388 65.5632 52.3738 70.0839 50.0378 73.1601Z" fill="url(#paint15_linear_12_3981)" stroke="white" stroke-width="0.75" stroke-miterlimit="10"/>
<path d="M47.6926 65.1577L42.0886 72.5373" stroke="white" stroke-width="0.745" stroke-miterlimit="10"/>
<path d="M42.2717 68.1675L46.0467 71.4536" stroke="white" stroke-width="0.745" stroke-miterlimit="10"/>
<path d="M43.5376 65.7552L47.7396 65.1191L48.0536 69.219" stroke="white" stroke-width="0.745" stroke-miterlimit="10"/>
<defs>
<linearGradient id="paint0_linear_12_3981" x1="117.36" y1="0.29984" x2="35.7469" y2="78.7698" gradientUnits="userSpaceOnUse">
<stop stop-color="#21D1FF"/>
<stop offset="1" stop-color="#993CFE"/>
</linearGradient>
<linearGradient id="paint1_linear_12_3981" x1="117.557" y1="0.501993" x2="35.9409" y2="78.9743" gradientUnits="userSpaceOnUse">
<stop stop-color="#21D1FF"/>
<stop offset="1" stop-color="#993CFE"/>
</linearGradient>
<linearGradient id="paint2_linear_12_3981" x1="100.076" y1="-17.6785" x2="18.4604" y2="60.7939" gradientUnits="userSpaceOnUse">
<stop stop-color="#21D1FF"/>
<stop offset="1" stop-color="#993CFE"/>
</linearGradient>
<linearGradient id="paint3_linear_12_3981" x1="99.9467" y1="-17.8128" x2="18.3313" y2="60.6594" gradientUnits="userSpaceOnUse">
<stop stop-color="#21D1FF"/>
<stop offset="1" stop-color="#993CFE"/>
</linearGradient>
<linearGradient id="paint4_linear_12_3981" x1="88.4619" y1="-29.7586" x2="6.84578" y2="48.7142" gradientUnits="userSpaceOnUse">
<stop stop-color="#21D1FF"/>
<stop offset="1" stop-color="#993CFE"/>
</linearGradient>
<linearGradient id="paint5_linear_12_3981" x1="89.7784" y1="-28.3875" x2="8.16301" y2="50.0846" gradientUnits="userSpaceOnUse">
<stop stop-color="#21D1FF"/>
<stop offset="1" stop-color="#993CFE"/>
</linearGradient>
<linearGradient id="paint6_linear_12_3981" x1="131.446" y1="14.9475" x2="49.8297" y2="93.4203" gradientUnits="userSpaceOnUse">
<stop stop-color="#21D1FF"/>
<stop offset="1" stop-color="#993CFE"/>
</linearGradient>
<linearGradient id="paint7_linear_12_3981" x1="130.804" y1="14.2812" x2="49.1887" y2="92.7536" gradientUnits="userSpaceOnUse">
<stop stop-color="#21D1FF"/>
<stop offset="1" stop-color="#993CFE"/>
</linearGradient>
<linearGradient id="paint8_linear_12_3981" x1="116.237" y1="-0.870514" x2="34.6207" y2="77.6021" gradientUnits="userSpaceOnUse">
<stop stop-color="#21D1FF"/>
<stop offset="1" stop-color="#993CFE"/>
</linearGradient>
<linearGradient id="paint9_linear_12_3981" x1="116.396" y1="-0.705661" x2="34.7799" y2="77.7675" gradientUnits="userSpaceOnUse">
<stop stop-color="#21D1FF"/>
<stop offset="1" stop-color="#993CFE"/>
</linearGradient>
<linearGradient id="paint10_linear_12_3981" x1="110.65" y1="-6.68268" x2="29.0333" y2="71.7905" gradientUnits="userSpaceOnUse">
<stop stop-color="#21D1FF"/>
<stop offset="1" stop-color="#993CFE"/>
</linearGradient>
<linearGradient id="paint11_linear_12_3981" x1="110.649" y1="-6.68146" x2="29.033" y2="71.7909" gradientUnits="userSpaceOnUse">
<stop stop-color="#21D1FF"/>
<stop offset="1" stop-color="#993CFE"/>
</linearGradient>
<linearGradient id="paint12_linear_12_3981" x1="110.457" y1="-6.8816" x2="28.841" y2="71.5914" gradientUnits="userSpaceOnUse">
<stop stop-color="#21D1FF"/>
<stop offset="1" stop-color="#993CFE"/>
</linearGradient>
<linearGradient id="paint13_linear_12_3981" x1="107.964" y1="-9.47445" x2="26.3476" y2="68.9991" gradientUnits="userSpaceOnUse">
<stop stop-color="#21D1FF"/>
<stop offset="1" stop-color="#993CFE"/>
</linearGradient>
<linearGradient id="paint14_linear_12_3981" x1="111.941" y1="-5.34163" x2="30.3233" y2="73.1326" gradientUnits="userSpaceOnUse">
<stop stop-color="#21D1FF"/>
<stop offset="1" stop-color="#993CFE"/>
</linearGradient>
<linearGradient id="paint15_linear_12_3981" x1="111.94" y1="-5.34094" x2="30.3236" y2="73.1325" gradientUnits="userSpaceOnUse">
<stop stop-color="#21D1FF"/>
<stop offset="1" stop-color="#993CFE"/>
</linearGradient>
</defs>
</svg>
