<!-- icon666.com - MILLIONS vector ICONS FREE --><svg id="Layer_1" enable-background="new 0 0 100 100" viewBox="0 0 100 100" xmlns="http://www.w3.org/2000/svg"><path d="m92.6 5.4h-14.1c-.5 0-1 .2-1.4.6l-51 50.9-2.8-2.8c-.4-.4-.9-.6-1.4-.6h-8.5c-1.1 0-2 .9-2 2s.9 2 2 2h7.7l4.4 4.4-5.6 5.7c-.1.1-.2.3-.3.4l-6 10.7c-2.1 0-4.1.8-5.7 2.3-1.5 1.5-2.3 3.5-2.3 5.6s.8 4.2 2.3 5.7c1.6 1.6 3.6 2.3 5.7 2.3 2 0 4.1-.8 5.7-2.3s2.3-3.6 2.3-5.7l10.7-6c.2-.1.3-.2.4-.3l5.7-5.7 4.4 4.4v7.6c0 1.1.9 2 2 2s2-.9 2-2v-8.5c0-.5-.2-1-.6-1.4l-2.8-2.8 50.6-50.9c.4-.4.6-.9.6-1.4v-14.2c0-1.1-.9-2-2-2zm-13.3 4h8.5l-54.6 54.6-4.2-4.3zm-63.1 80c-1.6 1.6-4.1 1.6-5.7 0-.8-.8-1.2-1.8-1.2-2.8 0-1.1.4-2.1 1.2-2.8.8-.8 1.8-1.2 2.8-1.2s2 .4 2.8 1.2c1.7 1.5 1.7 4.1.1 5.6zm4.1-6.8c-.3-.6-.8-1.2-1.3-1.7s-1.1-.9-1.7-1.3l4.2-7.5 6.2 6.2zm10.8-6.6-7.1-7.1 4.2-4.2 7.1 7.1zm59.5-55.3-50.3 50.3-4.3-4.2 54.6-54.6z" fill="#000000" style="fill: rgb(255, 255, 255);"></path></svg>