<svg width="95" height="122" viewBox="0 0 95 122" fill="none" xmlns="http://www.w3.org/2000/svg">
<path d="M73.63 95.7223C73.346 97.594 72.467 99.3458 71.374 100.922C65.454 109.466 53.831 112.95 47.503 121.222C41.174 112.95 29.555 109.466 23.631 100.922C22.539 99.3458 21.659 97.5951 21.376 95.7223C21.092 93.8464 21.452 91.8345 22.636 90.3204C23.85 88.7668 25.771 87.801 27.361 86.6007C30.547 84.1979 32.448 80.401 32.351 76.511L47.502 75.9971L62.653 76.511C62.555 80.401 64.457 84.199 67.643 86.6007C69.233 87.801 71.156 88.7668 72.37 90.3204C73.554 91.8345 73.917 93.8475 73.63 95.7223Z" fill="url(#paint0_linear_12_3549)" stroke="white" stroke-width="0.75" stroke-miterlimit="10"/>
<path opacity="0.3" d="M73.63 95.7203C73.348 97.5952 72.467 99.3437 71.372 100.925C65.454 109.466 53.832 112.949 47.501 121.22C41.176 112.948 29.553 109.466 23.63 100.925C22.542 99.3437 21.659 97.5963 21.378 95.7203C21.09 93.8455 21.453 91.8357 22.635 90.3216C23.379 89.3633 24.393 88.6331 25.437 87.9307C24.949 89.2027 24.83 90.6568 25.012 92.037C25.256 93.9118 26.013 95.6604 26.951 97.2408C32.049 105.781 42.052 109.264 47.501 117.537C52.949 109.265 62.958 105.781 68.057 97.2408C68.995 95.6604 69.752 93.9118 69.996 92.037C70.177 90.6568 70.059 89.2038 69.57 87.9307C70.608 88.6341 71.628 89.3644 72.373 90.3216C73.555 91.8346 73.918 93.8444 73.63 95.7203Z" fill="url(#paint1_linear_12_3549)"/>
<path d="M30.997 63.0491C29.267 63.9753 27.207 63.5106 25.381 62.8296C23.52 62.1358 16.6459 58.0691 14.6749 57.6986C13.1739 57.4159 11.378 57.4448 10.439 58.7308C9.95196 59.399 9.61695 60.7663 9.55895 61.6111C8.97095 70.1428 12.665 74.3787 18.139 74.5382C19.832 74.5875 21.4369 73.9365 22.9789 73.1848C25.4369 71.9866 28.205 71.0647 30.811 71.8217C32.172 70.161 32.394 67.7754 32.169 65.5782C32.062 64.5503 31.712 63.743 30.997 63.0491Z" fill="url(#paint2_linear_12_3549)" stroke="white" stroke-width="0.75" stroke-miterlimit="10"/>
<path d="M18.6759 62.8467C17.6439 61.8969 16.5489 60.9322 15.2309 60.5703C13.9129 60.2083 12.2629 60.7277 11.7909 62.095C10.5829 65.591 12.6049 71.917 17.0459 72.5444C23.8729 73.5092 25.7809 67.3802 25.7809 67.3802C25.7809 67.3802 23.1919 67.0022 18.6759 62.8467Z" fill="url(#paint3_linear_12_3549)" stroke="white" stroke-width="0.75" stroke-miterlimit="10"/>
<path opacity="0.3" d="M17.8059 67.2071C20.4369 66.645 23.1839 66.7917 25.7439 67.4641C25.1279 68.885 22.6999 73.3435 17.0439 72.5448C15.2079 72.2857 13.7869 71.05 12.8359 69.446C14.3279 68.3507 16.0179 67.5894 17.8059 67.2071Z" fill="url(#paint4_linear_12_3549)"/>
<path d="M59.1989 44.2238C66.1089 43.667 72.4629 39.2619 74.8599 33.3664C76.6649 28.9292 76.3129 24.0531 76.2689 19.3247C76.2249 14.5962 76.1469 9.49628 79.1309 5.61483C81.7299 2.23341 87.4469 0.836091 92.0059 1.0042C76.4229 5.68014 86.4759 24.5767 87.5699 31.5847C91.3219 55.6047 66.9129 59.2977 66.9129 59.2977C62.4839 59.938 55.0839 49.6696 59.1989 44.2238Z" fill="url(#paint5_linear_12_3549)" stroke="white" stroke-width="0.75" stroke-miterlimit="10"/>
<path opacity="0.3" d="M89.9819 1.75146C88.2139 2.16477 86.5359 2.84684 85.0999 3.90259C83.3499 5.18856 82.099 6.92424 81.291 8.81732C79.736 12.4589 79.6429 16.5342 79.9579 20.3814C80.3909 25.6623 82.186 31.1466 80.813 36.4265C80.204 38.765 78.953 40.9118 77.438 42.8692C75.845 44.9261 74.0109 46.8117 71.8169 48.36C68.0919 50.9897 63.687 52.2436 59.075 52.5605C60.83 56.4216 64.3639 59.667 66.9139 59.2987C66.9139 59.2987 91.323 55.6046 87.571 31.5857C86.527 24.9042 77.3449 7.4232 89.9819 1.75146Z" fill="url(#paint6_linear_12_3549)"/>
<mask id="mask0_12_3549" style="mask-type:luminance" maskUnits="userSpaceOnUse" x="58" y="0" width="35" height="60">
<path d="M59.1989 44.2238C66.1089 43.667 72.4629 39.2619 74.8599 33.3664C76.6649 28.9292 76.3129 24.0531 76.2689 19.3247C76.2249 14.5962 76.1469 9.49628 79.1309 5.61483C81.7299 2.23341 87.4469 0.836091 92.0059 1.0042C76.4229 5.68014 86.4759 24.5767 87.5699 31.5847C91.3219 55.6047 66.9129 59.2977 66.9129 59.2977C63.4429 60.7465 55.0839 49.6696 59.1989 44.2238Z" fill="white"/>
</mask>
<g mask="url(#mask0_12_3549)">
<path d="M72.5449 37.2617C72.5449 37.2617 72.7359 37.4512 73.0699 37.7832C73.2339 37.9706 73.4499 38.0862 73.6889 38.2789C73.9159 38.4759 74.2389 38.6269 74.5659 38.8218C74.8999 39.0081 75.2899 39.1527 75.6949 39.3197C76.1159 39.4428 76.5518 39.6088 77.0258 39.688C77.4928 39.8047 77.9869 39.8572 78.4889 39.9172C78.9919 39.9493 79.5079 39.991 80.0219 39.9686C82.0869 39.945 84.1319 39.4236 85.5669 38.7811C85.9319 38.6355 86.2538 38.4706 86.5338 38.311C86.8188 38.1611 87.0648 38.0273 87.2538 37.8892C87.6408 37.6322 87.8618 37.4844 87.8618 37.4844C87.8618 37.4844 87.6468 37.6429 87.2708 37.9181C87.0868 38.0648 86.8459 38.2115 86.5669 38.3753C86.2919 38.5498 85.9749 38.7308 85.6129 38.8946C84.1939 39.612 82.1469 40.2416 80.0359 40.3669C79.5109 40.414 78.9808 40.3979 78.4608 40.3894C77.9408 40.353 77.4269 40.3219 76.9359 40.2255C76.4389 40.1656 75.9738 40.0157 75.5258 39.9065C75.0898 39.7501 74.6688 39.6163 74.3018 39.4343C73.9378 39.2405 73.5939 39.0991 73.3109 38.8818C73.0329 38.6815 72.7498 38.5209 72.5948 38.355C72.2468 38.0391 72.0479 37.8592 72.0479 37.8592L72.5449 37.2617Z" fill="white"/>
<path d="M75.4578 30.5725C75.4578 30.5725 75.6608 30.596 75.9758 30.5982C76.2788 30.5993 76.7548 30.5821 77.3138 30.5061C78.4388 30.3733 79.9298 30.0018 81.3358 29.3797C81.6748 29.1998 82.0358 29.0574 82.3538 28.8475C82.6848 28.6591 83.0008 28.4556 83.2888 28.2308C83.5938 28.0284 83.8448 27.7746 84.0988 27.5519C84.3548 27.3313 84.5447 27.0658 84.7487 26.8506C84.9457 26.6268 85.0798 26.3816 85.2238 26.1846C85.3718 25.9886 85.4558 25.7884 85.5368 25.631C85.6958 25.3119 85.7858 25.1299 85.7858 25.1299C85.7858 25.1299 85.7058 25.3173 85.5658 25.646C85.4938 25.8087 85.4198 26.0175 85.2828 26.2242C85.1498 26.4319 85.0258 26.69 84.8398 26.9298C84.6458 27.1611 84.4658 27.4448 84.2178 27.6868C83.9728 27.931 83.7278 28.2083 83.4298 28.4342C83.1468 28.6848 82.8348 28.9139 82.5068 29.1291C82.1898 29.3658 81.8318 29.5349 81.4908 29.7427C80.0838 30.4761 78.5708 30.959 77.4078 31.1732C76.8258 31.2899 76.3388 31.3434 75.9678 31.3638C75.6098 31.383 75.4268 31.3723 75.4268 31.3723L75.4578 30.5725Z" fill="white"/>
<path d="M76.0129 19.1511C76.0129 19.1511 76.1669 19.1372 76.4359 19.1136C76.5699 19.1018 76.734 19.0879 76.921 19.0708C77.107 19.0504 77.3279 19.0504 77.5339 18.984C77.7479 18.9326 77.981 18.8759 78.226 18.8159C78.477 18.7731 78.7289 18.6682 78.9909 18.5568C79.2499 18.4422 79.533 18.3534 79.796 18.211C80.054 18.0546 80.3159 17.8962 80.5779 17.7377C80.8289 17.621 81.0619 17.349 81.3019 17.1648C81.5429 16.9635 81.7779 16.7655 81.9479 16.5278C82.1359 16.3018 82.318 16.0823 82.49 15.8746C82.628 15.6358 82.7579 15.4099 82.8789 15.2022C83.0009 14.9934 83.1189 14.8039 83.1719 14.6111C83.2389 14.4237 83.298 14.261 83.347 14.1271C83.445 13.8562 83.4999 13.7031 83.4999 13.7031C83.4999 13.7031 83.456 13.8605 83.378 14.1378C83.338 14.277 83.291 14.4462 83.236 14.64C83.195 14.8413 83.0899 15.0405 82.9819 15.2621C82.8739 15.4848 82.7569 15.7258 82.6329 15.9806C82.4689 16.2119 82.2959 16.4549 82.1159 16.7066C81.9459 16.9764 81.7249 17.1938 81.5009 17.4111C81.2619 17.6253 81.0919 17.8769 80.7899 18.0675C80.5269 18.2559 80.2639 18.4444 80.0049 18.6296C79.7379 18.8031 79.45 18.9209 79.184 19.0633C78.916 19.2025 78.6549 19.3352 78.3829 19.407C78.1159 19.4937 77.864 19.5751 77.632 19.6511C77.396 19.7411 77.189 19.7561 77.002 19.7914C76.816 19.8235 76.6539 19.8503 76.5209 19.8738C76.2539 19.9188 76.102 19.9445 76.102 19.9445L76.0129 19.1511Z" fill="white"/>
<path d="M76.2429 10.1007C76.2429 10.1007 76.3479 9.98076 76.5309 9.77197C76.7089 9.5621 76.9689 9.26015 77.3459 8.925C77.5259 8.75369 77.7179 8.56416 77.9479 8.40783C78.1739 8.24722 78.3999 8.05663 78.6549 7.89923C78.9149 7.75147 79.1829 7.59835 79.4559 7.44309C79.7329 7.30068 80.0299 7.19361 80.3169 7.06726C80.6029 6.93342 80.9029 6.84669 81.1959 6.7621C81.4899 6.67858 81.7759 6.58007 82.0579 6.51476C82.6269 6.40661 83.1529 6.2824 83.6089 6.21923C84.5219 6.10894 85.1309 6.03613 85.1309 6.03613C85.1309 6.03613 84.5299 6.1582 83.6289 6.34237C83.1809 6.44302 82.6689 6.60898 82.1179 6.75996C81.8449 6.84669 81.5729 6.96661 81.2909 7.07154C81.0099 7.17755 80.7259 7.28462 80.4589 7.43774C80.1899 7.58336 79.9129 7.70757 79.6579 7.86497C79.4099 8.03307 79.1659 8.19904 78.9299 8.35858C78.6999 8.52669 78.5009 8.7237 78.3009 8.89074C78.0949 9.05349 77.9349 9.24087 77.7829 9.40898C77.4719 9.72592 77.2339 10.045 77.0679 10.2752C76.8999 10.4979 76.8039 10.6264 76.8039 10.6264L76.2429 10.1007Z" fill="white"/>
</g>
<path d="M35.807 44.2238C28.897 43.667 22.543 39.2619 20.146 33.3664C18.342 28.9292 18.694 24.0531 18.737 19.3247C18.781 14.5962 18.858 9.49628 15.875 5.61483C13.276 2.23341 7.558 0.836091 3 1.0042C18.584 5.68014 8.53099 24.5767 7.43599 31.5847C3.68399 55.6047 28.093 59.2977 28.093 59.2977C32.523 59.938 39.923 49.6696 35.807 44.2238Z" fill="url(#paint7_linear_12_3549)" stroke="white" stroke-width="0.75" stroke-miterlimit="10"/>
<path opacity="0.3" d="M5.0249 1.75146C6.7929 2.16477 8.47091 2.84684 9.90691 3.90259C11.6569 5.18856 12.9079 6.92424 13.7159 8.81732C15.2709 12.4589 15.3639 16.5342 15.0489 20.3814C14.6169 25.6623 12.8209 31.1466 14.1939 36.4265C14.8019 38.765 16.0539 40.9118 17.5699 42.8692C19.1629 44.9261 20.9969 46.8117 23.1909 48.36C26.9159 50.9897 31.3209 52.2436 35.9329 52.5605C34.1779 56.4216 30.6439 59.667 28.0939 59.2987C28.0939 59.2987 3.6849 55.6046 7.4369 31.5857C8.4799 24.9042 17.6619 7.4232 5.0249 1.75146Z" fill="url(#paint8_linear_12_3549)"/>
<mask id="mask1_12_3549" style="mask-type:luminance" maskUnits="userSpaceOnUse" x="3" y="0" width="34" height="60">
<path d="M35.807 44.2238C28.897 43.667 22.543 39.2619 20.146 33.3664C18.342 28.9292 18.694 24.0531 18.737 19.3247C18.781 14.5962 18.858 9.49628 15.875 5.61483C13.276 2.23341 7.558 0.836091 3 1.0042C18.584 5.68014 8.53099 24.5767 7.43599 31.5847C3.68399 55.6047 28.093 59.2977 28.093 59.2977C31.564 60.7465 39.923 49.6696 35.807 44.2238Z" fill="white"/>
</mask>
<g mask="url(#mask1_12_3549)">
<path d="M22.958 37.8592C22.958 37.8592 22.759 38.0391 22.411 38.355C22.255 38.5209 21.973 38.6815 21.695 38.8818C21.413 39.0991 21.069 39.2394 20.704 39.4343C20.337 39.6163 19.916 39.7512 19.48 39.9065C19.032 40.0167 18.567 40.1656 18.07 40.2255C17.579 40.323 17.065 40.353 16.545 40.3894C16.025 40.3979 15.496 40.4151 14.97 40.3669C12.859 40.2405 10.812 39.6109 9.39304 38.8946C9.03104 38.7297 8.71404 38.5488 8.43904 38.3753C8.16004 38.2115 7.91903 38.0648 7.73503 37.9181C7.35903 37.6418 7.14404 37.4844 7.14404 37.4844C7.14404 37.4844 7.36504 37.6322 7.75204 37.8892C7.94104 38.0262 8.18705 38.1611 8.47205 38.311C8.75205 38.4706 9.07404 38.6355 9.43904 38.7811C10.874 39.4246 12.92 39.945 14.984 39.9686C15.498 39.991 16.014 39.9493 16.517 39.9172C17.019 39.8572 17.513 39.8047 17.98 39.688C18.454 39.6088 18.89 39.4428 19.311 39.3197C19.716 39.1527 20.106 39.0081 20.44 38.8218C20.767 38.6269 21.091 38.4759 21.317 38.2789C21.556 38.0862 21.773 37.9706 21.936 37.7832C22.271 37.4512 22.461 37.2617 22.461 37.2617L22.958 37.8592Z" fill="white"/>
<path d="M19.578 31.3714C19.578 31.3714 19.396 31.3821 19.037 31.3628C18.666 31.3424 18.179 31.29 17.597 31.1722C16.433 30.958 14.92 30.4751 13.514 29.7417C13.174 29.534 12.815 29.3637 12.498 29.1281C12.169 28.9129 11.858 28.6838 11.575 28.4332C11.277 28.2073 11.032 27.9289 10.787 27.6858C10.539 27.4439 10.359 27.1601 10.165 26.9288C9.97899 26.689 9.855 26.4309 9.722 26.2232C9.584 26.0176 9.511 25.8088 9.439 25.645C9.299 25.3163 9.21899 25.1289 9.21899 25.1289C9.21899 25.1289 9.30899 25.3109 9.46799 25.63C9.54899 25.7874 9.63199 25.9876 9.78099 26.1836C9.92499 26.3806 10.059 26.6258 10.256 26.8496C10.461 27.0659 10.65 27.3304 10.906 27.5509C11.16 27.7736 11.411 28.0274 11.716 28.2298C12.004 28.4546 12.32 28.6581 12.651 28.8465C12.97 29.0553 13.331 29.1988 13.67 29.3787C15.076 30.0008 16.567 30.3734 17.692 30.5051C18.252 30.5811 18.728 30.5993 19.03 30.5972C19.346 30.5951 19.548 30.5715 19.548 30.5715L19.578 31.3714Z" fill="white"/>
<path d="M18.9041 19.9445C18.9041 19.9445 18.7521 19.9188 18.4851 19.8738C18.3521 19.8513 18.1902 19.8235 18.0042 19.7914C17.8172 19.7561 17.6111 19.7411 17.3741 19.6511C17.1421 19.5762 16.8891 19.4937 16.6221 19.407C16.3501 19.3352 16.0892 19.2025 15.8212 19.0633C15.5542 18.9209 15.2662 18.8031 15.0002 18.6296C14.7412 18.4444 14.4781 18.2559 14.2151 18.0675C13.9131 17.878 13.7432 17.6253 13.5042 17.4111C13.2792 17.1927 13.0591 16.9764 12.8891 16.7066C12.7101 16.4549 12.5371 16.2119 12.3721 15.9806C12.2491 15.7247 12.1311 15.4838 12.0231 15.2611C11.9151 15.0394 11.8101 14.8403 11.7691 14.639C11.7141 14.4452 11.6662 14.277 11.6272 14.1378C11.5492 13.8605 11.5042 13.7031 11.5042 13.7031C11.5042 13.7031 11.5602 13.8573 11.6572 14.1271C11.7052 14.261 11.7641 14.4237 11.8321 14.6111C11.8851 14.8049 12.0031 14.9934 12.1261 15.2022C12.2461 15.4099 12.3761 15.6358 12.5141 15.8746C12.6861 16.0823 12.8682 16.3008 13.0562 16.5278C13.2262 16.7655 13.4601 16.9646 13.7021 17.1648C13.9411 17.3479 14.1741 17.621 14.4261 17.7377C14.6881 17.8972 14.9501 18.0546 15.2081 18.211C15.4711 18.3544 15.7541 18.4433 16.0131 18.5568C16.2751 18.6682 16.5272 18.7731 16.7782 18.8159C17.0242 18.8759 17.2561 18.9316 17.4701 18.984C17.6761 19.0504 17.8971 19.0504 18.0831 19.0708C18.2711 19.0868 18.4341 19.1018 18.5681 19.1136C18.8381 19.1372 18.9911 19.1511 18.9911 19.1511L18.9041 19.9445Z" fill="white"/>
<path d="M18.201 10.6255C18.201 10.6255 18.105 10.497 17.937 10.2743C17.771 10.0452 17.533 9.72504 17.222 9.4081C17.07 9.23999 16.909 9.05261 16.704 8.88986C16.504 8.72282 16.305 8.5258 16.075 8.3577C15.839 8.19709 15.595 8.03219 15.347 7.86301C15.093 7.70561 14.815 7.58034 14.546 7.43579C14.279 7.28267 13.995 7.1756 13.714 7.06959C13.433 6.96466 13.16 6.84473 12.887 6.758C12.336 6.60703 11.824 6.44106 11.376 6.34041C10.475 6.15732 9.875 6.03418 9.875 6.03418C9.875 6.03418 10.484 6.10699 11.397 6.21728C11.853 6.28152 12.379 6.40573 12.948 6.5128C13.231 6.57705 13.516 6.67663 13.81 6.76015C14.104 6.84474 14.404 6.93147 14.69 7.06638C14.977 7.19273 15.274 7.29873 15.551 7.44221C15.824 7.5964 16.093 7.75058 16.352 7.89728C16.607 8.05468 16.833 8.24527 17.059 8.40695C17.289 8.56328 17.48 8.75173 17.661 8.92305C18.039 9.25819 18.298 9.56015 18.476 9.77001C18.659 9.97881 18.764 10.0987 18.764 10.0987L18.201 10.6255Z" fill="white"/>
</g>
<path d="M64.4299 63.0491C66.1599 63.9753 68.2189 63.5106 70.0459 62.8296C71.9069 62.1358 78.7809 58.0691 80.7529 57.6986C82.2539 57.4159 84.0499 57.4448 84.9889 58.7308C85.4769 59.399 85.8109 60.7663 85.8689 61.6111C86.4569 70.1428 82.7629 74.3787 77.2889 74.5382C75.5959 74.5875 73.9909 73.9365 72.4489 73.1848C69.9909 71.9866 67.2229 71.0647 64.6169 71.8217C63.2549 70.161 63.0329 67.7754 63.2589 65.5782C63.3649 64.5503 63.7139 63.743 64.4299 63.0491Z" fill="url(#paint9_linear_12_3549)" stroke="white" stroke-width="0.75" stroke-miterlimit="10"/>
<path d="M76.7509 62.8467C77.7829 61.8969 78.878 60.9322 80.196 60.5703C81.514 60.2083 83.1639 60.7277 83.6369 62.095C84.8439 65.591 82.8229 71.917 78.3829 72.5444C71.5549 73.5092 69.6479 67.3802 69.6479 67.3802C69.6479 67.3802 72.2349 67.0022 76.7509 62.8467Z" fill="url(#paint10_linear_12_3549)" stroke="white" stroke-width="0.75" stroke-miterlimit="10"/>
<path opacity="0.3" d="M77.6199 67.2071C74.9889 66.645 72.2419 66.7917 69.6819 67.4641C70.2979 68.885 72.7259 73.3435 78.3819 72.5448C80.2169 72.2857 81.6389 71.05 82.5899 69.446C81.0989 68.3507 79.4089 67.5894 77.6199 67.2071Z" fill="url(#paint11_linear_12_3549)"/>
<path d="M60.7789 82.9413C61.5879 86.3228 66.7299 103.826 47.6619 103.65C47.6109 103.652 47.5569 103.652 47.5049 103.652C47.4509 103.652 47.3999 103.652 47.3459 103.65C27.7829 103.39 33.4199 86.3228 34.2279 82.9413C35.0389 79.5439 22.3279 56.0892 22.3279 56.0892C24.6899 49.5137 28.7719 44.901 34.4089 42.0635H60.5979C66.8799 44.7114 70.5499 49.7086 72.6799 56.0892C72.6799 56.0892 59.9679 79.5439 60.7789 82.9413Z" fill="url(#paint12_linear_12_3549)" stroke="white" stroke-width="0.75" stroke-miterlimit="10"/>
<path opacity="0.3" d="M59.9899 53.3471C60.5169 57.72 58.9539 60.7352 56.6079 64.9647C55.4689 67.0184 54.1589 69.5025 53.7929 71.8924C53.4319 74.2491 54.4979 76.4773 55.4619 78.5856C56.9289 81.7936 59.2089 84.5272 61.6519 86.9739C61.3569 85.1611 60.9609 83.6963 60.7799 82.9404C59.9679 79.5429 72.6799 56.0882 72.6799 56.0882C70.5499 49.7076 66.8799 44.7105 60.5989 42.0625H54.1259C56.7199 45.1687 59.4749 49.0812 59.9899 53.3471Z" fill="url(#paint13_linear_12_3549)"/>
<path opacity="0.3" d="M71.393 58.5029C64.733 61.5899 55.66 65.4938 53.396 73.5812C51.95 78.7454 55.309 83.431 57.071 88.0105C58.735 92.3321 58.931 96.4212 57.93 100.914C64.407 95.888 61.384 85.4707 60.78 82.9427C60.128 80.2144 68.186 64.5719 71.393 58.5029Z" fill="url(#paint14_linear_12_3549)"/>
<path opacity="0.3" d="M35.0811 53.3685C34.5531 57.7414 36.1171 60.7566 38.4631 64.985C39.6021 67.0398 40.9121 69.5228 41.2781 71.9138C41.6391 74.2705 40.5731 76.4987 39.6101 78.607C38.1431 81.815 35.8631 84.5497 33.4201 86.9963C33.7151 85.1846 34.1111 83.7188 34.2921 82.9628C35.1041 79.5653 22.3921 56.1107 22.3921 56.1107C24.5221 49.7301 28.7911 44.9952 34.4741 42.085H40.9471C38.3501 45.1891 35.5951 49.1016 35.0811 53.3685Z" fill="url(#paint15_linear_12_3549)"/>
<path opacity="0.3" d="M23.4141 58.0776C30.0021 61.0083 39.4111 65.515 41.6751 73.6024C43.1211 78.7666 39.7631 83.4522 38.0001 88.0317C36.3361 92.3533 36.1401 96.4425 37.1411 100.935C30.6641 95.9092 33.6871 85.4919 34.2911 82.9639C34.9421 80.2356 26.6201 64.1456 23.4141 58.0776Z" fill="url(#paint16_linear_12_3549)"/>
<path d="M22.3269 57.6069C22.3269 57.6069 23.1039 57.88 24.4379 58.44C25.7669 59.0085 27.6679 59.8341 29.8519 61.0462C32.0259 62.2668 34.5419 63.7937 36.9249 65.9116C38.1079 66.9749 39.2579 68.1859 40.2279 69.6025C41.1759 71.0212 41.9579 72.6755 42.1309 74.5076C42.3599 76.2208 42.1449 78.1149 41.6859 79.7682C41.2279 81.4567 40.4909 82.989 39.7899 84.4462C39.0989 85.9121 38.3869 87.2987 37.8859 88.6907C37.5969 89.3727 37.4289 90.0752 37.2219 90.7401C37.0499 91.4147 36.9439 92.0839 36.8179 92.7199C36.7609 93.3677 36.7069 93.9887 36.6549 94.5787C36.6639 95.173 36.6719 95.7362 36.6789 96.2673C36.7419 97.3241 36.8859 98.2428 36.9909 98.9977C37.3259 100.486 37.5179 101.336 37.5179 101.336C37.5179 101.336 37.2949 100.492 36.9039 99.017C36.7709 98.2653 36.5909 97.3466 36.4889 96.2812C36.4609 95.7448 36.4319 95.174 36.4019 94.5723C36.4409 93.9695 36.4809 93.3366 36.5239 92.676C36.6379 92.0261 36.7329 91.3386 36.8949 90.6459C37.0909 89.9638 37.2499 89.2389 37.5279 88.5408C38.0099 87.1103 38.6949 85.6872 39.3839 84.2235C40.0739 82.762 40.7859 81.2501 41.2149 79.6183C41.6419 77.9714 41.8429 76.3182 41.6069 74.5504C41.4629 72.8801 40.7359 71.2782 39.8299 69.9087C38.9039 68.535 37.7879 67.34 36.6319 66.2853C34.3029 64.1877 31.8579 62.5816 29.7139 61.3256C25.4109 58.8169 22.3269 57.6069 22.3269 57.6069Z" fill="white"/>
<path d="M72.719 57.6069C72.719 57.6069 69.635 58.8179 65.333 61.3256C63.189 62.5816 60.744 64.1877 58.415 66.2853C57.259 67.3389 56.144 68.535 55.217 69.9087C54.311 71.2793 53.584 72.8801 53.44 74.5504C53.205 76.3182 53.405 77.9714 53.833 79.6183C54.262 81.2501 54.974 82.763 55.664 84.2235C56.352 85.6872 57.037 87.1103 57.519 88.5408C57.797 89.2389 57.957 89.9638 58.152 90.6459C58.314 91.3386 58.409 92.0261 58.523 92.676C58.565 93.3366 58.606 93.9705 58.645 94.5723C58.614 95.174 58.585 95.7448 58.558 96.2812C58.455 97.3466 58.276 98.2653 58.142 99.017C57.751 100.492 57.528 101.336 57.528 101.336C57.528 101.336 57.72 100.486 58.055 98.9977C58.16 98.2428 58.305 97.3241 58.367 96.2673C58.375 95.7373 58.383 95.174 58.391 94.5787C58.34 93.9887 58.285 93.3677 58.228 92.7199C58.102 92.0839 57.996 91.4147 57.824 90.7401C57.617 90.0752 57.449 89.3727 57.16 88.6907C56.658 87.2987 55.947 85.9121 55.255 84.4462C54.554 82.989 53.817 81.4567 53.359 79.7682C52.901 78.1149 52.686 76.2208 52.914 74.5076C53.086 72.6755 53.869 71.0212 54.817 69.6025C55.787 68.1859 56.937 66.9749 58.12 65.9116C60.503 63.7937 63.019 62.2668 65.193 61.0462C67.378 59.8341 69.278 59.0085 70.607 58.44C71.942 57.8789 72.719 57.6069 72.719 57.6069Z" fill="white"/>
<path d="M63.8821 62.1274C63.8821 62.1274 63.9251 63.0718 63.8001 64.4938C63.7211 65.2016 63.6091 66.0378 63.3021 66.8955C63.1701 67.3002 62.9551 67.7606 62.7191 68.1579C62.4751 68.5637 62.1881 68.9556 61.8451 69.2918C61.5071 69.6312 61.1131 69.9118 60.6961 70.1216C60.2841 70.3283 59.8421 70.4418 59.4211 70.5221C58.9971 70.5949 58.5991 70.6163 58.2041 70.6088C57.8121 70.6035 57.4541 70.5671 57.1211 70.5232C55.7951 70.3229 54.9651 69.9878 54.9651 69.9878C54.9651 69.9878 55.1831 70.0188 55.5661 70.0745C55.9461 70.1334 56.4951 70.1837 57.1461 70.2169C57.4711 70.233 57.8281 70.2373 58.1911 70.2116C58.5521 70.1944 58.9501 70.1248 59.3371 70.0424C60.1081 69.8775 60.8921 69.4963 61.4881 68.8796C61.7951 68.5798 62.0631 68.2318 62.2921 67.8602C62.5171 67.4758 62.7131 67.1289 62.8711 66.706C63.1801 65.9211 63.3841 65.132 63.5051 64.4456C63.6241 63.7571 63.7261 63.1768 63.7811 62.7688C63.8451 62.3609 63.8821 62.1274 63.8821 62.1274Z" fill="white"/>
<path d="M31.9331 62.6343C31.9331 62.6343 31.9691 62.8613 32.0321 63.2585C32.0871 63.6558 32.1841 64.2211 32.3001 64.8925C32.4171 65.5606 32.6081 66.338 32.9001 67.0993C33.2081 67.8895 33.6241 68.6326 34.2021 69.2611C34.4941 69.5599 34.8061 69.8415 35.1571 70.0363C35.4951 70.2526 35.8861 70.3886 36.2461 70.4893C36.6281 70.5974 36.9861 70.6477 37.3571 70.6959C37.7261 70.7634 38.0591 70.7559 38.3731 70.7645C38.6861 70.7837 38.9781 70.742 39.2371 70.7388C39.4971 70.7334 39.7221 70.7034 39.9071 70.6745C40.2811 70.6295 40.4941 70.6038 40.4941 70.6038C40.4941 70.6038 40.2871 70.6692 39.9261 70.7837C39.7441 70.8415 39.5231 70.9047 39.2621 70.9497C39.0021 70.9968 38.7111 71.0814 38.3801 71.0857C38.0511 71.1071 37.6871 71.1446 37.3231 71.1103C36.9601 71.1007 36.5411 71.0782 36.1421 70.9765C35.7251 70.8758 35.3061 70.7623 34.9151 70.5171C34.5141 70.2997 34.1561 69.9924 33.8291 69.6605C33.5221 69.3072 33.2361 68.9324 33.0171 68.5244C32.7821 68.1304 32.6091 67.6786 32.4731 67.2877C32.1871 66.4408 32.0831 65.6324 32.0091 64.9407C31.8951 63.554 31.9331 62.6343 31.9331 62.6343Z" fill="white"/>
<path d="M41.1261 41.9683C41.1261 41.9683 40.7061 42.4041 40.0501 43.2414C39.3921 44.0744 38.5121 45.3229 37.6221 46.9226C37.1821 47.7257 36.7541 48.624 36.3731 49.6048C36.0081 50.592 35.6951 51.6606 35.4941 52.7914C35.3091 53.9221 35.2201 55.1181 35.3561 56.3109C35.4331 56.9062 35.4711 57.5144 35.6711 58.0883C35.8341 58.6708 35.9661 59.2672 36.2511 59.8026C36.7001 60.914 37.3101 62.0051 37.8611 63.0791C38.4311 64.1455 38.9451 65.2313 39.4521 66.2742C39.9841 67.3032 40.3691 68.3718 40.7961 69.3472C40.9841 69.8483 41.1421 70.3484 41.3081 70.8249C41.3891 71.0636 41.4691 71.2981 41.5481 71.5294C41.6051 71.7682 41.6611 72.0027 41.7161 72.2318C41.8151 72.6922 41.9521 73.1237 42.0061 73.551C42.0511 73.9793 42.0951 74.3862 42.1351 74.7684C42.1991 75.5319 42.1341 76.2032 42.1411 76.7504C42.0121 77.8372 41.9371 78.4582 41.9371 78.4582C41.9371 78.4582 41.9791 77.8361 42.0521 76.7461C42.0161 76.2021 42.0471 75.5372 41.9451 74.7888C41.8861 74.4161 41.8231 74.021 41.7571 73.6034C41.6831 73.1891 41.5421 72.7661 41.4301 72.3185C41.3701 72.0958 41.3091 71.8678 41.2461 71.6365C41.1621 71.4116 41.0761 71.1825 40.9891 70.9491C40.8111 70.4844 40.6411 69.9993 40.4421 69.5111C39.9891 68.556 39.5761 67.5216 39.0451 66.499C38.5311 65.469 38.0131 64.4004 37.4311 63.3371C36.8661 62.26 36.2611 61.2128 35.7691 60.0317C35.4791 59.4685 35.3431 58.8421 35.1781 58.2297C34.9771 57.6258 34.9401 56.9876 34.8661 56.3634C34.7361 55.1138 34.8411 53.8685 35.0441 52.6993C35.2551 51.5279 35.6181 50.4411 36.0201 49.4442C36.4391 48.4548 36.9001 47.5565 37.3701 46.7566C38.3121 45.1591 39.2911 43.9802 39.9841 43.1771C40.6841 42.3784 41.1261 41.9683 41.1261 41.9683Z" fill="white"/>
<path d="M54.004 41.9683C54.004 41.9683 54.445 42.3784 55.146 43.1782C55.839 43.9813 56.817 45.1602 57.76 46.7577C58.23 47.5576 58.691 48.4548 59.109 49.4453C59.51 50.4421 59.874 51.5289 60.085 52.7003C60.288 53.8696 60.393 55.1149 60.263 56.3644C60.189 56.9876 60.152 57.6258 59.95 58.2307C59.785 58.8432 59.649 59.4696 59.359 60.0328C58.867 61.2138 58.262 62.261 57.697 63.3382C57.116 64.4015 56.597 65.4701 56.084 66.5001C55.553 67.5216 55.139 68.557 54.687 69.5121C54.488 70.0004 54.318 70.4865 54.141 70.9501C54.054 71.1836 53.968 71.4127 53.884 71.6376C53.822 71.8699 53.76 72.0969 53.701 72.3196C53.589 72.7672 53.447 73.1901 53.373 73.6045C53.307 74.0221 53.244 74.4172 53.185 74.7898C53.082 75.5372 53.113 76.2021 53.078 76.7472C53.151 77.8372 53.193 78.4593 53.193 78.4593C53.193 78.4593 53.119 77.8382 52.989 76.7514C52.997 76.2054 52.931 75.5329 52.995 74.7695C53.035 74.3872 53.078 73.9814 53.124 73.552C53.178 73.1248 53.315 72.6933 53.414 72.2329C53.469 72.0038 53.525 71.7693 53.582 71.5305C53.66 71.3003 53.74 71.0647 53.822 70.8259C53.988 70.3494 54.147 69.8494 54.334 69.3483C54.761 68.3729 55.146 67.3042 55.678 66.2753C56.185 65.2324 56.699 64.1466 57.269 63.0802C57.82 62.0073 58.43 60.9151 58.879 59.8037C59.164 59.2683 59.296 58.6719 59.46 58.0894C59.66 57.5155 59.698 56.9073 59.775 56.312C59.911 55.1192 59.822 53.9231 59.637 52.7924C59.435 51.6617 59.123 50.5931 58.758 49.6059C58.377 48.6251 57.949 47.7267 57.509 46.9237C56.619 45.3229 55.739 44.0755 55.081 43.2425C54.423 42.4041 54.004 41.9683 54.004 41.9683Z" fill="white"/>
<path d="M38.105 88.6658C38.801 88.214 39.593 87.9473 40.394 87.7642C41.202 87.6015 42.035 87.5769 42.858 87.6711C43.268 87.7343 43.678 87.7996 44.078 87.9206C44.478 88.0362 44.871 88.1872 45.25 88.3639C45.633 88.5362 46.003 88.7354 46.358 88.9646C46.726 89.1712 47.05 89.4496 47.398 89.6894L47.07 89.7066C48.396 88.3649 50.246 87.7021 52.032 87.7268C52.929 87.7493 53.814 87.912 54.661 88.1893C55.083 88.3339 55.495 88.5116 55.891 88.7215C56.285 88.9324 56.677 89.168 56.991 89.4989C56.639 89.2194 56.234 89.0374 55.832 88.8671C55.427 88.7011 55.009 88.5759 54.589 88.4699C53.751 88.2514 52.888 88.1508 52.035 88.184C51.184 88.2172 50.337 88.3671 49.55 88.6947C48.758 89.0149 48.051 89.5203 47.415 90.1124L47.263 90.2537L47.087 90.1285C46.758 89.894 46.453 89.6188 46.105 89.4164C45.77 89.1915 45.421 88.9945 45.059 88.8232C44.701 88.6487 44.33 88.4988 43.952 88.381C43.576 88.2504 43.191 88.1604 42.802 88.078C42.41 88.0169 42.016 87.9709 41.619 87.9613C41.222 87.9516 40.825 87.9827 40.427 88.0191C39.637 88.1154 38.849 88.321 38.105 88.6658Z" fill="white"/>
<path d="M56.8489 91.6343C56.8489 91.6343 56.8429 91.7114 56.8309 91.8549C56.8109 91.9983 56.8189 92.2136 56.7609 92.478C56.6889 92.7371 56.6379 93.0776 56.4799 93.4214C56.3549 93.7822 56.1479 94.158 55.8989 94.5478C55.6389 94.9311 55.3239 95.3187 54.9559 95.6935C54.5819 96.0586 54.1589 96.4205 53.6879 96.7235C53.2249 97.0266 52.7479 97.3264 52.3379 97.6904C52.1439 97.9035 51.9669 98.0523 51.8109 98.3243C51.7019 98.5406 51.5949 98.8029 51.5619 99.0663C51.5329 99.3244 51.5229 99.5974 51.6229 99.8191C51.6599 99.9251 51.7409 100.05 51.7909 100.11C51.8949 100.217 52.0019 100.33 52.0929 100.364C52.2609 100.486 52.5589 100.561 52.7679 100.603C53.0589 100.636 53.3039 100.629 53.5339 100.59C54.0209 100.499 54.4759 100.281 54.7989 99.9443C55.1319 99.6231 55.2769 99.1488 55.3069 98.7194C55.3459 98.3029 55.2799 97.8746 55.2259 97.5116C55.1639 97.1411 55.1099 96.8188 55.0649 96.5522C55.0229 96.2845 55.0099 96.0704 55.0099 95.9248C55.0049 95.7802 55.0029 95.7031 55.0029 95.7031C55.0029 95.7031 55.0149 95.7791 55.0389 95.9226C55.0559 96.0661 55.1019 96.2706 55.1659 96.5308C55.2359 96.7899 55.3199 97.1047 55.4179 97.4656C55.5089 97.8339 55.6239 98.2451 55.6029 98.7547C55.5949 99.2366 55.4609 99.7955 55.0779 100.229C54.7129 100.661 54.1879 100.963 53.6139 101.072C53.3099 101.129 53.0059 101.135 52.7419 101.109C52.4069 101.053 52.1399 101.002 51.8239 100.803C51.6529 100.71 51.5579 100.605 51.4529 100.503C51.3099 100.346 51.2289 100.205 51.1559 100.033C51.0039 99.6938 51.0059 99.3201 51.0429 98.9753C51.0979 98.6273 51.2239 98.3157 51.4019 98.002C51.5499 97.7482 51.8129 97.4977 52.0239 97.2867C52.4949 96.8863 52.9909 96.5929 53.4539 96.3027C53.9099 96.0104 54.3279 95.7085 54.7059 95.383C55.0759 95.051 55.3969 94.702 55.6659 94.3529C55.9189 93.9942 56.1539 93.6601 56.3069 93.3293C56.4929 93.0123 56.5669 92.7029 56.6639 92.4555C56.7949 91.9405 56.8489 91.6343 56.8489 91.6343Z" fill="white"/>
<path d="M38.283 91.6821C38.283 91.6821 38.337 91.9884 38.471 92.5055C38.568 92.7529 38.642 93.0634 38.828 93.3793C38.981 93.7101 39.216 94.0442 39.469 94.4029C39.738 94.7519 40.06 95.0999 40.429 95.4329C40.807 95.7585 41.225 96.0615 41.68 96.3527C42.143 96.6429 42.64 96.9363 43.111 97.3367C43.322 97.5477 43.584 97.7982 43.733 98.052C43.911 98.3657 44.036 98.6773 44.091 99.0253C44.129 99.3701 44.131 99.7427 43.978 100.083C43.905 100.256 43.823 100.397 43.681 100.554C43.576 100.656 43.482 100.761 43.31 100.854C42.994 101.053 42.727 101.103 42.393 101.16C42.129 101.186 41.825 101.18 41.521 101.123C40.947 101.013 40.422 100.712 40.057 100.28C39.673 99.8455 39.539 99.2876 39.531 98.8058C39.51 98.2961 39.625 97.885 39.716 97.5166C39.813 97.1558 39.898 96.841 39.968 96.5808C40.032 96.3206 40.078 96.1161 40.094 95.9726C40.117 95.8302 40.13 95.7531 40.13 95.7531C40.13 95.7531 40.128 95.8302 40.123 95.9747C40.122 96.1204 40.111 96.3345 40.068 96.6022C40.024 96.8677 39.969 97.1911 39.907 97.5616C39.853 97.9246 39.787 98.3539 39.825 98.7694C39.856 99.1977 40.001 99.672 40.334 99.9943C40.656 100.329 41.112 100.549 41.599 100.639C41.829 100.677 42.074 100.685 42.365 100.651C42.573 100.609 42.871 100.534 43.039 100.412C43.129 100.378 43.237 100.265 43.34 100.158C43.39 100.096 43.471 99.9729 43.508 99.8669C43.609 99.6453 43.598 99.3722 43.569 99.1131C43.535 98.8486 43.428 98.5874 43.319 98.3711C43.162 98.0991 42.986 97.9503 42.792 97.7372C42.382 97.3731 41.905 97.0723 41.442 96.7703C40.971 96.4662 40.548 96.1043 40.174 95.7392C39.806 95.3644 39.491 94.9779 39.231 94.5935C38.982 94.2037 38.775 93.829 38.65 93.4671C38.492 93.1244 38.441 92.7829 38.369 92.5237C38.312 92.2593 38.319 92.044 38.3 91.9006C38.29 91.7592 38.283 91.6821 38.283 91.6821Z" fill="white"/>
<path d="M50.772 57.5704C50.772 59.5695 49.258 61.1906 47.391 61.1906C45.524 61.1906 44.01 59.5695 44.01 57.5704C44.01 55.5713 45.524 53.9502 47.391 53.9502C49.258 53.9502 50.772 55.5713 50.772 57.5704Z" stroke="white" stroke-width="0.5275" stroke-miterlimit="10"/>
<path d="M41.531 50.1254C41.531 50.1254 43.47 49.6425 44.055 51.042C44.641 52.4415 45.109 53.887 47.247 53.9416" stroke="white" stroke-width="0.5275" stroke-miterlimit="10"/>
<path d="M53.1841 50.1254C53.1841 50.1254 51.2461 49.6425 50.6601 51.042C50.0741 52.4415 49.4461 53.9052 47.5271 53.9619" stroke="white" stroke-width="0.5275" stroke-miterlimit="10"/>
<defs>
<linearGradient id="paint0_linear_12_3549" x1="49.9906" y1="-0.982037" x2="47.3157" y2="88.5939" gradientUnits="userSpaceOnUse">
<stop stop-color="#21D1FF"/>
<stop offset="1" stop-color="#993CFE"/>
</linearGradient>
<linearGradient id="paint1_linear_12_3549" x1="73.7236" y1="104.575" x2="21.2832" y2="104.575" gradientUnits="userSpaceOnUse">
<stop stop-color="#21D1FF"/>
<stop offset="1" stop-color="#993CFE"/>
</linearGradient>
<linearGradient id="paint2_linear_12_3549" x1="22.6126" y1="-1.79953" x2="19.9376" y2="87.7758" gradientUnits="userSpaceOnUse">
<stop stop-color="#21D1FF"/>
<stop offset="1" stop-color="#993CFE"/>
</linearGradient>
<linearGradient id="paint3_linear_12_3549" x1="20.3756" y1="-1.86538" x2="17.7007" y2="87.7085" gradientUnits="userSpaceOnUse">
<stop stop-color="#21D1FF"/>
<stop offset="1" stop-color="#993CFE"/>
</linearGradient>
<linearGradient id="paint4_linear_12_3549" x1="26.1595" y1="68.7928" x2="12.1329" y2="70.5426" gradientUnits="userSpaceOnUse">
<stop stop-color="#21D1FF"/>
<stop offset="1" stop-color="#993CFE"/>
</linearGradient>
<linearGradient id="paint5_linear_12_3549" x1="75.6436" y1="-0.215917" x2="72.9688" y2="89.3593" gradientUnits="userSpaceOnUse">
<stop stop-color="#21D1FF"/>
<stop offset="1" stop-color="#993CFE"/>
</linearGradient>
<linearGradient id="paint6_linear_12_3549" x1="55.8592" y1="34.6349" x2="96.2682" y2="28.2231" gradientUnits="userSpaceOnUse">
<stop stop-color="#21D1FF"/>
<stop offset="1" stop-color="#993CFE"/>
</linearGradient>
<linearGradient id="paint7_linear_12_3549" x1="20.6946" y1="-1.85662" x2="18.0198" y2="87.7187" gradientUnits="userSpaceOnUse">
<stop stop-color="#21D1FF"/>
<stop offset="1" stop-color="#993CFE"/>
</linearGradient>
<linearGradient id="paint8_linear_12_3549" x1="39.1473" y1="34.6348" x2="-1.26127" y2="28.2231" gradientUnits="userSpaceOnUse">
<stop stop-color="#21D1FF"/>
<stop offset="1" stop-color="#993CFE"/>
</linearGradient>
<linearGradient id="paint9_linear_12_3549" x1="76.2609" y1="-0.19727" x2="73.586" y2="89.3778" gradientUnits="userSpaceOnUse">
<stop stop-color="#21D1FF"/>
<stop offset="1" stop-color="#993CFE"/>
</linearGradient>
<linearGradient id="paint10_linear_12_3549" x1="78.5342" y1="-0.128631" x2="75.8594" y2="89.445" gradientUnits="userSpaceOnUse">
<stop stop-color="#21D1FF"/>
<stop offset="1" stop-color="#993CFE"/>
</linearGradient>
<linearGradient id="paint11_linear_12_3549" x1="69.2675" y1="68.7929" x2="83.294" y2="70.5427" gradientUnits="userSpaceOnUse">
<stop stop-color="#21D1FF"/>
<stop offset="1" stop-color="#993CFE"/>
</linearGradient>
<linearGradient id="paint12_linear_12_3549" x1="48.9907" y1="-1.0123" x2="46.3158" y2="88.5634" gradientUnits="userSpaceOnUse">
<stop stop-color="#21D1FF"/>
<stop offset="1" stop-color="#993CFE"/>
</linearGradient>
<linearGradient id="paint13_linear_12_3549" x1="21.1509" y1="64.5191" x2="72.6797" y2="64.5191" gradientUnits="userSpaceOnUse">
<stop stop-color="#21D1FF"/>
<stop offset="1" stop-color="#993CFE"/>
</linearGradient>
<linearGradient id="paint14_linear_12_3549" x1="20.9855" y1="79.7082" x2="72.7152" y2="79.7082" gradientUnits="userSpaceOnUse">
<stop stop-color="#21D1FF"/>
<stop offset="1" stop-color="#993CFE"/>
</linearGradient>
<linearGradient id="paint15_linear_12_3549" x1="73.9191" y1="64.54" x2="22.3904" y2="64.54" gradientUnits="userSpaceOnUse">
<stop stop-color="#21D1FF"/>
<stop offset="1" stop-color="#993CFE"/>
</linearGradient>
<linearGradient id="paint16_linear_12_3549" x1="74.5455" y1="79.5059" x2="22.0723" y2="79.5059" gradientUnits="userSpaceOnUse">
<stop stop-color="#21D1FF"/>
<stop offset="1" stop-color="#993CFE"/>
</linearGradient>
</defs>
</svg>
