<svg width="130" height="100" viewBox="0 0 130 100" fill="none" xmlns="http://www.w3.org/2000/svg">
<path d="M66.9471 33.5479H62.6841V90.972H66.9471V33.5479Z" fill="url(#paint0_linear_12_3782)" stroke="white" stroke-width="0.7402" stroke-miterlimit="10"/>
<path d="M75.7782 13.2223L67.2722 15.851L64.8172 24.9577L62.3632 15.851L53.8562 13.2223L62.3632 10.5936L64.8172 1.48584L67.2722 10.5936L75.7782 13.2223Z" fill="url(#paint1_linear_12_3782)" stroke="white" stroke-width="0.7402" stroke-miterlimit="10"/>
<path d="M64.7791 24.1493C64.9431 22.7156 65.7511 21.4478 66.7111 20.4285C69.8211 17.1252 74.5731 16.1166 78.8061 16.7697C87.4631 18.106 93.6721 27.4483 102.956 26.1216C107.061 25.5349 110.19 21.2637 109.421 16.8704C109.225 15.7461 108.912 14.6936 108.101 13.8894C107.211 13.0071 106.009 12.808 104.96 13.1399C103.857 13.49 102.924 14.428 102.7 15.7814C102.428 14.2974 103.232 12.7212 104.466 11.976C106.63 10.6708 109.321 11.386 110.875 13.1795C113.984 16.7687 113.802 22.8923 111.587 27.0853C108.726 32.5033 103.339 34.1383 97.9771 33.5462C91.3031 32.8095 85.5811 29.6283 83.2151 28.7064C78.1441 26.7309 75.3111 27.0532 71.8501 28.0736C69.0241 28.9066 66.2451 30.7044 64.9701 33.5205C65.2811 32.8331 64.9801 31.2441 64.9571 30.4528C64.9311 29.502 64.903 28.5512 64.877 27.6003C64.845 26.4514 64.8121 25.3004 64.7791 24.1493Z" fill="url(#paint2_linear_12_3782)" stroke="white" stroke-width="0.7402" stroke-miterlimit="10"/>
<path opacity="0.3" d="M110.875 13.1805C110.659 12.9321 110.418 12.7094 110.163 12.5049C113.824 18.8234 110.465 29.1143 103.058 29.9837C96.7149 30.729 90.7289 26.8079 84.8949 24.8206C75.2039 21.5206 70.8879 22.9318 64.8569 26.9086C64.8639 27.1388 64.8699 27.3701 64.8769 27.6003C64.9029 28.5511 64.9309 29.5019 64.9569 30.4527C64.9789 31.244 65.2799 32.833 64.9699 33.5204C66.2439 30.7043 69.0229 28.9066 71.8499 28.0735C75.3109 27.0531 78.1439 26.7308 83.2149 28.7063C85.5809 29.6282 91.3029 32.8094 97.9769 33.5461C103.339 34.1382 108.726 32.5032 111.587 27.0852C113.802 22.8933 113.984 16.7697 110.875 13.1805Z" fill="url(#paint3_linear_12_3782)"/>
<path d="M74.405 27.1788C74.405 27.1788 74.433 26.9582 74.483 26.5727C74.508 26.38 74.54 26.1455 74.575 25.8778C74.636 25.6123 74.702 25.3135 74.775 24.987C74.834 24.654 74.977 24.322 75.088 23.9548C75.192 23.5822 75.387 23.2299 75.548 22.8433C75.728 22.4686 75.95 22.0981 76.179 21.7276C76.433 21.3753 76.679 21.0027 76.983 20.6836C77.261 20.3378 77.595 20.0551 77.908 19.7542C78.246 19.4908 78.57 19.2135 78.919 19.0015C79.599 18.5464 80.286 18.2188 80.893 17.9939C81.498 17.7552 82.025 17.6342 82.394 17.5496C82.768 17.4842 82.982 17.4468 82.982 17.4468L83.056 18.2541C83.056 18.2541 82.858 18.2766 82.512 18.3152C82.167 18.373 81.668 18.4554 81.09 18.6449C80.509 18.8216 79.843 19.0904 79.178 19.4823C78.836 19.6622 78.517 19.9063 78.18 20.1365C77.869 20.4042 77.534 20.6547 77.252 20.9695C76.944 21.2576 76.69 21.6002 76.427 21.9257C76.188 22.2694 75.952 22.6153 75.758 22.9697C75.583 23.3359 75.371 23.6699 75.252 24.0276C75.124 24.3809 74.964 24.7021 74.891 25.0244C74.801 25.3425 74.719 25.6337 74.646 25.8928C74.596 26.1584 74.553 26.3907 74.517 26.5813C74.445 26.9604 74.405 27.1788 74.405 27.1788Z" fill="white"/>
<path d="M85.6602 29.6499C85.6602 29.6499 85.7042 29.485 85.7812 29.1959C85.8202 29.0513 85.8592 28.8736 85.9482 28.684C86.0372 28.4967 86.1001 28.26 86.2391 28.0459C86.3721 27.8285 86.4921 27.5726 86.6801 27.3499C86.8491 27.109 87.0471 26.8756 87.2741 26.6539C87.4851 26.4119 87.7511 26.2256 87.9991 26.005C88.2691 25.8187 88.5332 25.6089 88.8232 25.4483C89.9632 24.7491 91.2201 24.3293 92.1631 24.0606C93.1091 23.7982 93.7462 23.6772 93.7462 23.6772L93.8672 24.4782C93.8672 24.4782 93.2321 24.5478 92.3011 24.7287C91.3731 24.9161 90.1342 25.2245 88.9972 25.808C88.7062 25.9397 88.4422 26.1207 88.1692 26.2792C87.9192 26.4708 87.6481 26.6314 87.4331 26.8466C87.2001 27.0426 86.9931 27.2525 86.8141 27.472C86.6161 27.6743 86.4841 27.911 86.3391 28.1134C86.1881 28.3136 86.1132 28.5342 86.0132 28.713C85.9112 28.8907 85.8601 29.0663 85.8121 29.2066C85.7161 29.4893 85.6602 29.6499 85.6602 29.6499Z" fill="white"/>
<path d="M100.724 26.4375C100.724 26.4375 100.622 26.5093 100.442 26.6356C100.337 26.6977 100.269 26.778 100.189 26.8658C100.101 26.9429 100.008 27.0596 99.9171 27.2117C99.5201 27.7759 99.2601 28.776 99.2111 29.8007C99.1471 30.8276 99.2761 31.8705 99.4361 32.6329C99.5871 33.4016 99.8241 33.8685 99.8241 33.8685C99.8241 33.8685 99.5461 33.4263 99.3221 32.6671C99.0921 31.9144 98.8641 30.8725 98.8341 29.7964C98.7901 28.7268 98.9541 27.6079 99.3771 26.8487C99.4701 26.6581 99.5781 26.4868 99.7091 26.3422C99.8281 26.1912 99.9371 26.066 100.018 26.0082C100.185 25.8647 100.281 25.7822 100.281 25.7822L100.724 26.4375Z" fill="white"/>
<path d="M107.591 23.1865C107.591 23.1865 107.645 23.2733 107.738 23.4242C107.831 23.5998 107.968 23.753 108.131 23.9371C108.319 24.1191 108.57 24.3119 108.874 24.4639C109.032 24.5207 109.187 24.6128 109.365 24.6502C109.538 24.7027 109.717 24.7477 109.902 24.7691C110.639 24.8912 111.41 24.7948 111.968 24.6663C112.248 24.5988 112.479 24.5239 112.634 24.4554C112.791 24.3922 112.868 24.3269 112.868 24.3269C112.868 24.3269 112.799 24.4018 112.647 24.4864C112.499 24.5764 112.276 24.6834 112.001 24.7884C111.45 24.9918 110.678 25.1974 109.872 25.1738C109.671 25.176 109.47 25.1535 109.27 25.1214C109.069 25.1042 108.879 25.0271 108.69 24.9832C108.317 24.8537 107.99 24.6674 107.723 24.4661C107.455 24.2348 107.248 24.026 107.16 23.8922C107.05 23.7551 106.987 23.6759 106.987 23.6759L107.591 23.1865Z" fill="white"/>
<path d="M64.7523 24.1493C64.5893 22.7156 63.7803 21.4478 62.8203 20.4285C59.7103 17.1252 54.9583 16.1166 50.7253 16.7697C42.0683 18.106 35.8603 27.4483 26.5763 26.1216C22.4693 25.5349 19.3423 21.2637 20.1103 16.8704C20.3073 15.7461 20.6203 14.6936 21.4313 13.8894C22.3213 13.0071 23.5223 12.808 24.5713 13.1399C25.6743 13.49 26.6083 14.428 26.8323 15.7814C27.1043 14.2974 26.3003 12.7212 25.0653 11.976C22.9013 10.6708 20.2113 11.386 18.6573 13.1795C15.5483 16.7687 15.7293 22.8923 17.9443 27.0853C20.8053 32.5033 26.1923 34.1383 31.5543 33.5462C38.2293 32.8095 43.9503 29.6283 46.3173 28.7064C51.3873 26.7309 54.2203 27.0532 57.6823 28.0736C60.5083 28.9066 63.2863 30.7044 64.5623 33.5205C64.2513 32.8331 64.5523 31.2441 64.5753 30.4528C64.6013 29.502 64.6283 28.5512 64.6553 27.6003C64.6873 26.4514 64.7203 25.3004 64.7523 24.1493Z" fill="url(#paint4_linear_12_3782)" stroke="white" stroke-width="0.7402" stroke-miterlimit="10"/>
<path opacity="0.3" d="M18.6572 13.1805C18.8722 12.9321 19.1132 12.7094 19.3682 12.5049C15.7072 18.8234 19.0662 29.1143 26.4732 29.9837C32.8152 30.729 38.8012 26.8079 44.6362 24.8206C54.3262 21.5206 58.6432 22.9318 64.6742 26.9086C64.6672 27.1388 64.6602 27.3701 64.6542 27.6003C64.6272 28.5511 64.6002 29.5019 64.5742 30.4527C64.5522 31.244 64.2502 32.833 64.5612 33.5204C63.2862 30.7043 60.5072 28.9066 57.6812 28.0735C54.2192 27.0531 51.3862 26.7308 46.3162 28.7063C43.9502 29.6282 38.2282 32.8094 31.5532 33.5461C26.1912 34.1382 20.8042 32.5032 17.9432 27.0852C15.7292 22.8933 15.5482 16.7697 18.6572 13.1805Z" fill="url(#paint5_linear_12_3782)"/>
<path d="M55.1261 27.1786C55.1261 27.1786 55.0861 26.9602 55.0161 26.5779C54.9801 26.3873 54.9371 26.1549 54.8871 25.8894C54.8141 25.6314 54.7321 25.3391 54.6421 25.021C54.5691 24.6987 54.4091 24.3775 54.2811 24.0242C54.1621 23.6655 53.9501 23.3325 53.7751 22.9663C53.5811 22.6119 53.345 22.2671 53.106 21.9223C52.842 21.5968 52.5881 21.2542 52.2811 20.9661C51.9991 20.6524 51.6641 20.4008 51.3531 20.1331C51.0161 19.9029 50.697 19.6587 50.355 19.4788C49.69 19.087 49.0241 18.8182 48.4431 18.6415C47.8651 18.452 47.3661 18.3696 47.0211 18.3117C46.6751 18.2721 46.4771 18.2507 46.4771 18.2507L46.5511 17.4434C46.5511 17.4434 46.7651 17.4808 47.1391 17.5462C47.5081 17.6307 48.035 17.7517 48.64 17.9905C49.247 18.2154 49.934 18.543 50.614 18.9981C50.963 19.209 51.2871 19.4874 51.6251 19.7508C51.9381 20.0517 52.272 20.3344 52.55 20.6802C52.854 20.9993 53.1001 21.3719 53.3541 21.7242C53.5821 22.0958 53.805 22.4652 53.985 22.8399C54.146 23.2265 54.3411 23.5787 54.4451 23.9514C54.5551 24.3186 54.6991 24.6506 54.7581 24.9836C54.8311 25.3101 54.8981 25.6099 54.9581 25.8744C54.9931 26.1432 55.024 26.3766 55.05 26.5693C55.097 26.9569 55.1261 27.1786 55.1261 27.1786Z" fill="white"/>
<path d="M43.872 29.6499C43.872 29.6499 43.816 29.4893 43.72 29.2066C43.672 29.0663 43.62 28.8907 43.519 28.713C43.419 28.5342 43.344 28.3136 43.193 28.1134C43.048 27.911 42.917 27.6733 42.718 27.472C42.539 27.2525 42.332 27.0426 42.099 26.8466C41.884 26.6314 41.613 26.4708 41.363 26.2792C41.09 26.1207 40.826 25.9397 40.535 25.808C39.398 25.2256 38.159 24.9161 37.231 24.7287C36.3 24.5478 35.666 24.4782 35.666 24.4782L35.787 23.6772C35.787 23.6772 36.424 23.7982 37.37 24.0606C38.312 24.3293 39.57 24.7491 40.709 25.4483C41 25.6078 41.265 25.8187 41.534 26.005C41.782 26.2256 42.048 26.4119 42.259 26.6539C42.486 26.8756 42.684 27.109 42.853 27.3499C43.042 27.5726 43.162 27.8285 43.294 28.0459C43.433 28.26 43.496 28.4967 43.585 28.684C43.674 28.8725 43.713 29.0502 43.752 29.1959C43.828 29.485 43.872 29.6499 43.872 29.6499Z" fill="white"/>
<path d="M29.2521 25.7812C29.2521 25.7812 29.3481 25.8637 29.5151 26.0072C29.5961 26.065 29.7051 26.1892 29.8241 26.3412C29.9551 26.4858 30.0641 26.6561 30.1561 26.8477C30.5801 27.6069 30.7441 28.7269 30.7001 29.7955C30.6701 30.8705 30.4401 31.9134 30.2121 32.6651C29.9881 33.4253 29.7101 33.8675 29.7101 33.8675C29.7101 33.8675 29.9461 33.3996 30.0981 32.6308C30.2561 31.8684 30.3861 30.8255 30.3221 29.7998C30.2741 28.7751 30.0131 27.775 29.6161 27.2107C29.5251 27.0576 29.4321 26.9419 29.3441 26.8649C29.2651 26.776 29.1971 26.6967 29.0911 26.6346C28.9111 26.5083 28.8091 26.4365 28.8091 26.4365L29.2521 25.7812Z" fill="white"/>
<path d="M22.5451 23.6773C22.5451 23.6773 22.4821 23.7555 22.3721 23.8936C22.2831 24.0274 22.0771 24.2362 21.8091 24.4675C21.5411 24.6688 21.2141 24.8551 20.8411 24.9847C20.6521 25.0286 20.4621 25.1057 20.2611 25.1228C20.0621 25.155 19.8611 25.1774 19.6591 25.1753C18.8531 25.1999 18.0811 24.9943 17.5301 24.7898C17.2551 24.6849 17.0321 24.5778 16.8831 24.4879C16.7321 24.4033 16.6621 24.3283 16.6621 24.3283C16.6621 24.3283 16.7391 24.3936 16.8961 24.4568C17.0511 24.5253 17.2821 24.6014 17.5621 24.6678C18.1211 24.7963 18.8911 24.8926 19.6281 24.7705C19.8131 24.7481 19.9921 24.7031 20.1651 24.6517C20.3431 24.6142 20.4981 24.5221 20.6561 24.4654C20.9601 24.3133 21.2111 24.1206 21.3991 23.9386C21.5621 23.7533 21.6991 23.6013 21.7921 23.4257C21.8851 23.2747 21.9381 23.188 21.9381 23.188L22.5451 23.6773Z" fill="white"/>
<path d="M28.7141 80.1792L31.0461 32.9614L39.8771 81.6846" stroke="white" stroke-width="0.4935" stroke-miterlimit="10"/>
<path d="M14.39 76.7635L31.019 32.9614L3.68604 73.048" stroke="white" stroke-width="0.4935" stroke-miterlimit="10"/>
<path d="M6.98915 82.6108L33.0902 88.8447C37.2162 89.8308 41.3072 87.048 42.2282 82.6301L42.3372 82.1065L1.29417 72.3027L1.18516 72.8274C0.26516 77.2453 2.86315 81.6257 6.98915 82.6108Z" fill="url(#paint6_linear_12_3782)" stroke="white" stroke-width="0.7402" stroke-miterlimit="10"/>
<path opacity="0.3" d="M11.0041 74.622C11.2971 77.5333 11.3721 80.495 13.2231 82.856C13.6941 83.4567 14.2251 83.9921 14.7961 84.475L7.47912 82.7275C3.08212 81.6782 0.314125 77.0097 1.29413 72.3027L11.0041 74.622Z" fill="url(#paint7_linear_12_3782)"/>
<path d="M1.51904 75.0952L41.558 84.658" stroke="white" stroke-width="0.8217" stroke-miterlimit="10"/>
<path d="M34.5132 34.0022C34.5132 36.4231 32.6802 38.3847 30.4202 38.3847C28.1592 38.3847 26.3262 36.4221 26.3262 34.0022C26.3262 31.5823 28.1592 29.6196 30.4202 29.6196C32.6802 29.6196 34.5132 31.5812 34.5132 34.0022Z" fill="url(#paint8_linear_12_3782)" stroke="white" stroke-width="0.8672" stroke-miterlimit="10"/>
<path d="M32.7463 34.0024C32.7463 35.3783 31.7043 36.494 30.4203 36.494C29.1353 36.494 28.0933 35.3783 28.0933 34.0024C28.0933 32.6265 29.1353 31.5107 30.4203 31.5107C31.7043 31.5107 32.7463 32.6265 32.7463 34.0024Z" fill="url(#paint9_linear_12_3782)" stroke="white" stroke-width="0.8672" stroke-miterlimit="10"/>
<path d="M101.704 80.7046L99.393 33.4868L90.54 82.2047" stroke="white" stroke-width="0.4935" stroke-miterlimit="10"/>
<path d="M116.029 77.2974L99.4209 33.4868L126.734 73.5873" stroke="white" stroke-width="0.4935" stroke-miterlimit="10"/>
<path d="M123.428 83.1491L97.3241 89.3701C93.1981 90.3531 89.1081 87.5681 88.1891 83.1502L88.0811 82.6255L129.128 72.8442L129.237 73.3689C130.154 77.7879 127.554 82.1662 123.428 83.1491Z" fill="url(#paint10_linear_12_3782)" stroke="white" stroke-width="0.7402" stroke-miterlimit="10"/>
<path opacity="0.3" d="M119.416 75.1581C119.122 78.0684 119.046 81.0312 117.193 83.3911C116.722 83.9918 116.191 84.5261 115.62 85.009L122.937 83.2658C127.334 82.2176 130.105 77.5523 129.126 72.8442L119.416 75.1581Z" fill="url(#paint11_linear_12_3782)"/>
<path d="M89.083 84.9009L129.433 75.5083" stroke="white" stroke-width="0.8217" stroke-miterlimit="10"/>
<path d="M103.308 34.0022C103.308 36.4231 101.476 38.3847 99.2151 38.3847C96.9541 38.3847 95.1221 36.4221 95.1221 34.0022C95.1221 31.5823 96.9541 29.6196 99.2151 29.6196C101.476 29.6196 103.308 31.5812 103.308 34.0022Z" fill="url(#paint12_linear_12_3782)" stroke="white" stroke-width="0.8672" stroke-miterlimit="10"/>
<path d="M101.543 34.0024C101.543 35.3783 100.501 36.494 99.2162 36.494C97.9312 36.494 96.8892 35.3783 96.8892 34.0024C96.8892 32.6265 97.9312 31.5107 99.2162 31.5107C100.501 31.5107 101.543 32.6265 101.543 34.0024Z" fill="url(#paint13_linear_12_3782)" stroke="white" stroke-width="0.8672" stroke-miterlimit="10"/>
<path d="M64.8172 35.2023C68.4711 35.2023 71.4332 32.0306 71.4332 28.1182C71.4332 24.2058 68.4711 21.0342 64.8172 21.0342C61.1633 21.0342 58.2012 24.2058 58.2012 28.1182C58.2012 32.0306 61.1633 35.2023 64.8172 35.2023Z" fill="url(#paint14_linear_12_3782)" stroke="white" stroke-width="0.8672" stroke-miterlimit="10"/>
<path d="M83.9061 99.339H45.7251V98.8186C45.7251 94.4328 49.0451 90.8779 53.1421 90.8779H76.4891C80.5861 90.8779 83.9061 94.4328 83.9061 98.8186V99.339Z" fill="url(#paint15_linear_12_3782)" stroke="white" stroke-width="0.7402" stroke-miterlimit="10"/>
<path d="M46.3472 96.2949L83.3962 96.2134" stroke="white" stroke-width="0.8672" stroke-miterlimit="10"/>
<path d="M60.0581 28.6742H62.6441C59.8501 21.7101 69.5651 22.2455 66.8551 28.6742H69.2311" stroke="white" stroke-width="0.5206" stroke-miterlimit="10"/>
<path d="M60.1411 30.9517H68.9801" stroke="white" stroke-width="0.5206" stroke-miterlimit="10"/>
<defs>
<linearGradient id="paint0_linear_12_3782" x1="64.0027" y1="3.17679" x2="65.4278" y2="93.4931" gradientUnits="userSpaceOnUse">
<stop stop-color="#21D1FF"/>
<stop offset="1" stop-color="#993CFE"/>
</linearGradient>
<linearGradient id="paint1_linear_12_3782" x1="64.729" y1="6.79802" x2="66.1542" y2="97.1138" gradientUnits="userSpaceOnUse">
<stop stop-color="#21D1FF"/>
<stop offset="1" stop-color="#993CFE"/>
</linearGradient>
<linearGradient id="paint2_linear_12_3782" x1="88.7391" y1="2.78675" x2="90.1642" y2="93.1032" gradientUnits="userSpaceOnUse">
<stop stop-color="#21D1FF"/>
<stop offset="1" stop-color="#993CFE"/>
</linearGradient>
<linearGradient id="paint3_linear_12_3782" x1="88.759" y1="2.78637" x2="90.1842" y2="93.103" gradientUnits="userSpaceOnUse">
<stop stop-color="#21D1FF"/>
<stop offset="1" stop-color="#993CFE"/>
</linearGradient>
<linearGradient id="paint4_linear_12_3782" x1="40.7801" y1="3.68607" x2="39.355" y2="94.0025" gradientUnits="userSpaceOnUse">
<stop stop-color="#21D1FF"/>
<stop offset="1" stop-color="#993CFE"/>
</linearGradient>
<linearGradient id="paint5_linear_12_3782" x1="40.7605" y1="3.68569" x2="39.3354" y2="94.0024" gradientUnits="userSpaceOnUse">
<stop stop-color="#21D1FF"/>
<stop offset="1" stop-color="#993CFE"/>
</linearGradient>
<linearGradient id="paint6_linear_12_3782" x1="38.0246" y1="4.47522" x2="15.7391" y2="91.7144" gradientUnits="userSpaceOnUse">
<stop stop-color="#21D1FF"/>
<stop offset="1" stop-color="#993CFE"/>
</linearGradient>
<linearGradient id="paint7_linear_12_3782" x1="25.2307" y1="1.25712" x2="2.96019" y2="88.4375" gradientUnits="userSpaceOnUse">
<stop stop-color="#21D1FF"/>
<stop offset="1" stop-color="#993CFE"/>
</linearGradient>
<linearGradient id="paint8_linear_12_3782" x1="30.0027" y1="3.71361" x2="31.4277" y2="94.03" gradientUnits="userSpaceOnUse">
<stop stop-color="#21D1FF"/>
<stop offset="1" stop-color="#993CFE"/>
</linearGradient>
<linearGradient id="paint9_linear_12_3782" x1="30.0028" y1="3.71297" x2="31.4279" y2="94.032" gradientUnits="userSpaceOnUse">
<stop stop-color="#21D1FF"/>
<stop offset="1" stop-color="#993CFE"/>
</linearGradient>
<linearGradient id="paint10_linear_12_3782" x1="92.192" y1="3.93234" x2="114.432" y2="91.1901" gradientUnits="userSpaceOnUse">
<stop stop-color="#21D1FF"/>
<stop offset="1" stop-color="#993CFE"/>
</linearGradient>
<linearGradient id="paint11_linear_12_3782" x1="104.989" y1="0.724701" x2="127.213" y2="87.9206" gradientUnits="userSpaceOnUse">
<stop stop-color="#21D1FF"/>
<stop offset="1" stop-color="#993CFE"/>
</linearGradient>
<linearGradient id="paint12_linear_12_3782" x1="98.784" y1="2.6282" x2="100.209" y2="92.9446" gradientUnits="userSpaceOnUse">
<stop stop-color="#21D1FF"/>
<stop offset="1" stop-color="#993CFE"/>
</linearGradient>
<linearGradient id="paint13_linear_12_3782" x1="98.7841" y1="2.62755" x2="100.209" y2="92.9467" gradientUnits="userSpaceOnUse">
<stop stop-color="#21D1FF"/>
<stop offset="1" stop-color="#993CFE"/>
</linearGradient>
<linearGradient id="paint14_linear_12_3782" x1="64.4741" y1="3.16869" x2="65.8992" y2="93.4868" gradientUnits="userSpaceOnUse">
<stop stop-color="#21D1FF"/>
<stop offset="1" stop-color="#993CFE"/>
</linearGradient>
<linearGradient id="paint15_linear_12_3782" x1="63.4954" y1="3.10495" x2="64.9217" y2="93.497" gradientUnits="userSpaceOnUse">
<stop stop-color="#21D1FF"/>
<stop offset="1" stop-color="#993CFE"/>
</linearGradient>
</defs>
</svg>
