<svg width="100" height="103" viewBox="0 0 100 103" fill="none" xmlns="http://www.w3.org/2000/svg">
<path d="M51.8008 17.0849C51.8008 17.0849 43.0038 9.85098 49.3678 3.55606C56.6158 -3.61151 80.8038 6.2383 81.2778 24.351C78.9588 23.669 78.9588 23.669 78.9588 23.669C78.9588 23.669 78.0539 12.8876 66.8499 6.81862C57.5519 1.7829 51.9889 3.35904 50.1029 6.48669C47.3649 11.0288 54.3929 15.936 54.3929 15.936L51.8008 17.0849Z" fill="url(#paint0_linear_12_4133)" stroke="white" stroke-width="0.5" stroke-miterlimit="10"/>
<path d="M44.5879 53.0127C44.5879 53.0127 33.791 55.7377 37.178 64.2769C41.035 74.0004 66.8669 75.6643 74.2489 59.3601C71.8739 58.9607 71.8739 58.9607 71.8739 58.9607C71.8739 58.9607 66.91 68.3918 54.367 68.9936C43.958 69.4947 39.49 65.6089 38.971 61.9266C38.218 56.5804 46.509 55.1991 46.509 55.1991L44.5879 53.0127Z" fill="url(#paint1_linear_12_4133)" stroke="white" stroke-width="0.5" stroke-miterlimit="10"/>
<path d="M95.5241 29.3003C98.8241 30.0594 100.059 37.8491 98.2821 46.701C96.5061 55.5507 92.3891 62.109 89.0911 61.3498C88.5361 61.2224 88.0401 60.8958 87.6091 60.3979C85.4611 57.9438 84.8531 51.3137 86.3311 43.9502C87.8091 36.591 90.9041 30.8175 93.8041 29.5166C94.3881 29.2521 94.9681 29.1718 95.5241 29.3003Z" fill="url(#paint2_linear_12_4133)" stroke="white" stroke-width="0.5" stroke-miterlimit="10"/>
<path d="M93.935 29.5407C97.235 30.2999 98.522 37.8315 96.809 46.3611C95.097 54.8906 91.0331 61.1898 87.7341 60.4307C87.6911 60.421 87.6511 60.4092 87.6091 60.3975C85.4601 57.9433 84.852 51.3133 86.331 43.9497C87.809 36.5905 90.9031 30.816 93.8031 29.5161C93.8471 29.5225 93.89 29.53 93.935 29.5407Z" fill="url(#paint3_linear_12_4133)" stroke="white" stroke-width="0.5" stroke-miterlimit="10"/>
<path opacity="0.3" d="M93.935 29.5407C97.235 30.2999 98.522 37.8315 96.809 46.3611C95.097 54.8906 91.0331 61.1898 87.7341 60.4307C87.6911 60.421 87.6511 60.4092 87.6091 60.3975C85.4601 57.9433 84.852 51.3133 86.331 43.9497C87.809 36.5905 90.9031 30.816 93.8031 29.5161C93.8471 29.5225 93.89 29.53 93.935 29.5407Z" fill="url(#paint4_linear_12_4133)" stroke="white" stroke-width="0.5" stroke-miterlimit="10"/>
<path d="M91.3819 51.4626C87.4259 57.6012 81.7179 60.792 75.5409 62.199C59.5539 65.8428 40.4299 57.5455 40.4299 57.5455L46.7019 34.5341C46.6799 34.5288 46.6699 34.5256 46.6699 34.5256L49.7009 11.3696C49.7009 11.3696 69.6299 11.7626 82.8619 21.5171C88.3479 25.5613 92.6829 31.2138 93.9699 39.1137C93.9749 39.1448 93.9799 39.1769 93.9849 39.208C94.6329 43.2961 93.8059 47.5127 91.6839 50.9819C91.5849 51.1446 91.4839 51.3042 91.3819 51.4626Z" fill="url(#paint5_linear_12_4133)" stroke="white" stroke-width="0.5" stroke-miterlimit="10"/>
<g opacity="0.3">
<path d="M56.429 11.9713C52.382 11.4231 49.7 11.3706 49.7 11.3706L46.669 34.5266C46.669 34.5266 46.679 34.5298 46.701 34.534L40.429 57.5465C40.429 57.5465 43.029 58.674 47.11 59.915C55.319 51.7731 60.472 18.2405 56.429 11.9713Z" fill="url(#paint6_linear_12_4133)" stroke="white" stroke-width="0.5" stroke-miterlimit="10"/>
</g>
<mask id="mask0_12_4133" style="mask-type:luminance" maskUnits="userSpaceOnUse" x="40" y="11" width="55" height="53">
<path d="M91.3819 51.4626C87.4259 57.6012 81.7179 60.792 75.5409 62.199C59.5539 65.8428 40.4299 57.5455 40.4299 57.5455L46.7019 34.5341C46.6799 34.5288 46.6699 34.5256 46.6699 34.5256L49.7009 11.3696C49.7009 11.3696 69.6299 11.7626 82.8619 21.5171C88.3479 25.5613 92.6829 31.2138 93.9699 39.1137C93.9749 39.1448 93.9799 39.1769 93.9849 39.208C94.6329 43.2961 93.8059 47.5127 91.6839 50.9819C91.5849 51.1446 91.4839 51.3042 91.3819 51.4626Z" fill="white"/>
</mask>
<g mask="url(#mask0_12_4133)">
<path d="M46.896 60.1248C55.325 52.272 60.633 17.6633 56.292 11.9155" stroke="white" stroke-width="0.5637" stroke-miterlimit="10"/>
<path d="M42.2439 56.3042L48.3669 58.359" stroke="white" stroke-width="0.5637" stroke-miterlimit="10"/>
<path d="M43.6489 53.8022L50.0459 55.7296" stroke="white" stroke-width="0.5637" stroke-miterlimit="10"/>
<path d="M44.875 51.0498L51.272 52.9761" stroke="white" stroke-width="0.5637" stroke-miterlimit="10"/>
<path d="M45.7449 48.2148L52.4979 50.2246" stroke="white" stroke-width="0.5637" stroke-miterlimit="10"/>
<path d="M46.7148 45.3281L53.4598 47.3732" stroke="white" stroke-width="0.5637" stroke-miterlimit="10"/>
<path d="M47.5259 42.5186L54.3119 44.5358" stroke="white" stroke-width="0.5637" stroke-miterlimit="10"/>
<path d="M48.188 39.7505L54.922 41.68" stroke="white" stroke-width="0.5637" stroke-miterlimit="10"/>
<path d="M48.8499 36.9819L55.7098 38.6373" stroke="white" stroke-width="0.5637" stroke-miterlimit="10"/>
<path d="M50.8169 13.4243L57.1879 14.2467" stroke="white" stroke-width="0.5637" stroke-miterlimit="10"/>
<path d="M51.1379 16.3237L57.7099 17.3806" stroke="white" stroke-width="0.5637" stroke-miterlimit="10"/>
<path d="M51.199 19.3721L57.77 20.4299" stroke="white" stroke-width="0.5637" stroke-miterlimit="10"/>
<path d="M50.978 22.3896L57.832 23.4786" stroke="white" stroke-width="0.5637" stroke-miterlimit="10"/>
<path d="M50.6799 25.3979L57.6139 26.5008" stroke="white" stroke-width="0.5637" stroke-miterlimit="10"/>
<path d="M50.3428 28.3159L57.3038 29.4637" stroke="white" stroke-width="0.5637" stroke-miterlimit="10"/>
<path d="M49.8838 31.1309L56.7618 32.3354" stroke="white" stroke-width="0.5637" stroke-miterlimit="10"/>
<path d="M49.429 33.9277L56.342 35.3111" stroke="white" stroke-width="0.5637" stroke-miterlimit="10"/>
<path d="M49.2759 60.4449C56.5959 51.5096 62.6199 23.2719 58.9329 12.3428" stroke="white" stroke-width="0.5637" stroke-miterlimit="10"/>
<path d="M60.5688 64.5929C61.3688 63.8241 64.3948 64.8242 65.1578 63.5565C65.7738 62.5307 63.7918 59.8057 64.3738 58.5176C64.8878 57.3847 68.1018 57.4404 68.5798 56.1469C69.0208 54.9541 66.6598 52.607 67.0678 51.3093C67.4558 50.0769 70.6609 49.7556 71.0139 48.4547C71.3559 47.1944 68.8168 45.0743 69.1228 43.7744C69.4258 42.4895 72.6008 41.9167 72.8648 40.6158C73.1298 39.3094 70.4628 37.3767 70.6848 36.0769C70.9118 34.7513 74.0458 33.9546 74.2238 32.6601C74.4098 31.3099 71.6238 29.5828 71.7528 28.2947C71.8908 26.922 74.9529 25.8523 75.0219 24.5813C75.0969 23.1712 72.1609 21.7663 72.1429 20.5264C72.1219 19.0509 74.9868 17.4502 74.8228 16.2873C74.5908 14.6534 71.5269 14.5142 70.9839 13.6812" stroke="white" stroke-width="0.5637" stroke-miterlimit="10"/>
<path d="M67.7178 64.972C68.4978 64.2675 71.3108 65.2826 72.0498 64.1165C72.6528 63.1646 70.8458 60.5681 71.4118 59.3678C71.9098 58.3099 74.9238 58.403 75.3868 57.192C75.8148 56.0752 73.6228 53.8502 74.0158 52.6317C74.3888 51.4764 77.3958 51.1905 77.7338 49.9698C78.0618 48.7856 75.6888 46.7844 75.9808 45.5627C76.2678 44.3548 79.2468 43.8184 79.4948 42.5935C79.7448 41.3653 77.2438 39.5515 77.4508 38.3287C77.6618 37.0813 80.5968 36.3189 80.7598 35.1004C80.9298 33.8305 78.3088 32.2222 78.4218 31.0112C78.5428 29.7188 81.4048 28.6834 81.4568 27.4874C81.5148 26.1597 78.7458 24.879 78.7118 23.713C78.6708 22.3285 81.3238 20.7652 81.1438 19.6742C80.8938 18.1601 78.0178 18.1141 77.4728 17.3335" stroke="white" stroke-width="0.5637" stroke-miterlimit="10"/>
</g>
<path d="M49.7191 11.5396C51.9191 12.0471 51.6391 22.7428 49.0921 35.429C46.5711 47.9845 42.7751 57.7851 40.5651 57.4917C40.5631 57.4938 40.5621 57.4938 40.5591 57.4928C40.5371 57.4949 40.5151 57.496 40.4941 57.4939C38.0921 57.2701 35.1091 42.4349 35.1091 42.4349L37.9121 32.8624L39.0311 22.9023C39.0311 22.9023 47.4421 10.6883 49.7191 11.5396Z" fill="url(#paint7_linear_12_4133)" stroke="white" stroke-width="0.5" stroke-miterlimit="10"/>
<path d="M38.6991 22.5275C38.8411 22.4718 38.9801 22.459 39.1131 22.489C40.4601 22.7984 40.6361 27.6028 39.5081 33.2189C38.3811 38.836 36.3761 43.1383 35.0291 42.8278C35.0291 42.8278 34.9151 42.7635 34.7121 42.6522C33.8011 42.1607 31.0951 40.7441 28.7241 40.0107C25.8221 39.1155 22.4541 40.2741 22.4541 40.2741L25.5141 30.0067L26.6641 19.3003C26.6641 19.3003 29.2901 21.839 32.2791 22.2994C34.6801 22.6699 37.6331 22.5779 38.6991 22.5275Z" fill="url(#paint8_linear_12_4133)" stroke="white" stroke-width="0.5" stroke-miterlimit="10"/>
<path d="M26.757 17.8217C28.195 18.1526 28.289 23.7515 26.969 30.3259C25.65 36.9014 23.414 41.9628 21.977 41.6319C21.101 41.8343 19.949 41.1094 19.697 40.271L21.026 33.9354C21.177 32.4449 21.424 30.8195 21.764 29.1278C22.168 27.1148 22.658 25.2442 23.186 23.6263L24.394 17.856C25.136 17.4716 26.221 17.3924 26.757 17.8217Z" fill="url(#paint9_linear_12_4133)" stroke="white" stroke-width="0.5" stroke-miterlimit="10"/>
<path d="M24.827 17.824C26.265 18.1549 26.396 23.5685 25.122 29.917C23.848 36.2655 21.649 41.1427 20.212 40.8129C18.774 40.481 18.643 35.0673 19.917 28.7188C21.191 22.3704 23.39 17.4931 24.827 17.824Z" fill="url(#paint10_linear_12_4133)" stroke="white" stroke-width="0.5" stroke-miterlimit="10"/>
<path d="M36.7419 32.5415C36.9449 32.6513 37.0589 32.7163 37.0589 32.7163C36.9459 32.6897 36.8389 32.63 36.7419 32.5415Z" fill="url(#paint11_linear_12_4133)"/>
<path d="M31.307 35.1839L29.886 32.7726L31.927 33.112L30.316 30.2221L32.396 30.5711L30.888 27.5752L32.744 27.8279" stroke="white" stroke-width="0.6453" stroke-miterlimit="10"/>
<path d="M34.5641 35.9334L33.1421 33.521L35.1821 33.8615L33.5731 30.9727L35.6521 31.3207L34.1451 28.3247L36.0011 28.5774" stroke="white" stroke-width="0.6453" stroke-miterlimit="10"/>
<path d="M26.7479 47.2322C30.6359 50.5654 35.0899 53.0442 39.5159 55.4919C43.9409 57.9407 48.4009 60.4034 52.3059 63.7142C56.2109 67.0249 59.4839 71.31 61.1269 76.3447C63.1919 82.6653 60.9259 91.9572 49.1719 97.9373C42.0049 101.583 18.1629 96.7574 24.3029 74.745C27.6389 62.7815 37.8539 65.8985 41.5339 67.5046C39.5839 66.2208 36.8219 67.177 35.4929 69.1739C34.1639 71.1698 31.5929 74.7974 36.2849 79.5987C38.0659 81.4221 41.8649 80.921 43.7069 79.1682C46.1669 76.8276 46.8739 72.763 45.7299 69.4598C44.5869 66.1555 41.8109 63.6617 38.6789 62.5824C36.9189 61.9763 35.0619 61.7772 33.2589 61.3403C25.7039 59.5104 19.2449 53.1834 16.8719 45.2888C16.0979 42.7115 15.7569 39.8108 16.8279 37.3578C18.1479 34.3351 22.1919 32.1036 22.3529 36.8759C22.4189 38.844 22.0139 40.48 22.8109 42.3753C23.6449 44.3529 25.1919 45.898 26.7479 47.2322Z" fill="url(#paint12_linear_12_4133)" stroke="white" stroke-width="0.5" stroke-miterlimit="10"/>
<path d="M40.23 66.9873C40.722 67.164 41.162 67.3417 41.534 67.5034C41.128 67.2379 40.686 67.073 40.23 66.9873Z" fill="url(#paint13_linear_12_4133)" stroke="white" stroke-width="0.5" stroke-miterlimit="10"/>
<path d="M31.387 70.6984C29.298 73.2361 28.574 76.9012 29.24 80.2088C30.251 85.2273 34.299 89.3004 38.811 90.7663C42.008 91.806 45.613 91.503 48.512 89.7245C52.359 87.3656 54.527 82.5098 53.736 77.8285C53.1 74.067 51.112 70.5774 48.865 67.6714C45.633 63.4891 41.3 60.2886 36.694 58.221C32.376 56.2819 27.521 54.6511 24.167 50.9806C20.239 46.6837 19.302 39.802 20.903 34.1378C19.562 33.8712 17.658 35.457 16.829 37.3565C15.758 39.8095 16.098 42.7102 16.873 45.2874C19.246 53.1821 25.705 59.5091 33.26 61.339C35.063 61.7759 36.92 61.975 38.68 62.5811C41.812 63.6604 44.588 66.1541 45.731 69.4585C46.875 72.7628 46.167 76.8274 43.708 79.1669C41.866 80.9208 38.067 81.4208 36.286 79.5974C31.594 74.7961 34.165 71.1684 35.494 69.1726C35.749 68.7893 36.059 68.4445 36.403 68.1458C34.565 68.1158 32.641 69.1737 31.387 70.6984Z" fill="url(#paint14_linear_12_4133)" stroke="white" stroke-width="0.5" stroke-miterlimit="10"/>
<g opacity="0.3">
<path d="M31.387 70.6984C29.298 73.2361 28.574 76.9012 29.24 80.2088C30.251 85.2273 34.299 89.3004 38.811 90.7663C42.008 91.806 45.613 91.503 48.512 89.7245C52.359 87.3656 54.527 82.5098 53.736 77.8285C53.1 74.067 51.112 70.5774 48.865 67.6714C45.633 63.4891 41.3 60.2886 36.694 58.221C32.376 56.2819 27.521 54.6511 24.167 50.9806C20.239 46.6837 19.302 39.802 20.903 34.1378C19.562 33.8712 17.658 35.457 16.829 37.3565C15.758 39.8095 16.098 42.7102 16.873 45.2874C19.246 53.1821 25.705 59.5091 33.26 61.339C35.063 61.7759 36.92 61.975 38.68 62.5811C41.812 63.6604 44.588 66.1541 45.731 69.4585C46.875 72.7628 46.167 76.8274 43.708 79.1669C41.866 80.9208 38.067 81.4208 36.286 79.5974C31.594 74.7961 34.165 71.1684 35.494 69.1726C35.749 68.7893 36.059 68.4445 36.403 68.1458C34.565 68.1158 32.641 69.1737 31.387 70.6984Z" fill="url(#paint15_linear_12_4133)"/>
</g>
<path d="M24.565 32.0131C22.098 30.4294 19.212 30.318 17.103 31.2903C9.551 34.7734 9.718 42.6145 13.056 47.9275C15.367 51.6066 17.482 55.2236 19.681 58.9819C20.886 61.0399 21.875 63.3463 21.885 65.7769C21.898 68.8499 19.369 74.0709 12.843 74.1865C10.363 74.2304 8.167 72.4144 6.815 70.1883C6.043 68.9163 5.47701 67.4269 5.59601 65.915C5.71401 64.4031 6.65701 62.9019 8.03601 62.5539C9.41601 62.207 11.044 63.3912 10.972 64.9074C11.107 63.6311 11.296 58.4455 5.849 59.8267C2.858 60.5848 1 64.3838 1 67.8573C1.001 71.1488 2.20499 74.028 4.06299 76.6492C10.202 85.3062 19.727 80.6977 22.434 79.0327C34.129 71.8384 32.553 57.8758 29.85 54.866C26.873 51.5499 24.896 47.5624 22.496 43.7484C21.047 41.4452 19.703 38.3615 21.144 36.0508C21.656 35.2306 23.77 35.0507 23.77 35.0507L24.565 32.0131Z" fill="url(#paint16_linear_12_4133)" stroke="white" stroke-width="0.5" stroke-miterlimit="10" stroke-linecap="round" stroke-linejoin="round"/>
<path d="M17.1031 31.292C9.55106 34.7751 9.71806 42.6162 13.0561 47.9292C15.3671 51.6083 17.4821 55.2253 19.6811 58.9836C20.8861 61.0416 21.8751 63.348 21.8851 65.7786C21.8981 68.8516 19.3691 74.0726 12.8431 74.1882C10.3631 74.2321 8.16707 72.4161 6.81507 70.19C6.04307 68.918 5.47707 67.4286 5.59607 65.9167C5.71407 64.4048 6.65708 62.9036 8.03608 62.5556C8.39307 62.4657 8.76606 62.4807 9.12406 62.5749C6.90806 60.9923 2.84805 62.2804 3.11805 66.588C3.65405 75.1272 12.722 80.4778 20.028 74.8349C23.2111 72.3765 25.4691 68.7531 24.9881 64.1457C24.4201 58.7009 15.4701 50.3449 14.5251 42.9931C13.7541 37.0012 19.0961 32.73 24.2411 33.0212L24.5701 31.9901C23.0721 30.7802 19.2131 30.3187 17.1031 31.292Z" fill="url(#paint17_linear_12_4133)" stroke="white" stroke-width="0.5" stroke-miterlimit="10"/>
<g opacity="0.3">
<path d="M17.1031 31.2922C9.55106 34.7753 9.71806 42.6164 13.0561 47.9294C15.3671 51.6085 17.4821 55.2255 19.6811 58.9838C20.8861 61.0418 21.8751 63.3482 21.8851 65.7788C21.8981 68.8518 19.3691 74.0728 12.8431 74.1884C10.3631 74.2323 8.16707 72.4163 6.81507 70.1903C6.04307 68.9182 5.47707 67.4288 5.59607 65.9169C5.71407 64.405 6.65708 62.9038 8.03608 62.5558C8.39307 62.4659 8.76606 62.4809 9.12406 62.5751C6.90806 60.9925 2.84805 62.2806 3.11805 66.5882C3.65405 75.1274 12.722 80.478 20.028 74.8351C23.2111 72.3767 25.4691 68.7533 24.9881 64.1459C24.4201 58.7011 15.4701 50.3451 14.5251 42.9933C13.7541 37.0014 19.1431 32.6553 24.2881 32.9454L24.5221 32.0149C23.0251 30.805 19.2131 30.3189 17.1031 31.2922Z" fill="url(#paint18_linear_12_4133)"/>
</g>
<path d="M24.0899 33.3724C20.7069 32.9195 18.172 35.3255 17.207 39.147C16.628 41.4394 17.0579 43.6098 17.8899 45.8113C21.2819 54.7777 29.0159 60.9013 36.8479 65.7239C46.3249 71.5584 48.4729 78.7153 48.3919 81.8355C48.3149 84.8121 47.3499 87.7299 45.5769 90.0224C43.1649 93.1383 37.329 96.919 31.777 92.4337C29.681 90.7408 28.6439 88.0983 28.8519 85.2972C28.9519 83.9481 29.3609 82.5753 30.2479 81.6127C31.1359 80.6491 32.563 80.1919 33.717 80.7444C34.869 81.299 35.4879 82.9929 34.7949 84.1236C36.8539 82.2862 35.963 78.4605 33.605 77.0953C31.248 75.7322 28.465 76.4593 26.268 78.1018C22.184 81.1523 20.1599 86.8102 23.6889 93.4659C26.6039 98.961 32.2939 102.383 38.1959 102.294C45.0749 102.19 50.0589 98.0315 52.9069 93.3974C55.6949 88.8606 56.6899 82.6931 55.5979 77.3886C54.0819 70.0219 48.815 64.5065 42.984 60.2717C37.154 56.038 30.723 52.4842 26.105 46.7857C24.633 44.9708 23.3299 42.8432 23.1279 40.449C22.9259 38.0548 24.4119 36.0268 24.0899 33.3724Z" fill="url(#paint19_linear_12_4133)" stroke="white" stroke-width="0.5" stroke-miterlimit="10" stroke-linejoin="round"/>
<path d="M27.4029 81.1518C25.2399 83.5814 25.4329 87.9296 26.8789 90.7254C28.7429 94.3316 32.2079 96.94 36.0099 97.5953C41.6779 98.5729 47.3039 95.3232 50.1849 90.2789C52.5379 86.1565 52.6629 82.7836 51.8589 78.5499C50.5239 71.5183 44.6949 66.4387 39.5599 62.4909C34.1799 58.3546 28.2109 54.577 24.3209 48.6783C22.2139 45.4842 19.6279 41.1338 21.4219 37.1356C21.8669 36.1431 23.0499 35.1408 24.0549 34.9749C24.0919 34.4181 24.1639 33.9791 24.0909 33.3719C20.4619 33.0132 18.1729 35.325 17.2079 39.1465C16.6289 41.4389 17.0589 43.6093 17.8909 45.8108C21.2829 54.7772 29.0169 60.9008 36.8489 65.7234C46.3259 71.5579 48.4739 78.7148 48.3929 81.835C48.3159 84.8117 47.3509 87.7294 45.5779 90.0219C43.1659 93.1378 37.3299 96.9186 31.7779 92.4332C29.6819 90.7404 28.6449 88.0978 28.8529 85.2967C28.9529 83.9476 29.3619 82.5749 30.2489 81.6123C31.0279 80.7653 32.2249 80.3102 33.2849 80.5876C31.9059 78.4953 29.2719 79.0521 27.4029 81.1518Z" fill="url(#paint20_linear_12_4133)" stroke="white" stroke-width="0.5" stroke-miterlimit="10"/>
<path opacity="0.3" d="M27.4029 81.152C25.2399 83.5815 25.4329 87.9297 26.8789 90.7255C28.7429 94.3317 32.2079 96.9401 36.0099 97.5954C41.6779 98.573 47.3039 95.3233 50.1849 90.279C52.5379 86.1566 52.6629 82.7837 51.8589 78.55C50.5239 71.5184 44.6949 66.4388 39.5599 62.491C34.1799 58.3547 28.2109 54.5771 24.3209 48.6784C22.2139 45.4843 19.6279 41.1339 21.4219 37.1357C21.8669 36.1432 23.0499 35.1217 24.0549 34.9568C24.0759 34.6484 24.1229 33.6055 24.0909 33.3346C21.2089 32.9609 18.1729 35.3251 17.2079 39.1466C16.6289 41.4391 17.0589 43.6095 17.8909 45.8109C21.2829 54.7773 29.0169 60.9009 36.8489 65.7235C46.3259 71.558 48.4739 78.7149 48.3929 81.8351C48.3159 84.8118 47.3509 87.7295 45.5779 90.022C43.1659 93.1379 37.3299 96.9187 31.7779 92.4333C29.6819 90.7405 28.6449 88.0979 28.8529 85.2968C28.9529 83.9477 29.3619 82.575 30.2489 81.6124C31.0279 80.7654 32.2249 80.3103 33.2849 80.5877C31.9059 78.4954 29.2719 79.0522 27.4029 81.152Z" fill="url(#paint21_linear_12_4133)"/>
<path d="M14.1861 56.1105C14.7561 56.9328 14.5971 58.0946 13.8301 58.7049C13.0621 59.3152 11.9771 59.145 11.4071 58.3237C10.8361 57.5025 10.9961 56.3407 11.7621 55.7293C12.5301 55.1179 13.6151 55.2892 14.1861 56.1105Z" fill="url(#paint22_linear_12_4133)" stroke="white" stroke-width="0.5" stroke-miterlimit="10"/>
<path d="M42.5681 73.854C43.1381 74.6763 42.9791 75.838 42.2121 76.4484C41.4441 77.0598 40.3601 76.8884 39.7891 76.0682C39.2191 75.2459 39.3781 74.0842 40.1461 73.4738C40.9131 72.8624 41.9971 73.0327 42.5681 73.854Z" fill="url(#paint23_linear_12_4133)" stroke="white" stroke-width="0.5" stroke-miterlimit="10"/>
<path d="M15.9959 68.5344C16.4069 69.1265 16.2919 69.9628 15.7389 70.4018C15.1869 70.8419 14.4059 70.7198 13.9949 70.1277C13.5839 69.5355 13.6989 68.6993 14.2519 68.2603C14.8039 67.8202 15.5849 67.9423 15.9959 68.5344Z" fill="url(#paint24_linear_12_4133)" stroke="white" stroke-width="0.5" stroke-miterlimit="10"/>
<path d="M38.7509 47.9161C39.2299 48.6067 39.0969 49.5832 38.4519 50.095C37.8069 50.6079 36.8959 50.4655 36.4169 49.7749C35.9379 49.0842 36.0709 48.1088 36.7159 47.5959C37.3599 47.083 38.2719 47.2254 38.7509 47.9161Z" fill="url(#paint25_linear_12_4133)" stroke="white" stroke-width="0.5" stroke-miterlimit="10"/>
<path d="M18.238 85.7436C18.809 86.566 18.649 87.7267 17.882 88.338C17.115 88.9494 16.03 88.7781 15.459 87.9568C14.889 87.1356 15.048 85.9738 15.816 85.3624C16.583 84.751 17.668 84.9213 18.238 85.7436Z" fill="url(#paint26_linear_12_4133)" stroke="white" stroke-width="0.5" stroke-miterlimit="10"/>
<defs>
<linearGradient id="paint0_linear_12_4133" x1="66.3505" y1="-16.9012" x2="56.6122" y2="112.568" gradientUnits="userSpaceOnUse">
<stop stop-color="#21D1FF"/>
<stop offset="1" stop-color="#993CFE"/>
</linearGradient>
<linearGradient id="paint1_linear_12_4133" x1="60.4669" y1="-17.3418" x2="50.7289" y2="112.123" gradientUnits="userSpaceOnUse">
<stop stop-color="#21D1FF"/>
<stop offset="1" stop-color="#993CFE"/>
</linearGradient>
<linearGradient id="paint2_linear_12_4133" x1="96.2414" y1="-14.6523" x2="86.5031" y2="114.815" gradientUnits="userSpaceOnUse">
<stop stop-color="#21D1FF"/>
<stop offset="1" stop-color="#993CFE"/>
</linearGradient>
<linearGradient id="paint3_linear_12_4133" x1="95.4848" y1="-14.7094" x2="85.7468" y2="114.757" gradientUnits="userSpaceOnUse">
<stop stop-color="#21D1FF"/>
<stop offset="1" stop-color="#993CFE"/>
</linearGradient>
<linearGradient id="paint4_linear_12_4133" x1="95.4848" y1="-14.7094" x2="85.7468" y2="114.757" gradientUnits="userSpaceOnUse">
<stop stop-color="#21D1FF"/>
<stop offset="1" stop-color="#993CFE"/>
</linearGradient>
<linearGradient id="paint5_linear_12_4133" x1="71.6797" y1="-16.4989" x2="61.9416" y2="112.967" gradientUnits="userSpaceOnUse">
<stop stop-color="#21D1FF"/>
<stop offset="1" stop-color="#993CFE"/>
</linearGradient>
<linearGradient id="paint6_linear_12_4133" x1="52.929" y1="-17.9098" x2="43.1909" y2="111.557" gradientUnits="userSpaceOnUse">
<stop stop-color="#21D1FF"/>
<stop offset="1" stop-color="#993CFE"/>
</linearGradient>
<linearGradient id="paint7_linear_12_4133" x1="46.3887" y1="-18.4028" x2="36.6504" y2="111.066" gradientUnits="userSpaceOnUse">
<stop stop-color="#21D1FF"/>
<stop offset="1" stop-color="#993CFE"/>
</linearGradient>
<linearGradient id="paint8_linear_12_4133" x1="34.8345" y1="-19.2697" x2="25.0966" y2="110.193" gradientUnits="userSpaceOnUse">
<stop stop-color="#21D1FF"/>
<stop offset="1" stop-color="#993CFE"/>
</linearGradient>
<linearGradient id="paint9_linear_12_4133" x1="27.1764" y1="-19.8475" x2="17.4382" y2="109.619" gradientUnits="userSpaceOnUse">
<stop stop-color="#21D1FF"/>
<stop offset="1" stop-color="#993CFE"/>
</linearGradient>
<linearGradient id="paint10_linear_12_4133" x1="25.7519" y1="-19.9536" x2="16.0138" y2="109.513" gradientUnits="userSpaceOnUse">
<stop stop-color="#21D1FF"/>
<stop offset="1" stop-color="#993CFE"/>
</linearGradient>
<linearGradient id="paint11_linear_12_4133" x1="40.2808" y1="-18.6662" x2="30.6219" y2="110.316" gradientUnits="userSpaceOnUse">
<stop stop-color="#21D1FF"/>
<stop offset="1" stop-color="#993CFE"/>
</linearGradient>
<linearGradient id="paint12_linear_12_4133" x1="44.189" y1="-18.5671" x2="34.4509" y2="110.9" gradientUnits="userSpaceOnUse">
<stop stop-color="#21D1FF"/>
<stop offset="1" stop-color="#993CFE"/>
</linearGradient>
<linearGradient id="paint13_linear_12_4133" x1="46.5044" y1="-18.4518" x2="36.7597" y2="111.103" gradientUnits="userSpaceOnUse">
<stop stop-color="#21D1FF"/>
<stop offset="1" stop-color="#993CFE"/>
</linearGradient>
<linearGradient id="paint14_linear_12_4133" x1="40.2205" y1="-18.8658" x2="30.4824" y2="110.601" gradientUnits="userSpaceOnUse">
<stop stop-color="#21D1FF"/>
<stop offset="1" stop-color="#993CFE"/>
</linearGradient>
<linearGradient id="paint15_linear_12_4133" x1="40.2205" y1="-18.8658" x2="30.4824" y2="110.601" gradientUnits="userSpaceOnUse">
<stop stop-color="#21D1FF"/>
<stop offset="1" stop-color="#993CFE"/>
</linearGradient>
<linearGradient id="paint16_linear_12_4133" x1="21.9989" y1="-20.2376" x2="12.2607" y2="109.23" gradientUnits="userSpaceOnUse">
<stop stop-color="#21D1FF"/>
<stop offset="1" stop-color="#993CFE"/>
</linearGradient>
<linearGradient id="paint17_linear_12_4133" x1="19.7401" y1="-20.4061" x2="10.0019" y2="109.061" gradientUnits="userSpaceOnUse">
<stop stop-color="#21D1FF"/>
<stop offset="1" stop-color="#993CFE"/>
</linearGradient>
<linearGradient id="paint18_linear_12_4133" x1="19.74" y1="-20.4056" x2="10.0019" y2="109.061" gradientUnits="userSpaceOnUse">
<stop stop-color="#21D1FF"/>
<stop offset="1" stop-color="#993CFE"/>
</linearGradient>
<linearGradient id="paint19_linear_12_4133" x1="41.7686" y1="-18.7498" x2="32.0305" y2="110.717" gradientUnits="userSpaceOnUse">
<stop stop-color="#21D1FF"/>
<stop offset="1" stop-color="#993CFE"/>
</linearGradient>
<linearGradient id="paint20_linear_12_4133" x1="39.9374" y1="-18.8886" x2="30.1992" y2="110.58" gradientUnits="userSpaceOnUse">
<stop stop-color="#21D1FF"/>
<stop offset="1" stop-color="#993CFE"/>
</linearGradient>
<linearGradient id="paint21_linear_12_4133" x1="39.9374" y1="-18.8882" x2="30.1992" y2="110.58" gradientUnits="userSpaceOnUse">
<stop stop-color="#21D1FF"/>
<stop offset="1" stop-color="#993CFE"/>
</linearGradient>
<linearGradient id="paint22_linear_12_4133" x1="17.8979" y1="-20.5389" x2="8.1605" y2="108.917" gradientUnits="userSpaceOnUse">
<stop stop-color="#21D1FF"/>
<stop offset="1" stop-color="#993CFE"/>
</linearGradient>
<linearGradient id="paint23_linear_12_4133" x1="47.2994" y1="-18.3343" x2="37.5611" y2="111.134" gradientUnits="userSpaceOnUse">
<stop stop-color="#21D1FF"/>
<stop offset="1" stop-color="#993CFE"/>
</linearGradient>
<linearGradient id="paint24_linear_12_4133" x1="20.8766" y1="-20.3143" x2="11.1392" y2="109.143" gradientUnits="userSpaceOnUse">
<stop stop-color="#21D1FF"/>
<stop offset="1" stop-color="#993CFE"/>
</linearGradient>
<linearGradient id="paint25_linear_12_4133" x1="42.0169" y1="-18.7277" x2="32.2792" y2="110.733" gradientUnits="userSpaceOnUse">
<stop stop-color="#21D1FF"/>
<stop offset="1" stop-color="#993CFE"/>
</linearGradient>
<linearGradient id="paint26_linear_12_4133" x1="23.8653" y1="-20.1007" x2="14.1267" y2="109.372" gradientUnits="userSpaceOnUse">
<stop stop-color="#21D1FF"/>
<stop offset="1" stop-color="#993CFE"/>
</linearGradient>
</defs>
</svg>
